<?xml version="1.0" standalone="no"?>
<!DOCTYPE svg PUBLIC "-//W3C//DTD SVG 20010904//EN"
 "http://www.w3.org/TR/2001/REC-SVG-20010904/DTD/svg10.dtd">
<svg version="1.0" xmlns="http://www.w3.org/2000/svg"
 width="8542.000000pt" height="8542.000000pt" viewBox="0 0 8542.000000 8542.000000"
 preserveAspectRatio="xMidYMid meet">

<g transform="translate(0.000000,8542.000000) scale(0.100000,-0.100000)"
fill="#000000" stroke="none">
<path d="M8315 74669 c-4609 -7 -6274 -16 -6678 -39 -161 -9 -189 -14 -287
-45 -139 -45 -359 -156 -480 -242 -120 -86 -275 -242 -363 -364 -81 -113 -193
-334 -242 -479 -26 -76 -39 -134 -45 -210 -47 -527 -54 -4856 -55 -31130 0
-23368 5 -27861 35 -29355 12 -595 21 -725 56 -838 61 -192 166 -398 280 -550
85 -113 254 -273 372 -351 119 -79 311 -172 455 -221 96 -33 125 -37 265 -46
777 -46 9100 -53 48354 -41 l33917 11 185 77 c102 42 226 99 276 128 306 175
550 435 705 751 84 170 122 296 135 445 49 592 55 3696 55 30550 0 26843 -6
29927 -55 30545 -13 160 -42 254 -140 450 -84 168 -173 296 -298 426 -205 214
-365 318 -712 462 l-156 64 -35359 4 c-19448 3 -37547 2 -40220 -2z m73435
-8694 l0 -5205 -39040 0 -39040 0 0 5205 0 5205 39040 0 39040 0 0 -5205z m0
-30220 l0 -21505 -39040 0 -39040 0 0 21505 0 21505 39040 0 39040 0 0 -21505z"/>
<path d="M13525 67760 c-360 -15 -505 -36 -684 -97 -275 -93 -488 -229 -696
-444 -115 -118 -173 -192 -247 -311 -185 -298 -278 -677 -248 -1017 37 -442
220 -817 551 -1135 138 -133 251 -215 394 -286 263 -131 507 -180 992 -201
283 -12 694 0 889 26 196 26 404 90 575 175 376 189 698 578 848 1026 70 210
85 301 85 524 0 179 -2 205 -28 313 -124 531 -413 938 -843 1190 -155 91 -396
180 -558 206 -191 31 -691 46 -1030 31z"/>
<path d="M27905 67764 c-328 -17 -499 -39 -642 -85 -512 -164 -917 -552 -1106
-1059 -81 -217 -112 -409 -104 -655 8 -276 59 -482 183 -730 81 -164 170 -290
304 -428 168 -175 346 -302 550 -392 180 -80 291 -105 570 -126 219 -17 993
-18 1140 -1 429 49 711 167 982 409 397 354 588 781 588 1310 0 608 -272 1129
-759 1455 -258 173 -516 258 -866 288 -123 11 -714 20 -840 14z"/>
<path d="M20490 67749 c-152 -11 -253 -27 -355 -54 -640 -173 -1118 -696
-1259 -1378 -71 -340 -21 -691 149 -1045 267 -555 728 -893 1335 -977 254 -35
765 -42 1110 -14 553 44 867 178 1199 510 306 308 473 663 512 1093 20 215
-10 457 -86 683 -143 427 -476 805 -890 1009 -219 107 -401 152 -705 174 -166
11 -853 11 -1010 -1z"/>
<path d="M57355 54787 c-198 -83 -260 -113 -354 -169 -425 -255 -699 -637
-811 -1133 -32 -138 -38 -388 -50 -1870 -13 -1726 -13 -9292 0 -11015 12
-1464 19 -1739 49 -1870 99 -434 330 -797 669 -1052 125 -94 195 -136 414
-243 l172 -85 7393 0 7392 0 208 104 c114 58 249 133 300 168 294 202 488 437
658 793 l85 180 0 7513 0 7514 -100 196 c-115 226 -188 333 -330 485 -186 196
-364 323 -635 449 l-140 65 -5910 6 c-3251 4 -6578 9 -7395 13 l-1485 5 -130
-54z m12685 -8682 l0 -5265 -5205 0 -5205 0 0 5265 0 5265 5205 0 5205 0 0
-5265z"/>
<path d="M14035 54820 c-846 -9 -1143 -20 -1222 -46 -79 -26 -242 -110 -338
-173 -294 -194 -539 -465 -675 -744 -140 -289 -155 -528 -170 -2722 -19 -2720
-5 -10556 20 -11805 11 -547 14 -573 85 -788 47 -143 159 -365 242 -481 84
-116 229 -270 337 -357 118 -95 238 -166 447 -266 l185 -89 7105 -2 c7282 -2
7369 -2 7604 34 166 26 415 130 590 248 122 81 259 203 342 303 102 122 241
321 274 392 38 81 65 206 83 391 54 531 58 1061 53 8025 -4 6381 -5 6554 -42
6802 -35 238 -205 550 -424 780 -192 202 -366 319 -686 461 l-80 35 -6465 5
c-3556 2 -6825 1 -7265 -3z m11505 -8715 l0 -5265 -5205 0 -5205 0 0 5265 0
5265 5205 0 5205 0 0 -5265z"/>
<path d="M36285 54820 c-894 -9 -1140 -19 -1231 -50 -144 -50 -352 -172 -507
-298 -99 -81 -270 -262 -340 -360 -84 -117 -159 -268 -207 -417 -73 -225 -80
-270 -90 -573 -28 -834 -46 -6854 -31 -10582 12 -2845 21 -3610 46 -3749 87
-492 362 -910 778 -1184 47 -31 177 -102 289 -157 l203 -101 7100 -2 c7395 -2
7399 -2 7629 38 164 29 388 123 559 234 101 67 240 184 320 272 78 85 262 340
299 414 65 128 94 313 118 742 28 518 31 1481 27 7663 -4 6301 -6 6576 -38
6815 -27 201 -167 490 -339 700 -62 76 -207 219 -280 277 -118 94 -279 185
-495 281 l-80 35 -6465 5 c-3556 2 -6825 1 -7265 -3z m11505 -8715 l0 -5265
-5205 0 -5205 0 0 5265 0 5265 5205 0 5205 0 0 -5265z"/>
<path d="M14210 32900 c-487 -4 -976 -13 -1086 -19 -184 -10 -209 -13 -290
-42 -103 -36 -269 -113 -357 -166 -150 -89 -352 -265 -458 -398 -107 -135
-209 -320 -269 -490 -273 -778 39 -1652 745 -2085 39 -24 153 -83 254 -132
l183 -88 7403 0 7403 0 189 94 c103 51 235 125 293 164 277 186 492 436 639
743 117 244 125 290 119 767 -5 382 -7 398 -77 564 -149 354 -366 624 -662
823 -52 36 -188 110 -301 164 l-206 100 -6318 5 c-3476 2 -6717 1 -7204 -4z"/>
<path d="M36590 32900 c-487 -4 -976 -13 -1088 -19 -233 -12 -275 -23 -472
-117 -384 -184 -685 -498 -864 -900 -97 -218 -111 -328 -103 -764 7 -370 19
-425 148 -682 92 -183 196 -325 348 -470 162 -157 316 -259 587 -389 l165 -79
7400 0 7399 0 193 94 c105 52 233 121 282 153 468 307 757 798 794 1350 36
539 -176 1066 -569 1410 -132 115 -275 206 -497 313 l-203 99 -6318 5 c-3474
2 -6715 1 -7202 -4z"/>
<path d="M58960 32900 c-487 -4 -976 -13 -1086 -19 -184 -10 -209 -13 -290
-42 -275 -96 -556 -285 -742 -499 -164 -189 -313 -458 -375 -675 -18 -62 -21
-109 -25 -417 -6 -477 1 -523 119 -768 148 -308 374 -568 654 -753 50 -33 175
-102 278 -153 l189 -94 7403 0 7403 0 194 93 c215 104 363 199 483 308 354
322 563 731 606 1188 32 340 -91 800 -297 1106 -173 258 -389 431 -774 619
l-215 105 -6320 5 c-3476 2 -6718 1 -7205 -4z"/>
<path d="M13840 26480 c-344 -5 -693 -13 -776 -19 -137 -9 -162 -14 -250 -47
-486 -181 -887 -581 -1067 -1064 -117 -315 -136 -592 -61 -930 81 -365 220
-628 453 -860 171 -170 268 -236 556 -380 l240 -120 7397 0 7398 0 192 93
c293 142 418 226 583 392 152 153 266 319 360 524 109 239 118 300 113 767 -4
308 -7 346 -26 417 -30 109 -139 330 -227 462 -199 298 -416 480 -799 673
l-191 96 -6635 2 c-3649 1 -6916 -2 -7260 -6z"/>
<path d="M35830 26480 c-455 -12 -541 -24 -708 -94 -217 -92 -432 -237 -603
-406 -150 -149 -271 -334 -368 -562 -75 -177 -90 -284 -91 -648 0 -386 17
-486 127 -720 95 -201 213 -368 370 -521 166 -163 292 -246 578 -383 l181 -86
7404 2 7405 3 195 97 c373 185 573 348 767 625 70 99 173 310 212 434 211 671
15 1394 -503 1851 -131 116 -277 209 -496 316 l-195 96 -7005 2 c-3853 1
-7124 -2 -7270 -6z"/>
<path d="M58475 26480 c-632 -10 -777 -20 -896 -60 -327 -109 -678 -394 -902
-731 -68 -103 -146 -258 -181 -362 -125 -363 -100 -879 59 -1260 125 -296 380
-589 676 -776 37 -23 155 -84 263 -136 l196 -95 7398 0 7397 0 240 120 c288
144 385 210 556 380 234 233 371 494 454 864 68 304 54 571 -45 866 -87 260
-242 510 -438 707 -163 164 -308 263 -580 395 l-187 91 -6755 3 c-3715 1
-6980 -2 -7255 -6z"/>
</g>
</svg>
