<?xml version="1.0" standalone="no"?>
<!DOCTYPE svg PUBLIC "-//W3C//DTD SVG 1.1//EN" "http://www.w3.org/Graphics/SVG/1.1/DTD/svg11.dtd" >
<svg xmlns="http://www.w3.org/2000/svg" xmlns:xlink="http://www.w3.org/1999/xlink" version="1.1">
<metadata>
Created by FontForge 20170924 at Wed Feb 26 20:39:11 2014
 By www-data
Copyright (c) 2013 by Parachute Worldwide. All rights reserved.
</metadata>
<defs>
<font id="PFDasGroteskPro-BoldItalic" horiz-adv-x="554" >
  <font-face 
    font-family="PF Das Grotesk Pro"
    font-weight="700"
    font-style="italic"
    font-stretch="normal"
    units-per-em="1000"
    panose-1="2 0 8 6 0 0 0 9 0 4"
    ascent="800"
    descent="-200"
    x-height="520"
    cap-height="718"
    bbox="-310 -300 1250 988"
    underline-thickness="70"
    underline-position="-260"
    unicode-range="U+0020-FB05"
  />
<missing-glyph horiz-adv-x="453" 
d="M464 0h-453v700h453v-700zM237 278l-110 -200h221zM126 621l111 -198l111 198h-222zM193 350l-104 192v-382zM385 541l-104 -191l104 -190v381z" />
    <glyph glyph-name="fj" unicode="fj" horiz-adv-x="563" 
d="M257 -191q-8 23 -37 111h8q66 0 93 38.5t37 127.5l52 334h-149l-72 -420h-142l75 420h-75l18 100h74l4 23q22 93 63 148q53 71 175 71q89 0 155 -29l-16 -112q-61 24 -125 24q-65 0 -86 -34q-12 -20 -16 -29q-4 -11 -9 -35l-5 -27h288l-62 -407q-25 -153 -72 -223
q-53 -80 -176 -81z" />
    <glyph glyph-name="ffj" unicode="ffj" horiz-adv-x="854" 
d="M704 420h-149l-72 -420h-142l74 420h-154l-72 -420h-142l74 420h-75l18 100h75q18 115 61 173t143 58q39 0 92 -12l-12 -114q-48 14 -60 14q-36 0 -53 -17t-25 -65l-6 -37h154l6 35q19 73 47 119q59 94 190 94q85 0 155 -29q-5 -30 -16 -112q-60 25 -125 25
q-61 0 -85 -33q-20 -27 -25 -60l-7 -39h288l-62 -407q-25 -153 -72 -223q-53 -80 -176 -81l-38 111h8q63 0 89 33q27 35 37 103z" />
    <glyph glyph-name="ff" unicode="ff" horiz-adv-x="627" 
d="M582 592l-12 -72h106l-18 -100h-108l-79 -504l-146 -20l87 524h-149l-103 -597l-146 -20l109 617h-75l19 100h74q19 127 67 181q48 52 137 52q41 0 92 -12l-12 -115q-44 14 -67 14q-37 0 -51 -23q-12 -20 -26 -97h149l11 70q15 95 64 138t132 43q45 0 92 -12l-12 -114
q-44 14 -66 14q-59 0 -69 -67z" />
    <glyph glyph-name="fi" unicode="fi" horiz-adv-x="559" 
d="M156 -177l-146 -20l109 617h-75l18 100h74q5 47 20 87.5t43 76.5t76.5 57t111.5 21q80 0 146 -29l-12 -122q-62 34 -128 34q-46 0 -77 -23q-11 -8 -20 -27q-10 -23 -16 -54l-3 -21h285l-88 -520h-140l72 420h-147z" />
    <glyph glyph-name="fl" unicode="fl" horiz-adv-x="566" 
d="M361 420h-100q-5 -32 -102 -597l-146 -20l108 617h-75l18 100h75q11 95 59 162q59 80 183 80q81 0 142 -24q6 2 88 9l-127 -747h-142l109 639q-29 6 -56 6q-65 0 -87 -34q-17 -27 -24 -64l-5 -27h100z" />
    <glyph glyph-name="ffi" unicode="ffi" horiz-adv-x="852" 
d="M322 -104l90 524h-153l-103 -597l-146 -20l110 617h-76l18 100h75q16 126 65 178q50 51 139 51q39 0 92 -12l-13 -114q-39 14 -66 14q-28 0 -44.5 -15.5t-23.5 -52.5l-9 -49h153l6 33q10 91 72 153q62 61 165 61q91 0 155 -29l-11 -117q-56 29 -130 29q-65 0 -88 -36
q-13 -23 -16 -31q-5 -12 -9 -36q-3 -25 -4 -27h284l-85 -520h-140l71 420h-148l-84 -504z" />
    <glyph glyph-name="ffl" unicode="ffl" horiz-adv-x="857" 
d="M670 520l-18 -100h-100l-84 -504l-146 -20l90 524h-151l-103 -597l-146 -20l109 617h-75l18 100h75l7 42q17 100 65 143.5t131 43.5q47 0 92 -12l-12 -114q-39 14 -66 14q-36 0 -50 -21t-27 -96h151l6 31q18 91 62 147q54 70 175 70q77 0 143 -23q2 0 36 3l52 6
l-133 -754h-141l113 645q-28 6 -56 6q-44 0 -77 -24q-11 -8 -20 -27q-10 -25 -10 -27l-6 -30l-4 -23h100z" />
    <glyph glyph-name="ft" unicode="ft" horiz-adv-x="660" 
d="M640 119l-36 -109q-54 -23 -107 -23q-64 0 -93 29.5t-29 97.5q3 39 11 96q11 64 22 114q14 64 18 96h-161l-103 -597l-146 -20l110 617h-76l19 100h75q19 130 66 181q46 52 137 52q41 0 92 -12l-4 -55q0 -9 -4 -64q-36 17 -68 17q-34 0 -49.5 -19t-25.5 -73l-5 -27h163
q12 64 16 90l147 56l-25 -146h102l-18 -100h-102l-47 -263q-2 -10 -2 -23q0 -39 40 -39q29 0 83 24z" />
    <glyph glyph-name=".notdef" horiz-adv-x="453" 
d="M464 0h-453v700h453v-700zM237 278l-110 -200h221zM126 621l111 -198l111 198h-222zM193 350l-104 192v-382zM385 541l-104 -191l104 -190v381z" />
    <glyph glyph-name=".null" horiz-adv-x="0" 
 />
    <glyph glyph-name="nonmarkingreturn" horiz-adv-x="333" 
 />
    <glyph glyph-name="space" unicode=" " horiz-adv-x="256" 
 />
    <glyph glyph-name="exclam" unicode="!" horiz-adv-x="358" 
d="M351 733l-109 -513h-118l64 493q86 10 163 20zM172 159q30 0 49 -19t19 -48q0 -41 -28.5 -69t-68.5 -28q-31 0 -49.5 18t-18.5 47q0 38 29 69q30 30 68 30z" />
    <glyph glyph-name="quotedbl" unicode="&#x22;" horiz-adv-x="436" 
d="M451 718l-51 -289h-107l51 289h107zM273 718l-51 -289h-107l51 289h107z" />
    <glyph glyph-name="numbersign" unicode="#" 
d="M566 497l-15 -87h-95l-39 -123h84l-15 -85h-94l-63 -202h-83l62 202h-98l-61 -202h-84l62 202h-88q2 16 14 85h101l38 123h-88l16 87h99l62 195h84l-62 -195h97l62 195h83l-61 -195h82zM334 287l39 123h-97l-39 -123h97z" />
    <glyph glyph-name="dollar" unicode="$" 
d="M249 -81h-54l13 74q-86 6 -129.5 53.5t-43.5 128.5q0 28 4 47l146 30q-12 -39 -12 -67t14.5 -52t39.5 -33l18 102q14 81 19 106l-47 19q-16 6 -43 22q-28 17 -41 33q-36 44 -36 101q0 101 67 158q66 57 170 62l13 73h54l-13 -74q78 -8 122 -53.5t44 -118.5q0 -16 -3 -33
l-143 -24q8 37 8 47q0 56 -48 72l-31 -172l36 -15q20 -9 34 -16q24 -10 35 -20q39 -27 54 -55q21 -38 21 -85q0 -108 -71 -171q-70 -61 -184 -66zM376 203q0 51 -62 83l-34 -189q44 6 70 36t26 70zM237 507q0 -38 50 -64l16 89l11 65q-34 -6 -55.5 -30.5t-21.5 -59.5z" />
    <glyph glyph-name="percent" unicode="%" horiz-adv-x="937" 
d="M730 465q139 0 139 -150q0 -121 -49 -218q-25 -49 -69 -77.5t-100 -28.5q-140 0 -140 148q0 121 48 218q25 50 70 79t101 29zM626 171q-3 -19 -3 -36q0 -62 39 -62q25 0 43 24q17 22 26 50t18 82q9 49 9 84q0 69 -41 69q-39 0 -63 -69q-24 -71 -28 -142zM271 714
q140 0 140 -148q0 -122 -49 -219q-25 -50 -69 -79t-100 -29q-140 0 -140 150q0 119 48 216q26 50 70 79.5t100 29.5zM167 420q-2 -26 -2 -29q0 -68 39 -68q44 0 69 76q26 78 26 161q0 71 -40 71q-39 0 -63 -68q-23 -69 -29 -143zM676 722h93l-518 -733h-94z" />
    <glyph glyph-name="ampersand" unicode="&#x26;" horiz-adv-x="695" 
d="M392 718q63 0 98.5 -31t35.5 -85q0 -57 -38 -110q-11 -18 -43 -46q-25 -22 -48 -40l-54 -38q35 -87 106 -166q95 104 114 233l124 -34q-36 -152 -155 -273q58 -43 114 -64q-66 -56 -104 -85q-69 37 -109 70q-102 -63 -203 -63q-87 0 -138 39.5t-51 116.5q0 82 42.5 142
t127.5 115q-7 36 -7 81q0 100 48 169t140 69zM350 125q-71 80 -108 169q-72 -63 -72 -129q0 -64 79 -68q49 0 101 28zM317 496q0 -23 1 -30q86 56 86 108q0 33 -28 33q-40 0 -52 -53q-7 -43 -7 -58z" />
    <glyph glyph-name="quotesingle" unicode="'" horiz-adv-x="276" 
d="M283 718l-52 -289h-107l52 289h107z" />
    <glyph glyph-name="parenleft" unicode="(" horiz-adv-x="299" 
d="M265 718h102q-187 -305 -187 -588q0 -134 36 -270h-103q-55 174 -55 312q0 131 52 262.5t155 283.5z" />
    <glyph glyph-name="parenright" unicode=")" horiz-adv-x="299" 
d="M113 718h101q55 -171 55 -309q0 -137 -54 -269q-53 -129 -152 -280h-100q184 308 184 587q0 134 -34 271z" />
    <glyph glyph-name="asterisk" unicode="*" horiz-adv-x="462" 
d="M467 646l11 -86l-123 -36l63 -93l-85 -51l-53 100l-84 -106l-59 58l91 92l-110 38l41 83l105 -47l18 127h87l-27 -126z" />
    <glyph glyph-name="plus" unicode="+" 
d="M532 311l-18 -107h-183l-34 -190h-105l34 190h-185l19 107h184l33 191h105l-33 -191h183z" />
    <glyph glyph-name="comma" unicode="," horiz-adv-x="256" 
d="M117 160q70 0 70 -80q0 -66 -51 -134q-51 -67 -115 -100q-1 1 -31 46q26 17 52 47t39 58q-29 2 -45 19.5t-16 44.5q0 41 29 70t68 29z" />
    <glyph glyph-name="hyphen" unicode="-" horiz-adv-x="334" 
d="M324 323l-20 -108h-271l20 108h271z" />
    <glyph glyph-name="period" unicode="." horiz-adv-x="251" 
d="M118 162q30 0 49 -19t19 -48q0 -42 -29 -71.5t-69 -29.5q-30 0 -49.5 19t-19.5 49q0 40 30 70t69 30z" />
    <glyph glyph-name="slash" unicode="/" horiz-adv-x="309" 
d="M307 724h114l-372 -778h-112z" />
    <glyph glyph-name="zero" unicode="0" 
d="M363 708q104 0 150 -57.5t46 -171.5q0 -50 -12 -131q-56 -362 -306 -362q-104 0 -150.5 56.5t-46.5 167.5q0 56 14 134q23 131 64 212q79 152 241 152zM204 345q-18 -89 -18 -149q0 -105 71 -105q65 0 97 80q25 59 47 176q14 82 14 135q0 119 -68 119q-64 0 -99 -85
q-25 -66 -44 -171z" />
    <glyph glyph-name="one" unicode="1" 
d="M470 0h-428l18 102h150l81 458q-71 -48 -161 -83q-2 12 -17 95q102 52 211 128h134l-106 -598h157z" />
    <glyph glyph-name="two" unicode="2" 
d="M208 100v-2q58 5 95 5h197l-39 -103h-455l17 100q164 102 267 200q121 115 121 226q0 39 -20 59.5t-51 20.5q-52 0 -80 -46q-29 -47 -29 -104q0 -13 1 -16l-137 29q21 114 90 177t172 63q92 0 145.5 -43.5t53.5 -124.5q0 -111 -103 -232q-100 -119 -245 -209z" />
    <glyph glyph-name="three" unicode="3" 
d="M360 708q90 0 144 -39.5t54 -113.5q0 -68 -46 -118t-105 -64v-3q49 -8 78 -46t29 -95q0 -113 -83 -178t-196 -65q-98 0 -153 42t-58 117q0 23 2 43l157 23q-12 -23 -12 -44q0 -33 20.5 -54.5t56.5 -21.5q51 0 85.5 37.5t34.5 96.5q0 90 -106 90h-36l18 100h40
q55 0 91.5 33t36.5 88q0 30 -20.5 47t-54.5 17q-43 0 -70.5 -27t-27.5 -71q0 -2 0.5 -7t0.5 -7q-54 9 -141 28q22 91 88.5 141.5t172.5 50.5z" />
    <glyph glyph-name="four" unicode="4" 
d="M540 253l-20 -113h-86l-25 -140h-139l24 140h-287l20 113l374 457l130 -15l-78 -442h87zM216 253h98l29 162q7 38 20 86h-2l-57 -76l-98 -121q-28 -32 -51 -54q26 3 61 3z" />
    <glyph glyph-name="five" unicode="5" 
d="M76 329l85 364h416l-38 -105h-279l-42 -172l2 -2q59 59 146 59q77 0 118 -45t41 -127q0 -141 -80 -229q-80 -86 -211 -86q-96 0 -148.5 43.5t-52.5 120.5q0 13 4 38l155 22q-11 -31 -11 -53q0 -29 18.5 -46.5t49.5 -17.5q62 0 95 54q33 55 33 124q0 95 -81 95
q-70 0 -109 -76z" />
    <glyph glyph-name="six" unicode="6" 
d="M529 236q-21 -116 -95 -183t-189 -67q-107 0 -154.5 56.5t-47.5 168.5q0 48 11 116q66 381 325 381q84 0 132 -38t48 -104q0 -3 -2 -27q-112 -21 -145 -28q4 12 4 26q0 62 -58 62q-110 0 -150 -220l2 -2q60 83 162 83q77 0 120 -42t43 -119q0 -30 -6 -63zM309 351
q-58 0 -91 -50q-33 -49 -33 -123q0 -41 20 -64t57 -23q52 0 88 47q37 46 37 120q0 93 -78 93z" />
    <glyph glyph-name="seven" unicode="7" 
d="M593 693l-19 -104l-366 -589h-143l328 526q22 39 48 67q-19 -4 -85 -4h-245l36 104h446z" />
    <glyph glyph-name="eight" unicode="8" 
d="M378 201q2 26 2 30q-2 39 -24 61.5t-60 22.5q-52 0 -88 -41q-35 -41 -35 -102q0 -37 22.5 -59t61.5 -22q45 0 78.5 31t42.5 79zM187 368v2q-77 32 -77 119q0 99 75 159t179 60q89 0 141.5 -40.5t52.5 -111.5q0 -62 -37.5 -112.5t-98.5 -74.5q102 -31 102 -139
q0 -107 -82 -176q-82 -68 -203 -68q-98 0 -156 45t-58 122q0 78 46 136q47 60 116 79zM349 608q-48 0 -76 -37t-28 -86q5 -67 71 -67q44 0 74 35t30 89q-2 31 -20.5 48.5t-50.5 17.5z" />
    <glyph glyph-name="nine" unicode="9" 
d="M226 -14q-89 0 -137 38t-48 109q0 16 3 34l147 28q-5 -17 -5 -31q0 -70 74 -70q102 0 136 222q-1 0 -2 1q-58 -81 -162 -81q-76 0 -119 42.5t-43 120.5q0 135 81 222t207 87q202 0 203 -213q0 -57 -11 -132q-25 -169 -97 -269q-75 -108 -227 -108zM220 472q-3 -22 -3 -41
q0 -41 20 -63.5t58 -22.5q57 0 90 48q34 47 34 118q0 43 -20 66.5t-58 23.5q-46 0 -78 -34.5t-43 -94.5z" />
    <glyph glyph-name="colon" unicode=":" horiz-adv-x="257" 
d="M121 162q31 0 49.5 -19t18.5 -48q0 -42 -29 -71.5t-69 -29.5q-31 0 -50 19t-19 49q0 40 30 70t69 30zM180 501q31 0 50.5 -20t19.5 -50q0 -41 -30 -69q-31 -29 -69 -29q-30 0 -49.5 19.5t-19.5 48.5q0 40 30 70t68 30z" />
    <glyph glyph-name="semicolon" unicode=";" horiz-adv-x="261" 
d="M184 501q31 0 50 -19.5t19 -49.5q0 -40 -29.5 -70t-69.5 -30q-30 0 -49 19.5t-19 49.5q0 39 30 69q30 31 68 31zM122 160q70 0 70 -79q0 -67 -51 -134q-51 -68 -116 -101l-30 46q27 17 53 47.5t38 57.5q-29 2 -45 19.5t-16 43.5q0 42 28.5 71t68.5 29z" />
    <glyph glyph-name="semicolon" unicode="&#x37e;" horiz-adv-x="261" 
d="M184 501q31 0 50 -19.5t19 -49.5q0 -40 -29.5 -70t-69.5 -30q-30 0 -49 19.5t-19 49.5q0 39 30 69q30 31 68 31zM122 160q70 0 70 -79q0 -67 -51 -134q-51 -68 -116 -101l-30 46q27 17 53 47.5t38 57.5q-29 2 -45 19.5t-16 43.5q0 42 28.5 71t68.5 29z" />
    <glyph glyph-name="less" unicode="&#x3c;" 
d="M459 87l-20 -105l-377 219q0 1 6 36t11 64l456 219l-21 -116l-328 -158l37 -20z" />
    <glyph glyph-name="equal" unicode="=" 
d="M549 408l-18 -108h-473l19 108h472zM513 201l-19 -107h-472l19 107h472z" />
    <glyph glyph-name="greater" unicode="&#x3e;" 
d="M496 301l-18 -100l-455 -219q14 88 19 115l277 135l53 24l-274 157q3 17 20 107z" />
    <glyph glyph-name="question" unicode="?" horiz-adv-x="497" 
d="M336 733q92 0 144.5 -40t52.5 -115q0 -74 -42 -127q-15 -19 -43 -47q-14 -14 -58 -51q-38 -33 -47 -42q-34 -32 -41 -77l-4 -26h-125l5 30q8 45 26 74q22 35 64 76l42 40l37 39q22 30 26 43q10 26 10 46q0 34 -20 50.5t-52 16.5q-48 0 -77 -37t-29 -92l-129 29
q24 98 93.5 154t166.5 56zM225 157q31 0 50 -19.5t19 -48.5q0 -39 -30 -69q-29 -29 -67 -29q-30 0 -49 19.5t-19 47.5q0 40 29 69q30 30 67 30z" />
    <glyph glyph-name="at" unicode="@" horiz-adv-x="919" 
d="M535 329q6 32 6 55q0 78 -55 78q-44 0 -72 -56t-28 -147q3 -63 53 -63q74 0 96 133zM470 542q36 0 60 -16.5t31 -42.5h3l12 49h106q-13 -50 -22 -99l-34 -195q-1 -1 -1 -12q0 -35 43 -35q49 0 89 60q41 61 41 159q0 107 -66.5 169t-186.5 62q-158 0 -271 -119
q-111 -118 -111 -283q2 -110 66.5 -174t178.5 -64q95 0 170 33q-12 -45 -13 -48l-8 -37q-76 -32 -155 -32q-152 0 -241 87q-89 89 -89 232q0 136 68 249q67 114 179 177t241 63q153 0 242 -83q90 -82 90 -215q0 -151 -75 -239t-170 -88q-45 0 -80.5 21t-43.5 62h-3
q-19 -31 -54.5 -50.5t-74.5 -19.5q-117 0 -117 148q0 127 55 203q55 78 141 78z" />
    <glyph glyph-name="A" unicode="A" horiz-adv-x="646" 
d="M501 718l100 -718h-151l-17 155h-241l-73 -155h-144l350 718h176zM244 271h177l-18 175l-11 145h-3q-79 -184 -145 -320z" />
    <glyph glyph-name="B" unicode="B" horiz-adv-x="608" 
d="M21 0l126 718h260q88 0 141 -39t53 -115q0 -69 -40 -119t-102 -65v-2q108 -29 108 -147q0 -75 -42 -131q-76 -100 -220 -100h-284zM359 602h-85l-31 -173h81q55 0 89 25.5t34 75.5q0 38 -21 55t-67 17zM319 315h-95l-36 -201h94q62 0 98.5 32t36.5 92q0 38 -26 57.5
t-72 19.5z" />
    <glyph glyph-name="C" unicode="C" horiz-adv-x="622" 
d="M458 733q111 0 166.5 -60.5t38.5 -161.5l-157 -23q22 54 2 92.5t-75 38.5q-70 0 -112.5 -65t-64.5 -195q-28 -125 -8 -192t93 -67q66 0 99 52t33 122l149 -48q-27 -117 -102 -179.5t-195 -62.5q-148 0 -201.5 94.5t-20.5 282.5q65 372 355 372z" />
    <glyph glyph-name="D" unicode="D" horiz-adv-x="650" 
d="M21 0l126 718h207q328 0 279 -361q-24 -183 -120 -270t-268 -87h-224zM330 604h-56l-86 -489h68q100 0 153 59.5t74 187.5q19 127 -17 184.5t-136 57.5z" />
    <glyph glyph-name="E" unicode="E" horiz-adv-x="538" 
d="M496 116l-19 -116h-456l126 718h436l-50 -116h-259l-30 -172h253l-20 -115h-253l-35 -199h307z" />
    <glyph glyph-name="F" unicode="F" horiz-adv-x="508" 
d="M585 718l-51 -116h-260l-33 -183h254l-21 -115h-252l-53 -304h-148l126 718h438z" />
    <glyph glyph-name="G" unicode="G" horiz-adv-x="645" 
d="M432 732q101 -1 153.5 -48t52.5 -133q0 -25 -4 -40l-155 -24q10 27 10 53q0 35 -21.5 56t-60.5 21q-138 0 -185 -260q-11 -61 -11 -110q0 -148 103 -148q63 0 104 53q42 55 43 122h-107l9 54q6 30 10 56h253q-11 -184 -87 -290q-77 -107 -237 -107q-243 0 -243 251
q0 52 12 121q64 373 361 373z" />
    <glyph glyph-name="H" unicode="H" horiz-adv-x="633" 
d="M668 718l-126 -718h-147l55 315h-226l-55 -315h-147l126 718h147l-51 -285h226l51 285h147z" />
    <glyph glyph-name="I" unicode="I" horiz-adv-x="276" 
d="M303 718l-126 -718h-148l126 718h148z" />
    <glyph glyph-name="J" unicode="J" horiz-adv-x="534" 
d="M217 98q52 0 79 35t39 103l85 482h148l-85 -479q-24 -129 -89 -191t-183 -62q-94 0 -148 45.5t-54 130.5q0 23 4 40q106 16 147 23q-9 -25 -9 -44q0 -83 66 -83z" />
    <glyph glyph-name="K" unicode="K" horiz-adv-x="617" 
d="M380 383l199 -383h-176l-171 353l-62 -353h-148l126 718h147l-51 -295h1l255 295h190z" />
    <glyph glyph-name="L" unicode="L" horiz-adv-x="513" 
d="M487 116l-49 -116h-416l126 718h147l-106 -602h298z" />
    <glyph glyph-name="M" unicode="M" horiz-adv-x="796" 
d="M830 718l-126 -718h-146l57 326q9 50 22 105l-3 2l-20 -35q-14 -26 -24 -42l-50 -83l-100 -163h-118l-35 131l-23 95q-12 50 -21 96h-5q-5 -27 -28 -180l-45 -252h-144l126 718h149l71 -294l16 -73l20 -94h4q13 29 57 105q26 40 119 199l92 157h155z" />
    <glyph glyph-name="N" unicode="N" horiz-adv-x="657" 
d="M693 718l-126 -718h-145l-141 378q-17 44 -35 106h-2q-6 -66 -16 -114l-64 -370h-143l126 718h146l133 -358l41 -123l2 1q3 24 19 128l60 352h145z" />
    <glyph glyph-name="O" unicode="O" horiz-adv-x="678" 
d="M429 732q125 0 183 -67.5t58 -200.5q0 -43 -8 -105q-57 -373 -360 -373q-125 0 -183.5 65.5t-58.5 194.5q0 45 11 113q61 373 358 373zM508 358q13 68 13 120q0 141 -109 141q-76 0 -120 -64.5t-68 -195.5q-13 -68 -13 -117q0 -143 108 -143q75 0 121 64t68 195z" />
    <glyph glyph-name="P" unicode="P" horiz-adv-x="572" 
d="M21 0l126 718h230q103 0 162 -51.5t59 -146.5q0 -128 -89 -202q-89 -72 -233 -72h-66q-12 -77 -41 -246h-148zM342 602h-69l-42 -240h62q65 0 109 35t44 118q0 87 -104 87z" />
    <glyph glyph-name="Q" unicode="Q" horiz-adv-x="677" 
d="M432 732q124 0 181 -65.5t57 -194.5q0 -161 -51.5 -275.5t-146.5 -168.5q9 -4 131 -45l-65 -110l-236 115h-13q-118 3 -174 66t-56 186q0 47 12 119q65 373 361 373zM508 358q13 68 13 120q0 141 -109 141q-76 0 -120 -64.5t-68 -195.5q-13 -68 -13 -117q0 -143 108 -143
q75 0 121 64t68 195z" />
    <glyph glyph-name="R" unicode="R" horiz-adv-x="607" 
d="M430 300l113 -300h-161l-94 278h-72l-47 -278h-148l126 718h246q101 0 159 -48.5t58 -140.5q0 -90 -48 -150t-132 -79zM358 602h-85l-36 -208h87q61 0 98 32t37 93q0 83 -101 83z" />
    <glyph glyph-name="S" unicode="S" horiz-adv-x="584" 
d="M376 732q97 0 156 -50q60 -50 60 -134q0 -2 -2 -34l-158 -25q9 31 9 50q0 81 -87 81q-40 0 -69.5 -27.5t-29.5 -66.5q0 -17 7.5 -30t25 -24t32 -17.5t42.5 -18t43 -18.5q69 -29 109.5 -71t41.5 -114q0 -118 -83 -183q-82 -64 -209 -64q-112 0 -170 53t-58 147q0 18 4 43
l161 33q-14 -45 -14 -73q0 -77 96 -77q56 0 85 26t29 70q0 35 -30.5 60t-74.5 42.5t-88 37.5t-74.5 57t-30.5 90q0 111 80 174q79 63 197 63z" />
    <glyph glyph-name="T" unicode="T" horiz-adv-x="549" 
d="M633 718l-52 -116h-167l-106 -602h-146l106 602h-182l20 116h527z" />
    <glyph glyph-name="U" unicode="U" horiz-adv-x="647" 
d="M683 718l-83 -472q-48 -260 -307 -260q-115 0 -175 51.5t-60 150.5q0 32 6 70l81 460h147l-41 -236q-29 -168 -42 -238q-3 -16 -3 -41q0 -48 24 -75t69 -27q62 0 101 38t51 105l84 474h148z" />
    <glyph glyph-name="V" unicode="V" horiz-adv-x="611" 
d="M696 718l-336 -718h-176l-88 718h145l9 -109l13 -128l11 -108l18 -230l105 244l146 331h153z" />
    <glyph glyph-name="W" unicode="W" horiz-adv-x="915" 
d="M511 496h-4q-10 -31 -38 -101q-21 -52 -152 -395h-183l-39 718h151q10 -414 10 -496q0 -4 -2 -78h4q27 84 57 159l161 415h141l18 -404v-73q1 -35 1 -97h4q24 76 64 183l144 391h150l-290 -718h-180l-15 352q-4 122 -2 144z" />
    <glyph glyph-name="X" unicode="X" horiz-adv-x="612" 
d="M336 226l-10 40h-4q-12 -22 -51 -77l-134 -189h-171l278 363l-136 355h161l54 -162q13 -32 24 -83h5l54 82l115 163h169l-264 -340l150 -378h-164l-64 189q-3 7 -12 37z" />
    <glyph glyph-name="Y" unicode="Y" horiz-adv-x="591" 
d="M515 718h163l-295 -440l-49 -278h-147l48 277l-140 441h162l48 -210q12 -54 20 -118l2 1q26 59 62 115z" />
    <glyph glyph-name="Z" unicode="Z" horiz-adv-x="540" 
d="M499 116l-20 -116h-488l19 112l371 437q30 37 54 58q-50 -5 -82 -5h-242l46 116h440l-22 -123l-340 -405q-1 -1 -9 -10t-26 -28.5t-38 -40.5q42 5 81 5h256z" />
    <glyph glyph-name="bracketleft" unicode="[" horiz-adv-x="307" 
d="M247 -45l-16 -95h-222l151 858h222l-16 -90h-99l-119 -673h99z" />
    <glyph glyph-name="backslash" unicode="\" horiz-adv-x="298" 
d="M164 724l142 -730h-116l-142 730h116z" />
    <glyph glyph-name="bracketright" unicode="]" horiz-adv-x="307" 
d="M330 718l-151 -858h-221l16 94h99l119 673h-99l16 91h221z" />
    <glyph glyph-name="asciicircum" unicode="^" 
d="M413 694l124 -403h-98l-91 302l-197 -302h-101l264 403h99z" />
    <glyph glyph-name="underscore" unicode="_" horiz-adv-x="490" 
d="M442 -71l-12 -69h-489l12 69h489z" />
    <glyph glyph-name="grave" unicode="`" horiz-adv-x="516" 
d="M320 756l76 -168h-78l-133 168h135z" />
    <glyph glyph-name="a" unicode="a" horiz-adv-x="556" 
d="M288 533q44 0 73.5 -21t39.5 -55h2q1 6 16 63h138q-13 -45 -30 -142l-42 -235q-11 -54 27 -54q11 0 20 4l-14 -42l-16 -48q-40 -17 -78 -17q-39 0 -61 19.5t-22 57.5h-3q-59 -77 -158 -77q-146 0 -146 186q0 160 71 261q72 100 183 100zM368 261q8 48 8 76q0 92 -70 92
q-47 0 -75.5 -41t-43.5 -127q-9 -50 -9 -85q0 -86 66 -86q96 0 124 171z" />
    <glyph glyph-name="b" unicode="b" horiz-adv-x="543" 
d="M520 261q-21 -132 -82 -203.5t-156 -71.5q-46 0 -79 21t-42 55h-2l-15 -62h-140q11 36 26 119l108 610l144 21l-50 -283l1 -1h2q62 68 143 68q150 0 150 -175q0 -39 -8 -98zM316 429q-53 0 -92 -65q-38 -65 -38 -172q0 -53 16 -77.5t54 -24.5q50 0 77.5 40.5t42.5 129.5
q8 51 8 80q0 89 -68 89z" />
    <glyph glyph-name="c" unicode="c" horiz-adv-x="494" 
d="M354 212l133 -35q-19 -88 -83 -139.5t-155 -51.5q-116 0 -162 70t-22 204q22 128 93.5 201t179.5 73q91 0 137 -51.5t30 -137.5l-139 -19q27 104 -44 104q-40 0 -70 -45t-43 -121q-29 -174 60 -174q35 0 58.5 32t26.5 90z" />
    <glyph glyph-name="d" unicode="d" horiz-adv-x="545" 
d="M471 0h-142q1 39 6 65q-55 -79 -152 -79q-150 0 -150 175q0 163 67 267q67 106 179 106q85 0 123 -69l48 265l143 20l-101 -582q-14 -68 -21 -168zM306 429q-47 0 -75.5 -41.5t-44.5 -127.5q-8 -48 -8 -75q0 -49 16 -72t52 -23q58 0 94 68t36 181q-3 90 -70 90z" />
    <glyph glyph-name="e" unicode="e" horiz-adv-x="505" 
d="M237 86q35 0 56.5 26t23.5 70q102 -29 129 -37q-57 -159 -223 -159q-192 0 -192 199q0 118 62 227q33 56 91 89t130 33q81 0 126.5 -35.5t45.5 -103.5q0 -81 -83.5 -128.5t-228.5 -50.5q-3 -16 -3 -39q0 -38 17 -64.5t49 -26.5zM297 432q-34 0 -63 -34.5t-42 -91.5
q156 4 156 81q0 20 -14 32.5t-37 12.5z" />
    <glyph glyph-name="f" unicode="f" horiz-adv-x="342" 
d="M389 520l-17 -100h-107l-103 -597l-146 -20l110 617h-76l19 100h75q19 130 66 181q46 52 137 52q41 0 92 -12l-4 -55q0 -9 -4 -64q-36 17 -68 17q-34 0 -49.5 -19t-25.5 -73l-5 -27h106z" />
    <glyph glyph-name="g" unicode="g" horiz-adv-x="543" 
d="M338 88h-4q-60 -68 -144 -68q-153 0 -153 166q0 148 68 248q67 100 181 100q44 0 75 -22t41 -58q8 38 19 65h136q-20 -87 -26 -131l-59 -336q-21 -120 -88.5 -183t-174.5 -63q-102 0 -152.5 37.5t-57.5 118.5l146 30q-2 -8 -2 -16q0 -64 62 -64q54 0 86 34q13 12 23 41
q8 21 14 46q3 13 10 55zM307 429q-55 0 -90 -65t-35 -150q0 -89 71 -89q54 0 89 57.5t35 150.5q0 96 -70 96z" />
    <glyph glyph-name="h" unicode="h" horiz-adv-x="532" 
d="M513 367l-64 -367h-141l60 338q7 44 -7.5 68.5t-50.5 24.5q-42 0 -68 -30.5t-35 -77.5l-56 -323h-141l129 731l143 20l-51 -292h1q58 75 152 75q76 0 109.5 -45t19.5 -122z" />
    <glyph glyph-name="i" unicode="i" horiz-adv-x="249" 
d="M223 766q32 0 52 -19.5t20 -50.5q0 -42 -31 -72q-30 -30 -70 -30q-33 0 -52.5 19.5t-19.5 50.5q0 42 30 72q32 30 71 30zM253 529l-93 -529h-142l90 511z" />
    <glyph glyph-name="j" unicode="j" horiz-adv-x="251" 
d="M226 766q31 0 50.5 -19.5t19.5 -50.5q0 -42 -30 -73q-30 -30 -71 -30q-32 0 -51.5 20t-19.5 50q0 42 31 72q31 31 71 31zM-64 -191l-49 109q77 2 104 34q27 31 39 104l79 454q16 3 72 10l73 9l-75 -430q-22 -121 -53 -181q-50 -106 -190 -109z" />
    <glyph glyph-name="k" unicode="k" horiz-adv-x="515" 
d="M336 282l140 -282h-155l-124 263l-45 -263h-141l128 730l144 21l-79 -447h1l192 216h166z" />
    <glyph glyph-name="l" unicode="l" horiz-adv-x="246" 
d="M121 -14q-42 0 -66.5 21t-24.5 62q0 13 3 30l112 630q62 12 145 21l-107 -605q-10 -31 -0.5 -48t48.5 -3l-31 -91q-37 -17 -79 -17z" />
    <glyph glyph-name="m" unicode="m" horiz-adv-x="831" 
d="M810 364l-64 -364h-140l58 334q3 15 3 32q0 53 -54 53q-41 0 -70.5 -30t-36.5 -74l-55 -315h-141l58 334q3 14 3 32q0 53 -54 53q-41 0 -69.5 -29t-37.5 -75l-55 -315h-141l65 368q11 65 18 142l142 17q-1 -30 -8 -72h2q61 78 158 78q48 0 81 -23t43 -65q68 89 168 89
q65 0 98 -34t33 -96q0 -15 -4 -40z" />
    <glyph glyph-name="n" unicode="n" horiz-adv-x="537" 
d="M517 367l-63 -367h-141l58 332q16 94 -56 94q-42 0 -69 -33t-36 -82l-54 -311h-142l66 372q14 81 19 139l143 17q-3 -34 -9 -71h2q62 77 154 77q76 0 108.5 -44t19.5 -123z" />
    <glyph glyph-name="o" unicode="o" horiz-adv-x="540" 
d="M518 260q-20 -132 -94 -203t-193 -71q-197 0 -197 201q0 157 81 252q83 95 213 95q191 0 197 -188q0 -45 -7 -86zM310 430q-56 0 -94 -68t-38 -174q0 -100 72 -100q58 0 95 66q38 67 38 176q0 51 -17.5 75.5t-55.5 24.5z" />
    <glyph glyph-name="p" unicode="p" horiz-adv-x="544" 
d="M521 258q-22 -129 -83 -200.5t-158 -71.5q-89 0 -116 66h-3l-42 -230l-142 -20l103 597q9 55 15 113q31 3 143 17q-5 -51 -10 -74l2 -1q23 35 62 57.5t83 22.5q154 0 154 -185q0 -35 -8 -91zM316 429q-40 0 -72 -39q-57 -74 -57 -208q0 -92 71 -92q92 0 120 171
q7 36 7 77q0 91 -69 91z" />
    <glyph glyph-name="q" unicode="q" horiz-adv-x="543" 
d="M424 519h133q-19 -83 -26 -126l-102 -571l-143 -20l45 253h-3q-60 -69 -146 -69q-149 0 -149 175q0 165 70 268q70 105 181 105q44 0 76 -22t42 -57h2q8 37 20 64zM307 429q-48 0 -76.5 -41t-43.5 -127q-9 -48 -9 -84q0 -87 67 -87q94 0 124 171q8 48 8 76q0 92 -70 92z
" />
    <glyph glyph-name="r" unicode="r" horiz-adv-x="377" 
d="M436 524l-57 -138q-25 7 -51 7q-104 0 -130 -150l-43 -243h-142l62 356q18 104 22 155l142 16q-3 -63 -12 -99h2q51 107 150 107q27 0 57 -11z" />
    <glyph glyph-name="s" unicode="s" horiz-adv-x="460" 
d="M286 535q79 0 121.5 -38t42.5 -112l-64 -16q-11 -3 -24.5 -6.5t-23 -6t-15.5 -3.5q6 23 6 32q0 21 -17.5 31.5t-41.5 10.5q-26 0 -44.5 -12.5t-18.5 -35.5q0 -19 22 -33.5t54 -26t64 -27t54 -45t22 -71.5q0 -80 -66 -136q-66 -54 -170 -54q-170 0 -170 139q0 21 4 38
l136 28q-13 -27 -13 -55q0 -46 56 -46q36 0 59 19t21 41.5t-22 40.5q-12 10 -30.5 19t-44 19.5t-39.5 17.5q-33 16 -53.5 45t-20.5 67q0 89 64 132q65 44 152 44z" />
    <glyph glyph-name="t" unicode="t" horiz-adv-x="359" 
d="M340 119l-36 -109q-54 -23 -107 -23q-64 0 -93 29.5t-29 97.5q3 39 11 96q11 64 22 114q14 64 18 96h-78l18 100h80q20 110 23 133l147 56l-32 -189h102l-18 -100h-102l-47 -263q-2 -10 -2 -23q0 -39 40 -39q29 0 83 24z" />
    <glyph glyph-name="u" unicode="u" horiz-adv-x="527" 
d="M447 0h-139q2 30 7 63h-2q-56 -77 -152 -77q-129 0 -129 125q0 32 13 94l54 305q71 8 143 18l-60 -341q-17 -95 54 -95q39 0 65 31t35 79l56 318h141l-71 -410q-12 -63 -15 -110z" />
    <glyph glyph-name="v" unicode="v" horiz-adv-x="493" 
d="M403 520h140l-251 -520h-159l-71 512l141 19l20 -262q2 -19 5 -76q4 -57 4 -78h4q7 22 28 75l31 75z" />
    <glyph glyph-name="w" unicode="w" horiz-adv-x="781" 
d="M698 520h132l-231 -520h-152l-12 285l-2 61q0 52 1 61h-4q-20 -60 -46 -121l-117 -286h-160l-45 511l143 21l8 -303v-35q0 -29 -1 -48v-32h3q7 23 22 62l23 57l114 287h155l11 -292q2 -34 2 -112h3q34 102 40 114z" />
    <glyph glyph-name="x" unicode="x" horiz-adv-x="498" 
d="M346 269l110 -269h-155l-38 126l-15 63l-51 -78l-74 -111h-151l205 272l-100 239q107 15 151 20l33 -112q1 -1 7 -31l9 -37l30 52l78 117h152z" />
    <glyph glyph-name="y" unicode="y" horiz-adv-x="486" 
d="M229 133h5l42 104l123 283h139l-241 -487q-32 -65 -49 -93q-21 -35 -48 -68q-51 -65 -136 -65q-23 0 -60 8q0 6 -2 54l-3 54q27 -9 54 -9q53 0 75 48l11 23l-80 524q17 3 70 10l70 9l23 -286q6 -56 7 -109z" />
    <glyph glyph-name="z" unicode="z" horiz-adv-x="445" 
d="M402 103l-18 -103h-394l17 103l255 277q14 18 43 41q-13 -4 -55 -4h-178l37 103h360l-18 -102l-261 -283q-4 -5 -20.5 -19.5t-18.5 -16.5q37 4 52 4h199z" />
    <glyph glyph-name="braceleft" unicode="{" horiz-adv-x="334" 
d="M272 -45l-16 -95h-84q-53 0 -81.5 33t-18.5 91l30 168q17 94 -66 96l16 91q82 1 99 96l29 158q23 125 136 125h91l-16 -90h-33q-29 0 -42 -14.5t-19 -46.5l-25 -143q-11 -58 -42 -90.5t-70 -38.5v-2q86 -12 66 -129l-27 -147q-4 -32 4.5 -47t35.5 -15h33z" />
    <glyph glyph-name="bar" unicode="|" horiz-adv-x="257" 
d="M200 724v-867h-109v867h109z" />
    <glyph glyph-name="braceright" unicode="}" horiz-adv-x="334" 
d="M316 247q-83 -2 -101 -96l-15 -82l-14 -84q-11 -58 -48 -91.5t-85 -33.5h-91l16 96h32q22 0 36 12q12 11 16.5 22t10.5 40l21 121q21 124 115 142q-70 13 -70 103q0 13 3 28l25 142q0 4 1.5 14.5t1.5 12.5q-2 35 -42 35h-32l15 90h90q45 0 70.5 -23.5t25.5 -67.5
q0 -29 -17 -112q-16 -79 -16 -113q0 -63 68 -63q-5 -23 -16 -92z" />
    <glyph glyph-name="asciitilde" unicode="~" 
d="M201 340q39 0 101 -35q64 -35 85 -35q47 0 97 72l30 -83q-56 -83 -134 -83q-36 0 -95 33t-91 33q-28 0 -55.5 -21.5t-46.5 -53.5l-37 78q29 42 68.5 68.5t77.5 26.5z" />
    <glyph glyph-name="uni00A0" unicode="&#xa0;" horiz-adv-x="256" 
 />
    <glyph glyph-name="exclamdown" unicode="&#xa1;" horiz-adv-x="358" 
d="M208 363q-30 0 -49 19.5t-19 48.5q0 39 29 68.5t68 29.5q31 0 50 -19.5t19 -48.5q0 -41 -30 -69q-31 -29 -68 -29zM138 302h119l-73 -512l-155 21z" />
    <glyph glyph-name="cent" unicode="&#xa2;" 
d="M239 -138h-43l22 126q-159 13 -159 184q0 154 69 251q70 98 186 109q2 10 10 58q4 20 10 56h43q-6 -36 -10 -56q-8 -48 -10 -58q72 -6 112.5 -45t40.5 -104q0 -4 -0.5 -14.5t-0.5 -12.5l-140 -18q6 20 6 36q0 47 -36 53l-59 -337q29 4 50 33t25 75l65 -16l66 -15
q-23 -83 -82 -129.5t-143 -50.5zM238 98l57 324q-48 -23 -70 -92q-22 -67 -22 -141q0 -70 35 -91z" />
    <glyph glyph-name="sterling" unicode="&#xa3;" 
d="M373 707q98 0 150.5 -44.5t52.5 -125.5q0 -4 -2 -28q-32 -5 -144 -22q10 27 10 53q0 61 -68 61q-56 0 -78 -38t-22 -88q0 -29 7 -72h165q-14 -71 -17 -93h-141q0 -2 0.5 -5t0.5 -5q0 -128 -82 -195h291l-18 -105h-478q10 65 16 95q131 53 131 215h-90l16 93h69
q-9 33 -9 72q0 105 65 168q65 64 175 64z" />
    <glyph glyph-name="currency" unicode="&#xa4;" horiz-adv-x="556" 
d="M120 463l-57 57l68 72l59 -58q46 31 110 31q61 0 110 -31q37 34 58 57l67 -73l-56 -55q32 -47 32 -109q0 -56 -33 -111l58 -55l-67 -73l-59 60q-49 -32 -110 -32q-63 0 -110 32q-41 -39 -59 -59l-68 72l57 56q-31 52 -31 110q0 63 31 109zM299 468q-46 0 -80 -34
q-33 -34 -33 -80t33 -80q35 -33 80 -33t80 33q34 34 34 80t-34 80q-33 34 -80 34z" />
    <glyph glyph-name="yen" unicode="&#xa5;" 
d="M488 698h154l-244 -363h119l-14 -72h-147l-8 -50h147q-2 -8 -13 -73h-148l-24 -140h-138l24 140h-146q2 8 13 73h146l8 50h-145q10 56 13 72h116l-114 363h151q3 -19 23 -96q19 -76 30 -125l7 -41q8 -37 10 -45q28 57 49 93q18 32 69 113q42 66 62 101z" />
    <glyph glyph-name="brokenbar" unicode="&#xa6;" horiz-adv-x="256" 
d="M202 258v-400h-108v400h108zM202 724v-402h-108v402h108z" />
    <glyph glyph-name="section" unicode="&#xa7;" horiz-adv-x="478" 
d="M262 297l30 -14q58 26 58 68q0 33 -36 52q-24 15 -66 31q-27 -6 -43.5 -26.5t-16.5 -45.5q0 -22 22 -38l22 -13zM214 34q41 0 61 20.5t20 50.5q0 48 -78 84l-44 21q-2 1 -37 22q-29 19 -42 41.5t-16 59.5q0 47 25 91q25 46 76 66q-43 34 -43 98q0 21 5 44.5t19 49.5
t34.5 46t55.5 33.5t78 13.5q80 0 129 -38t51 -103q0 -19 -3 -40l-121 -17q4 9 4 31q0 29 -18 44t-47 15q-31 0 -48 -20t-17 -41q0 -24 21 -44t78 -49q42 -22 72 -49q34 -31 34 -85q0 -48 -27.5 -90t-72.5 -64q52 -39 52 -112q0 -80 -62 -131t-149 -51q-85 0 -134.5 36.5
t-49.5 99.5q0 18 3 39q102 16 130 22q-7 -22 -7 -41q0 -26 19 -39.5t49 -13.5z" />
    <glyph glyph-name="dieresis" unicode="&#xa8;" horiz-adv-x="518" 
d="M250 748q28 0 45 -17t17 -44q0 -38 -26.5 -65.5t-62.5 -27.5q-28 0 -46 17.5t-18 43.5q0 38 27.5 65.5t63.5 27.5zM452 749q28 0 45 -17.5t17 -44.5q0 -38 -26.5 -65t-62.5 -27q-28 0 -45.5 17t-17.5 43q0 39 27 66.5t63 27.5z" />
    <glyph glyph-name="copyright" unicode="&#xa9;" horiz-adv-x="800" 
d="M803 359q0 -157 -105 -265t-268 -108q-166 0 -270 107q-104 109 -104 266q0 155 107 264q106 109 267 109q160 0 266 -109q107 -109 107 -264zM711 359q0 123 -81 207t-200 84q-120 0 -201 -84q-81 -82 -81 -207t78 -211q78 -84 204 -84t202 84q77 85 79 211zM432 572
q70 0 114 -41t44 -109q-31 -4 -69.5 -10t-39.5 -6q1 4 1 18q0 59 -48 59q-34 0 -51 -35.5t-17 -94.5q0 -142 73 -142q24 0 37.5 18.5t13.5 51.5q0 15 -1 20q31 -4 69.5 -10t39.5 -6q-3 -73 -47.5 -115t-117.5 -42q-179 0 -179 222q0 106 45 164t133 58z" />
    <glyph glyph-name="ordfeminine" unicode="&#xaa;" horiz-adv-x="393" 
d="M399 507l-28 -162q-4 -25 14 -25q5 0 20 5l-22 -71q-30 -13 -61 -13q-25 0 -40.5 13.5t-15.5 37.5q0 2 -1 2q-17 -24 -47 -39t-59 -15q-107 0 -107 121q0 104 48 173t127 69q59 0 79 -41q3 21 10 35h102q-13 -47 -19 -90zM239 523q-34 0 -56 -40t-22 -105q0 -58 41 -58
q33 0 56 40.5t23 103.5q0 59 -42 59z" />
    <glyph glyph-name="guillemotleft" unicode="&#xab;" horiz-adv-x="527" 
d="M382 270l86 -184h-125l-82 188l148 186h125zM181 270l81 -184h-123l-79 188l147 186h128z" />
    <glyph glyph-name="logicalnot" unicode="&#xac;" 
d="M490 69h-104l34 198h-368l19 107h472z" />
    <glyph glyph-name="sfthyphen" unicode="&#xad;" horiz-adv-x="334" 
d="M325 331l-19 -109h-271l20 109h270z" />
    <glyph glyph-name="registered" unicode="&#xae;" horiz-adv-x="657" 
d="M556 299q-79 -77 -189 -77t-190 77q-78 77 -78 188t78 188q80 77 190 77t189 -77q79 -76 79 -188t-79 -188zM367 689q-84 0 -141 -58q-57 -59 -57 -144q0 -87 56 -146q57 -58 142 -58q83 0 140 59q57 58 57 147q0 85 -58 142q-57 58 -139 58zM421 465l65 -121h-76
l-55 109h-18v-109h-69v290h109q44 0 72 -23.5t28 -66.5q0 -62 -56 -79zM364 577h-27v-68h27q42 0 42 34t-42 34z" />
    <glyph glyph-name="overscore" unicode="&#xaf;" horiz-adv-x="517" 
d="M500 707l-18 -96h-294l17 96h295z" />
    <glyph glyph-name="degree" unicode="&#xb0;" horiz-adv-x="392" 
d="M274 709q60 0 96.5 -37t36.5 -95q0 -67 -45 -118q-44 -50 -121 -50q-57 0 -94 37t-37 92q0 69 48 120t116 51zM336 558q0 35 -19 58t-52 23q-35 0 -60 -27q-26 -26 -26 -61q0 -33 19 -53t51 -20q34 0 59 22.5t28 57.5z" />
    <glyph glyph-name="plusminus" unicode="&#xb1;" 
d="M503 108l-19 -108h-472l18 108h473zM553 455l-19 -107h-183l-34 -190h-105l34 190h-184l19 107h183l34 191h105l-34 -191h184z" />
    <glyph glyph-name="twosuperior" unicode="&#xb2;" horiz-adv-x="377" 
d="M286 806q62 0 98 -29.5t36 -83.5q0 -68 -62 -142q-60 -71 -153 -134q17 3 51 3h131l-30 -80h-317l13 74q127 78 191 141t64 125q0 22 -12 33.5t-30 11.5q-31 0 -47.5 -26t-16.5 -64q0 -12 1 -15l-106 22q16 77 66.5 120.5t122.5 43.5z" />
    <glyph glyph-name="threesuperior" unicode="&#xb3;" horiz-adv-x="377" 
d="M281 805q62 0 100 -26.5t38 -74.5q0 -40 -24.5 -73t-65.5 -47q62 -17 62 -86q0 -78 -60 -123q-59 -45 -139 -45q-69 0 -105.5 32.5t-36.5 90.5q0 1 2 17l121 18q-7 -14 -7 -33q0 -16 10.5 -27.5t27.5 -11.5q24 0 50 20q25 21 25 56q0 51 -57 51h-23q3 15 13 74h24
q32 0 50.5 18.5t18.5 46.5q0 38 -39 38q-28 0 -45 -19t-17 -50q-71 11 -107 17q12 64 61 100.5t123 36.5z" />
    <glyph glyph-name="acute" unicode="&#xb4;" horiz-adv-x="517" 
d="M377 754h141l-168 -165h-85z" />
    <glyph glyph-name="mu" unicode="&#xb5;" horiz-adv-x="526" 
d="M447 0h-137q0 29 5 64h-2q-51 -72 -130 -72q-16 0 -34 5l-31 -175l-71 -9q-57 -7 -71 -10l123 707l143 18l-60 -341q-3 -18 -3 -37q3 -56 54 -56q40 0 67 30.5t36 76.5l56 318h141l-71 -408q-9 -49 -15 -111z" />
    <glyph glyph-name="mu" unicode="&#x3bc;" horiz-adv-x="526" 
d="M447 0h-137q0 29 5 64h-2q-51 -72 -130 -72q-16 0 -34 5l-31 -175l-71 -9q-57 -7 -71 -10l123 707l143 18l-60 -341q-3 -18 -3 -37q3 -56 54 -56q40 0 67 30.5t36 76.5l56 318h141l-71 -408q-9 -49 -15 -111z" />
    <glyph glyph-name="paragraph" unicode="&#xb6;" horiz-adv-x="577" 
d="M379 638l-127 -715h-109l73 410q-67 1 -106.5 44.5t-39.5 114.5q0 99 68 170q68 72 186 72h329l-17 -96h-69l-126 -715h-110l126 715h-78z" />
    <glyph glyph-name="middot" unicode="&#xb7;" horiz-adv-x="271" 
d="M164 367q31 0 50 -19.5t19 -49.5q0 -40 -29 -71q-29 -29 -69 -29q-30 0 -49.5 19.5t-19.5 49.5q0 39 30 69q30 31 68 31z" />
    <glyph glyph-name="cedilla" unicode="&#xb8;" horiz-adv-x="505" 
d="M264 33l-70 -87q46 -5 69.5 -25.5t23.5 -52.5q0 -46 -38 -70.5t-96 -24.5q-54 0 -91 15l-3 55q32 -17 79 -17q26 0 43.5 10t17.5 29q0 31 -60 38l-14 19l86 109q5 0 53 2z" />
    <glyph glyph-name="onesuperior" unicode="&#xb9;" horiz-adv-x="377" 
d="M362 340h-297l14 80h99l47 269q-49 -29 -102 -48l-14 74q80 39 148 85h98l-67 -380h104z" />
    <glyph glyph-name="ordmasculine" unicode="&#xba;" horiz-adv-x="372" 
d="M379 422q-15 -86 -66.5 -134t-132.5 -48q-140 0 -140 136q0 101 56 165q55 64 148 64q68 0 104 -33t36 -93q0 -29 -5 -57zM230 524q-35 0 -58 -40.5t-23 -103.5q0 -61 44 -61q34 0 57 41t23 104q0 60 -43 60z" />
    <glyph glyph-name="guillemotright" unicode="&#xbb;" horiz-adv-x="527" 
d="M420 461l81 -187l-145 -187h-123l143 187l-83 187h127zM218 461l83 -187l-149 -187h-125l150 187l-84 187h125z" />
    <glyph glyph-name="onequarter" unicode="&#xbc;" horiz-adv-x="948" 
d="M847 133l-7 -42h-58l-16 -91h-105l15 91h-189q9 44 13 79l251 296l47 -5l48 -5l-49 -280h57zM691 176l25 137q-87 -105 -117 -138q13 1 92 1zM350 250h-297l14 80h99l47 269q-49 -29 -102 -48l-14 74q80 39 148 85h98l-67 -380h104zM722 722h93l-518 -733h-94z" />
    <glyph glyph-name="onehalf" unicode="&#xbd;" horiz-adv-x="948" 
d="M692 722h93l-518 -733h-94zM334 250h-297l14 80h99l47 269q-49 -29 -102 -48l-14 74q80 39 148 85h98l-67 -380h104zM895 353q0 -69 -62 -143q-60 -71 -153 -133q16 3 51 3h131l-17 -43l-13 -37h-316q3 15 13 74q127 79 190 141.5t63 124.5q0 22 -11.5 33.5t-29.5 11.5
q-33 0 -49.5 -31t-16.5 -74l-103 22q15 77 66 120.5t123 43.5q62 0 98 -29.5t36 -83.5z" />
    <glyph glyph-name="threequarters" unicode="&#xbe;" horiz-adv-x="948" 
d="M846 133l-7 -42h-58l-16 -91h-105l15 91h-189q9 44 13 79l251 296l47 -5l48 -5l-49 -280h57zM690 176l25 137q-87 -105 -117 -138q13 1 92 1zM287 715q62 0 100 -26.5t38 -74.5q0 -40 -24.5 -73t-65.5 -47q62 -17 62 -86q0 -78 -60 -123q-59 -45 -139 -45
q-69 0 -105.5 32.5t-36.5 90.5q0 1 2 17l121 18q-7 -14 -7 -33q0 -16 10.5 -27.5t27.5 -11.5q24 0 50 20q25 21 25 56q0 51 -57 51h-23q3 15 13 74h24q32 0 50.5 18.5t18.5 46.5q0 38 -39 38q-28 0 -45 -19t-17 -50q-71 11 -107 17q12 64 61 100.5t123 36.5zM716 722h93
l-518 -733h-94z" />
    <glyph glyph-name="questiondown" unicode="&#xbf;" horiz-adv-x="506" 
d="M226 314h125l-5 -30q-8 -45 -27.5 -77.5t-61.5 -73.5l-21 -20l-22 -20q-27 -26 -37 -40q-21 -28 -27 -42q-9 -27 -9 -46q0 -67 72 -67q49 0 78 37t29 92l129 -29q-25 -98 -94.5 -154t-165.5 -56q-93 0 -145.5 40t-52.5 116q0 48 21 90q23 43 46 66q22 22 76 68
q12 10 47 41q34 34 41 78zM299 364q-30 0 -49.5 19.5t-19.5 49.5q0 39 30 68q31 29 68 29q30 0 49 -19.5t19 -48.5q0 -39 -30 -69q-31 -29 -67 -29z" />
    <glyph glyph-name="Agrave" unicode="&#xc0;" horiz-adv-x="646" 
d="M501 718l100 -718h-151l-17 155h-241l-73 -155h-144l350 718h176zM244 271h177l-18 175l-11 145h-3q-79 -184 -145 -320zM463 778h-84l-132 169h138z" />
    <glyph glyph-name="Aacute" unicode="&#xc1;" horiz-adv-x="646" 
d="M501 718l100 -718h-151l-17 155h-241l-73 -155h-144l350 718h176zM244 271h177l-18 175l-11 145h-3q-79 -184 -145 -320zM460 948h141l-157 -170h-86z" />
    <glyph glyph-name="Acircumflex" unicode="&#xc2;" horiz-adv-x="646" 
d="M501 718l100 -718h-151l-17 155h-241l-73 -155h-144l350 718h176zM244 271h177l-18 175l-11 145h-3q-79 -184 -145 -320zM504 932l93 -150h-97l-69 84l-97 -84h-93l143 150h120z" />
    <glyph glyph-name="Atilde" unicode="&#xc3;" horiz-adv-x="646" 
d="M501 718l100 -718h-151l-17 155h-241l-73 -155h-144l350 718h176zM244 271h177l-18 175l-11 145h-3q-79 -184 -145 -320zM563 925l34 -59q-16 -31 -43 -50.5t-59 -19.5q-27 0 -73 18q-45 19 -69 19q-41 0 -64 -41l-43 55q15 29 47 51.5t64 22.5q30 0 75 -18
q46 -18 66 -18q14 0 22.5 2t20 11t22.5 27z" />
    <glyph glyph-name="Adieresis" unicode="&#xc4;" horiz-adv-x="646" 
d="M501 718l100 -718h-151l-17 155h-241l-73 -155h-144l350 718h176zM244 271h177l-18 175l-11 145h-3q-79 -184 -145 -320zM346 933q27 0 44.5 -17.5t17.5 -44.5q0 -38 -27 -65t-63 -27q-28 0 -45.5 17t-17.5 44q0 36 27 65q28 28 64 28zM548 933q28 0 45.5 -17.5
t17.5 -44.5q0 -38 -27 -65t-63 -27q-28 0 -46 17.5t-18 44.5q0 37 28 64q28 28 63 28z" />
    <glyph glyph-name="Aring" unicode="&#xc5;" horiz-adv-x="646" 
d="M501 718l100 -718h-151l-17 155h-241l-73 -155h-144l350 718h176zM244 271h177l-18 175l-11 145h-3q-79 -184 -145 -320zM324 859q7 47 46 81q37 34 86 34q42 0 69 -26.5t27 -65.5q0 -54 -42 -94q-40 -40 -93 -40q-43 0 -69 25t-26 65q0 3 2 21zM383 860q-1 -2 -1 -7
q0 -21 12 -34t33 -13q26 0 45 21t19 46q0 18 -12.5 29.5t-32.5 11.5q-22 0 -40.5 -16.5t-22.5 -37.5z" />
    <glyph glyph-name="AE" unicode="&#xc6;" horiz-adv-x="978" 
d="M944 116l-20 -116h-465l27 157h-253l-115 -157h-151l535 718h515l-50 -116h-255l-30 -172h252l-20 -116h-252l-35 -198h317zM315 271h192l58 331h-4z" />
    <glyph glyph-name="Ccedilla" unicode="&#xc7;" horiz-adv-x="622" 
d="M488 733q111 0 166.5 -60.5t38.5 -161.5l-157 -23q22 54 2 92.5t-75 38.5q-70 0 -112.5 -65t-64.5 -195q-28 -125 -8 -192t93 -67q66 0 99 52t33 122l149 -48q-25 -113 -97 -175.5t-187 -66.5l-34 -42q46 -5 69.5 -25.5t23.5 -52.5q0 -46 -38 -70.5t-96 -24.5
q-53 0 -91 15l-3 55q32 -17 79 -17q26 0 43.5 10t17.5 29q0 31 -60 38l-14 19l53 68q-248 21 -185 375q65 372 355 372z" />
    <glyph glyph-name="Egrave" unicode="&#xc8;" horiz-adv-x="538" 
d="M496 116l-19 -116h-456l126 718h436l-50 -116h-259l-30 -172h253l-20 -115h-253l-35 -199h307zM435 778h-84l-132 169h138z" />
    <glyph glyph-name="Eacute" unicode="&#xc9;" horiz-adv-x="538" 
d="M496 116l-19 -116h-456l126 718h436l-50 -116h-259l-30 -172h253l-20 -115h-253l-35 -199h307zM397 948h141l-157 -170h-86z" />
    <glyph glyph-name="Ecircumflex" unicode="&#xca;" horiz-adv-x="538" 
d="M496 116l-19 -116h-456l126 718h436l-50 -116h-259l-30 -172h253l-20 -115h-253l-35 -199h307zM458 932l93 -150h-97l-69 84l-97 -84h-93l143 150h120z" />
    <glyph glyph-name="Edieresis" unicode="&#xcb;" horiz-adv-x="538" 
d="M496 116l-19 -116h-456l126 718h436l-50 -116h-259l-30 -172h253l-20 -115h-253l-35 -199h307zM294 933q27 0 44.5 -17.5t17.5 -44.5q0 -38 -27 -65t-63 -27q-28 0 -45.5 17t-17.5 44q0 36 27 65q28 28 64 28zM496 933q28 0 45.5 -17.5t17.5 -44.5q0 -38 -27 -65t-63 -27
q-28 0 -46 17.5t-18 44.5q0 37 28 64q28 28 63 28z" />
    <glyph glyph-name="Igrave" unicode="&#xcc;" horiz-adv-x="276" 
d="M303 718l-126 -718h-148l126 718h148zM281 778h-84l-132 169h138z" />
    <glyph glyph-name="Iacute" unicode="&#xcd;" horiz-adv-x="276" 
d="M303 718l-126 -718h-148l126 718h148zM281 948h141l-157 -170h-86z" />
    <glyph glyph-name="Icircumflex" unicode="&#xce;" horiz-adv-x="276" 
d="M303 718l-126 -718h-148l126 718h148zM324 932l93 -150h-97l-69 84l-97 -84h-93l143 150h120z" />
    <glyph glyph-name="Idieresis" unicode="&#xcf;" horiz-adv-x="276" 
d="M303 718l-126 -718h-148l126 718h148zM166 933q27 0 44.5 -17.5t17.5 -44.5q0 -38 -27 -65t-63 -27q-28 0 -45.5 17t-17.5 44q0 36 27 65q28 28 64 28zM368 933q28 0 45.5 -17.5t17.5 -44.5q0 -38 -27 -65t-63 -27q-28 0 -46 17.5t-18 44.5q0 37 28 64q28 28 63 28z" />
    <glyph glyph-name="Eth" unicode="&#xd0;" horiz-adv-x="650" 
d="M93 410l54 308h207q328 0 279 -361q-24 -183 -120 -270t-268 -87h-224l56 322h-56l15 88h57zM330 604h-56l-34 -194h103l-16 -88h-103l-36 -207h68q100 0 153 59.5t74 187.5q19 127 -17 184.5t-136 57.5z" />
    <glyph glyph-name="Ntilde" unicode="&#xd1;" horiz-adv-x="657" 
d="M693 718l-126 -718h-145l-141 378q-17 44 -35 106h-2q-6 -66 -16 -114l-64 -370h-143l126 718h146l133 -358l41 -123l2 1q3 24 19 128l60 352h145zM578 927l34 -59q-16 -31 -43 -50.5t-59 -19.5q-26 0 -73 18q-45 19 -69 19q-41 0 -64 -41l-43 55q15 29 47 51.5t64 22.5
q30 0 75 -18q47 -18 66 -18q14 0 22.5 2t20 11t22.5 27z" />
    <glyph glyph-name="Ograve" unicode="&#xd2;" horiz-adv-x="678" 
d="M429 732q125 0 183 -67.5t58 -200.5q0 -43 -8 -105q-57 -373 -360 -373q-125 0 -183.5 65.5t-58.5 194.5q0 45 11 113q61 373 358 373zM508 358q13 68 13 120q0 141 -109 141q-76 0 -120 -64.5t-68 -195.5q-13 -68 -13 -117q0 -143 108 -143q75 0 121 64t68 195zM506 778
h-84l-132 169h138z" />
    <glyph glyph-name="Oacute" unicode="&#xd3;" horiz-adv-x="678" 
d="M429 732q125 0 183 -67.5t58 -200.5q0 -43 -8 -105q-57 -373 -360 -373q-125 0 -183.5 65.5t-58.5 194.5q0 45 11 113q61 373 358 373zM508 358q13 68 13 120q0 141 -109 141q-76 0 -120 -64.5t-68 -195.5q-13 -68 -13 -117q0 -143 108 -143q75 0 121 64t68 195zM475 948
h141l-157 -170h-86z" />
    <glyph glyph-name="Ocircumflex" unicode="&#xd4;" horiz-adv-x="678" 
d="M429 732q125 0 183 -67.5t58 -200.5q0 -43 -8 -105q-57 -373 -360 -373q-125 0 -183.5 65.5t-58.5 194.5q0 45 11 113q61 373 358 373zM508 358q13 68 13 120q0 141 -109 141q-76 0 -120 -64.5t-68 -195.5q-13 -68 -13 -117q0 -143 108 -143q75 0 121 64t68 195zM518 932
l93 -150h-97l-69 84l-97 -84h-93l143 150h120z" />
    <glyph glyph-name="Otilde" unicode="&#xd5;" horiz-adv-x="678" 
d="M429 732q125 0 183 -67.5t58 -200.5q0 -43 -8 -105q-57 -373 -360 -373q-125 0 -183.5 65.5t-58.5 194.5q0 45 11 113q61 373 358 373zM508 358q13 68 13 120q0 141 -109 141q-76 0 -120 -64.5t-68 -195.5q-13 -68 -13 -117q0 -143 108 -143q75 0 121 64t68 195zM606 930
l34 -59q-16 -31 -43 -50.5t-59 -19.5q-26 0 -73 18q-45 19 -69 19q-41 0 -64 -41l-43 55q15 29 47 51.5t64 22.5q30 0 75 -18q47 -18 66 -18q14 0 22.5 2t20 11t22.5 27z" />
    <glyph glyph-name="Odieresis" unicode="&#xd6;" horiz-adv-x="678" 
d="M429 732q125 0 183 -67.5t58 -200.5q0 -43 -8 -105q-57 -373 -360 -373q-125 0 -183.5 65.5t-58.5 194.5q0 45 11 113q61 373 358 373zM508 358q13 68 13 120q0 141 -109 141q-76 0 -120 -64.5t-68 -195.5q-13 -68 -13 -117q0 -143 108 -143q75 0 121 64t68 195zM364 933
q27 0 44.5 -17.5t17.5 -44.5q0 -38 -27 -65t-63 -27q-28 0 -45.5 17t-17.5 44q0 36 27 65q28 28 64 28zM566 933q28 0 45.5 -17.5t17.5 -44.5q0 -38 -27 -65t-63 -27q-28 0 -46 17.5t-18 44.5q0 37 28 64q28 28 63 28z" />
    <glyph glyph-name="multiply" unicode="&#xd7;" 
d="M490 90l-88 -76l-129 162l-187 -162l-60 76l186 161l-131 162l88 76l129 -162l187 162l61 -76l-186 -161z" />
    <glyph glyph-name="Oslash" unicode="&#xd8;" horiz-adv-x="678" 
d="M429 732q117 0 178 -61l41 47h75l-82 -93q30 -61 30 -148q0 -224 -95 -358q-94 -133 -274 -133q-117 0 -179 59l-40 -45h-74l82 90q-31 58 -31 145q0 60 11 124q61 373 358 373zM508 358q10 56 10 81v50l-294 -331q23 -59 95 -59q75 0 121 64t68 195zM224 359
q-11 -58 -11 -108q0 -18 1 -23l294 331q-26 60 -96 60q-76 0 -120.5 -65t-67.5 -195z" />
    <glyph glyph-name="Ugrave" unicode="&#xd9;" horiz-adv-x="647" 
d="M683 718l-83 -472q-48 -260 -307 -260q-115 0 -175 51.5t-60 150.5q0 32 6 70l81 460h147l-41 -236q-29 -168 -42 -238q-3 -16 -3 -41q0 -48 24 -75t69 -27q62 0 101 38t51 105l84 474h148zM481 778h-84l-132 169h138z" />
    <glyph glyph-name="Uacute" unicode="&#xda;" horiz-adv-x="647" 
d="M683 718l-83 -472q-48 -260 -307 -260q-115 0 -175 51.5t-60 150.5q0 32 6 70l81 460h147l-41 -236q-29 -168 -42 -238q-3 -16 -3 -41q0 -48 24 -75t69 -27q62 0 101 38t51 105l84 474h148zM449 948h141l-157 -170h-86z" />
    <glyph glyph-name="Ucircumflex" unicode="&#xdb;" horiz-adv-x="647" 
d="M683 718l-83 -472q-48 -260 -307 -260q-115 0 -175 51.5t-60 150.5q0 32 6 70l81 460h147l-41 -236q-29 -168 -42 -238q-3 -16 -3 -41q0 -48 24 -75t69 -27q62 0 101 38t51 105l84 474h148zM502 932l93 -150h-97l-69 84l-97 -84h-93l143 150h120z" />
    <glyph glyph-name="Udieresis" unicode="&#xdc;" horiz-adv-x="647" 
d="M683 718l-83 -472q-48 -260 -307 -260q-115 0 -175 51.5t-60 150.5q0 32 6 70l81 460h147l-41 -236q-29 -168 -42 -238q-3 -16 -3 -41q0 -48 24 -75t69 -27q62 0 101 38t51 105l84 474h148zM345 933q27 0 44.5 -17.5t17.5 -44.5q0 -38 -27 -65t-63 -27q-28 0 -45.5 17
t-17.5 44q0 36 27 65q28 28 64 28zM547 933q28 0 45.5 -17.5t17.5 -44.5q0 -38 -27 -65t-63 -27q-28 0 -46 17.5t-18 44.5q0 37 28 64q28 28 63 28z" />
    <glyph glyph-name="Yacute" unicode="&#xdd;" horiz-adv-x="591" 
d="M515 718h163l-295 -440l-49 -278h-147l48 277l-140 441h162l48 -210q12 -54 20 -118l2 1q26 59 62 115zM431 948h141l-157 -170h-86z" />
    <glyph glyph-name="Thorn" unicode="&#xde;" horiz-adv-x="572" 
d="M273 599h86q103 0 161 -50t58 -145q0 -129 -89 -203q-88 -73 -233 -73h-66l-22 -128h-147l126 718h147zM320 483h-68l-42 -240h59q64 0 110.5 34.5t46.5 116.5q0 89 -106 89z" />
    <glyph glyph-name="germandbls" unicode="&#xdf;" horiz-adv-x="547" 
d="M232 -8q0 25 -6 106q15 -3 27 -3q119 0 119 169q0 98 -87 103q5 21 8 42q2 14 8 43q42 1 67 37q26 38 26 84q0 26 -16 44t-44 18q-74 0 -94 -116l-90 -519h-139l88 503q20 118 82 180t162 62q93 0 141 -45t48 -121q0 -54 -27.5 -98.5t-82.5 -64.5q94 -31 94 -160
q0 -110 -63 -190q-63 -78 -175 -78q-15 0 -46 4z" />
    <glyph glyph-name="agrave" unicode="&#xe0;" horiz-adv-x="556" 
d="M288 533q44 0 73.5 -21t39.5 -55h2q1 6 16 63h138q-13 -45 -30 -142l-42 -235q-11 -54 27 -54q11 0 20 4l-14 -42l-16 -48q-40 -17 -78 -17q-39 0 -61 19.5t-22 57.5h-3q-59 -77 -158 -77q-146 0 -146 186q0 160 71 261q72 100 183 100zM368 261q8 48 8 76q0 92 -70 92
q-47 0 -75.5 -41t-43.5 -127q-9 -50 -9 -85q0 -86 66 -86q96 0 124 171zM323 756l76 -168h-78l-133 168h135z" />
    <glyph glyph-name="aacute" unicode="&#xe1;" horiz-adv-x="556" 
d="M288 533q44 0 73.5 -21t39.5 -55h2q1 6 16 63h138q-13 -45 -30 -142l-42 -235q-11 -54 27 -54q11 0 20 4l-14 -42l-16 -48q-40 -17 -78 -17q-39 0 -61 19.5t-22 57.5h-3q-59 -77 -158 -77q-146 0 -146 186q0 160 71 261q72 100 183 100zM368 261q8 48 8 76q0 92 -70 92
q-47 0 -75.5 -41t-43.5 -127q-9 -50 -9 -85q0 -86 66 -86q96 0 124 171zM372 754h141l-168 -165h-85z" />
    <glyph glyph-name="acircumflex" unicode="&#xe2;" horiz-adv-x="556" 
d="M288 533q44 0 73.5 -21t39.5 -55h2q1 6 16 63h138q-13 -45 -30 -142l-42 -235q-11 -54 27 -54q11 0 20 4l-14 -42l-16 -48q-40 -17 -78 -17q-39 0 -61 19.5t-22 57.5h-3q-59 -77 -158 -77q-146 0 -146 186q0 160 71 261q72 100 183 100zM368 261q8 48 8 76q0 92 -70 92
q-47 0 -75.5 -41t-43.5 -127q-9 -50 -9 -85q0 -86 66 -86q96 0 124 171zM411 745l91 -158h-93l-67 97l-98 -97h-95l143 158h119z" />
    <glyph glyph-name="atilde" unicode="&#xe3;" horiz-adv-x="556" 
d="M288 533q44 0 73.5 -21t39.5 -55h2q1 6 16 63h138q-13 -45 -30 -142l-42 -235q-11 -54 27 -54q11 0 20 4l-14 -42l-16 -48q-40 -17 -78 -17q-39 0 -61 19.5t-22 57.5h-3q-59 -77 -158 -77q-146 0 -146 186q0 160 71 261q72 100 183 100zM368 261q8 48 8 76q0 92 -70 92
q-47 0 -75.5 -41t-43.5 -127q-9 -50 -9 -85q0 -86 66 -86q96 0 124 171zM477 738l34 -59q-16 -31 -43 -50.5t-59 -19.5q-27 0 -73 18q-45 19 -69 19q-41 0 -64 -41l-43 55q15 29 47 51.5t64 22.5q30 0 75 -18q46 -18 66 -18q14 0 22.5 2t20 11t22.5 27z" />
    <glyph glyph-name="adieresis" unicode="&#xe4;" horiz-adv-x="556" 
d="M288 533q44 0 73.5 -21t39.5 -55h2q1 6 16 63h138q-13 -45 -30 -142l-42 -235q-11 -54 27 -54q11 0 20 4l-14 -42l-16 -48q-40 -17 -78 -17q-39 0 -61 19.5t-22 57.5h-3q-59 -77 -158 -77q-146 0 -146 186q0 160 71 261q72 100 183 100zM368 261q8 48 8 76q0 92 -70 92
q-47 0 -75.5 -41t-43.5 -127q-9 -50 -9 -85q0 -86 66 -86q96 0 124 171zM245 748q27 0 44.5 -17t17.5 -44q0 -38 -26.5 -65.5t-62.5 -27.5q-28 0 -46 17.5t-18 43.5q0 38 27.5 65.5t63.5 27.5zM447 749q28 0 45 -17.5t17 -44.5q0 -38 -26.5 -65t-62.5 -27q-28 0 -45.5 17
t-17.5 43q0 39 27 66.5t63 27.5z" />
    <glyph glyph-name="aring" unicode="&#xe5;" horiz-adv-x="556" 
d="M288 533q44 0 73.5 -21t39.5 -55h2q1 6 16 63h138q-13 -45 -30 -142l-42 -235q-11 -54 27 -54q11 0 20 4l-14 -42l-16 -48q-40 -17 -78 -17q-39 0 -61 19.5t-22 57.5h-3q-59 -77 -158 -77q-146 0 -146 186q0 160 71 261q72 100 183 100zM368 261q8 48 8 76q0 92 -70 92
q-47 0 -75.5 -41t-43.5 -127q-9 -50 -9 -85q0 -86 66 -86q96 0 124 171zM232 687q7 47 46 81q37 34 86 34q42 0 69 -26.5t27 -65.5q0 -54 -42 -94q-40 -40 -93 -40q-43 0 -69 25t-26 65q0 3 2 21zM291 688q-1 -2 -1 -7q0 -21 12 -34t33 -13q26 0 45 21t19 46
q0 18 -12.5 29.5t-32.5 11.5q-22 0 -40.5 -16.5t-22.5 -37.5z" />
    <glyph glyph-name="ae" unicode="&#xe6;" horiz-adv-x="788" 
d="M525 86q36 0 57.5 25.5t22.5 70.5l131 -39q-63 -157 -225 -157q-128 0 -167 90q-76 -90 -204 -90q-62 0 -95 29.5t-33 84.5q0 205 322 215l6 39q10 79 -56 79q-36 0 -57.5 -21.5t-25.5 -62.5l-116 38q25 75 84 112t140 37q101 0 132 -64q57 61 161 61q81 0 126.5 -35
t45.5 -103q0 -82 -83 -128.5t-227 -46.5q-6 -30 -6.5 -60t17 -52t50.5 -22zM584 432q-33 0 -62.5 -35t-41.5 -91q156 4 156 81q0 20 -14.5 32.5t-37.5 12.5zM311 189l7 42q-60 -1 -106 -18q-57 -21 -57 -83q0 -49 51 -49q41 0 69 29.5t36 78.5z" />
    <glyph glyph-name="ccedilla" unicode="&#xe7;" horiz-adv-x="494" 
d="M374 212l133 -35q-19 -88 -83 -139.5t-155 -51.5l-32 -40q46 -5 69.5 -25.5t23.5 -52.5q0 -46 -38 -70.5t-96 -24.5q-54 0 -91 15l-3 55q32 -17 79 -17q26 0 43.5 10t17.5 29q0 31 -60 38l-14 19l53 68q-179 26 -136 270q22 128 93.5 201t179.5 73q91 0 137 -51.5
t30 -137.5l-139 -19q27 104 -44 104q-40 0 -70 -45t-43 -121q-29 -174 60 -174q35 0 58.5 32t26.5 90z" />
    <glyph glyph-name="egrave" unicode="&#xe8;" horiz-adv-x="505" 
d="M237 86q35 0 56.5 26t23.5 70q102 -29 129 -37q-57 -159 -223 -159q-192 0 -192 199q0 118 62 227q33 56 91 89t130 33q81 0 126.5 -35.5t45.5 -103.5q0 -81 -83.5 -128.5t-228.5 -50.5q-3 -16 -3 -39q0 -38 17 -64.5t49 -26.5zM297 432q-34 0 -63 -34.5t-42 -91.5
q156 4 156 81q0 20 -14 32.5t-37 12.5zM309 756l76 -168h-78l-133 168h135z" />
    <glyph glyph-name="eacute" unicode="&#xe9;" horiz-adv-x="505" 
d="M237 86q35 0 56.5 26t23.5 70q102 -29 129 -37q-57 -159 -223 -159q-192 0 -192 199q0 118 62 227q33 56 91 89t130 33q81 0 126.5 -35.5t45.5 -103.5q0 -81 -83.5 -128.5t-228.5 -50.5q-3 -16 -3 -39q0 -38 17 -64.5t49 -26.5zM297 432q-34 0 -63 -34.5t-42 -91.5
q156 4 156 81q0 20 -14 32.5t-37 12.5zM374 754h141l-168 -165h-85z" />
    <glyph glyph-name="ecircumflex" unicode="&#xea;" horiz-adv-x="505" 
d="M237 86q35 0 56.5 26t23.5 70q102 -29 129 -37q-57 -159 -223 -159q-192 0 -192 199q0 118 62 227q33 56 91 89t130 33q81 0 126.5 -35.5t45.5 -103.5q0 -81 -83.5 -128.5t-228.5 -50.5q-3 -16 -3 -39q0 -38 17 -64.5t49 -26.5zM297 432q-34 0 -63 -34.5t-42 -91.5
q156 4 156 81q0 20 -14 32.5t-37 12.5zM416 745l91 -158h-93l-67 97l-98 -97h-95l143 158h119z" />
    <glyph glyph-name="edieresis" unicode="&#xeb;" horiz-adv-x="505" 
d="M237 86q35 0 56.5 26t23.5 70q102 -29 129 -37q-57 -159 -223 -159q-192 0 -192 199q0 118 62 227q33 56 91 89t130 33q81 0 126.5 -35.5t45.5 -103.5q0 -81 -83.5 -128.5t-228.5 -50.5q-3 -16 -3 -39q0 -38 17 -64.5t49 -26.5zM297 432q-34 0 -63 -34.5t-42 -91.5
q156 4 156 81q0 20 -14 32.5t-37 12.5zM256 748q28 0 45 -17t17 -44q0 -38 -26.5 -65.5t-62.5 -27.5q-28 0 -46 17.5t-18 43.5q0 38 27.5 65.5t63.5 27.5zM458 749q28 0 45 -17.5t17 -44.5q0 -38 -26.5 -65t-62.5 -27q-28 0 -45.5 17t-17.5 43q0 39 27 66.5t63 27.5z" />
    <glyph glyph-name="igrave" unicode="&#xec;" horiz-adv-x="249" 
d="M253 529l-93 -529h-142l90 512zM169 756l76 -168h-78l-133 168h135z" />
    <glyph glyph-name="iacute" unicode="&#xed;" horiz-adv-x="249" 
d="M253 529l-93 -529h-142l90 512zM253 754h141l-168 -165h-85z" />
    <glyph glyph-name="icircumflex" unicode="&#xee;" horiz-adv-x="249" 
d="M253 529l-93 -529h-142l90 512zM283 745l91 -158h-93l-67 97l-98 -97h-95l143 158h119z" />
    <glyph glyph-name="idieresis" unicode="&#xef;" horiz-adv-x="249" 
d="M121 748q27 0 44.5 -17t17.5 -44q0 -38 -26.5 -65.5t-62.5 -27.5q-28 0 -46 17.5t-18 43.5q0 38 27.5 65.5t63.5 27.5zM323 749q28 0 45 -17.5t17 -44.5q0 -38 -26.5 -65t-62.5 -27q-28 0 -45.5 17t-17.5 43q0 39 27 66.5t63 27.5zM253 529l-93 -529h-142l90 512z" />
    <glyph glyph-name="eth" unicode="&#xf0;" horiz-adv-x="540" 
d="M271 559l-25 41l59 40q-39 39 -77 60l113 63q34 -23 67 -54l66 46l28 -40l-61 -41q92 -110 92 -275q0 -148 -60 -269q-32 -66 -93.5 -104.5t-142.5 -38.5q-202 0 -202 203q0 143 75 236t187 93q58 0 89 -25l3 2q-10 53 -52 107zM309 417q-55 0 -93 -62t-38 -167
q0 -100 72 -100q57 0 92 62.5t40 174.5q0 48 -17 70t-56 22z" />
    <glyph glyph-name="ntilde" unicode="&#xf1;" horiz-adv-x="537" 
d="M517 367l-63 -367h-141l58 332q16 94 -56 94q-42 0 -69 -33t-36 -82l-54 -311h-142l66 372q14 81 19 139l143 17q-3 -34 -9 -71h2q62 77 154 77q76 0 108.5 -44t19.5 -123zM474 738l34 -59q-16 -31 -43 -50.5t-59 -19.5q-26 0 -73 18q-45 19 -69 19q-41 0 -64 -41l-43 55
q15 29 47 51.5t64 22.5q30 0 75 -18q47 -18 66 -18q14 0 22.5 2t20 11t22.5 27z" />
    <glyph glyph-name="ograve" unicode="&#xf2;" horiz-adv-x="540" 
d="M518 260q-20 -132 -94 -203t-193 -71q-197 0 -197 201q0 157 81 252q83 95 213 95q191 0 197 -188q0 -45 -7 -86zM310 430q-56 0 -94 -68t-38 -174q0 -100 72 -100q58 0 95 66q38 67 38 176q0 51 -17.5 75.5t-55.5 24.5zM330 756l76 -168h-78l-133 168h135z" />
    <glyph glyph-name="oacute" unicode="&#xf3;" horiz-adv-x="540" 
d="M518 260q-20 -132 -94 -203t-193 -71q-197 0 -197 201q0 157 81 252q83 95 213 95q191 0 197 -188q0 -45 -7 -86zM310 430q-56 0 -94 -68t-38 -174q0 -100 72 -100q58 0 95 66q38 67 38 176q0 51 -17.5 75.5t-55.5 24.5zM401 754h141l-168 -165h-85z" />
    <glyph glyph-name="ocircumflex" unicode="&#xf4;" horiz-adv-x="540" 
d="M518 260q-20 -132 -94 -203t-193 -71q-197 0 -197 201q0 157 81 252q83 95 213 95q191 0 197 -188q0 -45 -7 -86zM310 430q-56 0 -94 -68t-38 -174q0 -100 72 -100q58 0 95 66q38 67 38 176q0 51 -17.5 75.5t-55.5 24.5zM422 745l91 -158h-93l-67 97l-98 -97h-95l143 158
h119z" />
    <glyph glyph-name="otilde" unicode="&#xf5;" horiz-adv-x="540" 
d="M518 260q-20 -132 -94 -203t-193 -71q-197 0 -197 201q0 157 81 252q83 95 213 95q191 0 197 -188q0 -45 -7 -86zM310 430q-56 0 -94 -68t-38 -174q0 -100 72 -100q58 0 95 66q38 67 38 176q0 51 -17.5 75.5t-55.5 24.5zM485 738l34 -59q-16 -31 -43 -50.5t-59 -19.5
q-27 0 -73 18q-45 19 -69 19q-41 0 -64 -41l-43 55q15 29 47 51.5t64 22.5q30 0 75 -18q46 -18 66 -18q14 0 22.5 2t20 11t22.5 27z" />
    <glyph glyph-name="odieresis" unicode="&#xf6;" horiz-adv-x="540" 
d="M518 260q-20 -132 -94 -203t-193 -71q-197 0 -197 201q0 157 81 252q83 95 213 95q191 0 197 -188q0 -45 -7 -86zM310 430q-56 0 -94 -68t-38 -174q0 -100 72 -100q58 0 95 66q38 67 38 176q0 51 -17.5 75.5t-55.5 24.5zM267 748q27 0 44.5 -17t17.5 -44
q0 -38 -26.5 -65.5t-62.5 -27.5q-28 0 -46 17.5t-18 43.5q0 38 27.5 65.5t63.5 27.5zM469 749q28 0 45 -17.5t17 -44.5q0 -38 -26.5 -65t-62.5 -27q-28 0 -45.5 17t-17.5 43q0 39 27 66.5t63 27.5z" />
    <glyph glyph-name="divide" unicode="&#xf7;" horiz-adv-x="577" 
d="M407 449q-5 -32 -31.5 -54.5t-56.5 -22.5t-47 18.5t-17 48.5q0 35 28 60q29 26 62 26q26 0 43.5 -16.5t19.5 -41.5q0 -14 -1 -18zM542 304l-19 -107h-472l18 107h473zM336 49q-5 -31 -31 -53.5t-57 -22.5q-26 0 -43.5 16.5t-19.5 40.5q0 39 26 67t64 28q27 0 44.5 -19
t17.5 -47q0 -2 -1 -6v-4z" />
    <glyph glyph-name="oslash" unicode="&#xf8;" horiz-adv-x="540" 
d="M518 260q-22 -131 -96 -202.5t-191 -71.5q-83 0 -135 38l-23 -24h-68l58 60q-29 47 -29 124q0 156 82 253t212 97q94 0 144 -47l31 33h67l-68 -71q24 -44 24 -106q0 -40 -8 -83zM310 430q-43 0 -74 -38t-44.5 -91.5t-13.5 -112.5q0 -2 0.5 -4t0.5 -4l196 206
q-17 44 -65 44zM374 259q6 35 6 63l-190 -201q16 -33 60 -33q94 0 124 171z" />
    <glyph glyph-name="ugrave" unicode="&#xf9;" horiz-adv-x="527" 
d="M447 0h-139q2 30 7 63h-2q-56 -77 -152 -77q-129 0 -129 125q0 32 13 94l54 305q71 8 143 18l-60 -341q-17 -95 54 -95q39 0 65 31t35 79l56 318h141l-71 -410q-12 -63 -15 -110zM316 756l76 -168h-78l-133 168h135z" />
    <glyph glyph-name="uacute" unicode="&#xfa;" horiz-adv-x="527" 
d="M447 0h-139q2 30 7 63h-2q-56 -77 -152 -77q-129 0 -129 125q0 32 13 94l54 305q71 8 143 18l-60 -341q-17 -95 54 -95q39 0 65 31t35 79l56 318h141l-71 -410q-12 -63 -15 -110zM377 754h141l-168 -165h-85z" />
    <glyph glyph-name="ucircumflex" unicode="&#xfb;" horiz-adv-x="527" 
d="M447 0h-139q2 30 7 63h-2q-56 -77 -152 -77q-129 0 -129 125q0 32 13 94l54 305q71 8 143 18l-60 -341q-17 -95 54 -95q39 0 65 31t35 79l56 318h141l-71 -410q-12 -63 -15 -110zM415 745l91 -158h-93l-67 97l-98 -97h-95l143 158h119z" />
    <glyph glyph-name="udieresis" unicode="&#xfc;" horiz-adv-x="527" 
d="M447 0h-139q2 30 7 63h-2q-56 -77 -152 -77q-129 0 -129 125q0 32 13 94l54 305q71 8 143 18l-60 -341q-17 -95 54 -95q39 0 65 31t35 79l56 318h141l-71 -410q-12 -63 -15 -110zM259 748q27 0 44.5 -17t17.5 -44q0 -38 -26.5 -65.5t-62.5 -27.5q-28 0 -46 17.5t-18 43.5
q0 38 27.5 65.5t63.5 27.5zM461 749q28 0 45 -17.5t17 -44.5q0 -38 -26.5 -65t-62.5 -27q-28 0 -45.5 17t-17.5 43q0 39 27 66.5t63 27.5z" />
    <glyph glyph-name="yacute" unicode="&#xfd;" horiz-adv-x="486" 
d="M229 133h5l42 104l123 283h139l-241 -487q-32 -65 -49 -93q-21 -35 -48 -68q-51 -65 -136 -65q-23 0 -60 8q0 6 -2 54l-3 54q27 -9 54 -9q53 0 75 48l11 23l-80 524q17 3 70 10l70 9l23 -286q6 -56 7 -109zM363 754h141l-168 -165h-85z" />
    <glyph glyph-name="thorn" unicode="&#xfe;" horiz-adv-x="544" 
d="M521 258q-19 -126 -81.5 -199t-159.5 -73q-89 0 -116 66h-3l-42 -230l-71 -9q-57 -7 -71 -10l161 926l144 20l-50 -284h3q60 69 140 69q153 0 153 -181q0 -50 -7 -95zM316 429q-40 0 -72 -39q-57 -74 -57 -208q0 -92 71 -92q92 0 120 171q7 36 7 77q0 91 -69 91z" />
    <glyph glyph-name="ydieresis" unicode="&#xff;" horiz-adv-x="486" 
d="M229 133h5l42 104l123 283h139l-241 -487q-32 -65 -49 -93q-21 -35 -48 -68q-51 -65 -136 -65q-23 0 -60 8q0 6 -2 54l-3 54q27 -9 54 -9q53 0 75 48l11 23l-80 524q17 3 70 10l70 9l23 -286q6 -56 7 -109zM249 748q27 0 44.5 -17t17.5 -44q0 -38 -26.5 -65.5
t-62.5 -27.5q-28 0 -46 17.5t-18 43.5q0 38 27.5 65.5t63.5 27.5zM451 749q28 0 45 -17.5t17 -44.5q0 -38 -26.5 -65t-62.5 -27q-28 0 -45.5 17t-17.5 43q0 39 27 66.5t63 27.5z" />
    <glyph glyph-name="Amacron" unicode="&#x100;" horiz-adv-x="646" 
d="M501 718l100 -718h-151l-17 155h-241l-73 -155h-144l350 718h176zM244 271h177l-18 175l-11 145h-3q-79 -184 -145 -320zM591 884l-17 -95h-297l16 95h298z" />
    <glyph glyph-name="amacron" unicode="&#x101;" horiz-adv-x="556" 
d="M288 533q44 0 73.5 -21t39.5 -55h2q1 6 16 63h138q-13 -45 -30 -142l-42 -235q-11 -54 27 -54q11 0 20 4l-14 -42l-16 -48q-40 -17 -78 -17q-39 0 -61 19.5t-22 57.5h-3q-59 -77 -158 -77q-146 0 -146 186q0 160 71 261q72 100 183 100zM368 261q8 48 8 76q0 92 -70 92
q-47 0 -75.5 -41t-43.5 -127q-9 -50 -9 -85q0 -86 66 -86q96 0 124 171zM495 707l-18 -96h-294l17 96h295z" />
    <glyph glyph-name="Abreve" unicode="&#x102;" horiz-adv-x="646" 
d="M501 718l100 -718h-151l-17 155h-241l-73 -155h-144l350 718h176zM244 271h177l-18 175l-11 145h-3q-79 -184 -145 -320zM435 852q31 0 52.5 22t27.5 54h84q-11 -56 -58 -105q-47 -48 -120 -48q-72 0 -102 48q-29 51 -19 105h82q-5 -30 9.5 -53t43.5 -23z" />
    <glyph glyph-name="abreve" unicode="&#x103;" horiz-adv-x="556" 
d="M288 533q44 0 73.5 -21t39.5 -55h2q1 6 16 63h138q-13 -45 -30 -142l-42 -235q-11 -54 27 -54q11 0 20 4l-14 -42l-16 -48q-40 -17 -78 -17q-39 0 -61 19.5t-22 57.5h-3q-59 -77 -158 -77q-146 0 -146 186q0 160 71 261q72 100 183 100zM368 261q8 48 8 76q0 92 -70 92
q-47 0 -75.5 -41t-43.5 -127q-9 -50 -9 -85q0 -86 66 -86q96 0 124 171zM342 662q31 0 53.5 23t28.5 56h82q-10 -56 -58 -107q-46 -48 -120 -48q-71 0 -101 48q-29 51 -19 106h82q-5 -31 9 -54.5t43 -23.5z" />
    <glyph glyph-name="Aogonek" unicode="&#x104;" horiz-adv-x="646" 
d="M480 718l100 -718h-98q-67 -65 -72 -118q0 -40 52 -40q33 0 72 11l-16 -51q-48 -24 -109 -24q-45 0 -71.5 16.5t-26.5 48.5q0 81 117 162l-16 150h-241l-73 -155h-144l350 718h176zM223 271h177l-18 175l-11 145h-3q-79 -184 -145 -320z" />
    <glyph glyph-name="aogonek" unicode="&#x105;" horiz-adv-x="517" 
d="M256 533q44 0 73.5 -21t39.5 -55h2q1 6 16 63h138q-13 -45 -30 -142l-42 -235q-11 -54 27 -54q11 0 20 4l-14 -42l-16 -48q-40 -17 -78 -17q-14 0 -26 3q-31 -30 -51 -63t-22 -56q0 -40 52 -40q33 0 72 11l-16 -51q-48 -24 -109 -24q-45 0 -71.5 16.5t-26.5 48.5
q0 88 137 174q-22 19 -22 58h-3q-59 -77 -158 -77q-146 0 -146 186q0 160 71 261q72 100 183 100zM336 261q8 48 8 76q0 92 -70 92q-47 0 -75.5 -41t-43.5 -127q-9 -49 -9 -85q0 -86 66 -86q96 0 124 171z" />
    <glyph glyph-name="Cacute" unicode="&#x106;" horiz-adv-x="622" 
d="M458 733q111 0 166.5 -60.5t38.5 -161.5l-157 -23q22 54 2 92.5t-75 38.5q-70 0 -112.5 -65t-64.5 -195q-28 -125 -8 -192t93 -67q66 0 99 52t33 122l149 -48q-27 -117 -102 -179.5t-195 -62.5q-148 0 -201.5 94.5t-20.5 282.5q65 372 355 372zM481 948h141l-157 -170
h-86z" />
    <glyph glyph-name="cacute" unicode="&#x107;" horiz-adv-x="494" 
d="M354 212l133 -35q-19 -88 -83 -139.5t-155 -51.5q-116 0 -162 70t-22 204q22 128 93.5 201t179.5 73q91 0 137 -51.5t30 -137.5l-139 -19q27 104 -44 104q-40 0 -70 -45t-43 -121q-29 -174 60 -174q35 0 58.5 32t26.5 90zM394 754h141l-168 -165h-85z" />
    <glyph glyph-name="Ccircumflex" unicode="&#x108;" horiz-adv-x="622" 
d="M458 733q111 0 166.5 -60.5t38.5 -161.5l-157 -23q22 54 2 92.5t-75 38.5q-70 0 -112.5 -65t-64.5 -195q-28 -125 -8 -192t93 -67q66 0 99 52t33 122l149 -48q-27 -117 -102 -179.5t-195 -62.5q-148 0 -201.5 94.5t-20.5 282.5q65 372 355 372zM542 932l93 -150h-97
l-69 84l-97 -84h-93l143 150h120z" />
    <glyph glyph-name="ccircumflex" unicode="&#x109;" horiz-adv-x="494" 
d="M354 212l133 -35q-19 -88 -83 -139.5t-155 -51.5q-116 0 -162 70t-22 204q22 128 93.5 201t179.5 73q91 0 137 -51.5t30 -137.5l-139 -19q27 104 -44 104q-40 0 -70 -45t-43 -121q-29 -174 60 -174q35 0 58.5 32t26.5 90zM430 745l91 -158h-93l-67 97l-98 -97h-95
l143 158h119z" />
    <glyph glyph-name="Cdotaccent" unicode="&#x10a;" horiz-adv-x="622" 
d="M458 733q111 0 166.5 -60.5t38.5 -161.5l-157 -23q22 54 2 92.5t-75 38.5q-70 0 -112.5 -65t-64.5 -195q-28 -125 -8 -192t93 -67q66 0 99 52t33 122l149 -48q-27 -117 -102 -179.5t-195 -62.5q-148 0 -201.5 94.5t-20.5 282.5q65 372 355 372zM491 951q32 0 51 -19.5
t19 -50.5q0 -41 -31 -71q-31 -29 -68 -29q-31 0 -50.5 19t-19.5 49q0 42 30 72t69 30z" />
    <glyph glyph-name="cdotaccent" unicode="&#x10b;" horiz-adv-x="494" 
d="M354 212l133 -35q-19 -88 -83 -139.5t-155 -51.5q-116 0 -162 70t-22 204q22 128 93.5 201t179.5 73q91 0 137 -51.5t30 -137.5l-139 -19q27 104 -44 104q-40 0 -70 -45t-43 -121q-29 -174 60 -174q35 0 58.5 32t26.5 90zM374 764q32 0 51 -19.5t19 -50.5q0 -41 -31 -71
q-31 -29 -68 -29q-31 0 -50.5 19t-19.5 49q0 42 30 72t69 30z" />
    <glyph glyph-name="Ccaron" unicode="&#x10c;" horiz-adv-x="622" 
d="M458 733q111 0 166.5 -60.5t38.5 -161.5l-157 -23q22 54 2 92.5t-75 38.5q-70 0 -112.5 -65t-64.5 -195q-28 -125 -8 -192t93 -67q66 0 99 52t33 122l149 -48q-27 -117 -102 -179.5t-195 -62.5q-148 0 -201.5 94.5t-20.5 282.5q65 372 355 372zM395 782l-90 150h94
l66 -86l100 86h96l-146 -150h-120z" />
    <glyph glyph-name="ccaron" unicode="&#x10d;" horiz-adv-x="494" 
d="M354 212l133 -35q-19 -88 -83 -139.5t-155 -51.5q-116 0 -162 70t-22 204q22 128 93.5 201t179.5 73q91 0 137 -51.5t30 -137.5l-139 -19q27 104 -44 104q-40 0 -70 -45t-43 -121q-29 -174 60 -174q35 0 58.5 32t26.5 90zM278 585l-86 157h94l65 -91l97 91h97l-146 -157
h-121z" />
    <glyph glyph-name="Dcaron" unicode="&#x10e;" horiz-adv-x="650" 
d="M21 0l126 718h207q328 0 279 -361q-24 -183 -120 -270t-268 -87h-224zM330 604h-56l-86 -489h68q100 0 153 59.5t74 187.5q19 127 -17 184.5t-136 57.5zM316 782l-90 150h94l66 -86l100 86h96l-146 -150h-120z" />
    <glyph glyph-name="dcaron" unicode="&#x10f;" horiz-adv-x="679" 
d="M471 0h-142q1 39 6 65q-55 -79 -152 -79q-150 0 -150 175q0 163 67 267q67 106 179 106q85 0 123 -69l48 265l143 20l-101 -582q-14 -68 -21 -168zM306 429q-47 0 -75.5 -41.5t-44.5 -127.5q-8 -48 -8 -75q0 -49 16 -72t52 -23q58 0 94 68t36 181q-3 90 -70 90zM700 741
q59 0 59 -64q0 -53 -38 -106t-88 -84q-18 23 -30 37q47 32 68 81q-51 5 -51 55q0 34 24 57.5t56 23.5z" />
    <glyph glyph-name="Dcroat" unicode="&#x110;" horiz-adv-x="650" 
d="M93 410l54 308h207q328 0 279 -361q-24 -183 -120 -270t-268 -87h-224l56 322h-56l15 88h57zM330 604h-56l-34 -194h103l-16 -88h-103l-36 -207h68q100 0 153 59.5t74 187.5q19 127 -17 184.5t-136 57.5z" />
    <glyph glyph-name="dslash" unicode="&#x111;" horiz-adv-x="545" 
d="M424 586h-108l13 71h108l13 73l143 20l-16 -93h50l-13 -71h-49q-58 -327 -73 -418q-14 -68 -21 -168h-142q1 39 6 65q-55 -79 -152 -79q-150 0 -150 175q0 163 67 267q67 106 179 106q85 0 123 -69zM306 429q-47 0 -75.5 -41.5t-44.5 -127.5q-8 -48 -8 -75q0 -49 16 -72
t52 -23q58 0 94 68t36 181q-3 90 -70 90z" />
    <glyph glyph-name="Emacron" unicode="&#x112;" horiz-adv-x="538" 
d="M496 116l-19 -116h-456l126 718h436l-50 -116h-259l-30 -172h253l-20 -115h-253l-35 -199h307zM541 901l-17 -95h-297l16 95h298z" />
    <glyph glyph-name="emacron" unicode="&#x113;" horiz-adv-x="505" 
d="M237 86q35 0 56.5 26t23.5 70q102 -29 129 -37q-57 -159 -223 -159q-192 0 -192 199q0 118 62 227q33 56 91 89t130 33q81 0 126.5 -35.5t45.5 -103.5q0 -81 -83.5 -128.5t-228.5 -50.5q-3 -16 -3 -39q0 -38 17 -64.5t49 -26.5zM297 432q-34 0 -63 -34.5t-42 -91.5
q156 4 156 81q0 20 -14 32.5t-37 12.5zM498 707l-18 -96h-294l17 96h295z" />
    <glyph glyph-name="Ebreve" unicode="&#x114;" horiz-adv-x="538" 
d="M496 116l-19 -116h-456l126 718h436l-50 -116h-259l-30 -172h253l-20 -115h-253l-35 -199h307zM382 852q31 0 52.5 22t27.5 54h84q-11 -56 -58 -105q-46 -48 -120 -48q-72 0 -102 48q-29 51 -19 105h82q-5 -30 9.5 -53t43.5 -23z" />
    <glyph glyph-name="ebreve" unicode="&#x115;" horiz-adv-x="505" 
d="M237 86q35 0 56.5 26t23.5 70q102 -29 129 -37q-57 -159 -223 -159q-192 0 -192 199q0 118 62 227q33 56 91 89t130 33q81 0 126.5 -35.5t45.5 -103.5q0 -81 -83.5 -128.5t-228.5 -50.5q-3 -16 -3 -39q0 -38 17 -64.5t49 -26.5zM297 432q-34 0 -63 -34.5t-42 -91.5
q156 4 156 81q0 20 -14 32.5t-37 12.5zM337 662q31 0 53.5 23t28.5 56h82q-10 -56 -58 -107q-47 -48 -120 -48q-71 0 -101 48q-29 51 -19 106h82q-5 -31 9 -54.5t43 -23.5z" />
    <glyph glyph-name="Edotaccent" unicode="&#x116;" horiz-adv-x="538" 
d="M496 116l-19 -116h-456l126 718h436l-50 -116h-259l-30 -172h253l-20 -115h-253l-35 -199h307zM398 946q32 0 51 -19.5t19 -50.5q0 -41 -31 -71q-31 -29 -68 -29q-31 0 -50.5 19t-19.5 49q0 42 30 72t69 30z" />
    <glyph glyph-name="edotaccent" unicode="&#x117;" horiz-adv-x="505" 
d="M237 86q35 0 56.5 26t23.5 70q102 -29 129 -37q-57 -159 -223 -159q-192 0 -192 199q0 118 62 227q33 56 91 89t130 33q81 0 126.5 -35.5t45.5 -103.5q0 -81 -83.5 -128.5t-228.5 -50.5q-3 -16 -3 -39q0 -38 17 -64.5t49 -26.5zM297 432q-34 0 -63 -34.5t-42 -91.5
q156 4 156 81q0 20 -14 32.5t-37 12.5zM359 764q32 0 51 -19.5t19 -50.5q0 -41 -31 -71q-31 -29 -68 -29q-31 0 -50.5 19t-19.5 49q0 42 30 72t69 30z" />
    <glyph glyph-name="Eogonek" unicode="&#x118;" horiz-adv-x="538" 
d="M496 116l-19 -116h-64q-61 -61 -67 -113q0 -40 52 -40q33 0 72 11l-16 -51q-48 -24 -109 -24q-45 0 -71.5 16.5t-26.5 48.5q0 76 103 152h-329l126 718h436l-50 -116h-259l-30 -172h253l-20 -115h-253l-35 -199h307z" />
    <glyph glyph-name="eogonek" unicode="&#x119;" horiz-adv-x="505" 
d="M237 86q35 0 56.5 26t23.5 70q102 -29 129 -37q-31 -84 -93 -125q-33 -30 -55 -65t-24 -59q0 -40 52 -40q33 0 72 11l-16 -51q-48 -24 -109 -24q-45 0 -71.5 16.5t-26.5 48.5q0 64 75 130q-6 -1 -27 -1q-192 0 -192 199q0 118 62 227q33 56 91 89t130 33
q81 0 126.5 -35.5t45.5 -103.5q0 -81 -83.5 -128.5t-228.5 -50.5q-3 -16 -3 -39q0 -38 17 -64.5t49 -26.5zM297 432q-34 0 -63 -34.5t-42 -91.5q156 4 156 81q0 20 -14 32.5t-37 12.5z" />
    <glyph glyph-name="Ecaron" unicode="&#x11a;" horiz-adv-x="538" 
d="M496 116l-19 -116h-456l126 718h436l-50 -116h-259l-30 -172h253l-20 -115h-253l-35 -199h307zM314 782l-90 150h94l66 -86l100 86h96l-146 -150h-120z" />
    <glyph glyph-name="ecaron" unicode="&#x11b;" horiz-adv-x="505" 
d="M237 86q35 0 56.5 26t23.5 70q102 -29 129 -37q-57 -159 -223 -159q-192 0 -192 199q0 118 62 227q33 56 91 89t130 33q81 0 126.5 -35.5t45.5 -103.5q0 -81 -83.5 -128.5t-228.5 -50.5q-3 -16 -3 -39q0 -38 17 -64.5t49 -26.5zM297 432q-34 0 -63 -34.5t-42 -91.5
q156 4 156 81q0 20 -14 32.5t-37 12.5zM260 585l-86 157h94l65 -91l97 91h97l-146 -157h-121z" />
    <glyph glyph-name="Gcircumflex" unicode="&#x11c;" horiz-adv-x="645" 
d="M432 732q101 -1 153.5 -48t52.5 -133q0 -25 -4 -40l-155 -24q10 27 10 53q0 35 -21.5 56t-60.5 21q-138 0 -185 -260q-11 -61 -11 -110q0 -148 103 -148q63 0 104 53q42 55 43 122h-107l9 54q6 30 10 56h253q-11 -184 -87 -290q-77 -107 -237 -107q-243 0 -243 251
q0 52 12 121q64 373 361 373zM513 932l93 -150h-97l-69 84l-97 -84h-93l143 150h120z" />
    <glyph glyph-name="gcircumflex" unicode="&#x11d;" horiz-adv-x="543" 
d="M338 88h-4q-60 -68 -144 -68q-153 0 -153 166q0 148 68 248q67 100 181 100q44 0 75 -22t41 -58q8 38 19 65h136q-20 -87 -26 -131l-59 -336q-21 -120 -88.5 -183t-174.5 -63q-102 0 -152.5 37.5t-57.5 118.5l146 30q-2 -8 -2 -16q0 -64 62 -64q54 0 86 34q13 12 23 41
q8 21 14 46q3 13 10 55zM307 429q-55 0 -90 -65t-35 -150q0 -89 71 -89q54 0 89 57.5t35 150.5q0 96 -70 96zM427 745l91 -158h-93l-67 97l-98 -97h-95l143 158h119z" />
    <glyph glyph-name="Gbreve" unicode="&#x11e;" horiz-adv-x="645" 
d="M432 732q101 -1 153.5 -48t52.5 -133q0 -25 -4 -40l-155 -24q10 27 10 53q0 35 -21.5 56t-60.5 21q-138 0 -185 -260q-11 -61 -11 -110q0 -148 103 -148q63 0 104 53q42 55 43 122h-107l9 54q6 30 10 56h253q-11 -184 -87 -290q-77 -107 -237 -107q-243 0 -243 251
q0 52 12 121q64 373 361 373zM438 852q31 0 52.5 22t27.5 54h84q-11 -56 -58 -105q-46 -48 -120 -48q-72 0 -102 48q-29 51 -19 105h82q-5 -30 9.5 -53t43.5 -23z" />
    <glyph glyph-name="gbreve" unicode="&#x11f;" horiz-adv-x="543" 
d="M338 88h-4q-60 -68 -144 -68q-153 0 -153 166q0 148 68 248q67 100 181 100q44 0 75 -22t41 -58q8 38 19 65h136q-20 -87 -26 -131l-59 -336q-21 -120 -88.5 -183t-174.5 -63q-102 0 -152.5 37.5t-57.5 118.5l146 30q-2 -8 -2 -16q0 -64 62 -64q54 0 86 34q13 12 23 41
q8 21 14 46q3 13 10 55zM307 429q-55 0 -90 -65t-35 -150q0 -89 71 -89q54 0 89 57.5t35 150.5q0 96 -70 96zM356 662q31 0 53.5 23t28.5 56h82q-10 -56 -58 -107q-46 -48 -120 -48q-71 0 -101 48q-29 51 -19 106h82q-5 -31 9 -54.5t43 -23.5z" />
    <glyph glyph-name="Gdotaccent" unicode="&#x120;" horiz-adv-x="645" 
d="M432 732q101 -1 153.5 -48t52.5 -133q0 -25 -4 -40l-155 -24q10 27 10 53q0 35 -21.5 56t-60.5 21q-138 0 -185 -260q-11 -61 -11 -110q0 -148 103 -148q63 0 104 53q42 55 43 122h-107l9 54q6 30 10 56h253q-11 -184 -87 -290q-77 -107 -237 -107q-243 0 -243 251
q0 52 12 121q64 373 361 373zM462 949q32 0 51 -19.5t19 -50.5q0 -41 -31 -71q-31 -29 -68 -29q-31 0 -50.5 19t-19.5 49q0 42 30 72t69 30z" />
    <glyph glyph-name="gdotaccent" unicode="&#x121;" horiz-adv-x="543" 
d="M338 88h-4q-60 -68 -144 -68q-153 0 -153 166q0 148 68 248q67 100 181 100q44 0 75 -22t41 -58q8 38 19 65h136q-20 -87 -26 -131l-59 -336q-21 -120 -88.5 -183t-174.5 -63q-102 0 -152.5 37.5t-57.5 118.5l146 30q-2 -8 -2 -16q0 -64 62 -64q54 0 86 34q13 12 23 41
q8 21 14 46q3 13 10 55zM307 429q-55 0 -90 -65t-35 -150q0 -89 71 -89q54 0 89 57.5t35 150.5q0 96 -70 96zM372 764q32 0 51 -19.5t19 -50.5q0 -41 -31 -71q-31 -29 -68 -29q-31 0 -50.5 19t-19.5 49q0 42 30 72t69 30z" />
    <glyph glyph-name="Gcommaaccent" unicode="&#x122;" horiz-adv-x="645" 
d="M432 732q101 -1 153.5 -48t52.5 -133q0 -25 -4 -40l-155 -24q10 27 10 53q0 35 -21.5 56t-60.5 21q-138 0 -185 -260q-11 -61 -11 -110q0 -148 103 -148q63 0 104 53q42 55 43 122h-107l9 54q6 30 10 56h253q-11 -184 -87 -290q-77 -107 -237 -107q-243 0 -243 251
q0 52 12 121q64 373 361 373zM276 -46q59 0 59 -64q0 -53 -38 -106t-88 -84q-18 23 -30 37q47 32 68 81q-51 4 -51 55q0 33 24 57t56 24z" />
    <glyph glyph-name="gcommaaccent" unicode="&#x123;" horiz-adv-x="543" 
d="M338 88h-4q-60 -68 -144 -68q-153 0 -153 166q0 148 68 248q67 100 181 100q44 0 75 -22t41 -58q8 38 19 65h136q-20 -87 -26 -131l-59 -336q-21 -120 -88.5 -183t-174.5 -63q-102 0 -152.5 37.5t-57.5 118.5l146 30q-2 -8 -2 -16q0 -64 62 -64q54 0 86 34q13 12 23 41
q8 21 14 46q3 13 10 55zM307 429q-55 0 -90 -65t-35 -150q0 -89 71 -89q54 0 89 57.5t35 150.5q0 96 -70 96zM362 582q-59 0 -59 64q0 54 37 106t89 84q18 -23 30 -37q-47 -32 -68 -81q51 -4 51 -55q0 -33 -24 -57t-56 -24z" />
    <glyph glyph-name="Hcircumflex" unicode="&#x124;" horiz-adv-x="633" 
d="M668 718l-126 -718h-147l55 315h-226l-55 -315h-147l126 718h147l-51 -285h226l51 285h147zM500 932l93 -150h-97l-69 84l-97 -84h-93l143 150h120z" />
    <glyph glyph-name="hcircumflex" unicode="&#x125;" horiz-adv-x="532" 
d="M513 367l-64 -367h-141l60 338q7 44 -7.5 68.5t-50.5 24.5q-42 0 -68 -30.5t-35 -77.5l-56 -323h-141l129 731l143 20l-51 -292h1q58 75 152 75q76 0 109.5 -45t19.5 -122zM305 940l93 -150h-97l-69 84l-97 -84h-93l143 150h120z" />
    <glyph glyph-name="Hbar" unicode="&#x126;" horiz-adv-x="633" 
d="M639 556l-97 -556h-147l55 315h-226l-55 -315h-147l97 555h-49q1 9 13 75h49l16 88h147l-16 -88h226l16 88h147l-16 -88q6 0 24 0.5t23 0.5l-14 -75h-46zM470 433l22 123h-226l-22 -123h226z" />
    <glyph glyph-name="hbar" unicode="&#x127;" horiz-adv-x="532" 
d="M113 586h-40l13 71h40l13 74l143 20l-17 -94h144l-13 -71h-143l-22 -127h1q58 75 152 75q76 0 109.5 -45t19.5 -122l-64 -367h-141l60 338q7 44 -7.5 68.5t-50.5 24.5q-42 0 -68 -30.5t-35 -77.5l-56 -323h-141z" />
    <glyph glyph-name="Itilde" unicode="&#x128;" horiz-adv-x="276" 
d="M387 920l34 -59q-16 -31 -43 -50.5t-59 -19.5q-27 0 -73 18q-45 19 -69 19q-41 0 -64 -41l-43 55q15 29 47 51.5t64 22.5q30 0 75 -18q46 -18 66 -18q14 0 22.5 2t20 11t22.5 27zM303 718l-126 -718h-148l126 718h148z" />
    <glyph glyph-name="itilde" unicode="&#x129;" horiz-adv-x="249" 
d="M341 738l34 -59q-16 -31 -43 -50.5t-59 -19.5q-27 0 -73 18q-45 19 -69 19q-41 0 -64 -41l-43 55q15 29 47 51.5t64 22.5q30 0 75 -18q46 -18 66 -18q14 0 22.5 2t20 11t22.5 27zM253 529l-93 -529h-142l90 512z" />
    <glyph glyph-name="Imacron" unicode="&#x12a;" horiz-adv-x="276" 
d="M303 718l-126 -718h-148l126 718h148zM406 901l-17 -95h-297l16 95h298z" />
    <glyph glyph-name="imacron" unicode="&#x12b;" horiz-adv-x="249" 
d="M363 707l-18 -96h-294l17 96h295zM253 529l-93 -529h-142l90 512z" />
    <glyph glyph-name="Ibreve" unicode="&#x12c;" horiz-adv-x="276" 
d="M251 852q31 0 52.5 22t27.5 54h84q-11 -56 -58 -105q-47 -48 -120 -48q-72 0 -102 48q-29 51 -19 105h82q-5 -30 9.5 -53t43.5 -23zM303 718l-126 -718h-148l126 718h148z" />
    <glyph glyph-name="ibreve" unicode="&#x12d;" horiz-adv-x="249" 
d="M211 668q31 0 53.5 23t28.5 56h82q-10 -56 -58 -107q-47 -48 -120 -48q-71 0 -101 48q-29 51 -19 106h82q-5 -31 9 -54.5t43 -23.5zM253 529l-93 -529h-142l90 512z" />
    <glyph glyph-name="Iogonek" unicode="&#x12e;" horiz-adv-x="276" 
d="M303 718l-126 -718h-55q-61 -61 -67 -113q0 -40 52 -40q33 0 72 11l-16 -51q-48 -24 -109 -24q-45 0 -71.5 16.5t-26.5 48.5q0 76 103 152h-30l126 718h148z" />
    <glyph glyph-name="iogonek" unicode="&#x12f;" horiz-adv-x="249" 
d="M253 529l-93 -529h-60q-61 -61 -67 -113q0 -40 52 -40q33 0 72 11l-16 -51q-48 -24 -109 -24q-45 0 -71.5 16.5t-26.5 48.5q0 76 103 152h-19l90 511zM223 766q32 0 52 -19.5t20 -50.5q0 -42 -31 -72q-30 -30 -70 -30q-33 0 -52.5 19.5t-19.5 50.5q0 42 30 72
q32 30 71 30z" />
    <glyph glyph-name="Idot" unicode="&#x130;" horiz-adv-x="276" 
d="M303 718l-126 -718h-148l126 718h148zM270 946q32 0 51 -19.5t19 -50.5q0 -41 -31 -71q-31 -29 -68 -29q-31 0 -50.5 19t-19.5 49q0 42 30 72t69 30z" />
    <glyph glyph-name="dotlessi" unicode="&#x131;" horiz-adv-x="249" 
d="M253 529l-93 -529h-142l90 512z" />
    <glyph glyph-name="IJ" unicode="&#x132;" horiz-adv-x="790" 
d="M444 98q52 0 79 35t39 103l85 482h148l-85 -479q-24 -129 -89 -191t-183 -62q-94 0 -148 45.5t-54 130.5q0 23 4 40q106 16 147 23q-9 -25 -9 -44q0 -83 66 -83zM282 718l-126 -718h-148l126 718h148z" />
    <glyph glyph-name="ij" unicode="&#x133;" horiz-adv-x="516" 
d="M470 766q31 0 50.5 -19.5t19.5 -50.5q0 -42 -30 -73q-30 -30 -71 -30q-32 0 -51.5 20t-19.5 50q0 42 31 72q31 31 71 31zM180 -191l-49 109q77 2 104 34q27 31 39 104l79 454q16 3 72 10l73 9l-75 -430q-22 -121 -53 -181q-50 -106 -190 -109zM201 766q32 0 52 -19.5
t20 -50.5q0 -42 -31 -72q-30 -30 -70 -30q-33 0 -52.5 19.5t-19.5 50.5q0 42 30 72q32 30 71 30zM231 529l-93 -529h-142l90 511z" />
    <glyph glyph-name="Jcircumflex" unicode="&#x134;" horiz-adv-x="534" 
d="M217 99q52 0 79 35t39 103l85 482h148l-85 -479q-24 -129 -89 -191t-183 -62q-94 0 -148 45.5t-54 130.5q0 23 4 40q106 16 147 23q-9 -26 -9 -44q0 -83 66 -83zM586 931l93 -150h-97l-69 84l-97 -84h-93l143 150h120z" />
    <glyph glyph-name="jcircumflex" unicode="&#x135;" horiz-adv-x="251" 
d="M-64 -191l-49 109q77 2 104 34q27 31 39 104l79 454q16 3 72 10l73 9l-75 -430q-22 -121 -53 -181q-50 -106 -190 -109zM279 745l91 -158h-93l-67 97l-98 -97h-95l143 158h119z" />
    <glyph glyph-name="Kcommaaccent" unicode="&#x136;" horiz-adv-x="617" 
d="M380 383l199 -383h-176l-171 353l-62 -353h-148l126 718h147l-51 -295h1l255 295h190zM263 -39q59 0 59 -64q0 -53 -38 -106t-88 -84q-18 23 -30 37q47 32 68 81q-51 5 -51 55q0 34 23.5 57.5t56.5 23.5z" />
    <glyph glyph-name="kcommaaccent" unicode="&#x137;" horiz-adv-x="515" 
d="M336 282l140 -282h-155l-124 263l-45 -263h-141l128 730l144 21l-79 -447h1l192 216h166zM202 -46q59 0 59 -64q0 -53 -38 -106t-88 -84q-18 23 -30 37q47 32 68 81q-51 4 -51 55q0 33 24 57t56 24z" />
    <glyph glyph-name="kgreenlandic" unicode="&#x138;" horiz-adv-x="540" 
d="M349 277l142 -277h-158l-124 262l-45 -262h-141l89 511l144 18q-12 -77 -41 -234l44 47l154 177h166z" />
    <glyph glyph-name="Lacute" unicode="&#x139;" horiz-adv-x="513" 
d="M487 116l-49 -116h-416l126 718h147l-106 -602h298zM271 948h141l-157 -170h-86z" />
    <glyph glyph-name="lacute" unicode="&#x13a;" horiz-adv-x="246" 
d="M121 -14q-42 0 -66.5 21t-24.5 62q0 13 3 30l112 630q62 12 145 21l-107 -605q-10 -31 -0.5 -48t48.5 -3l-31 -91q-37 -17 -79 -17zM261 968h141l-157 -170h-86z" />
    <glyph glyph-name="Lcommaaccent" unicode="&#x13b;" horiz-adv-x="513" 
d="M487 116l-49 -116h-416l126 718h147l-106 -602h298zM234 -46q59 0 59 -64q0 -53 -38 -106t-88 -84q-18 23 -30 37q47 32 68 81q-51 4 -51 55q0 33 24 57t56 24z" />
    <glyph glyph-name="lcommaaccent" unicode="&#x13c;" horiz-adv-x="246" 
d="M121 -14q-42 0 -66.5 21t-24.5 62q0 13 3 30l112 630q62 12 145 21l-107 -605q-10 -31 -0.5 -48t48.5 -3l-31 -91q-37 -17 -79 -17zM70 -46q59 0 59 -64q0 -53 -38 -106t-88 -84q-18 23 -30 37q47 32 68 81q-51 4 -51 55q0 33 24 57t56 24z" />
    <glyph glyph-name="Lcaron" unicode="&#x13d;" horiz-adv-x="513" 
d="M487 116l-49 -116h-416l126 718h147l-106 -602h298zM458 721q59 0 59 -64q0 -53 -38 -106t-88 -84q-18 23 -30 37q47 32 68 81q-51 5 -51 55q0 34 24 57.5t56 23.5z" />
    <glyph glyph-name="lcaron" unicode="&#x13e;" horiz-adv-x="378" 
d="M121 -14q-42 0 -66.5 21t-24.5 62q0 13 3 30l112 630q62 12 145 21l-107 -605q-10 -31 -0.5 -48t48.5 -3l-31 -91q-37 -17 -79 -17zM396 742q59 0 59 -64q0 -53 -38 -106t-88 -84q-18 23 -30 37q47 32 68 81q-51 4 -51 55q0 33 24 57t56 24z" />
    <glyph glyph-name="Ldot" unicode="&#x13f;" horiz-adv-x="513" 
d="M487 116l-49 -116h-416l126 718h147l-106 -602h298zM427 468q32 0 51 -19.5t19 -50.5q0 -41 -31 -71q-31 -29 -68 -29q-31 0 -50.5 19t-19.5 49q0 42 30 72t69 30z" />
    <glyph glyph-name="ldot" unicode="&#x140;" horiz-adv-x="420" 
d="M121 -14q-42 0 -66.5 21t-24.5 62q0 13 3 30l112 630q62 12 145 21l-107 -605q-10 -31 -0.5 -48t48.5 -3l-31 -91q-37 -17 -79 -17zM378 468q32 0 51 -19.5t19 -50.5q0 -41 -31 -71q-31 -29 -68 -29q-31 0 -50.5 19t-19.5 49q0 42 30 72t69 30z" />
    <glyph glyph-name="Lslash" unicode="&#x141;" horiz-adv-x="513" 
d="M487 116l-49 -116h-416l41 232l-66 -33l6 89l76 38l69 392h147l-55 -310l128 65q-6 -66 -6 -90l-138 -69l-35 -198h298z" />
    <glyph glyph-name="lslash" unicode="&#x142;" horiz-adv-x="249" 
d="M121 -14q-42 0 -66.5 21t-24.5 62q0 13 3 30l28 158l-61 -32q0 6 5 88l73 39l67 377q62 12 145 21l-56 -314l79 43l-6 -90l-90 -48l-34 -196q-10 -31 -0.5 -48t48.5 -3l-31 -91q-37 -17 -79 -17z" />
    <glyph glyph-name="Nacute" unicode="&#x143;" horiz-adv-x="657" 
d="M693 718l-126 -718h-145l-141 378q-17 44 -35 106h-2q-6 -66 -16 -114l-64 -370h-143l126 718h146l133 -358l41 -123l2 1q3 24 19 128l60 352h145zM463 948h141l-157 -170h-86z" />
    <glyph glyph-name="nacute" unicode="&#x144;" horiz-adv-x="537" 
d="M517 367l-63 -367h-141l58 332q16 94 -56 94q-42 0 -69 -33t-36 -82l-54 -311h-142l66 372q14 81 19 139l143 17q-3 -34 -9 -71h2q62 77 154 77q76 0 108.5 -44t19.5 -123zM372 754h141l-168 -165h-85z" />
    <glyph glyph-name="Ncommaaccent" unicode="&#x145;" horiz-adv-x="657" 
d="M693 718l-126 -718h-145l-141 378q-17 44 -35 106h-2q-6 -66 -16 -114l-64 -370h-143l126 718h146l133 -358l41 -123l2 1q3 24 19 128l60 352h145zM276 -33q59 0 59 -64q0 -53 -38 -106t-88 -84q-18 23 -30 37q47 32 68 81q-51 5 -51 55q0 34 24 57.5t56 23.5z" />
    <glyph glyph-name="ncommaaccent" unicode="&#x146;" horiz-adv-x="537" 
d="M517 367l-63 -367h-141l58 332q16 94 -56 94q-42 0 -69 -33t-36 -82l-54 -311h-142l66 372q14 81 19 139l143 17q-3 -34 -9 -71h2q62 77 154 77q76 0 108.5 -44t19.5 -123zM222 -46q59 0 59 -64q0 -53 -38 -106t-88 -84q-18 23 -30 37q47 32 68 81q-51 4 -51 55
q0 33 24 57t56 24z" />
    <glyph glyph-name="Ncaron" unicode="&#x147;" horiz-adv-x="657" 
d="M693 718l-126 -718h-145l-141 378q-17 44 -35 106h-2q-6 -66 -16 -114l-64 -370h-143l126 718h146l133 -358l41 -123l2 1q3 24 19 128l60 352h145zM375 782l-90 150h94l66 -86l100 86h96l-146 -150h-120z" />
    <glyph glyph-name="ncaron" unicode="&#x148;" horiz-adv-x="537" 
d="M517 367l-63 -367h-141l58 332q16 94 -56 94q-42 0 -69 -33t-36 -82l-54 -311h-142l66 372q14 81 19 139l143 17q-3 -34 -9 -71h2q62 77 154 77q76 0 108.5 -44t19.5 -123zM269 585l-86 157h94l65 -91l97 91h97l-146 -157h-121z" />
    <glyph glyph-name="napostrophe" unicode="&#x149;" horiz-adv-x="537" 
d="M517 367l-63 -367h-141l58 332q16 94 -56 94q-42 0 -69 -33t-36 -82l-54 -311h-142l66 372q14 81 19 139l143 17q-3 -34 -9 -71h2q62 77 154 77q76 0 108.5 -44t19.5 -123zM116 785q59 0 59 -64q0 -53 -38 -106t-88 -84q-18 23 -30 37q47 32 68 81q-51 5 -51 55
q0 34 24 57.5t56 23.5z" />
    <glyph glyph-name="Eng" unicode="&#x14a;" horiz-adv-x="657" 
d="M20 0l126 718h147l145 -383q21 -63 28 -80q2 0 8 34q5 31 12 79q2 12 4 24.5t3 18.5t1 7l53 300h145l-43 -235q-59 -321 -91 -520q-14 -92 -58.5 -139.5t-114.5 -47.5q-45 0 -85 18q1 19 8 104q32 -20 60 -20q21 0 33 14.5t18 47.5l9 50l-161 407l-22 70h-2
q-18 -109 -23 -148l-56 -319h-144z" />
    <glyph glyph-name="eng" unicode="&#x14b;" horiz-adv-x="537" 
d="M517 366l-33 -183q-31 -166 -38 -210q-18 -104 -60.5 -150.5t-116.5 -46.5q-43 0 -82 18l3 112q33 -16 57 -16q44 0 55 62q20 113 34 185q26 127 36 198q15 94 -57 94q-43 0 -69.5 -31t-33.5 -78l-57 -320h-141l31 179q24 132 29 168q20 114 25 165l142 13q-2 -19 -9 -68
l1 -1h1q62 78 154 78q64 0 98 -32t34 -91q0 -24 -3 -45z" />
    <glyph glyph-name="Omacron" unicode="&#x14c;" horiz-adv-x="678" 
d="M429 732q125 0 183 -67.5t58 -200.5q0 -43 -8 -105q-57 -373 -360 -373q-125 0 -183.5 65.5t-58.5 194.5q0 45 11 113q61 373 358 373zM508 358q13 68 13 120q0 141 -109 141q-76 0 -120 -64.5t-68 -195.5q-13 -68 -13 -117q0 -143 108 -143q75 0 121 64t68 195zM605 901
l-17 -95h-297l16 95h298z" />
    <glyph glyph-name="omacron" unicode="&#x14d;" horiz-adv-x="540" 
d="M518 260q-20 -132 -94 -203t-193 -71q-197 0 -197 201q0 157 81 252q83 95 213 95q191 0 197 -188q0 -45 -7 -86zM310 430q-56 0 -94 -68t-38 -174q0 -100 72 -100q58 0 95 66q38 67 38 176q0 51 -17.5 75.5t-55.5 24.5zM512 707l-18 -96h-294l17 96h295z" />
    <glyph glyph-name="Obreve" unicode="&#x14e;" horiz-adv-x="678" 
d="M429 732q125 0 183 -67.5t58 -200.5q0 -43 -8 -105q-57 -373 -360 -373q-125 0 -183.5 65.5t-58.5 194.5q0 45 11 113q61 373 358 373zM508 358q13 68 13 120q0 141 -109 141q-76 0 -120 -64.5t-68 -195.5q-13 -68 -13 -117q0 -143 108 -143q75 0 121 64t68 195zM448 852
q31 0 52.5 22t27.5 54h84q-11 -56 -58 -105q-46 -48 -120 -48q-72 0 -102 48q-29 51 -19 105h82q-5 -30 9.5 -53t43.5 -23z" />
    <glyph glyph-name="obreve" unicode="&#x14f;" horiz-adv-x="540" 
d="M518 260q-20 -132 -94 -203t-193 -71q-197 0 -197 201q0 157 81 252q83 95 213 95q191 0 197 -188q0 -45 -7 -86zM310 430q-56 0 -94 -68t-38 -174q0 -100 72 -100q58 0 95 66q38 67 38 176q0 51 -17.5 75.5t-55.5 24.5zM354 662q31 0 53.5 23t28.5 56h82
q-10 -56 -58 -107q-46 -48 -120 -48q-71 0 -101 48q-29 51 -19 106h82q-5 -31 9 -54.5t43 -23.5z" />
    <glyph glyph-name="Ohungarumlaut" unicode="&#x150;" horiz-adv-x="678" 
d="M429 732q125 0 183 -67.5t58 -200.5q0 -43 -8 -105q-57 -373 -360 -373q-125 0 -183.5 65.5t-58.5 194.5q0 45 11 113q61 373 358 373zM508 358q13 68 13 120q0 141 -109 141q-76 0 -120 -64.5t-68 -195.5q-13 -68 -13 -117q0 -143 108 -143q75 0 121 64t68 195zM409 951
h141l-159 -178h-84zM570 951h141l-159 -178h-85z" />
    <glyph glyph-name="ohungarumlaut" unicode="&#x151;" horiz-adv-x="540" 
d="M518 260q-20 -132 -94 -203t-193 -71q-197 0 -197 201q0 157 81 252q83 95 213 95q191 0 197 -188q0 -45 -7 -86zM310 430q-56 0 -94 -68t-38 -174q0 -100 72 -100q58 0 95 66q38 67 38 176q0 51 -17.5 75.5t-55.5 24.5zM333 760h140l-179 -174h-85zM500 760h140
l-179 -174h-85z" />
    <glyph glyph-name="OE" unicode="&#x152;" horiz-adv-x="885" 
d="M875 116l-20 -116h-419q-51 -14 -105 -14q-150 0 -204 93t-26 280q59 374 344 374q65 0 121 -15h387l-51 -116h-254l-30 -172h251l-21 -115h-251l-35 -199h313zM349 99q37 0 65 15l87 491q-24 15 -59 15q-75 0 -119.5 -65t-68.5 -196q-12 -77 -11.5 -135t27 -91.5
t79.5 -33.5z" />
    <glyph glyph-name="oe" unicode="&#x153;" horiz-adv-x="847" 
d="M577 86q36 0 57.5 25.5t22.5 70.5l131 -39q-63 -157 -225 -157q-115 0 -153 74q-65 -74 -179 -74q-98 0 -148 49.5t-50 143.5q0 162 81 258q81 97 212 97q110 0 154 -75q57 75 173 75q82 0 127.5 -35.5t45.5 -103.5q0 -83 -85 -129q-85 -47 -227 -50q-3 -16 -3 -39
q0 -38 17 -64.5t49 -26.5zM310 430q-57 -2 -94 -69q-38 -68 -38 -173q0 -100 72 -100q57 0 92 64t40 178q0 51 -17 75.5t-55 24.5zM636 432q-33 0 -62.5 -35t-41.5 -91q156 4 156 81q0 20 -14.5 32.5t-37.5 12.5z" />
    <glyph glyph-name="Racute" unicode="&#x154;" horiz-adv-x="607" 
d="M430 300l113 -300h-161l-94 278h-72l-47 -278h-148l126 718h246q101 0 159 -48.5t58 -140.5q0 -90 -48 -150t-132 -79zM358 602h-85l-36 -208h87q61 0 98 32t37 93q0 83 -101 83zM395 948h141l-157 -170h-86z" />
    <glyph glyph-name="racute" unicode="&#x155;" horiz-adv-x="377" 
d="M436 524l-57 -138q-25 7 -51 7q-104 0 -130 -150l-43 -243h-142l62 356q18 104 22 155l142 16q-3 -63 -12 -99h2q51 107 150 107q27 0 57 -11zM258 754h141l-168 -165h-85z" />
    <glyph glyph-name="Rcommaaccent" unicode="&#x156;" horiz-adv-x="607" 
d="M430 300l113 -300h-161l-94 278h-72l-47 -278h-148l126 718h246q101 0 159 -48.5t58 -140.5q0 -90 -48 -150t-132 -79zM358 602h-85l-36 -208h87q61 0 98 32t37 93q0 83 -101 83zM261 -34q59 0 59 -64q0 -53 -38 -106t-88 -84q-18 23 -30 37q47 32 68 81q-51 4 -51 55
q0 33 23.5 57t56.5 24z" />
    <glyph glyph-name="rcommaaccent" unicode="&#x157;" horiz-adv-x="377" 
d="M436 524l-57 -138q-25 7 -51 7q-104 0 -130 -150l-43 -243h-142l62 356q18 104 22 155l142 16q-3 -63 -12 -99h2q51 107 150 107q27 0 57 -11zM77 -38q59 0 59 -64q0 -53 -38 -106t-88 -84q-18 23 -30 37q47 32 68 81q-51 4 -51 55q0 33 23.5 57t56.5 24z" />
    <glyph glyph-name="Rcaron" unicode="&#x158;" horiz-adv-x="607" 
d="M430 300l113 -300h-161l-94 278h-72l-47 -278h-148l126 718h246q101 0 159 -48.5t58 -140.5q0 -90 -48 -150t-132 -79zM358 602h-85l-36 -208h87q61 0 98 32t37 93q0 83 -101 83zM316 782l-90 150h94l66 -86l100 86h96l-146 -150h-120z" />
    <glyph glyph-name="rcaron" unicode="&#x159;" horiz-adv-x="377" 
d="M436 524l-57 -138q-25 7 -51 7q-104 0 -130 -150l-43 -243h-142l62 356q18 104 22 155l142 16q-3 -63 -12 -99h2q51 107 150 107q27 0 57 -11zM187 585l-86 157h94l65 -91l97 91h97l-146 -157h-121z" />
    <glyph glyph-name="Sacute" unicode="&#x15a;" horiz-adv-x="584" 
d="M376 732q97 0 156 -50q60 -50 60 -134q0 -2 -2 -34l-158 -25q9 31 9 50q0 81 -87 81q-40 0 -69.5 -27.5t-29.5 -66.5q0 -17 7.5 -30t25 -24t32 -17.5t42.5 -18t43 -18.5q69 -29 109.5 -71t41.5 -114q0 -118 -83 -183q-82 -64 -209 -64q-112 0 -170 53t-58 147q0 18 4 43
l161 33q-14 -45 -14 -73q0 -77 96 -77q56 0 85 26t29 70q0 35 -30.5 60t-74.5 42.5t-88 37.5t-74.5 57t-30.5 90q0 111 80 174q79 63 197 63zM411 948h141l-157 -170h-86z" />
    <glyph glyph-name="sacute" unicode="&#x15b;" horiz-adv-x="460" 
d="M286 535q79 0 121.5 -38t42.5 -112l-64 -16q-11 -3 -24.5 -6.5t-23 -6t-15.5 -3.5q6 23 6 32q0 21 -17.5 31.5t-41.5 10.5q-26 0 -44.5 -12.5t-18.5 -35.5q0 -19 22 -33.5t54 -26t64 -27t54 -45t22 -71.5q0 -80 -66 -136q-66 -54 -170 -54q-170 0 -170 139q0 21 4 38
l136 28q-13 -27 -13 -55q0 -46 56 -46q36 0 59 19t21 41.5t-22 40.5q-12 10 -30.5 19t-44 19.5t-39.5 17.5q-33 16 -53.5 45t-20.5 67q0 89 64 132q65 44 152 44zM334 754h141l-168 -165h-85z" />
    <glyph glyph-name="Scircumflex" unicode="&#x15c;" horiz-adv-x="584" 
d="M376 732q97 0 156 -50q60 -50 60 -134q0 -2 -2 -34l-158 -25q9 31 9 50q0 81 -87 81q-40 0 -69.5 -27.5t-29.5 -66.5q0 -17 7.5 -30t25 -24t32 -17.5t42.5 -18t43 -18.5q69 -29 109.5 -71t41.5 -114q0 -118 -83 -183q-82 -64 -209 -64q-112 0 -170 53t-58 147q0 18 4 43
l161 33q-14 -45 -14 -73q0 -77 96 -77q56 0 85 26t29 70q0 35 -30.5 60t-74.5 42.5t-88 37.5t-74.5 57t-30.5 90q0 111 80 174q79 63 197 63zM476 932l93 -150h-97l-69 84l-97 -84h-93l143 150h120z" />
    <glyph glyph-name="scircumflex" unicode="&#x15d;" horiz-adv-x="460" 
d="M286 535q79 0 121.5 -38t42.5 -112l-64 -16q-11 -3 -24.5 -6.5t-23 -6t-15.5 -3.5q6 23 6 32q0 21 -17.5 31.5t-41.5 10.5q-26 0 -44.5 -12.5t-18.5 -35.5q0 -19 22 -33.5t54 -26t64 -27t54 -45t22 -71.5q0 -80 -66 -136q-66 -54 -170 -54q-170 0 -170 139q0 21 4 38
l136 28q-13 -27 -13 -55q0 -46 56 -46q36 0 59 19t21 41.5t-22 40.5q-12 10 -30.5 19t-44 19.5t-39.5 17.5q-33 16 -53.5 45t-20.5 67q0 89 64 132q65 44 152 44zM374 745l91 -158h-93l-67 97l-98 -97h-95l143 158h119z" />
    <glyph glyph-name="Scedilla" unicode="&#x15e;" horiz-adv-x="584" 
d="M376 732q97 0 156 -50q60 -50 60 -134q0 -2 -2 -34l-158 -25q9 31 9 50q0 81 -87 81q-40 0 -69.5 -27.5t-29.5 -66.5q0 -17 7.5 -30t25 -24t32 -17.5t42.5 -18t43 -18.5q69 -29 109.5 -71t41.5 -114q0 -116 -80 -181q-79 -64 -203 -66l-32 -40q46 -5 69.5 -25.5
t23.5 -52.5q0 -46 -38 -70.5t-96 -24.5q-54 0 -91 15l-3 55q32 -17 79 -17q26 0 43.5 10t17.5 29q0 31 -60 38l-14 19l52 66q-93 9 -140.5 60.5t-47.5 137.5q0 18 4 43l161 33q-14 -45 -14 -73q0 -77 96 -77q56 0 85 26t29 70q0 35 -30.5 60t-74.5 42.5t-88 37.5t-74.5 57
t-30.5 90q0 111 80 174q79 63 197 63z" />
    <glyph glyph-name="scedilla" unicode="&#x15f;" horiz-adv-x="460" 
d="M286 535q79 0 121.5 -38t42.5 -112l-64 -16q-11 -3 -24.5 -6.5t-23 -6t-15.5 -3.5q6 23 6 32q0 21 -17.5 31.5t-41.5 10.5q-26 0 -44.5 -12.5t-18.5 -35.5q0 -19 22 -33.5t54 -26t64 -27t54 -45t22 -71.5q0 -76 -58 -128q-59 -52 -150 -60l-33 -42q46 -5 69.5 -25.5
t23.5 -52.5q0 -46 -38 -70.5t-96 -24.5q-53 0 -91 15l-3 55q32 -17 79 -17q26 0 43.5 10t17.5 29q0 31 -60 38l-14 19l51 65q-147 11 -147 138q0 21 4 38l136 28q-13 -27 -13 -55q0 -46 56 -46q36 0 59 19t21 41.5t-22 40.5q-12 10 -30.5 19t-44 19.5t-39.5 17.5
q-33 16 -53.5 45t-20.5 67q0 89 64 132q65 44 152 44z" />
    <glyph glyph-name="Scaron" unicode="&#x160;" horiz-adv-x="584" 
d="M376 732q97 0 156 -50q60 -50 60 -134q0 -2 -2 -34l-158 -25q9 31 9 50q0 81 -87 81q-40 0 -69.5 -27.5t-29.5 -66.5q0 -17 7.5 -30t25 -24t32 -17.5t42.5 -18t43 -18.5q69 -29 109.5 -71t41.5 -114q0 -118 -83 -183q-82 -64 -209 -64q-112 0 -170 53t-58 147q0 18 4 43
l161 33q-14 -45 -14 -73q0 -77 96 -77q56 0 85 26t29 70q0 35 -30.5 60t-74.5 42.5t-88 37.5t-74.5 57t-30.5 90q0 111 80 174q79 63 197 63zM327 782l-90 150h94l66 -86l100 86h96l-146 -150h-120z" />
    <glyph glyph-name="scaron" unicode="&#x161;" horiz-adv-x="460" 
d="M286 535q79 0 121.5 -38t42.5 -112l-64 -16q-11 -3 -24.5 -6.5t-23 -6t-15.5 -3.5q6 23 6 32q0 21 -17.5 31.5t-41.5 10.5q-26 0 -44.5 -12.5t-18.5 -35.5q0 -19 22 -33.5t54 -26t64 -27t54 -45t22 -71.5q0 -80 -66 -136q-66 -54 -170 -54q-170 0 -170 139q0 21 4 38
l136 28q-13 -27 -13 -55q0 -46 56 -46q36 0 59 19t21 41.5t-22 40.5q-12 10 -30.5 19t-44 19.5t-39.5 17.5q-33 16 -53.5 45t-20.5 67q0 89 64 132q65 44 152 44zM234 585l-86 157h94l65 -91l97 91h97l-146 -157h-121z" />
    <glyph glyph-name="Tcommaaccent" unicode="&#x162;" horiz-adv-x="549" 
d="M633 718l-52 -116h-167l-106 -602h-51l-43 -54q46 -5 69.5 -25.5t23.5 -52.5q0 -46 -38 -70.5t-96 -24.5q-53 0 -91 15l-3 55q32 -17 79 -17q26 0 43.5 10t17.5 29q0 31 -60 38l-14 19l61 78h-44l106 602h-182l20 116h527z" />
    <glyph glyph-name="tcommaaccent" unicode="&#x163;" horiz-adv-x="359" 
d="M340 119l-36 -109q-54 -23 -107 -23q-34 0 -54 7l-32 -41q46 -5 69.5 -25.5t23.5 -52.5q0 -46 -38 -70.5t-96 -24.5q-54 0 -91 15l-3 55q32 -17 79 -17q26 0 43.5 10t17.5 29q0 30 -60 38l-14 19l66 83q-33 30 -33 102q3 39 11 96q11 64 22 114q14 64 18 96h-78l18 100
h80q20 110 23 133l147 56l-32 -189h102l-18 -100h-102l-47 -263q-2 -10 -2 -23q0 -39 40 -39q29 0 83 24z" />
    <glyph glyph-name="Tcaron" unicode="&#x164;" horiz-adv-x="549" 
d="M633 718l-52 -116h-167l-106 -602h-146l106 602h-182l20 116h527zM310 782l-90 150h94l66 -86l100 86h96l-146 -150h-120z" />
    <glyph glyph-name="tcaron" unicode="&#x165;" horiz-adv-x="431" 
d="M339 119l-36 -109q-54 -23 -107 -23q-64 0 -93 29.5t-29 97.5q3 39 11 96q11 64 22 114q13 64 18 96h-78l18 100h80q20 110 23 133l147 56l-32 -189h102l-18 -100h-102l-47 -263q-2 -10 -2 -23q0 -39 40 -39q29 0 83 24zM464 813q59 0 59 -64q0 -53 -38 -106t-88 -84
q-18 23 -30 37q47 32 68 81q-51 5 -51 55q0 34 24 57.5t56 23.5z" />
    <glyph glyph-name="Tbar" unicode="&#x166;" horiz-adv-x="549" 
d="M633 718l-52 -116h-167l-31 -176q110 0 141 1l-13 -75h-141l-62 -352h-146l62 352q-41 0 -73 -1h-72q1 9 13 75h145l31 176h-182l20 116h527z" />
    <glyph glyph-name="tbar" unicode="&#x167;" horiz-adv-x="359" 
d="M340 119l-36 -109q-54 -23 -107 -23q-64 0 -93 29.5t-29 97.5q5 68 17 128h-71q11 64 13 74h72l20 104h-78l18 100h80q20 110 23 133l147 56l-32 -189h102l-18 -100h-102l-19 -104h98q-2 -10 -13 -74h-98l-15 -85q-2 -10 -2 -23q0 -39 40 -39q29 0 83 24z" />
    <glyph glyph-name="Utilde" unicode="&#x168;" horiz-adv-x="647" 
d="M683 718l-83 -472q-48 -260 -307 -260q-115 0 -175 51.5t-60 150.5q0 32 6 70l81 460h147l-41 -236q-29 -168 -42 -238q-3 -16 -3 -41q0 -48 24 -75t69 -27q62 0 101 38t51 105l84 474h148zM570 920l34 -59q-16 -31 -43 -50.5t-59 -19.5q-26 0 -73 18q-45 19 -69 19
q-41 0 -64 -41l-43 55q15 29 47 51.5t64 22.5q30 0 75 -18q47 -18 66 -18q14 0 22.5 2t20 11t22.5 27z" />
    <glyph glyph-name="utilde" unicode="&#x169;" horiz-adv-x="527" 
d="M447 0h-139q2 30 7 63h-2q-56 -77 -152 -77q-129 0 -129 125q0 32 13 94l54 305q71 8 143 18l-60 -341q-17 -95 54 -95q39 0 65 31t35 79l56 318h141l-71 -410q-12 -63 -15 -110zM482 738l34 -59q-16 -31 -43 -50.5t-59 -19.5q-26 0 -73 18q-45 19 -69 19q-41 0 -64 -41
l-43 55q15 29 47 51.5t64 22.5q30 0 75 -18q47 -18 66 -18q14 0 22.5 2t20 11t22.5 27z" />
    <glyph glyph-name="Umacron" unicode="&#x16a;" horiz-adv-x="647" 
d="M683 718l-83 -472q-48 -260 -307 -260q-115 0 -175 51.5t-60 150.5q0 32 6 70l81 460h147l-41 -236q-29 -168 -42 -238q-3 -16 -3 -41q0 -48 24 -75t69 -27q62 0 101 38t51 105l84 474h148zM594 901l-17 -95h-297l16 95h298z" />
    <glyph glyph-name="umacron" unicode="&#x16b;" horiz-adv-x="527" 
d="M447 0h-139q2 30 7 63h-2q-56 -77 -152 -77q-129 0 -129 125q0 32 13 94l54 305q71 8 143 18l-60 -341q-17 -95 54 -95q39 0 65 31t35 79l56 318h141l-71 -410q-12 -63 -15 -110zM498 716l-18 -96h-294l17 96h295z" />
    <glyph glyph-name="Ubreve" unicode="&#x16c;" horiz-adv-x="647" 
d="M683 718l-83 -472q-48 -260 -307 -260q-115 0 -175 51.5t-60 150.5q0 32 6 70l81 460h147l-41 -236q-29 -168 -42 -238q-3 -16 -3 -41q0 -48 24 -75t69 -27q62 0 101 38t51 105l84 474h148zM431 852q31 0 52.5 22t27.5 54h84q-11 -56 -58 -105q-47 -48 -120 -48
q-72 0 -102 48q-29 51 -19 105h82q-5 -30 9.5 -53t43.5 -23z" />
    <glyph glyph-name="ubreve" unicode="&#x16d;" horiz-adv-x="527" 
d="M447 0h-139q2 30 7 63h-2q-56 -77 -152 -77q-129 0 -129 125q0 32 13 94l54 305q71 8 143 18l-60 -341q-17 -95 54 -95q39 0 65 31t35 79l56 318h141l-71 -410q-12 -63 -15 -110zM341 662q31 0 53.5 23t28.5 56h82q-10 -56 -58 -107q-47 -48 -120 -48q-71 0 -101 48
q-29 51 -19 106h82q-5 -31 9 -54.5t43 -23.5z" />
    <glyph glyph-name="Uring" unicode="&#x16e;" horiz-adv-x="647" 
d="M683 718l-83 -472q-48 -260 -307 -260q-115 0 -175 51.5t-60 150.5q0 32 6 70l81 460h147l-41 -236q-29 -168 -42 -238q-3 -16 -3 -41q0 -48 24 -75t69 -27q62 0 101 38t51 105l84 474h148zM320 873q7 47 46 81q37 34 86 34q42 0 69 -26.5t27 -65.5q0 -54 -42 -94
q-40 -40 -93 -40q-43 0 -69 25t-26 65q0 3 2 21zM379 874q-1 -2 -1 -7q0 -21 12 -34t33 -13q26 0 45 21t19 46q0 18 -12.5 29.5t-32.5 11.5q-22 0 -40.5 -16.5t-22.5 -37.5z" />
    <glyph glyph-name="uring" unicode="&#x16f;" horiz-adv-x="527" 
d="M447 0h-139q2 30 7 63h-2q-56 -77 -152 -77q-129 0 -129 125q0 32 13 94l54 305q71 8 143 18l-60 -341q-17 -95 54 -95q39 0 65 31t35 79l56 318h141l-71 -410q-12 -63 -15 -110zM235 687q7 47 46 81q37 34 86 34q42 0 69 -26.5t27 -65.5q0 -54 -42 -94q-40 -40 -93 -40
q-43 0 -69 25t-26 65q0 3 2 21zM294 688q-1 -2 -1 -7q0 -21 12 -34t33 -13q26 0 45 21t19 46q0 18 -12.5 29.5t-32.5 11.5q-22 0 -40.5 -16.5t-22.5 -37.5z" />
    <glyph glyph-name="Uhungarumlaut" unicode="&#x170;" horiz-adv-x="647" 
d="M683 718l-83 -472q-48 -260 -307 -260q-115 0 -175 51.5t-60 150.5q0 32 6 70l81 460h147l-41 -236q-29 -168 -42 -238q-3 -16 -3 -41q0 -48 24 -75t69 -27q62 0 101 38t51 105l84 474h148zM378 951h141l-159 -178h-84zM539 951h141l-159 -178h-85z" />
    <glyph glyph-name="uhungarumlaut" unicode="&#x171;" horiz-adv-x="527" 
d="M447 0h-139q2 30 7 63h-2q-56 -77 -152 -77q-129 0 -129 125q0 32 13 94l54 305q71 8 143 18l-60 -341q-17 -95 54 -95q39 0 65 31t35 79l56 318h141l-71 -410q-12 -63 -15 -110zM302 760h140l-179 -174h-85zM469 760h140l-179 -174h-85z" />
    <glyph glyph-name="Uogonek" unicode="&#x172;" horiz-adv-x="647" 
d="M683 718l-83 -472q-45 -244 -278 -259q-61 -64 -65 -111q0 -40 52 -40q33 0 72 11l-16 -51q-48 -24 -109 -24q-45 0 -71.5 16.5t-26.5 48.5q0 76 101 150q-201 17 -201 201q0 32 6 70l81 460h147l-41 -236q-29 -168 -42 -238q-3 -16 -3 -41q0 -48 24 -75t69 -27
q62 0 101 38t51 105l84 474h148z" />
    <glyph glyph-name="uogonek" unicode="&#x173;" horiz-adv-x="527" 
d="M447 0h-84q-60 -63 -64 -110q0 -40 52 -40q33 0 72 11l-16 -51q-48 -24 -109 -24q-45 0 -71.5 16.5t-26.5 48.5q0 79 108 155q2 27 7 57h-2q-56 -77 -152 -77q-129 0 -129 125q0 32 13 94l54 305q71 8 143 18l-60 -341q-17 -95 54 -95q39 0 65 31t35 79l56 318h141
l-71 -410q-12 -63 -15 -110z" />
    <glyph glyph-name="Wcircumflex" unicode="&#x174;" horiz-adv-x="915" 
d="M511 496h-4q-10 -31 -38 -101q-21 -52 -152 -395h-183l-39 718h151q10 -414 10 -496q0 -4 -2 -78h4q27 84 57 159l161 415h141l18 -404v-73q1 -35 1 -97h4q24 76 64 183l144 391h150l-290 -718h-180l-15 352q-4 122 -2 144zM642 932l93 -150h-97l-69 84l-97 -84h-93
l143 150h120z" />
    <glyph glyph-name="wcircumflex" unicode="&#x175;" horiz-adv-x="781" 
d="M698 520h132l-231 -520h-152l-12 285l-2 61q0 52 1 61h-4q-20 -60 -46 -121l-117 -286h-160l-45 511l143 21l8 -303v-35q0 -29 -1 -48v-32h3q7 23 22 62l23 57l114 287h155l11 -292q2 -34 2 -112h3q34 102 40 114zM545 745l91 -158h-93l-67 97l-98 -97h-95l143 158h119z
" />
    <glyph glyph-name="Ycircumflex" unicode="&#x176;" horiz-adv-x="591" 
d="M515 718h163l-295 -440l-49 -278h-147l48 277l-140 441h162l48 -210q12 -54 20 -118l2 1q26 59 62 115zM479 932l93 -150h-97l-69 84l-97 -84h-93l143 150h120z" />
    <glyph glyph-name="ycircumflex" unicode="&#x177;" horiz-adv-x="486" 
d="M229 133h5l42 104l123 283h139l-241 -487q-32 -65 -49 -93q-21 -35 -48 -68q-51 -65 -136 -65q-23 0 -60 8q0 6 -2 54l-3 54q27 -9 54 -9q53 0 75 48l11 23l-80 524q17 3 70 10l70 9l23 -286q6 -56 7 -109zM399 745l91 -158h-93l-67 97l-98 -97h-95l143 158h119z" />
    <glyph glyph-name="Ydieresis" unicode="&#x178;" horiz-adv-x="591" 
d="M515 718h163l-295 -440l-49 -278h-147l48 277l-140 441h162l48 -210q12 -54 20 -118l2 1q26 59 62 115zM328 933q27 0 44.5 -17.5t17.5 -44.5q0 -38 -27 -65t-63 -27q-28 0 -45.5 17t-17.5 44q0 36 27 65q28 28 64 28zM530 933q28 0 45.5 -17.5t17.5 -44.5q0 -38 -27 -65
t-63 -27q-28 0 -46 17.5t-18 44.5q0 37 28 64q28 28 63 28z" />
    <glyph glyph-name="Zacute" unicode="&#x179;" horiz-adv-x="540" 
d="M499 116l-20 -116h-488l19 112l371 437q30 37 54 58q-50 -5 -82 -5h-242l46 116h440l-22 -123l-340 -405q-1 -1 -9 -10t-26 -28.5t-38 -40.5q42 5 81 5h256zM405 948h141l-157 -170h-86z" />
    <glyph glyph-name="zacute" unicode="&#x17a;" horiz-adv-x="445" 
d="M402 103l-18 -103h-394l17 103l255 277q14 18 43 41q-13 -4 -55 -4h-178l37 103h360l-18 -102l-261 -283q-4 -5 -20.5 -19.5t-18.5 -16.5q37 4 52 4h199zM347 754h141l-168 -165h-85z" />
    <glyph glyph-name="Zdotaccent" unicode="&#x17b;" horiz-adv-x="540" 
d="M499 116l-20 -116h-488l19 112l371 437q30 37 54 58q-50 -5 -82 -5h-242l46 116h440l-22 -123l-340 -405q-1 -1 -9 -10t-26 -28.5t-38 -40.5q42 5 81 5h256zM418 946q32 0 51 -19.5t19 -50.5q0 -41 -31 -71q-31 -29 -68 -29q-31 0 -50.5 19t-19.5 49q0 42 30 72t69 30z
" />
    <glyph glyph-name="zdotaccent" unicode="&#x17c;" horiz-adv-x="445" 
d="M402 103l-18 -103h-394l17 103l255 277q14 18 43 41q-13 -4 -55 -4h-178l37 103h360l-18 -102l-261 -283q-4 -5 -20.5 -19.5t-18.5 -16.5q37 4 52 4h199zM340 764q32 0 51 -19.5t19 -50.5q0 -41 -31 -71q-31 -29 -68 -29q-31 0 -50.5 19t-19.5 49q0 42 30 72t69 30z" />
    <glyph glyph-name="Zcaron" unicode="&#x17d;" horiz-adv-x="540" 
d="M499 116l-20 -116h-488l19 112l371 437q30 37 54 58q-50 -5 -82 -5h-242l46 116h440l-22 -123l-340 -405q-1 -1 -9 -10t-26 -28.5t-38 -40.5q42 5 81 5h256zM324 782l-90 150h94l66 -86l100 86h96l-146 -150h-120z" />
    <glyph glyph-name="zcaron" unicode="&#x17e;" horiz-adv-x="445" 
d="M402 103l-18 -103h-394l17 103l255 277q14 18 43 41q-13 -4 -55 -4h-178l37 103h360l-18 -102l-261 -283q-4 -5 -20.5 -19.5t-18.5 -16.5q37 4 52 4h199zM235 585l-86 157h94l65 -91l97 91h97l-146 -157h-121z" />
    <glyph glyph-name="florin" unicode="&#x192;" 
d="M229 346h-83l7 99h94l21 96q19 94 66 151q46 57 136 57q52 0 82 -14l-11 -111q-29 12 -54 12q-43 0 -62 -28.5t-34 -102.5l-12 -60h95l-7 -99h-107l-49 -226q-25 -117 -69.5 -172.5t-127.5 -55.5q-47 0 -95 20l8 104q41 -11 63 -11q34 0 52 23t33 80q11 43 54 238z" />
    <glyph glyph-name="AEacute" unicode="&#x1fc;" horiz-adv-x="978" 
d="M944 116l-20 -116h-465l27 157h-253l-115 -157h-151l535 718h515l-50 -116h-255l-30 -172h252l-20 -116h-252l-35 -198h317zM315 271h192l58 331h-4zM736 948h141l-157 -170h-86z" />
    <glyph glyph-name="aeacute" unicode="&#x1fd;" horiz-adv-x="788" 
d="M525 86q36 0 57.5 25.5t22.5 70.5l131 -39q-63 -157 -225 -157q-128 0 -167 90q-76 -90 -204 -90q-62 0 -95 29.5t-33 84.5q0 205 322 215l6 39q10 79 -56 79q-36 0 -57.5 -21.5t-25.5 -62.5l-116 38q25 75 84 112t140 37q101 0 132 -64q57 61 161 61q81 0 126.5 -35
t45.5 -103q0 -82 -83 -128.5t-227 -46.5q-6 -30 -6.5 -60t17 -52t50.5 -22zM584 432q-33 0 -62.5 -35t-41.5 -91q156 4 156 81q0 20 -14.5 32.5t-37.5 12.5zM311 189l7 42q-60 -1 -106 -18q-57 -21 -57 -83q0 -49 51 -49q41 0 69 29.5t36 78.5zM506 754h141l-168 -165h-85z
" />
    <glyph glyph-name="Oslashacute" unicode="&#x1fe;" horiz-adv-x="678" 
d="M417 732q117 0 178 -61l41 47h75l-82 -93q30 -61 30 -148q0 -224 -95 -358q-94 -133 -274 -133q-117 0 -179 59l-40 -45h-74l82 90q-31 58 -31 145q0 60 11 124q61 373 358 373zM496 358q10 56 10 81v50l-294 -331q23 -59 95 -59q75 0 121 64t68 195zM212 359
q-11 -58 -11 -108q0 -18 1 -23l294 331q-26 60 -96 60q-76 0 -120.5 -65t-67.5 -195zM459 948h141l-157 -170h-86z" />
    <glyph glyph-name="oslashacute" unicode="&#x1ff;" horiz-adv-x="540" 
d="M506 260q-22 -131 -96 -202.5t-191 -71.5q-83 0 -135 38l-23 -24h-68l58 60q-29 47 -29 124q0 156 82 253t212 97q94 0 144 -47l31 33h67l-68 -71q24 -44 24 -106q0 -40 -8 -83zM298 430q-43 0 -74 -38t-44.5 -91.5t-13.5 -112.5q0 -2 0.5 -4t0.5 -4l196 206
q-17 44 -65 44zM362 259q6 35 6 63l-190 -201q16 -33 60 -33q94 0 124 171zM377 754h141l-168 -165h-85z" />
    <glyph glyph-name="Scommaaccent" unicode="&#x218;" horiz-adv-x="584" 
d="M376 732q97 0 156 -50q60 -50 60 -134q0 -2 -2 -34l-158 -25q9 31 9 50q0 81 -87 81q-40 0 -69.5 -27.5t-29.5 -66.5q0 -17 7.5 -30t25 -24t32 -17.5t42.5 -18t43 -18.5q69 -29 109.5 -71t41.5 -114q0 -118 -83 -183q-82 -64 -209 -64q-112 0 -170 53t-58 147q0 18 4 43
l161 33q-14 -45 -14 -73q0 -77 96 -77q56 0 85 26t29 70q0 35 -30.5 60t-74.5 42.5t-88 37.5t-74.5 57t-30.5 90q0 111 80 174q79 63 197 63zM238 -46q59 0 59 -64q0 -53 -38 -106t-88 -84q-18 23 -30 37q47 32 68 81q-51 4 -51 55q0 33 24 57t56 24z" />
    <glyph glyph-name="scommaaccent" unicode="&#x219;" horiz-adv-x="460" 
d="M286 535q79 0 121.5 -38t42.5 -112l-64 -16q-11 -3 -24.5 -6.5t-23 -6t-15.5 -3.5q6 23 6 32q0 21 -17.5 31.5t-41.5 10.5q-26 0 -44.5 -12.5t-18.5 -35.5q0 -19 22 -33.5t54 -26t64 -27t54 -45t22 -71.5q0 -80 -66 -136q-66 -54 -170 -54q-170 0 -170 139q0 21 4 38
l136 28q-13 -27 -13 -55q0 -46 56 -46q36 0 59 19t21 41.5t-22 40.5q-12 10 -30.5 19t-44 19.5t-39.5 17.5q-33 16 -53.5 45t-20.5 67q0 89 64 132q65 44 152 44zM178 -46q59 0 59 -64q0 -53 -38 -106t-88 -84q-18 23 -30 37q47 32 68 81q-51 4 -51 55q0 33 24 57t56 24z
" />
    <glyph glyph-name="uni021A" unicode="&#x21a;" horiz-adv-x="549" 
d="M633 718l-52 -116h-167l-106 -602h-146l106 602h-182l20 116h527zM224 -46q59 0 59 -64q0 -53 -38 -106t-88 -84q-18 23 -30 37q47 32 68 81q-51 4 -51 55q0 33 24 57t56 24z" />
    <glyph glyph-name="uni021B" unicode="&#x21b;" horiz-adv-x="359" 
d="M340 119l-36 -109q-54 -23 -107 -23q-64 0 -93 29.5t-29 97.5q3 39 11 96q11 64 22 114q14 64 18 96h-78l18 100h80q20 110 23 133l147 56l-32 -189h102l-18 -100h-102l-47 -263q-2 -10 -2 -23q0 -39 40 -39q29 0 83 24zM129 -46q59 0 59 -64q0 -53 -38 -106t-88 -84
q-18 23 -30 37q47 32 68 81q-51 4 -51 55q0 33 23.5 57t56.5 24z" />
    <glyph glyph-name="schwa" unicode="&#x259;" horiz-adv-x="496" 
d="M190 337l-132 39q63 158 226 158q192 0 192 -200q0 -45 -9 -91t-30.5 -93t-53 -83t-81 -58.5t-109.5 -22.5q-81 0 -126.5 35t-45.5 103q0 82 84 129q85 47 227 50q4 13 4 38q0 39 -17 65.5t-50 26.5q-35 0 -56.5 -26t-22.5 -70zM210 87q33 0 62.5 35t41.5 91
q-156 -5 -156 -81q0 -20 14.5 -32.5t37.5 -12.5z" />
    <glyph glyph-name="primemod" unicode="&#x2b9;" horiz-adv-x="243" 
d="M282 731h141l-235 -277h-85z" />
    <glyph glyph-name="circumflex" unicode="&#x2c6;" horiz-adv-x="527" 
d="M418 745l91 -158h-93l-67 97l-98 -97h-95l143 158h119z" />
    <glyph glyph-name="caron" unicode="&#x2c7;" horiz-adv-x="494" 
d="M255 585l-86 157h94l65 -91l97 91h97l-146 -157h-121z" />
    <glyph glyph-name="breve" unicode="&#x2d8;" horiz-adv-x="532" 
d="M364 662q31 0 53.5 23t28.5 56h82q-10 -56 -58 -107q-46 -48 -120 -48q-71 0 -101 48q-29 51 -19 106h82q-5 -31 9 -54.5t43 -23.5z" />
    <glyph glyph-name="dotaccent" unicode="&#x2d9;" horiz-adv-x="516" 
d="M357 764q32 0 51 -19.5t19 -50.5q0 -41 -31 -71q-31 -29 -68 -29q-31 0 -50.5 19t-19.5 49q0 42 30 72t69 30z" />
    <glyph glyph-name="ring" unicode="&#x2da;" horiz-adv-x="517" 
d="M238 687q7 47 46 81q37 34 86 34q42 0 69 -26.5t27 -65.5q0 -54 -42 -94q-40 -40 -93 -40q-43 0 -69 25t-26 65q0 3 2 21zM297 688q-1 -2 -1 -7q0 -21 12 -34t33 -13q26 0 45 21t19 46q0 18 -12.5 29.5t-32.5 11.5q-22 0 -40.5 -16.5t-22.5 -37.5z" />
    <glyph glyph-name="ogonek" unicode="&#x2db;" horiz-adv-x="500" 
d="M290 45l19 -20q-39 -32 -65.5 -71t-29.5 -67q0 -40 52 -40q33 0 72 11l-16 -51q-48 -24 -109 -24q-45 0 -71.5 16.5t-26.5 48.5q0 101 175 197z" />
    <glyph glyph-name="tilde" unicode="&#x2dc;" horiz-adv-x="515" 
d="M481 738l34 -59q-16 -31 -43 -50.5t-59 -19.5q-27 0 -73 18q-45 19 -69 19q-41 0 -64 -41l-43 55q15 29 47 51.5t64 22.5q30 0 75 -18q46 -18 66 -18q14 0 22.5 2t20 11t22.5 27z" />
    <glyph glyph-name="hungarumlaut" unicode="&#x2dd;" horiz-adv-x="470" 
d="M287 760h140l-179 -174h-85zM454 760h140l-179 -174h-85z" />
    <glyph glyph-name="tonos" unicode="&#x384;" horiz-adv-x="428" 
d="M334 756h141l-170 -167h-85z" />
    <glyph glyph-name="dieresistonos" unicode="&#x385;" horiz-adv-x="479" 
d="M320 777h141l-170 -191h-85zM169 754q30 0 47.5 -17.5t17.5 -46.5q0 -38 -28 -66t-65 -28q-30 0 -48 17.5t-18 45.5q0 39 28.5 67t65.5 28zM504 755q30 0 47.5 -18t17.5 -46q0 -39 -28 -67t-65 -28q-30 0 -48 18t-18 45q0 39 28 67q29 29 66 29z" />
    <glyph glyph-name="Alphatonos" unicode="&#x386;" horiz-adv-x="646" 
d="M501 718l100 -718h-151l-17 155h-241l-73 -155h-144l350 718h176zM244 271h177l-18 175l-11 145h-3q-79 -184 -145 -320zM97 720h141l-170 -167h-85z" />
    <glyph glyph-name="anoteleia" unicode="&#x387;" horiz-adv-x="257" 
d="M180 501q31 0 50.5 -20t19.5 -50q0 -41 -30 -69q-31 -29 -69 -29q-30 0 -49.5 19.5t-19.5 48.5q0 40 30 70t68 30z" />
    <glyph glyph-name="Epsilontonos" unicode="&#x388;" horiz-adv-x="538" 
d="M496 116l-19 -116h-456l126 718h436l-50 -116h-259l-30 -172h253l-20 -115h-253l-35 -199h307zM-42 720h141l-170 -167h-85z" />
    <glyph glyph-name="Etatonos" unicode="&#x389;" horiz-adv-x="633" 
d="M668 718l-126 -718h-147l55 315h-226l-55 -315h-147l126 718h147l-51 -285h226l51 285h147zM-42 720h141l-170 -167h-85z" />
    <glyph glyph-name="Iotatonos" unicode="&#x38a;" horiz-adv-x="276" 
d="M303 718l-126 -718h-148l126 718h148zM-34 720h141l-170 -167h-85z" />
    <glyph glyph-name="Omicrontonos" unicode="&#x38c;" horiz-adv-x="678" 
d="M429 732q125 0 183 -67.5t58 -200.5q0 -43 -8 -105q-57 -373 -360 -373q-125 0 -183.5 65.5t-58.5 194.5q0 45 11 113q61 373 358 373zM508 358q13 68 13 120q0 141 -109 141q-76 0 -120 -64.5t-68 -195.5q-13 -68 -13 -117q0 -143 108 -143q75 0 121 64t68 195zM6 720
h141l-170 -167h-85z" />
    <glyph glyph-name="Upsilontonos" unicode="&#x38e;" horiz-adv-x="591" 
d="M515 718h163l-295 -440l-49 -278h-147l48 277l-140 441h162l48 -210q12 -54 20 -118l2 1q26 59 62 115zM-64 720h141l-170 -167h-85z" />
    <glyph glyph-name="Omegatonos" unicode="&#x38f;" horiz-adv-x="688" 
d="M428 732q127 0 188.5 -70t61.5 -198q0 -117 -41 -209t-115 -141q22 2 49 2h56q-17 -96 -20 -116h-266q19 112 22 129q118 31 157 251q9 41 9 95q0 145 -112 145q-86 0 -140 -90.5t-60 -251.5q0 -127 79 -149l-22 -129h-266q17 96 20 116h57q30 0 52 -2q-69 54 -69 189
q0 34 8 85q62 344 352 344zM-2 720h141l-170 -167h-85z" />
    <glyph glyph-name="iotadieresistonos" unicode="&#x390;" horiz-adv-x="249" 
d="M121 -14q-42 0 -66.5 21t-24.5 62q0 13 3 30l75 411q17 3 76 10l69 9l-70 -384q-10 -31 -0.5 -48t48.5 -3l-31 -91q-37 -17 -79 -17zM208 777h141l-170 -191h-85zM57 754q30 0 47.5 -17.5t17.5 -46.5q0 -38 -28 -66t-65 -28q-30 0 -48 17.5t-18 45.5q0 39 28.5 67
t65.5 28zM392 755q30 0 47.5 -18t17.5 -46q0 -39 -28 -67t-65 -28q-30 0 -48 18t-18 45q0 39 28 67q29 29 66 29z" />
    <glyph glyph-name="Alpha" unicode="&#x391;" horiz-adv-x="646" 
d="M501 718l100 -718h-151l-17 155h-241l-73 -155h-144l350 718h176zM244 271h177l-18 175l-11 145h-3q-79 -184 -145 -320z" />
    <glyph glyph-name="Beta" unicode="&#x392;" horiz-adv-x="608" 
d="M21 0l126 718h260q88 0 141 -39t53 -115q0 -69 -40 -119t-102 -65v-2q108 -29 108 -147q0 -75 -42 -131q-76 -100 -220 -100h-284zM359 602h-85l-31 -173h81q55 0 89 25.5t34 75.5q0 38 -21 55t-67 17zM319 315h-95l-36 -201h94q62 0 98.5 32t36.5 92q0 38 -26 57.5
t-72 19.5z" />
    <glyph glyph-name="Gamma" unicode="&#x393;" horiz-adv-x="508" 
d="M536 602h-263l-104 -602h-148l126 718h440z" />
    <glyph glyph-name="increment" unicode="&#x394;" horiz-adv-x="650" 
d="M504 718l99 -718h-627l351 718h177zM176 117h265l-36 341l-10 134h-3l-57 -133z" />
    <glyph glyph-name="increment" unicode="&#x2206;" horiz-adv-x="650" 
d="M504 718l99 -718h-627l351 718h177zM176 117h265l-36 341l-10 134h-3l-57 -133z" />
    <glyph glyph-name="Epsilon" unicode="&#x395;" horiz-adv-x="538" 
d="M496 116l-19 -116h-456l126 718h436l-50 -116h-259l-30 -172h253l-20 -115h-253l-35 -199h307z" />
    <glyph glyph-name="Zeta" unicode="&#x396;" horiz-adv-x="540" 
d="M499 116l-20 -116h-488l19 112l371 437q30 37 54 58q-50 -5 -82 -5h-242l46 116h440l-22 -123l-340 -405q-1 -1 -9 -10t-26 -28.5t-38 -40.5q42 5 81 5h256z" />
    <glyph glyph-name="Eta" unicode="&#x397;" horiz-adv-x="633" 
d="M668 718l-126 -718h-147l55 315h-226l-55 -315h-147l126 718h147l-51 -285h226l51 285h147z" />
    <glyph glyph-name="Theta" unicode="&#x398;" horiz-adv-x="678" 
d="M253 308l21 116h208l-21 -116h-208zM432 732q123 0 181 -63.5t59 -188.5q0 -62 -10 -121q-58 -373 -362 -373q-241 0 -241 247q0 57 12 126q64 373 361 373zM508 358q13 65 13 124q0 137 -109 137q-78 0 -122 -63t-66 -197q-13 -66 -13 -124q0 -136 108 -136q75 0 120 62
t69 197z" />
    <glyph glyph-name="Iota" unicode="&#x399;" horiz-adv-x="276" 
d="M303 718l-126 -718h-148l126 718h148z" />
    <glyph glyph-name="Kappa" unicode="&#x39a;" horiz-adv-x="617" 
d="M380 383l199 -383h-176l-171 353l-62 -353h-148l126 718h147l-51 -295h1l255 295h190z" />
    <glyph glyph-name="Lambda" unicode="&#x39b;" horiz-adv-x="650" 
d="M503 718l100 -718h-146q-39 339 -51 457q-2 15 -10 134h-3l-57 -133l-213 -458h-146l350 718h176z" />
    <glyph glyph-name="Mu" unicode="&#x39c;" horiz-adv-x="796" 
d="M830 718l-126 -718h-146l57 326q9 50 22 105l-3 2l-20 -35q-14 -26 -24 -42l-50 -83l-100 -163h-118l-35 131l-23 95q-12 50 -21 96h-5q-5 -27 -28 -180l-45 -252h-144l126 718h149l71 -294l16 -73l20 -94h4q13 29 57 105q26 40 119 199l92 157h155z" />
    <glyph glyph-name="Nu" unicode="&#x39d;" horiz-adv-x="657" 
d="M693 718l-126 -718h-145l-141 378q-17 44 -35 106h-2q-6 -66 -16 -114l-64 -370h-143l126 718h146l133 -358l41 -123l2 1q3 24 19 128l60 352h145z" />
    <glyph glyph-name="Xi" unicode="&#x39e;" horiz-adv-x="555" 
d="M609 718l-51 -116h-441l20 116h472zM505 426l-20 -115h-379l21 115h378zM513 116l-20 -116h-490l21 116h489z" />
    <glyph glyph-name="Omicron" unicode="&#x39f;" horiz-adv-x="678" 
d="M429 732q125 0 183 -67.5t58 -200.5q0 -43 -8 -105q-57 -373 -360 -373q-125 0 -183.5 65.5t-58.5 194.5q0 45 11 113q61 373 358 373zM508 358q13 68 13 120q0 141 -109 141q-76 0 -120 -64.5t-68 -195.5q-13 -68 -13 -117q0 -143 108 -143q75 0 121 64t68 195z" />
    <glyph glyph-name="Pi" unicode="&#x3a0;" horiz-adv-x="633" 
d="M668 718l-126 -718h-147l106 600h-227l-105 -600h-147l126 718h520z" />
    <glyph glyph-name="Rho" unicode="&#x3a1;" horiz-adv-x="572" 
d="M21 0l126 718h230q103 0 162 -51.5t59 -146.5q0 -128 -89 -202q-89 -72 -233 -72h-66q-12 -77 -41 -246h-148zM342 602h-69l-42 -240h62q65 0 109 35t44 118q0 87 -104 87z" />
    <glyph glyph-name="Sigma" unicode="&#x3a3;" horiz-adv-x="544" 
d="M509 116l-20 -116h-498l18 112l206 262l-105 221q10 50 22 123h470l-50 -116h-237q-13 0 -29 1t-27 1q2 -2 17.5 -27.5t16.5 -27.5l86 -175l-145 -182q-14 -18 -68 -79q60 3 62 3h281z" />
    <glyph glyph-name="Tau" unicode="&#x3a4;" horiz-adv-x="549" 
d="M633 718l-52 -116h-167l-106 -602h-146l106 602h-182l20 116h527z" />
    <glyph glyph-name="Upsilon" unicode="&#x3a5;" horiz-adv-x="591" 
d="M515 718h163l-295 -440l-49 -278h-147l48 277l-140 441h162l48 -210q12 -54 20 -118l2 1q26 59 62 115z" />
    <glyph glyph-name="Phi" unicode="&#x3a6;" horiz-adv-x="787" 
d="M776 378q-16 -120 -102 -201q-86 -79 -231 -93l-14 -84h-142l14 84q-114 11 -172.5 73.5t-58.5 162.5q0 138 86 238q87 100 249 114l8 46h142l-8 -46q118 -11 175 -76t57 -174q0 -22 -3 -44zM529 570l-68 -384q47 6 82.5 32.5t53.5 66.5q32 70 37 146q0 125 -105 139z
M319 186l68 385q-47 -6 -83 -34t-55 -69q-35 -77 -35 -147q0 -121 105 -135z" />
    <glyph glyph-name="Chi" unicode="&#x3a7;" horiz-adv-x="612" 
d="M336 226l-10 40h-4q-12 -22 -51 -77l-134 -189h-171l278 363l-136 355h161l54 -162q13 -32 24 -83h5l54 82l115 163h169l-264 -340l150 -378h-164l-64 189q-3 7 -12 37z" />
    <glyph glyph-name="Psi" unicode="&#x3a8;" horiz-adv-x="761" 
d="M655 718h145l-45 -258q-22 -125 -100 -193t-205 -73q-19 -121 -34 -194h-146q3 20 34 194q-212 21 -212 208q0 32 6 69l42 247h147l-45 -260q-5 -32 -4 -44q0 -88 86 -103l72 406h146l-71 -407q97 12 129 117q12 42 20 86q4 24 19 111z" />
    <glyph glyph-name="Omega" unicode="&#x3a9;" horiz-adv-x="688" 
d="M428 732q127 0 188.5 -70t61.5 -198q0 -117 -41 -209t-115 -141q22 2 49 2h56q-17 -96 -20 -116h-266q19 112 22 129q118 31 157 251q9 41 9 95q0 145 -112 145q-86 0 -140 -90.5t-60 -251.5q0 -127 79 -149l-22 -129h-266q17 96 20 116h57q30 0 52 -2q-69 54 -69 189
q0 34 8 85q62 344 352 344z" />
    <glyph glyph-name="Iotadieresis" unicode="&#x3aa;" horiz-adv-x="276" 
d="M303 718l-126 -718h-148l126 718h148zM166 933q27 0 44.5 -17.5t17.5 -44.5q0 -38 -27 -65t-63 -27q-28 0 -45.5 17t-17.5 44q0 36 27 65q28 28 64 28zM368 933q28 0 45.5 -17.5t17.5 -44.5q0 -38 -27 -65t-63 -27q-28 0 -46 17.5t-18 44.5q0 37 28 64q28 28 63 28z" />
    <glyph glyph-name="Upsilondieresis" unicode="&#x3ab;" horiz-adv-x="591" 
d="M515 718h163l-295 -440l-49 -278h-147l48 277l-140 441h162l48 -210q12 -54 20 -118l2 1q26 59 62 115zM324 933q27 0 44.5 -17.5t17.5 -44.5q0 -38 -27 -65t-63 -27q-28 0 -45.5 17t-17.5 44q0 36 27 65q28 28 64 28zM526 933q28 0 45.5 -17.5t17.5 -44.5q0 -38 -27 -65
t-63 -27q-28 0 -46 17.5t-18 44.5q0 37 28 64q28 28 63 28z" />
    <glyph glyph-name="alphatonos" unicode="&#x3ac;" horiz-adv-x="556" 
d="M288 533q44 0 73.5 -21t39.5 -55h2q1 6 16 63h138q-13 -45 -30 -142l-42 -235q-11 -54 27 -54q11 0 20 4l-14 -42l-16 -48q-40 -17 -78 -17q-39 0 -61 19.5t-22 57.5h-3q-59 -77 -158 -77q-146 0 -146 186q0 160 71 261q72 100 183 100zM368 261q8 48 8 76q0 92 -70 92
q-47 0 -75.5 -41t-43.5 -127q-9 -50 -9 -85q0 -86 66 -86q96 0 124 171zM379 756h141l-170 -167h-85z" />
    <glyph glyph-name="epsilontonos" unicode="&#x3ad;" horiz-adv-x="475" 
d="M313 188q30 -4 135 -22q-18 -83 -79.5 -131.5t-163.5 -48.5q-85 0 -131.5 33.5t-48.5 90.5q0 30 18 76q26 61 97 80l2 3q-30 9 -49 34.5t-19 58.5q0 67 52 119q53 53 157 53q85 0 133.5 -39t48.5 -119l-138 -23q20 74 -51 74q-29 0 -47 -18t-20 -44q0 -48 54 -48h40
l-16 -93h-29q-39 0 -64 -23t-25 -59q0 -22 14.5 -36t40.5 -14q41 0 65 27t24 69zM351 756h141l-170 -167h-85z" />
    <glyph glyph-name="etatonos" unicode="&#x3ae;" horiz-adv-x="537" 
d="M517 367l-96 -546l-144 -20l95 535q8 44 -6 69t-50 25q-43 0 -70 -31.5t-34 -77.5l-56 -321h-142l66 372q14 84 19 140l143 16l-9 -71h2q62 77 154 77q76 0 109 -45t19 -122zM361 756h141l-170 -167h-85z" />
    <glyph glyph-name="iotatonos" unicode="&#x3af;" horiz-adv-x="249" 
d="M253 529l-93 -529h-142l90 512zM249 756h141l-170 -167h-85z" />
    <glyph glyph-name="upsilondieresistonos" unicode="&#x3b0;" horiz-adv-x="556" 
d="M440 512l143 16l-53 -301q-21 -116 -88.5 -178t-168.5 -62q-113 0 -162 60.5t-28 178.5l52 294h141l-58 -321q-18 -109 63 -109q42 0 68.5 28.5t35.5 78.5zM379 777h141l-170 -191h-85zM228 754q30 0 47.5 -17.5t17.5 -46.5q0 -38 -28 -66t-65 -28q-30 0 -48 17.5
t-18 45.5q0 39 28.5 67t65.5 28zM563 755q30 0 47.5 -18t17.5 -46q0 -39 -28 -67t-65 -28q-30 0 -48 18t-18 45q0 39 28 67q29 29 66 29z" />
    <glyph glyph-name="alpha" unicode="&#x3b1;" horiz-adv-x="556" 
d="M288 533q44 0 73.5 -21t39.5 -55h2q1 6 16 63h138q-13 -45 -30 -142l-42 -235q-11 -54 27 -54q11 0 20 4l-14 -42l-16 -48q-40 -17 -78 -17q-39 0 -61 19.5t-22 57.5h-3q-59 -77 -158 -77q-146 0 -146 186q0 160 71 261q72 100 183 100zM368 261q8 48 8 76q0 92 -70 92
q-47 0 -75.5 -41t-43.5 -127q-9 -50 -9 -85q0 -86 66 -86q96 0 124 171z" />
    <glyph glyph-name="beta" unicode="&#x3b2;" horiz-adv-x="543" 
d="M518 225q-20 -114 -81.5 -176t-156.5 -62q-84 0 -114 67h-1q-1 -1 -2 -1l-42 -231q-26 -4 -141 -20l119 684q24 135 88 200.5t175 65.5q85 0 130.5 -43t45.5 -113q0 -46 -28 -98q-26 -51 -81 -71l-1 -3q44 -12 69 -51.5t25 -90.5q0 -34 -4 -57zM374 228q3 21 3 42
q0 104 -80 104h-33l15 86h23q42 0 69.5 33.5t27.5 85.5q0 31 -14.5 49.5t-42.5 18.5q-76 0 -97 -120l-47 -270q-9 -48 -9 -91q3 -78 72 -78q43 0 72.5 37t40.5 103z" />
    <glyph glyph-name="gamma" unicode="&#x3b3;" horiz-adv-x="503" 
d="M229 401l27 -205h4l148 324h143l-254 -500l-36 -198l-71 -9q-56 -7 -72 -10l38 214l-51 315q-8 51 -18.5 68.5t-32.5 17.5q-7 0 -9 -1q22 88 26 106q29 7 59 7q53 0 71 -30q17 -29 28 -99z" />
    <glyph glyph-name="delta" unicode="&#x3b4;" horiz-adv-x="540" 
d="M313 495l3 2l1 1q-58 90 -160 155l14 86h401l-38 -104h-170q161 -131 161 -302q0 -162 -85 -254q-84 -92 -207 -92q-197 0 -197 198q0 73 26 145q28 72 84 121q58 51 132 51q17 0 35 -7zM374 248q6 42 6 62q0 99 -70 99q-56 0 -91.5 -57.5t-40.5 -164.5q0 -98 74 -98
q46 0 77.5 42t44.5 117z" />
    <glyph glyph-name="epsilon" unicode="&#x3b5;" horiz-adv-x="475" 
d="M313 188q30 -4 135 -22q-18 -83 -79.5 -131.5t-163.5 -48.5q-85 0 -131.5 33.5t-48.5 90.5q0 30 18 76q26 61 97 80l2 3q-30 9 -49 34.5t-19 58.5q0 67 52 119q53 53 157 53q85 0 133.5 -39t48.5 -119l-138 -23q20 74 -51 74q-29 0 -47 -18t-20 -44q0 -48 54 -48h40
l-16 -93h-29q-39 0 -64 -23t-25 -59q0 -22 14.5 -36t40.5 -14q41 0 65 27t24 69z" />
    <glyph glyph-name="zeta" unicode="&#x3b6;" horiz-adv-x="423" 
d="M248 107l44 -23q56 -29 77 -48.5t21 -44.5q0 -31 -38 -90q-36 -57 -93 -95l-99 40q76 75 76 102q0 6 -1.5 10t-6.5 8t-10 6.5l-16 8t-20 10.5q-78 36 -115 76.5t-37 101.5q0 82 58 176q106 170 293 288q-29 -6 -66 -6h-188l37 105h394q-14 -82 -16 -92
q-366 -286 -366 -441q0 -41 38 -69z" />
    <glyph glyph-name="eta" unicode="&#x3b7;" horiz-adv-x="537" 
d="M517 367l-96 -546l-144 -20l95 535q8 44 -6 69t-50 25q-43 0 -70 -31.5t-34 -77.5l-56 -321h-142l66 372q14 84 19 140l143 16l-9 -71h2q62 77 154 77q76 0 109 -45t19 -122z" />
    <glyph glyph-name="theta" unicode="&#x3b8;" horiz-adv-x="549" 
d="M538 368q-23 -129 -65 -217q-80 -166 -243 -166q-186 0 -187 208q-1 63 17 172q65 380 304 380q189 0 189 -226q0 -64 -15 -151zM216 429h188q12 83 12 102q0 111 -70 111q-49 0 -79 -52t-51 -161zM248 88q60 0 92 74q29 67 47 169h-190q-15 -74 -15 -140q0 -103 66 -103
z" />
    <glyph glyph-name="iota" unicode="&#x3b9;" horiz-adv-x="249" 
d="M121 -14q-42 0 -66.5 21t-24.5 62q0 13 3 30l75 411q17 3 76 10l69 9l-70 -384q-10 -31 -0.5 -48t48.5 -3l-31 -91q-37 -17 -79 -17z" />
    <glyph glyph-name="kappa" unicode="&#x3ba;" horiz-adv-x="540" 
d="M349 277l142 -277h-158l-124 262l-45 -262h-141l89 511l144 18q-12 -77 -41 -234l44 47l154 177h166z" />
    <glyph glyph-name="lambda" unicode="&#x3bb;" horiz-adv-x="517" 
d="M501 97l-39 -96q-42 -11 -73 -11q-71 0 -79 71l-23 188q-6 50 -6 101h-3l-28 -70l-136 -280h-142l273 509l-7 74q-4 37 -24.5 47.5t-68.5 6.5l46 107q39 6 62 6q59 0 86.5 -27.5t35.5 -89.5l64 -509q3 -22 22 -28.5t40 1.5z" />
    <glyph glyph-name="nu" unicode="&#x3bd;" horiz-adv-x="493" 
d="M403 520h140l-251 -520h-159l-71 512l141 19l20 -262q2 -19 5 -76q4 -57 4 -78h4q7 22 28 75l31 75z" />
    <glyph glyph-name="xi" unicode="&#x3be;" horiz-adv-x="437" 
d="M275 -193l-101 40l9.5 9.5t17 16.5t12.5 13q37 33 37 56q0 14 -19.5 26t-78.5 36q-124 55 -124 166q0 45 16 89q18 48 58 88t92 57v2l1 2q-88 31 -88 126q0 87 62 152q61 64 174 64q85 0 133.5 -39.5t48.5 -112.5q0 -2 -0.5 -8.5t-0.5 -7.5l-70 -12l-69 -11q6 18 6 34
q0 52 -51 52q-47 0 -71 -36q-23 -37 -23 -78q0 -75 101 -75h67l-19 -107h-72q-64 0 -108 -40q-45 -41 -45 -104q0 -31 28 -63q9 -10 41 -28l49 -24q65 -33 90 -56t25 -51q0 -37 -35 -84.5t-93 -91.5z" />
    <glyph glyph-name="omicron" unicode="&#x3bf;" horiz-adv-x="540" 
d="M518 260q-20 -132 -94 -203t-193 -71q-197 0 -197 201q0 157 81 252q83 95 213 95q191 0 197 -188q0 -45 -7 -86zM310 430q-56 0 -94 -68t-38 -174q0 -100 72 -100q58 0 95 66q38 67 38 176q0 51 -17.5 75.5t-55.5 24.5z" />
    <glyph glyph-name="pi" unicode="&#x3c0;" horiz-adv-x="553" 
d="M553 520l-92 -520h-139l72 417h-159l-72 -417h-141q67 397 92 520h439z" />
    <glyph glyph-name="rho" unicode="&#x3c1;" 
d="M521 264q-18 -130 -79 -204t-158 -74q-92 0 -123 67h-2l-41 -232l-143 -19l78 441q51 292 288 292q107 -1 152.5 -73t27.5 -198zM377 260q31 171 -60 171t-123 -170q-28 -172 63 -172q90 0 120 171z" />
    <glyph glyph-name="sigma1" unicode="&#x3c2;" horiz-adv-x="479" 
d="M316 534q82 0 126 -43t44 -113q0 -19 -3 -34l-139 -20q9 36 9 46q0 60 -52 60q-50 0 -84 -64q-35 -65 -35 -152q0 -31 13 -53q13 -23 27 -33q14 -9 47 -27l11 -6q60 -34 86 -55q25 -21 25 -50q1 -7 -5 -29t-37.5 -65.5t-84.5 -80.5l-54 21q-9 4 -20 8t-17.5 7t-10.5 4
q76 66 77 94q0 13 -15 24q-11 7 -60 31q-68 33 -97.5 74.5t-29.5 111.5q0 158 76 250q76 94 203 94z" />
    <glyph glyph-name="sigma" unicode="&#x3c3;" horiz-adv-x="559" 
d="M503 421l-3 -5q53 -46 37 -167q-16 -123 -90.5 -193t-190.5 -70q-119 0 -167.5 69t-26.5 197q22 126 94.5 197t187.5 71h286l-37 -103h-36q-37 0 -54 4zM394 251q32 167 -65 167q-96 0 -124 -166q-30 -164 66 -164q95 0 123 163z" />
    <glyph glyph-name="tau" unicode="&#x3c4;" horiz-adv-x="392" 
d="M412 417h-118l-46 -257q-6 -33 4 -47.5t37 -14.5q34 0 79 22l-36 -110q-49 -23 -106 -23q-73 0 -103.5 38.5t-15.5 122.5l48 269h-112l36 103h351z" />
    <glyph glyph-name="upsilon" unicode="&#x3c5;" horiz-adv-x="556" 
d="M440 512l143 16l-53 -301q-21 -116 -88.5 -178t-168.5 -62q-113 0 -162 60.5t-28 178.5l52 294h141l-58 -321q-18 -109 63 -109q42 0 68.5 28.5t35.5 78.5z" />
    <glyph glyph-name="phi" unicode="&#x3c6;" horiz-adv-x="728" 
d="M249 522l60 -92q-50 -11 -91 -70q-40 -58 -40 -157q0 -101 94 -116l78 443h90q56 0 102 -11t85 -35.5t60.5 -69.5t21.5 -107q0 -139 -87 -226q-88 -88 -228 -95l-29 -164q-100 -14 -143 -19q10 52 32 183q-104 3 -161.5 60.5t-57.5 151.5q0 129 65 215t149 109zM566 257
q4 27 4 48q0 111 -98 119l-60 -338q61 6 101 52.5t53 118.5z" />
    <glyph glyph-name="chi" unicode="&#x3c7;" horiz-adv-x="456" 
d="M55 511l147 20l32 -187l8 -65l24 62l98 179h158l-226 -347l100 -350l-141 -21l-42 211l-11 72l-31 -61l-130 -214h-148l247 380z" />
    <glyph glyph-name="psi" unicode="&#x3c8;" horiz-adv-x="696" 
d="M205 -197q0 1 2 11t5 28t7 39q11 60 19 107q-193 12 -193 198q0 44 9 91l43 243h140l-56 -315q0 -1 -0.5 -5t-0.5 -6q0 -91 77 -99l84 476q17 1 71 8q48 7 72 9l-86 -492q50 4 81 36t40 87l51 290q109 14 141 19l-49 -280q-20 -110 -92 -182q-71 -72 -191 -77l-30 -167
q-24 -4 -72 -9q-56 -7 -72 -10z" />
    <glyph glyph-name="omega" unicode="&#x3c9;" horiz-adv-x="763" 
d="M742 263q-20 -129 -90 -202.5t-174 -73.5q-103 0 -120 80q-62 -80 -158 -80q-81 0 -123.5 49t-42.5 140q0 44 8 87q23 128 87.5 197t165.5 72l8 -103q-64 1 -96 -71q-31 -69 -31 -178q0 -44 15 -67.5t42 -23.5q26 0 42 18t29 51q11 30 20 92q3 14 7.5 47.5t6.5 43.5h136
l-30 -167q-2 -16 -2 -28q0 -57 51 -57q35 0 62.5 40.5t41.5 120.5q9 51 9 90q0 98 -70 88l40 103q84 -1 128 -54t44 -152q0 -29 -6 -62z" />
    <glyph glyph-name="iotadieresis" unicode="&#x3ca;" horiz-adv-x="249" 
d="M121 -14q-42 0 -66.5 21t-24.5 62q0 13 3 30l75 411q17 3 76 10l69 9l-70 -384q-10 -31 -0.5 -48t48.5 -3l-31 -91q-37 -17 -79 -17zM123 748q27 0 44.5 -17t17.5 -44q0 -38 -26.5 -65.5t-62.5 -27.5q-28 0 -46 17.5t-18 43.5q0 38 27.5 65.5t63.5 27.5zM325 749
q28 0 45 -17.5t17 -44.5q0 -38 -26.5 -65t-62.5 -27q-28 0 -45.5 17t-17.5 43q0 39 27 66.5t63 27.5z" />
    <glyph glyph-name="upsilondieresis" unicode="&#x3cb;" horiz-adv-x="556" 
d="M440 512l143 16l-53 -301q-21 -116 -88.5 -178t-168.5 -62q-113 0 -162 60.5t-28 178.5l52 294h141l-58 -321q-18 -109 63 -109q42 0 68.5 28.5t35.5 78.5zM285 748q28 0 45 -17t17 -44q0 -38 -26.5 -65.5t-62.5 -27.5q-28 0 -46 17.5t-18 43.5q0 38 27.5 65.5t63.5 27.5
zM487 749q28 0 45 -17.5t17 -44.5q0 -38 -26.5 -65t-62.5 -27q-28 0 -45.5 17t-17.5 43q0 39 27 66.5t63 27.5z" />
    <glyph glyph-name="omicrontonos" unicode="&#x3cc;" horiz-adv-x="540" 
d="M518 260q-20 -132 -94 -203t-193 -71q-197 0 -197 201q0 157 81 252q83 95 213 95q191 0 197 -188q0 -45 -7 -86zM310 430q-56 0 -94 -68t-38 -174q0 -100 72 -100q58 0 95 66q38 67 38 176q0 51 -17.5 75.5t-55.5 24.5zM392 756h141l-170 -167h-85z" />
    <glyph glyph-name="upsilontonos" unicode="&#x3cd;" horiz-adv-x="556" 
d="M440 512l143 16l-53 -301q-21 -116 -88.5 -178t-168.5 -62q-113 0 -162 60.5t-28 178.5l52 294h141l-58 -321q-18 -109 63 -109q42 0 68.5 28.5t35.5 78.5zM404 756h141l-170 -167h-85z" />
    <glyph glyph-name="omegatonos" unicode="&#x3ce;" horiz-adv-x="763" 
d="M742 263q-20 -129 -90 -202.5t-174 -73.5q-103 0 -120 80q-62 -80 -158 -80q-81 0 -123.5 49t-42.5 140q0 44 8 87q23 128 87.5 197t165.5 72l8 -103q-64 1 -96 -71q-31 -69 -31 -178q0 -44 15 -67.5t42 -23.5q26 0 42 18t29 51q11 30 20 92q3 14 7.5 47.5t6.5 43.5h136
l-30 -167q-2 -16 -2 -28q0 -57 51 -57q35 0 62.5 40.5t41.5 120.5q9 51 9 90q0 98 -70 88l40 103q84 -1 128 -54t44 -152q0 -29 -6 -62zM493 756h141l-170 -167h-85z" />
    <glyph glyph-name="uni0400" unicode="&#x400;" horiz-adv-x="538" 
d="M496 116l-19 -116h-456l126 718h436l-50 -116h-259l-30 -172h253l-20 -115h-253l-35 -199h307zM439 778h-84l-132 169h138z" />
    <glyph glyph-name="afii10023" unicode="&#x401;" horiz-adv-x="538" 
d="M496 116l-19 -116h-456l126 718h436l-50 -116h-259l-30 -172h253l-20 -115h-253l-35 -199h307zM288 933q27 0 44.5 -17.5t17.5 -44.5q0 -38 -27 -65t-63 -27q-28 0 -45.5 17t-17.5 44q0 36 27 65q28 28 64 28zM490 933q28 0 45.5 -17.5t17.5 -44.5q0 -38 -27 -65t-63 -27
q-28 0 -46 17.5t-18 44.5q0 37 28 64q28 28 63 28z" />
    <glyph glyph-name="afii10051" unicode="&#x402;" horiz-adv-x="771" 
d="M410 602l-33 -191h3q33 35 84 56t98 21q90 0 134.5 -50.5t44.5 -140.5q0 -58 -16 -112t-46.5 -99.5t-82.5 -73t-117 -27.5h-11l-33 113q77 -13 114 37q36 49 36 129q0 101 -85 101q-62 0 -105 -49q-44 -49 -56 -118q-20 -124 -35 -198h-147l106 602h-187l20 116h572
l-50 -116h-208z" />
    <glyph glyph-name="afii10052" unicode="&#x403;" horiz-adv-x="508" 
d="M536 602h-263l-104 -602h-148l126 718h440zM375 948h141l-157 -170h-86z" />
    <glyph glyph-name="afii10053" unicode="&#x404;" horiz-adv-x="622" 
d="M424 732q101 0 154.5 -48.5t53.5 -136.5q0 -24 -3 -36l-157 -24q10 31 10 57q0 34 -21 53.5t-59 19.5q-120 0 -166 -192h226l-18 -107h-229q-8 -59 -8 -90q0 -64 22.5 -95t72.5 -31q67 0 102 50q33 48 35 118q44 -13 93.5 -27.5t55.5 -16.5q-55 -241 -300 -241
q-232 0 -232 242q0 65 13 133q65 372 355 372z" />
    <glyph glyph-name="afii10054" unicode="&#x405;" horiz-adv-x="584" 
d="M376 732q97 0 156 -50q60 -50 60 -134q0 -2 -2 -34l-158 -25q9 31 9 50q0 81 -87 81q-40 0 -69.5 -27.5t-29.5 -66.5q0 -17 7.5 -30t25 -24t32 -17.5t42.5 -18t43 -18.5q69 -29 109.5 -71t41.5 -114q0 -118 -83 -183q-82 -64 -209 -64q-112 0 -170 53t-58 147q0 18 4 43
l161 33q-14 -45 -14 -73q0 -77 96 -77q56 0 85 26t29 70q0 35 -30.5 60t-74.5 42.5t-88 37.5t-74.5 57t-30.5 90q0 111 80 174q79 63 197 63z" />
    <glyph glyph-name="afii10055" unicode="&#x406;" horiz-adv-x="276" 
d="M303 718l-126 -718h-148l126 718h148z" />
    <glyph glyph-name="afii10056" unicode="&#x407;" horiz-adv-x="276" 
d="M303 718l-126 -718h-148l126 718h148zM161 927q27 0 44.5 -17.5t17.5 -43.5q0 -38 -26.5 -65.5t-62.5 -27.5q-28 0 -46 17.5t-18 43.5q0 38 27.5 65.5t63.5 27.5zM363 928q28 0 45 -17.5t17 -44.5q0 -38 -26.5 -65t-62.5 -27q-28 0 -45.5 17t-17.5 43q0 39 27 66.5
t63 27.5z" />
    <glyph glyph-name="afii10057" unicode="&#x408;" horiz-adv-x="534" 
d="M217 98q52 0 79 35t39 103l85 482h148l-85 -479q-24 -129 -89 -191t-183 -62q-94 0 -148 45.5t-54 130.5q0 23 4 40q106 16 147 23q-9 -25 -9 -44q0 -83 66 -83z" />
    <glyph glyph-name="afii10058" unicode="&#x409;" horiz-adv-x="954" 
d="M137 273l9 38l102 407h414l-51 -287h96q229 0 229 -178q0 -117 -80 -185t-211 -68h-258l106 602h-135l-61 -245q-44 -176 -73 -236q-58 -119 -165 -135q-22 -2 -36 -2q-3 0 -27 2l-10 116q12 -2 24 -2q50 -6 88 55q10 13 17 38l11 38q1 4 11 42zM680 316h-89l-36 -202h92
q59 0 97 32.5t38 88.5q0 81 -102 81z" />
    <glyph glyph-name="afii10059" unicode="&#x40a;" horiz-adv-x="921" 
d="M568 432h101q109 0 166.5 -45t57.5 -132q0 -119 -81 -187q-80 -68 -211 -68h-256l55 317h-176l-55 -317h-147l126 718h147l-51 -287h176l51 287h147zM639 317h-92l-35 -203h91q60 0 97.5 32.5t37.5 91.5q0 39 -27.5 59t-71.5 20z" />
    <glyph glyph-name="afii10060" unicode="&#x40b;" horiz-adv-x="765" 
d="M730 305l-54 -305h-147l20 115l18 101q7 38 7 61q0 84 -77 84q-60 0 -104 -43.5t-56 -112.5l-35 -205h-147l105 602h-184l21 116h565l-51 -116h-203q-28 -165 -34 -193l1 -1q33 36 85.5 58t103.5 22q82 0 125.5 -35.5t43.5 -102.5q0 -28 -3 -45z" />
    <glyph glyph-name="afii10061" unicode="&#x40c;" horiz-adv-x="617" 
d="M373 383l206 -383h-176l-171 353l-62 -353h-148l126 718h147l-51 -295h1l255 295h190zM421 934h141l-157 -170h-86z" />
    <glyph glyph-name="uni040D" unicode="&#x40d;" horiz-adv-x="657" 
d="M204 304l-13 -61h3q32 48 121 172l220 303h144l-126 -718h-145q39 226 88 478q-1 0 -2 -1l-70 -102l-272 -375h-144l126 718h147l-64 -350zM465 778h-84l-132 169h138z" />
    <glyph glyph-name="afii10062" unicode="&#x40e;" horiz-adv-x="598" 
d="M329 328h2q6 15 54 113l137 277h159l-255 -469q-27 -50 -48 -85q-12 -20 -46 -69q-31 -42 -53 -59q-61 -48 -132 -48q-43 0 -80 10q0 34 -1 62v63q42 -14 65 -14q59 0 104 82l-140 527h163l56 -278q13 -67 15 -112zM408 842q31 0 52.5 22t27.5 54h84q-11 -56 -58 -105
q-46 -48 -120 -48q-72 0 -102 48q-29 51 -19 105h82q-5 -30 9.5 -53t43.5 -23z" />
    <glyph glyph-name="afii10145" unicode="&#x40f;" horiz-adv-x="633" 
d="M416 116l105 602h147l-126 -718h-196l-30 -166h-124l30 166h-200l126 718h147l-106 -602h227z" />
    <glyph glyph-name="afii10017" unicode="&#x410;" horiz-adv-x="646" 
d="M501 718l100 -718h-151l-17 155h-241l-73 -155h-144l350 718h176zM244 271h177l-18 175l-11 145h-3q-79 -184 -145 -320z" />
    <glyph glyph-name="afii10018" unicode="&#x411;" horiz-adv-x="607" 
d="M281 0h-260l126 718h447l-48 -116h-271q-7 -38 -31 -171h106q107 0 165 -46t58 -132q0 -116 -79 -185q-80 -68 -213 -68zM188 114h96q58 0 97 34t39 91q0 77 -109 77h-87z" />
    <glyph glyph-name="afii10019" unicode="&#x412;" horiz-adv-x="608" 
d="M21 0l126 718h260q88 0 141 -39t53 -115q0 -69 -40 -119t-102 -65v-2q108 -29 108 -147q0 -75 -42 -131q-76 -100 -220 -100h-284zM359 602h-85l-31 -173h81q55 0 89 25.5t34 75.5q0 38 -21 55t-67 17zM319 315h-95l-36 -201h94q62 0 98.5 32t36.5 92q0 38 -26 57.5
t-72 19.5z" />
    <glyph glyph-name="afii10020" unicode="&#x413;" horiz-adv-x="508" 
d="M536 602h-263l-104 -602h-148l126 718h440z" />
    <glyph glyph-name="afii10021" unicode="&#x414;" horiz-adv-x="713" 
d="M605 115h86l-48 -271h-123q7 33 28 156h-452l-27 -156h-120q2 11 17.5 100.5t29.5 170.5h69q46 52 74 117q29 67 57 175l77 311h439zM459 115l85 487h-162l-50 -188q-56 -221 -112 -299h239z" />
    <glyph glyph-name="afii10022" unicode="&#x415;" horiz-adv-x="538" 
d="M496 116l-19 -116h-456l126 718h436l-50 -116h-259l-30 -172h253l-20 -115h-253l-35 -199h307z" />
    <glyph glyph-name="afii10024" unicode="&#x416;" horiz-adv-x="971" 
d="M440 353l-281 -353h-186l278 333q26 31 69 59q-34 24 -60 68l-147 258h164l171 -310h1l55 310h148l-51 -295h1l250 295h192l-241 -265q-43 -47 -85 -72q39 -39 62 -84l151 -297h-174l-169 353l-62 -353h-148z" />
    <glyph glyph-name="afii10025" unicode="&#x417;" horiz-adv-x="589" 
d="M266 97q57 0 94.5 36t37.5 93q0 41 -25.5 65.5t-72.5 24.5h-53q5 21 9 56q7 42 10 55h47q53 0 88 32t35 87q0 33 -20.5 52.5t-56.5 19.5q-50 0 -84 -37q-34 -35 -34 -88v-6l-141 29q19 97 94 157q76 59 184 59q91 0 154 -39q63 -37 63 -118q0 -73 -50 -129
q-49 -55 -119 -67v-3q58 -10 92 -47.5t34 -94.5q0 -116 -87 -183q-85 -66 -203 -66q-237 0 -238 190q0 23 3 48l79 16l77 16q-12 -34 -12 -62q0 -44 24 -70t71 -26z" />
    <glyph glyph-name="afii10026" unicode="&#x418;" horiz-adv-x="657" 
d="M216 304l-13 -61h3q32 48 121 172l220 303h144l-126 -718h-145q39 226 88 478q-1 0 -2 -1l-70 -102l-272 -375h-144l126 718h147l-64 -350z" />
    <glyph glyph-name="afii10027" unicode="&#x419;" horiz-adv-x="657" 
d="M216 304l-13 -61h3q32 48 121 172l220 303h144l-126 -718h-145q39 226 88 478q-1 0 -2 -1l-70 -102l-272 -375h-144l126 718h147l-64 -350zM436 842q31 0 53.5 23t28.5 56h82q-10 -56 -58 -107q-46 -48 -120 -48q-71 0 -101 48q-29 51 -19 106h82q-5 -31 9 -54.5
t43 -23.5z" />
    <glyph glyph-name="afii10028" unicode="&#x41a;" horiz-adv-x="617" 
d="M373 383l206 -383h-176l-171 353l-62 -353h-148l126 718h147l-51 -295h1l255 295h190z" />
    <glyph glyph-name="afii10029" unicode="&#x41b;" horiz-adv-x="641" 
d="M675 718l-126 -718h-147l105 601h-146l-79 -311q-16 -65 -28 -99q-14 -41 -34 -82q-30 -62 -76 -91.5t-119 -33.5q-2 0 -26 2l-11 116q2 0 5 -0.5t5 -1t3.5 -0.5h2.5q63 0 89.5 48.5t60.5 182.5q1 4 1.5 6.5t1.5 6t2 6.5q4 22 11 46l81 322h424z" />
    <glyph glyph-name="afii10030" unicode="&#x41c;" horiz-adv-x="796" 
d="M830 718l-126 -718h-146l57 326q9 50 22 105l-3 2l-20 -35q-14 -26 -24 -42l-50 -83l-100 -163h-118l-35 131l-23 95q-12 50 -21 96h-5q-5 -27 -28 -180l-45 -252h-144l126 718h149l71 -294l16 -73l20 -94h4q13 29 57 105q26 40 119 199l92 157h155z" />
    <glyph glyph-name="afii10031" unicode="&#x41d;" horiz-adv-x="633" 
d="M668 718l-126 -718h-147l55 315h-226l-55 -315h-147l126 718h147l-51 -285h226l51 285h147z" />
    <glyph glyph-name="afii10032" unicode="&#x41e;" horiz-adv-x="678" 
d="M429 732q125 0 183 -67.5t58 -200.5q0 -43 -8 -105q-57 -373 -360 -373q-125 0 -183.5 65.5t-58.5 194.5q0 45 11 113q61 373 358 373zM508 358q13 68 13 120q0 141 -109 141q-76 0 -120 -64.5t-68 -195.5q-13 -68 -13 -117q0 -143 108 -143q75 0 121 64t68 195z" />
    <glyph glyph-name="afii10033" unicode="&#x41f;" horiz-adv-x="633" 
d="M668 718l-126 -718h-147l106 600h-227l-105 -600h-147l126 718h520z" />
    <glyph glyph-name="afii10034" unicode="&#x420;" horiz-adv-x="572" 
d="M21 0l126 718h230q103 0 162 -51.5t59 -146.5q0 -128 -89 -202q-89 -72 -233 -72h-66q-12 -77 -41 -246h-148zM342 602h-69l-42 -240h62q65 0 109 35t44 118q0 87 -104 87z" />
    <glyph glyph-name="afii10035" unicode="&#x421;" horiz-adv-x="622" 
d="M458 733q111 0 166.5 -60.5t38.5 -161.5l-157 -23q22 54 2 92.5t-75 38.5q-70 0 -112.5 -65t-64.5 -195q-28 -125 -8 -192t93 -67q66 0 99 52t33 122l149 -48q-27 -117 -102 -179.5t-195 -62.5q-148 0 -201.5 94.5t-20.5 282.5q65 372 355 372z" />
    <glyph glyph-name="afii10036" unicode="&#x422;" horiz-adv-x="549" 
d="M633 718l-52 -116h-167l-106 -602h-146l106 602h-182l20 116h527z" />
    <glyph glyph-name="afii10037" unicode="&#x423;" horiz-adv-x="598" 
d="M329 328h2q6 15 54 113l137 277h159l-255 -469q-27 -50 -48 -85q-12 -20 -46 -69q-31 -42 -53 -59q-61 -48 -132 -48q-43 0 -80 10q0 34 -1 62v63q42 -14 65 -14q59 0 104 82l-140 527h163l56 -278q13 -67 15 -112z" />
    <glyph glyph-name="afii10038" unicode="&#x424;" horiz-adv-x="787" 
d="M776 378q-16 -120 -102 -201q-86 -79 -231 -93l-14 -84h-142l14 84q-114 11 -172.5 73.5t-58.5 162.5q0 138 86 238q87 100 249 114l8 46h142l-8 -46q118 -11 175 -76t57 -174q0 -22 -3 -44zM529 570l-68 -384q47 6 82.5 32.5t53.5 66.5q32 70 37 146q0 125 -105 139z
M319 186l68 385q-47 -6 -83 -34t-55 -69q-35 -77 -35 -147q0 -121 105 -135z" />
    <glyph glyph-name="afii10039" unicode="&#x425;" horiz-adv-x="612" 
d="M336 226l-10 40h-4q-12 -22 -51 -77l-134 -189h-171l278 363l-136 355h161l54 -162q13 -32 24 -83h5l54 82l115 163h169l-264 -340l150 -378h-164l-64 189q-3 7 -12 37z" />
    <glyph glyph-name="afii10040" unicode="&#x426;" horiz-adv-x="677" 
d="M561 115h90q-21 -126 -48 -271h-124l29 156h-487l126 718h147l-106 -603h227l106 603h146z" />
    <glyph glyph-name="afii10041" unicode="&#x427;" horiz-adv-x="622" 
d="M84 502l40 216h145l-37 -209q-6 -30 -6 -50q0 -41 25 -62t66 -21q77 0 144 55l50 287h148l-126 -718h-149l52 298h-2q-79 -46 -177 -46q-84 0 -133 44t-49 127q0 28 9 79z" />
    <glyph glyph-name="afii10042" unicode="&#x428;" horiz-adv-x="906" 
d="M694 116l106 602h148l-126 -718h-807l126 718h147l-106 -602h182l106 602h148l-106 -602h182z" />
    <glyph glyph-name="afii10043" unicode="&#x429;" horiz-adv-x="963" 
d="M794 0h-773l126 718h147l-106 -603h182l106 603h148l-106 -603h182l106 603h148l-107 -603h90l-48 -271h-124z" />
    <glyph glyph-name="afii10044" unicode="&#x42a;" horiz-adv-x="760" 
d="M122 718h331l-51 -287h105q108 0 165.5 -46t57.5 -135q0 -113 -79 -182q-80 -68 -212 -68h-260l105 602h-208q11 25 46 116zM346 114h95q59 0 97 34t38 91q0 77 -102 77h-93z" />
    <glyph glyph-name="afii10045" unicode="&#x42b;" horiz-adv-x="844" 
d="M878 718l-126 -718h-147l126 718h147zM21 0l126 718h148q-23 -139 -51 -287h106q109 0 166.5 -44t57.5 -130q0 -117 -79 -187q-77 -70 -214 -70h-260zM188 114h96q58 0 96.5 34t38.5 91q0 39 -28 58t-74 19h-93z" />
    <glyph glyph-name="afii10046" unicode="&#x42c;" horiz-adv-x="606" 
d="M21 0l126 718h148q-23 -139 -51 -287h106q108 0 165 -46t57 -133q0 -115 -79 -184q-79 -68 -212 -68h-260zM188 114h96q58 0 96.5 34t38.5 91q0 39 -28 58t-74 19h-93z" />
    <glyph glyph-name="afii10047" unicode="&#x42d;" horiz-adv-x="619" 
d="M381 732q232 0 233 -241q0 -59 -9 -120q-60 -386 -351 -386q-116 0 -168.5 48.5t-52.5 147.5q0 19 3 42l157 33q-9 -32 -9 -66q0 -89 89 -89q69 0 108.5 53t60.5 164h-229l19 107h227q6 40 6 73q0 121 -98 121q-51 0 -82 -36.5t-31 -95.5l-143 29q20 101 91.5 158.5
t178.5 57.5z" />
    <glyph glyph-name="afii10048" unicode="&#x42e;" horiz-adv-x="928" 
d="M913 359q-27 -172 -113 -273q-85 -100 -233 -100q-263 0 -221 329h-122l-55 -315h-147l126 718h147l-51 -285h124q77 299 331 299q272 0 214 -373zM764 358q26 121 7 190q-18 71 -93 71q-72 0 -113.5 -64t-65.5 -196q-12 -79 -12.5 -136.5t24 -90.5t75.5 -33
q73 0 114 63.5t64 195.5z" />
    <glyph glyph-name="afii10049" unicode="&#x42f;" horiz-adv-x="602" 
d="M344 278l-191 -278h-164l220 300q-54 13 -86.5 57.5t-32.5 105.5q0 66 24.5 117t66.5 80t91.5 43.5t103.5 14.5h258l-126 -718h-148l50 278h-66zM339 394h92l36 208h-89q-47 0 -91 -32t-44 -96q0 -40 26 -60t70 -20z" />
    <glyph glyph-name="afii10065" unicode="&#x430;" horiz-adv-x="556" 
d="M288 533q44 0 73.5 -21t39.5 -55h2q1 6 16 63h138q-13 -45 -30 -142l-42 -235q-11 -54 27 -54q11 0 20 4l-14 -42l-16 -48q-40 -17 -78 -17q-39 0 -61 19.5t-22 57.5h-3q-59 -77 -158 -77q-146 0 -146 186q0 160 71 261q72 100 183 100zM368 261q8 48 8 76q0 92 -70 92
q-47 0 -75.5 -41t-43.5 -127q-9 -50 -9 -85q0 -86 66 -86q96 0 124 171z" />
    <glyph glyph-name="afii10066" unicode="&#x431;" horiz-adv-x="540" 
d="M234 -14q-194 0 -194 202q0 34 7 77q56 351 280 438q27 10 60 19q19 5 67.5 17t70.5 18l38 -99q-36 -11 -74 -20l-72 -18q-34 -9 -61 -20q-49 -19 -81 -49.5t-53 -84.5h2q52 55 127 55q82 0 125.5 -46.5t47.5 -133.5q0 -167 -78 -262q-78 -93 -212 -93zM312 418
q-64 0 -98 -72q-35 -72 -35 -161q0 -97 72 -97q59 0 93 69q36 69 36 171q0 90 -68 90z" />
    <glyph glyph-name="afii10067" unicode="&#x432;" horiz-adv-x="522" 
d="M316 532q77 0 130 -34q54 -34 54 -97q0 -37 -21 -68t-60 -46q0 -2 1 -3q75 -21 75 -108q0 -65 -59 -124q-69 -67 -209 -67q-95 0 -145.5 40t-50.5 118q0 23 8 74l20 108q43 207 257 207zM299 428q-74 0 -98 -127l-21 -107q-11 -55 4.5 -80.5t63.5 -25.5q47 0 75.5 26.5
t28.5 63.5q0 26 -18.5 42t-55.5 16h-34l17 81h30q54 -1 70 39q14 33 -12 57q-18 18 -50 15z" />
    <glyph glyph-name="afii10068" unicode="&#x433;" horiz-adv-x="448" 
d="M208 86q39 0 62 27.5t24 78.5q52 -14 65 -17l66 -17q-21 -84 -82 -128t-150 -44q-83 0 -133 36.5t-50 102.5q0 71 45 112.5t142 74.5q113 38 113 82q0 17 -14 27.5t-37 10.5q-71 0 -79 -81l-117 39q49 144 202 144q74 0 126 -34q53 -35 53 -102q0 -63 -40.5 -102.5
t-126.5 -70.5q-71 -25 -100.5 -44.5t-29.5 -46.5q0 -21 16.5 -34.5t44.5 -13.5z" />
    <glyph glyph-name="afii10069" unicode="&#x434;" horiz-adv-x="541" 
d="M285 514q41 0 76 -15.5t52 -43.5l3 2v15q0 84 -41 133.5t-115 49.5q-4 0 -36 -2l42 99q3 0 11.5 0.5t10.5 0.5q132 0 193 -81q62 -80 62 -211q0 -148 -39 -262q-73 -213 -266 -213q-97 0 -149 51t-52 138q0 146 66 242q67 97 182 97zM311 419q-43 0 -75 -41
q-59 -73 -59 -196q0 -48 17 -71.5t56 -23.5q35 0 63 25.5t43 66.5q28 78 28 147q0 93 -73 93z" />
    <glyph glyph-name="afii10070" unicode="&#x435;" horiz-adv-x="505" 
d="M237 86q35 0 56.5 26t23.5 70q102 -29 129 -37q-57 -159 -223 -159q-192 0 -192 199q0 118 62 227q33 56 91 89t130 33q81 0 126.5 -35.5t45.5 -103.5q0 -81 -83.5 -128.5t-228.5 -50.5q-3 -16 -3 -39q0 -38 17 -64.5t49 -26.5zM297 432q-34 0 -63 -34.5t-42 -91.5
q156 4 156 81q0 20 -14 32.5t-37 12.5z" />
    <glyph glyph-name="afii10072" unicode="&#x436;" horiz-adv-x="800" 
d="M337 262l-206 -262h-161l191 234q18 23 61 51q-32 19 -54 57l-103 178h158l120 -227l39 227h142l-40 -226h1l194 226h164l-178 -194q-16 -18 -65 -49q34 -28 47 -54l109 -223h-163l-114 262l-46 -262h-142z" />
    <glyph glyph-name="afii10073" unicode="&#x437;" horiz-adv-x="482" 
d="M18 158l138 24q-6 -18 -6 -34q0 -27 19 -43.5t48 -16.5q38 0 61.5 23t23.5 56q0 27 -19.5 42t-50.5 15h-40l15 83h41q37 0 63 17.5t26 53.5q0 23 -15 37.5t-42 14.5q-34 0 -57.5 -21.5t-28.5 -62.5l-122 35q26 74 85.5 113.5t144.5 39.5q83 0 130.5 -33.5t47.5 -93.5
q0 -45 -28.5 -84t-83.5 -53v-3q37 -9 56 -36t19 -63q0 -77 -65 -130q-64 -52 -173 -52q-187 0 -187 172z" />
    <glyph glyph-name="afii10074" unicode="&#x438;" horiz-adv-x="527" 
d="M447 0h-139q2 30 7 63h-2q-56 -77 -152 -77q-129 0 -129 125q0 32 13 94l54 305q71 8 143 18l-60 -341q-17 -95 54 -95q39 0 65 31t35 79l56 318h141l-71 -410q-12 -63 -15 -110z" />
    <glyph glyph-name="afii10075" unicode="&#x439;" horiz-adv-x="527" 
d="M447 0h-139q2 30 7 63h-2q-56 -77 -152 -77q-129 0 -129 125q0 32 13 94l54 305q71 8 143 18l-60 -341q-17 -95 54 -95q39 0 65 31t35 79l56 318h141l-71 -410q-12 -63 -15 -110zM334 648q31 0 53.5 23t28.5 56h82q-10 -56 -58 -107q-46 -48 -120 -48q-71 0 -101 48
q-29 51 -19 106h82q-5 -31 9 -54.5t43 -23.5z" />
    <glyph glyph-name="afii10076" unicode="&#x43a;" horiz-adv-x="540" 
d="M349 277l142 -277h-158l-124 262l-45 -262h-141l89 511l144 18q-12 -77 -41 -234l2 -1l196 226h166z" />
    <glyph glyph-name="afii10077" unicode="&#x43b;" horiz-adv-x="541" 
d="M549 519l-91 -519h-141l73 416h-106l-17 -71l-24 -96q-3 -15 -22 -79q-13 -44 -26 -68q-36 -69 -66 -87q-44 -28 -103 -28q-1 0 -31 2l-9 103q50 -7 83 32q12 12 25 44q13 33 15 44q5 15 12 46l3 12l57 249h368z" />
    <glyph glyph-name="afii10078" unicode="&#x43c;" horiz-adv-x="668" 
d="M332 214h6q8 17 40 67l151 239h149l-92 -520h-138l21 125q15 94 29 157h-4l-21 -35l-113 -170h-100l-30 99q-24 84 -29 108h-3q-1 -5 -10 -59l-40 -225h-137l91 520h146q9 -28 34 -119l30 -104q15 -54 20 -83z" />
    <glyph glyph-name="afii10079" unicode="&#x43d;" horiz-adv-x="534" 
d="M544 520l-91 -520h-142l39 224h-159l-39 -224h-141l90 511l144 18l-36 -205h159l35 196h141z" />
    <glyph glyph-name="afii10080" unicode="&#x43e;" horiz-adv-x="540" 
d="M518 260q-20 -132 -94 -203t-193 -71q-197 0 -197 201q0 157 81 252q83 95 213 95q191 0 197 -188q0 -45 -7 -86zM310 430q-56 0 -94 -68t-38 -174q0 -100 72 -100q58 0 95 66q38 67 38 176q0 51 -17.5 75.5t-55.5 24.5z" />
    <glyph glyph-name="afii10081" unicode="&#x43f;" horiz-adv-x="537" 
d="M517 367l-63 -367h-141l58 332q16 94 -56 94q-42 0 -69 -33t-36 -82l-54 -311h-142l66 372q14 81 19 139l143 17q-3 -34 -9 -71h2q62 77 154 77q76 0 108.5 -44t19.5 -123z" />
    <glyph glyph-name="afii10082" unicode="&#x440;" horiz-adv-x="544" 
d="M521 258q-22 -129 -83 -200.5t-158 -71.5q-89 0 -116 66h-3l-42 -230l-142 -20l103 597q9 55 15 113q31 3 143 17q-5 -51 -10 -74l2 -1q23 35 62 57.5t83 22.5q154 0 154 -185q0 -35 -8 -91zM316 429q-40 0 -72 -39q-57 -74 -57 -208q0 -92 71 -92q92 0 120 171
q7 36 7 77q0 91 -69 91z" />
    <glyph glyph-name="afii10083" unicode="&#x441;" horiz-adv-x="494" 
d="M354 212l133 -35q-19 -88 -83 -139.5t-155 -51.5q-116 0 -162 70t-22 204q22 128 93.5 201t179.5 73q91 0 137 -51.5t30 -137.5l-139 -19q27 104 -44 104q-40 0 -70 -45t-43 -121q-29 -174 60 -174q35 0 58.5 32t26.5 90z" />
    <glyph glyph-name="afii10084" unicode="&#x442;" horiz-adv-x="831" 
d="M810 364l-64 -364h-140l58 334q3 15 3 32q0 53 -54 53q-41 0 -70.5 -30t-36.5 -74l-55 -315h-141l58 334q3 14 3 32q0 53 -54 53q-41 0 -69.5 -29t-37.5 -75l-55 -315h-141l65 368q11 65 18 142l142 17q-1 -30 -8 -72h2q61 78 158 78q48 0 81 -23t43 -65q68 89 168 89
q65 0 98 -34t33 -96q0 -15 -4 -40z" />
    <glyph glyph-name="afii10085" unicode="&#x443;" horiz-adv-x="486" 
d="M229 133h5l42 104l123 283h139l-241 -487q-32 -65 -49 -93q-21 -35 -48 -68q-51 -65 -136 -65q-23 0 -60 8q0 6 -2 54l-3 54q27 -9 54 -9q53 0 75 48l11 23l-80 524q17 3 70 10l70 9l23 -286q6 -56 7 -109z" />
    <glyph glyph-name="afii10086" unicode="&#x444;" horiz-adv-x="733" 
d="M41 262q21 118 110 189q91 71 202 77l36 201l144 20l-39 -221q104 -8 162.5 -64.5t58.5 -153.5q0 -144 -92 -231q-93 -87 -225 -97l-28 -159l-145 -21l33 186q-104 6 -162.5 66t-58.5 157q0 30 4 51zM568 257q4 17 4 43q0 110 -96 123l-60 -334q61 8 100.5 54t51.5 114z
M183 257q-4 -27 -4 -44q0 -111 97 -124l59 335q-61 -8 -100.5 -54t-51.5 -113z" />
    <glyph glyph-name="afii10087" unicode="&#x445;" horiz-adv-x="498" 
d="M346 269l110 -269h-155l-38 126l-15 63l-51 -78l-74 -111h-151l205 272l-100 239q107 15 151 20l33 -112q1 -1 7 -31l9 -37l30 52l78 117h152z" />
    <glyph glyph-name="afii10088" unicode="&#x446;" horiz-adv-x="535" 
d="M174 -14q-77 0 -108.5 43t-17.5 124l63 357l144 18l-60 -340q-17 -95 54 -95q39 0 65 31.5t35 77.5l56 318h141l-67 -382q-4 -24 0.5 -39.5t13 -22t16.5 -17t11.5 -23t-1.5 -39.5l-28 -149h-120l18 105q6 36 -21 60t-25 63h-4q-24 -42 -69 -66t-96 -24z" />
    <glyph glyph-name="afii10089" unicode="&#x447;" horiz-adv-x="523" 
d="M536 520l-91 -520h-140l37 214q-70 -36 -143 -36q-69 0 -110 34t-41 99q0 16 8 75l22 125q8 1 30.5 3.5t52.5 6t62 7.5l-31 -176q-2 -12 -2 -24q0 -59 67 -59q54 0 101 32l19 107q8 46 19 112h140z" />
    <glyph glyph-name="afii10090" unicode="&#x448;" horiz-adv-x="823" 
d="M33 155l62 356l144 16l-59 -341q-3 -18 -3 -33q0 -53 52 -53q41 0 70.5 29.5t37.5 74.5l55 316h141l-58 -334q-2 -16 -2 -33q0 -53 53 -53q42 0 71 28t37 76l55 316h141l-62 -357l-8 -47q-13 -67 -16 -116h-139q1 34 6 63h-2q-56 -77 -152 -77q-108 0 -129 88
q-69 -88 -168 -88q-131 0 -131 129q0 23 4 40z" />
    <glyph glyph-name="afii10091" unicode="&#x449;" horiz-adv-x="834" 
d="M37 183l58 328l144 16l-55 -317q-13 -69 1 -93q12 -19 41 -19q42 0 72.5 30t38.5 76l55 316h141l-52 -291q0 -2 -4.5 -34t-4.5 -34q0 -34 11.5 -48.5t38.5 -14.5q43 1 74 30.5t39 75.5l55 316h141l-68 -386q0 -2 -0.5 -5t-1 -5t-0.5 -3.5v-2.5q0 -28 22 -50t22 -46
q0 -12 -1 -15l-28 -158h-121l14 75q5 28 5 44t-7.5 27.5t-16 18.5t-16 22.5t-7.5 38.5h-3q-26 -42 -70 -65.5t-95 -23.5q-110 0 -131 88q-69 -88 -168 -88q-131 0 -131 132q0 9 8 65z" />
    <glyph glyph-name="afii10092" unicode="&#x44a;" horiz-adv-x="637" 
d="M348 -13q-109 0 -158.5 53.5t-31.5 160.5l37 215h-163l34 104h288l-35 -194h56q25 1 57 1q74 0 126 -38q52 -37 52 -105q0 -77 -65 -137t-197 -60zM466 178q-2 50 -78 50h-87q-10 -61 -10 -76q0 -62 75 -62q43 0 71.5 25.5t28.5 62.5z" />
    <glyph glyph-name="afii10093" unicode="&#x44b;" horiz-adv-x="737" 
d="M758 520l-90 -520h-136l90 520h136zM248 -13q-109 0 -158.5 53.5t-31.5 160.5l53 309q4 1 146 18l-38 -202h56q25 1 57 1q74 0 126 -38q52 -37 52 -105q0 -77 -65 -137t-197 -60zM366 178q-2 50 -78 50h-87q-10 -61 -10 -76q0 -62 75 -62q43 0 71.5 25.5t28.5 62.5z" />
    <glyph glyph-name="afii10094" unicode="&#x44c;" horiz-adv-x="519" 
d="M248 -13q-109 0 -158.5 53.5t-31.5 160.5l53 309q4 1 146 18l-38 -202h56q25 1 57 1q74 0 126 -38q52 -37 52 -105q0 -77 -65 -137t-197 -60zM366 178q-2 50 -78 50h-87q-10 -61 -10 -76q0 -62 75 -62q43 0 71.5 25.5t28.5 62.5z" />
    <glyph glyph-name="afii10095" unicode="&#x44d;" horiz-adv-x="487" 
d="M14 157l139 26q-3 -14 -3 -23q0 -66 51 -66q83 0 114 132h-138l14 79h137q2 26 2 30q0 95 -63 95q-31 0 -51.5 -22.5t-25.5 -66.5l-127 34q23 75 82.5 117t140.5 42q186 0 186 -192q0 -152 -72 -254t-210 -102q-86 0 -131 45t-45 126z" />
    <glyph glyph-name="afii10096" unicode="&#x44e;" horiz-adv-x="768" 
d="M745 258q-21 -131 -90.5 -201t-186.5 -70q-211 0 -187 237h-89l-39 -224h-142l90 512l145 17l-37 -205h92q28 96 95.5 151.5t163.5 55.5q119 0 163 -69t22 -204zM602 259q30 171 -57 171q-88 0 -120 -173q-30 -169 59 -169q48 0 75.5 42t42.5 129z" />
    <glyph glyph-name="afii10097" unicode="&#x44f;" horiz-adv-x="498" 
d="M271 198l-137 -198h-145l154 210q-39 12 -61 44.5t-22 78.5q0 85 60 136q62 51 156 51h231l-91 -520h-140q6 31 34 198h-39zM255 294h73l22 124h-73q-32 0 -56.5 -18.5t-26.5 -52.5q0 -53 61 -53z" />
    <glyph glyph-name="afii10071" unicode="&#x451;" horiz-adv-x="505" 
d="M237 86q35 0 56.5 26t23.5 70q102 -29 129 -37q-57 -159 -223 -159q-192 0 -192 199q0 118 62 227q33 56 91 89t130 33q81 0 126.5 -35.5t45.5 -103.5q0 -81 -83.5 -128.5t-228.5 -50.5q-3 -16 -3 -39q0 -38 17 -64.5t49 -26.5zM297 432q-34 0 -63 -34.5t-42 -91.5
q156 4 156 81q0 20 -14 32.5t-37 12.5zM253 755q27 0 44.5 -17.5t17.5 -43.5q0 -38 -26.5 -65.5t-62.5 -27.5q-28 0 -46 17.5t-18 43.5q0 38 27.5 65.5t63.5 27.5zM455 756q28 0 45 -17.5t17 -44.5q0 -38 -26.5 -65t-62.5 -27q-28 0 -45.5 17t-17.5 43q0 39 27 66.5t63 27.5
z" />
    <glyph glyph-name="afii10099" unicode="&#x452;" horiz-adv-x="555" 
d="M128 585h-50l6 35l7 36h50q1 3 6 34t7 40l143 20q-5 -24 -16 -94h127q-10 -57 -13 -71h-126l-25 -137h4q63 71 147 71q141 0 141 -177q0 -163 -65 -264q-64 -100 -190 -100q-15 0 -30 3l-7 104q22 -2 23 -2q38 0 66 23.5t41 64.5q24 75 24 155q0 87 -67 87
q-92 0 -121 -164l-43 -249h-142z" />
    <glyph glyph-name="afii10100" unicode="&#x453;" horiz-adv-x="448" 
d="M208 86q39 0 62 27.5t24 78.5q52 -14 65 -17l66 -17q-21 -84 -82 -128t-150 -44q-83 0 -133 36.5t-50 102.5q0 71 45 112.5t142 74.5q113 38 113 82q0 17 -14 27.5t-37 10.5q-71 0 -79 -81l-117 39q49 144 202 144q74 0 126 -34q53 -35 53 -102q0 -63 -40.5 -102.5
t-126.5 -70.5q-71 -25 -100.5 -44.5t-29.5 -46.5q0 -21 16.5 -34.5t44.5 -13.5zM342 767h141l-168 -165h-85z" />
    <glyph glyph-name="afii10101" unicode="&#x454;" horiz-adv-x="494" 
d="M379 194l129 -32q-24 -83 -86.5 -129.5t-144.5 -46.5q-235 0 -187 274q22 128 93.5 201t179.5 73q84 0 130 -45t39 -122l-137 -25q11 41 -3 64.5t-45 23.5q-71 0 -104 -124h133l-14 -79h-134q-15 -137 66 -137q33 0 57 27.5t28 76.5z" />
    <glyph glyph-name="afii10102" unicode="&#x455;" horiz-adv-x="460" 
d="M286 535q79 0 121.5 -38t42.5 -112l-64 -16q-11 -3 -24.5 -6.5t-23 -6t-15.5 -3.5q6 23 6 32q0 21 -17.5 31.5t-41.5 10.5q-26 0 -44.5 -12.5t-18.5 -35.5q0 -19 22 -33.5t54 -26t64 -27t54 -45t22 -71.5q0 -80 -66 -136q-66 -54 -170 -54q-170 0 -170 139q0 21 4 38
l136 28q-13 -27 -13 -55q0 -46 56 -46q36 0 59 19t21 41.5t-22 40.5q-12 10 -30.5 19t-44 19.5t-39.5 17.5q-33 16 -53.5 45t-20.5 67q0 89 64 132q65 44 152 44z" />
    <glyph glyph-name="afii10103" unicode="&#x456;" horiz-adv-x="249" 
d="M223 766q32 0 52 -19.5t20 -50.5q0 -42 -31 -72q-30 -30 -70 -30q-33 0 -52.5 19.5t-19.5 50.5q0 42 30 72q32 30 71 30zM253 529l-93 -529h-142l90 511z" />
    <glyph glyph-name="afii10104" unicode="&#x457;" horiz-adv-x="249" 
d="M124 748q28 0 45 -17t17 -44q0 -38 -26.5 -65.5t-62.5 -27.5q-28 0 -46 17.5t-18 43.5q0 38 27.5 65.5t63.5 27.5zM326 749q28 0 45 -17.5t17 -44.5q0 -38 -26.5 -65t-62.5 -27q-28 0 -45.5 17t-17.5 43q0 39 27 66.5t63 27.5zM253 529l-93 -529h-142l90 512z" />
    <glyph glyph-name="afii10105" unicode="&#x458;" horiz-adv-x="251" 
d="M226 766q31 0 50.5 -19.5t19.5 -50.5q0 -42 -30 -73q-30 -30 -71 -30q-32 0 -51.5 20t-19.5 50q0 42 31 72q31 31 71 31zM-64 -191l-49 109q77 2 104 34q27 31 39 104l79 454q16 3 72 10l73 9l-75 -430q-22 -121 -53 -181q-50 -106 -190 -109z" />
    <glyph glyph-name="afii10106" unicode="&#x459;" horiz-adv-x="821" 
d="M534 -13q-196 0 -196 173q0 15 6 51l37 205h-97q-52 -214 -72 -271q-42 -114 -108 -144q-33 -15 -77 -15q-15 0 -32 3l-9 103q2 0 5 -0.5t5 -1t3.5 -0.5h2.5q57 0 86 71q28 69 81 304l12 55h357l-36 -195h58q25 1 57 1q78 0 127 -40t49 -113q0 -74 -68 -130t-191 -56z
M653 177q-1 49 -79 49h-89q-10 -40 -10 -75q0 -61 76 -61q44 0 73 25t29 62z" />
    <glyph glyph-name="afii10107" unicode="&#x45a;" horiz-adv-x="798" 
d="M510 -13q-107 0 -156.5 53t-34.5 159l4 27h-131l-39 -226h-142l90 520h142l-34 -198h131l33 188q76 10 145 18l-37 -205h114q75 0 126 -36t51 -104q0 -77 -65 -137q-65 -59 -197 -59zM629 177q-1 49 -79 49h-86q-11 -53 -11 -74q0 -62 75 -62q44 0 72.5 25.5t28.5 61.5z
" />
    <glyph glyph-name="afii10108" unicode="&#x45b;" horiz-adv-x="532" 
d="M113 586h-43l13 71h43l13 74l143 20l-17 -94h144l-13 -71h-143l-22 -127h1q58 75 152 75q76 0 109.5 -45t19.5 -122l-64 -367h-141l60 338q7 44 -7.5 68.5t-50.5 24.5q-42 0 -68 -30.5t-35 -77.5l-56 -323h-141z" />
    <glyph glyph-name="afii10109" unicode="&#x45c;" horiz-adv-x="540" 
d="M349 277l142 -277h-158l-124 262l-45 -262h-141l89 511l144 18q-12 -77 -41 -234l2 -1l196 226h166zM378 754h141l-168 -165h-85z" />
    <glyph glyph-name="uni045D" unicode="&#x45d;" horiz-adv-x="527" 
d="M447 0h-139q2 30 7 63h-2q-56 -77 -152 -77q-129 0 -129 125q0 32 13 94l54 305q71 8 143 18l-60 -341q-17 -95 54 -95q39 0 65 31t35 79l56 318h141l-71 -410q-12 -63 -15 -110zM322 756l76 -168h-78l-133 168h135z" />
    <glyph glyph-name="afii10110" unicode="&#x45e;" horiz-adv-x="486" 
d="M229 133h5l42 104l123 283h139l-241 -487q-32 -65 -49 -93q-21 -35 -48 -68q-51 -65 -136 -65q-23 0 -60 8q0 6 -2 54l-3 54q27 -9 54 -9q53 0 75 48l11 23l-80 524q17 3 70 10l70 9l23 -286q6 -56 7 -109zM320 656q31 0 53.5 22.5t28.5 54.5h83q-10 -56 -58 -105
q-47 -48 -120 -48q-72 0 -102 48q-29 51 -19 105h82q-6 -30 9 -53.5t43 -23.5z" />
    <glyph glyph-name="afii10193" unicode="&#x45f;" horiz-adv-x="527" 
d="M184 -217l33 171l119 12l-37 -183h-115zM447 0h-139q2 30 7 63h-2q-56 -77 -152 -77q-129 0 -129 125q0 32 13 94l54 305q71 8 143 18l-60 -341q-17 -95 54 -95q39 0 65 31t35 79l56 318h141l-71 -410q-12 -63 -15 -110z" />
    <glyph glyph-name="afii10050" unicode="&#x490;" horiz-adv-x="504" 
d="M175 0h-147l126 718h310l26 148h121l-47 -264h-283z" />
    <glyph glyph-name="afii10098" unicode="&#x491;" horiz-adv-x="428" 
d="M449 417h-226l-73 -417h-142l92 520h248l12 69q4 26 13 70h119z" />
    <glyph glyph-name="schwacyrillic" unicode="&#x4d9;" horiz-adv-x="496" 
d="M190 337l-132 39q63 158 226 158q192 0 192 -200q0 -45 -9 -91t-30.5 -93t-53 -83t-81 -58.5t-109.5 -22.5q-81 0 -126.5 35t-45.5 103q0 82 84 129q85 47 227 50q4 13 4 38q0 39 -17 65.5t-50 26.5q-35 0 -56.5 -26t-22.5 -70zM210 87q33 0 62.5 35t41.5 91
q-156 -5 -156 -81q0 -20 14.5 -32.5t37.5 -12.5z" />
    <glyph glyph-name="Wgrave" unicode="&#x1e80;" horiz-adv-x="915" 
d="M511 496h-4q-10 -31 -38 -101q-21 -52 -152 -395h-183l-39 718h151q10 -414 10 -496q0 -4 -2 -78h4q27 84 57 159l161 415h141l18 -404v-73q1 -35 1 -97h4q24 76 64 183l144 391h150l-290 -718h-180l-15 352q-4 122 -2 144zM594 778h-84l-132 169h138z" />
    <glyph glyph-name="wgrave" unicode="&#x1e81;" horiz-adv-x="781" 
d="M698 520h132l-231 -520h-152l-12 285l-2 61q0 52 1 61h-4q-20 -60 -46 -121l-117 -286h-160l-45 511l143 21l8 -303v-35q0 -29 -1 -48v-32h3q7 23 22 62l23 57l114 287h155l11 -292q2 -34 2 -112h3q34 102 40 114zM431 756l76 -168h-78l-133 168h135z" />
    <glyph glyph-name="Wacute" unicode="&#x1e82;" horiz-adv-x="915" 
d="M511 496h-4q-10 -31 -38 -101q-21 -52 -152 -395h-183l-39 718h151q10 -414 10 -496q0 -4 -2 -78h4q27 84 57 159l161 415h141l18 -404v-73q1 -35 1 -97h4q24 76 64 183l144 391h150l-290 -718h-180l-15 352q-4 122 -2 144zM587 948h141l-157 -170h-86z" />
    <glyph glyph-name="wacute" unicode="&#x1e83;" horiz-adv-x="781" 
d="M698 520h132l-231 -520h-152l-12 285l-2 61q0 52 1 61h-4q-20 -60 -46 -121l-117 -286h-160l-45 511l143 21l8 -303v-35q0 -29 -1 -48v-32h3q7 23 22 62l23 57l114 287h155l11 -292q2 -34 2 -112h3q34 102 40 114zM497 754h141l-168 -165h-85z" />
    <glyph glyph-name="Wdieresis" unicode="&#x1e84;" horiz-adv-x="915" 
d="M511 496h-4q-10 -31 -38 -101q-21 -52 -152 -395h-183l-39 718h151q10 -414 10 -496q0 -4 -2 -78h4q27 84 57 159l161 415h141l18 -404v-73q1 -35 1 -97h4q24 76 64 183l144 391h150l-290 -718h-180l-15 352q-4 122 -2 144zM480 929q27 0 44.5 -17.5t17.5 -44.5
q0 -38 -27 -65t-63 -27q-28 0 -45.5 17t-17.5 44q0 36 27 65q28 28 64 28zM682 929q28 0 45.5 -17.5t17.5 -44.5q0 -38 -27 -65t-63 -27q-28 0 -46 17.5t-18 44.5q0 37 28 64q28 28 63 28z" />
    <glyph glyph-name="wdieresis" unicode="&#x1e85;" horiz-adv-x="781" 
d="M698 520h132l-231 -520h-152l-12 285l-2 61q0 52 1 61h-4q-20 -60 -46 -121l-117 -286h-160l-45 511l143 21l8 -303v-35q0 -29 -1 -48v-32h3q7 23 22 62l23 57l114 287h155l11 -292q2 -34 2 -112h3q34 102 40 114zM385 746q27 0 44.5 -17t17.5 -44q0 -38 -26.5 -65.5
t-62.5 -27.5q-28 0 -46 17.5t-18 43.5q0 38 27.5 65.5t63.5 27.5zM587 747q28 0 45 -17.5t17 -44.5q0 -38 -26.5 -65t-62.5 -27q-28 0 -45.5 17t-17.5 43q0 39 27 66.5t63 27.5z" />
    <glyph glyph-name="Ygrave" unicode="&#x1ef2;" horiz-adv-x="591" 
d="M515 718h163l-295 -440l-49 -278h-147l48 277l-140 441h162l48 -210q12 -54 20 -118l2 1q26 59 62 115zM445 778h-84l-132 169h138z" />
    <glyph glyph-name="ygrave" unicode="&#x1ef3;" horiz-adv-x="486" 
d="M229 133h5l42 104l123 283h139l-241 -487q-32 -65 -49 -93q-21 -35 -48 -68q-51 -65 -136 -65q-23 0 -60 8q0 6 -2 54l-3 54q27 -9 54 -9q53 0 75 48l11 23l-80 524q17 3 70 10l70 9l23 -286q6 -56 7 -109zM293 756l76 -168h-78l-133 168h135z" />
    <glyph glyph-name="uni1F00" unicode="&#x1f00;" horiz-adv-x="556" 
d="M288 533q44 0 73.5 -21t39.5 -55h2q1 6 16 63h138q-13 -45 -30 -142l-42 -235q-11 -54 27 -54q11 0 20 4l-14 -42l-16 -48q-40 -17 -78 -17q-39 0 -61 19.5t-22 57.5h-3q-59 -77 -158 -77q-146 0 -146 186q0 160 71 261q72 100 183 100zM368 261q8 48 8 76q0 92 -70 92
q-47 0 -75.5 -41t-43.5 -127q-9 -50 -9 -85q0 -86 66 -86q96 0 124 171zM342 574l-57 23q37 38 37 63q0 42 -47 48l55 84q43 -8 67 -31.5t24 -58.5q0 -9 -3 -24q-3 -13 -23 -47q-20 -33 -53 -57z" />
    <glyph glyph-name="uni1F01" unicode="&#x1f01;" horiz-adv-x="556" 
d="M288 533q44 0 73.5 -21t39.5 -55h2q1 6 16 63h138q-13 -45 -30 -142l-42 -235q-11 -54 27 -54q11 0 20 4l-14 -42l-16 -48q-40 -17 -78 -17q-39 0 -61 19.5t-22 57.5h-3q-59 -77 -158 -77q-146 0 -146 186q0 160 71 261q72 100 183 100zM368 261q8 48 8 76q0 92 -70 92
q-47 0 -75.5 -41t-43.5 -127q-9 -50 -9 -85q0 -86 66 -86q96 0 124 171zM385 591l-61 -23q-40 43 -40 95q0 47 36 80t94 43l21 -84q-26 -3 -41.5 -16t-19 -24t-3.5 -23q0 -15 14 -48z" />
    <glyph glyph-name="uni1F02" unicode="&#x1f02;" horiz-adv-x="556" 
d="M288 533q44 0 73.5 -21t39.5 -55h2q1 6 16 63h138q-13 -45 -30 -142l-42 -235q-11 -54 27 -54q11 0 20 4l-14 -42l-16 -48q-40 -17 -78 -17q-39 0 -61 19.5t-22 57.5h-3q-59 -77 -158 -77q-146 0 -146 186q0 160 71 261q72 100 183 100zM368 261q8 48 8 76q0 92 -70 92
q-47 0 -75.5 -41t-43.5 -127q-9 -50 -9 -85q0 -86 66 -86q96 0 124 171zM329 779h132l55 -193h-85zM326 701q0 -64 -79 -128l-53 23q36 40 36 68q0 37 -45 43l50 84q91 -19 91 -90z" />
    <glyph glyph-name="uni1F03" unicode="&#x1f03;" horiz-adv-x="556" 
d="M288 533q44 0 73.5 -21t39.5 -55h2q1 6 16 63h138q-13 -45 -30 -142l-42 -235q-11 -54 27 -54q11 0 20 4l-14 -42l-16 -48q-40 -17 -78 -17q-39 0 -61 19.5t-22 57.5h-3q-59 -77 -158 -77q-146 0 -146 186q0 160 71 261q72 100 183 100zM368 261q8 48 8 76q0 92 -70 92
q-47 0 -75.5 -41t-43.5 -127q-9 -50 -9 -85q0 -86 66 -86q96 0 124 171zM336 777h131l56 -191h-84zM179 678q4 43 38.5 73t89.5 40l22 -84q-33 -5 -48.5 -22.5t-15.5 -36.5q0 -22 14 -52l-60 -23q-40 37 -40 105z" />
    <glyph glyph-name="uni1F04" unicode="&#x1f04;" horiz-adv-x="556" 
d="M288 533q44 0 73.5 -21t39.5 -55h2q1 6 16 63h138q-13 -45 -30 -142l-42 -235q-11 -54 27 -54q11 0 20 4l-14 -42l-16 -48q-40 -17 -78 -17q-39 0 -61 19.5t-22 57.5h-3q-59 -77 -158 -77q-146 0 -146 186q0 160 71 261q72 100 183 100zM368 261q8 48 8 76q0 92 -70 92
q-47 0 -75.5 -41t-43.5 -127q-9 -50 -9 -85q0 -86 66 -86q96 0 124 171zM599 771l-169 -191h-84l121 191h132zM228 707l52 84q90 -19 90 -102q0 -22 -21.5 -55t-57.5 -61l-52 23q35 40 35 68q0 37 -46 43z" />
    <glyph glyph-name="uni1F05" unicode="&#x1f05;" horiz-adv-x="556" 
d="M288 533q44 0 73.5 -21t39.5 -55h2q1 6 16 63h138q-13 -45 -30 -142l-42 -235q-11 -54 27 -54q11 0 20 4l-14 -42l-16 -48q-40 -17 -78 -17q-39 0 -61 19.5t-22 57.5h-3q-59 -77 -158 -77q-146 0 -146 186q0 160 71 261q72 100 183 100zM368 261q8 48 8 76q0 92 -70 92
q-47 0 -75.5 -41t-43.5 -127q-9 -50 -9 -85q0 -86 66 -86q96 0 124 171zM601 779l-171 -197h-84l123 197h132zM223 678q5 44 39.5 73.5t88.5 39.5l23 -84q-30 -3 -47.5 -20.5t-17.5 -34.5q0 -28 16 -56q-22 -7 -62 -23q-40 40 -40 105z" />
    <glyph glyph-name="uni1F06" unicode="&#x1f06;" horiz-adv-x="556" 
d="M288 533q44 0 73.5 -21t39.5 -55h2q1 6 16 63h138q-13 -45 -30 -142l-42 -235q-11 -54 27 -54q11 0 20 4l-14 -42l-16 -48q-40 -17 -78 -17q-39 0 -61 19.5t-22 57.5h-3q-59 -77 -158 -77q-146 0 -146 186q0 160 71 261q72 100 183 100zM368 261q8 48 8 76q0 92 -70 92
q-47 0 -75.5 -41t-43.5 -127q-9 -50 -9 -85q0 -86 66 -86q96 0 124 171zM501 905l36 -52q-15 -32 -41.5 -53t-57.5 -21q-27 0 -72 16q-46 17 -66 17q-38 0 -61 -41l-42 48q13 28 44 54t64 26q26 0 71 -17t64 -17q39 0 61 40zM413 689q0 -57 -77 -116q-45 21 -51 23
q38 35 38 60q0 32 -45 38l48 77q87 -13 87 -82z" />
    <glyph glyph-name="uni1F07" unicode="&#x1f07;" horiz-adv-x="556" 
d="M288 533q44 0 73.5 -21t39.5 -55h2q1 6 16 63h138q-13 -45 -30 -142l-42 -235q-11 -54 27 -54q11 0 20 4l-14 -42l-16 -48q-40 -17 -78 -17q-39 0 -61 19.5t-22 57.5h-3q-59 -77 -158 -77q-146 0 -146 186q0 160 71 261q72 100 183 100zM368 261q8 48 8 76q0 92 -70 92
q-47 0 -75.5 -41t-43.5 -127q-9 -50 -9 -85q0 -86 66 -86q96 0 124 171zM511 907l35 -53q-14 -31 -40.5 -52.5t-58.5 -21.5q-26 0 -71 16q-46 17 -66 17q-38 0 -61 -41l-42 49q13 28 44 54q29 25 64 25q26 0 71 -17t64 -17q38 0 61 41zM284 660q2 40 35 69.5t86 36.5l21 -76
q-28 -4 -44.5 -18t-16.5 -33q0 -21 18 -46l-59 -23q-40 41 -40 90z" />
    <glyph glyph-name="uni1F08" unicode="&#x1f08;" horiz-adv-x="646" 
d="M501 718l100 -718h-151l-17 155h-241l-73 -155h-144l350 718h176zM244 271h177l-18 175l-11 145h-3q-79 -184 -145 -320zM87 507l-57 23q37 38 37 63q0 42 -47 48l55 84q43 -8 67 -31.5t24 -58.5q0 -9 -3 -24q-3 -13 -23 -47q-20 -33 -53 -57z" />
    <glyph glyph-name="uni1F09" unicode="&#x1f09;" horiz-adv-x="646" 
d="M501 718l100 -718h-151l-17 155h-241l-73 -155h-144l350 718h176zM244 271h177l-18 175l-11 145h-3q-79 -184 -145 -320zM121 525l-61 -23q-40 43 -40 95q0 47 36 80t94 43l21 -84q-26 -3 -41.5 -16t-19 -24t-3.5 -23q0 -15 14 -48z" />
    <glyph glyph-name="uni1F0A" unicode="&#x1f0a;" horiz-adv-x="646" 
d="M501 718l100 -718h-151l-17 155h-241l-73 -155h-144l350 718h176zM244 271h177l-18 175l-11 145h-3q-79 -184 -145 -320zM-31 720h132l55 -193h-85zM-34 642q0 -64 -79 -128l-53 23q36 41 36 68q0 37 -45 43l50 84q91 -19 91 -90z" />
    <glyph glyph-name="uni1F0B" unicode="&#x1f0b;" horiz-adv-x="646" 
d="M501 718l100 -718h-151l-17 155h-241l-73 -155h-144l350 718h176zM244 271h177l-18 175l-11 145h-3q-79 -184 -145 -320zM-38 718h131l56 -191h-84zM-195 619q4 43 38.5 73t89.5 40l22 -84q-33 -5 -48.5 -22.5t-15.5 -36.5q0 -22 14 -52l-60 -23q-40 37 -40 105z" />
    <glyph glyph-name="uni1F0C" unicode="&#x1f0c;" horiz-adv-x="646" 
d="M501 718l100 -718h-151l-17 155h-241l-73 -155h-144l350 718h176zM244 271h177l-18 175l-11 145h-3q-79 -184 -145 -320zM238 719l-169 -191h-84l121 191h132zM-133 655l52 84q90 -19 90 -102q0 -22 -21.5 -55t-57.5 -61l-52 23q35 40 35 68q0 37 -46 43z" />
    <glyph glyph-name="uni1F0D" unicode="&#x1f0d;" horiz-adv-x="646" 
d="M501 718l100 -718h-151l-17 155h-241l-73 -155h-144l350 718h176zM244 271h177l-18 175l-11 145h-3q-79 -184 -145 -320zM238 720l-171 -197h-84l123 197h132zM-140 619q5 44 39.5 73.5t88.5 39.5l23 -84q-30 -3 -47.5 -20.5t-17.5 -34.5q0 -28 16 -56q-22 -7 -62 -23
q-40 40 -40 105z" />
    <glyph glyph-name="uni1F0E" unicode="&#x1f0e;" horiz-adv-x="646" 
d="M501 718l100 -718h-151l-17 155h-241l-73 -155h-144l350 718h176zM244 271h177l-18 175l-11 145h-3q-79 -184 -145 -320zM196 747l36 -52q-15 -32 -41.5 -53t-57.5 -21q-27 0 -72 16q-46 17 -66 17q-38 0 -61 -41l-42 48q13 28 44 54t64 26q26 0 71 -17t64 -17
q39 0 61 40zM108 531q0 -57 -77 -116q-45 21 -51 23q38 35 38 60q0 32 -45 38l48 77q87 -13 87 -82z" />
    <glyph glyph-name="uni1F0F" unicode="&#x1f0f;" horiz-adv-x="646" 
d="M501 718l100 -718h-151l-17 155h-241l-73 -155h-144l350 718h176zM244 271h177l-18 175l-11 145h-3q-79 -184 -145 -320zM192 747l35 -53q-14 -31 -40.5 -52.5t-58.5 -21.5q-26 0 -71 16q-46 17 -66 17q-38 0 -61 -41l-42 49q13 28 44 54q29 25 64 25q26 0 71 -17t64 -17
q38 0 61 41zM-35 500q2 40 35 69.5t86 36.5l21 -76q-28 -4 -44.5 -18t-16.5 -33q0 -21 18 -46l-59 -23q-40 41 -40 90z" />
    <glyph glyph-name="uni1F10" unicode="&#x1f10;" horiz-adv-x="475" 
d="M313 188q30 -4 135 -22q-18 -83 -79.5 -131.5t-163.5 -48.5q-85 0 -131.5 33.5t-48.5 90.5q0 30 18 76q26 61 97 80l2 3q-30 9 -49 34.5t-19 58.5q0 67 52 119q53 53 157 53q85 0 133.5 -39t48.5 -119l-138 -23q20 74 -51 74q-29 0 -47 -18t-20 -44q0 -48 54 -48h40
l-16 -93h-29q-39 0 -64 -23t-25 -59q0 -22 14.5 -36t40.5 -14q41 0 65 27t24 69zM306 574l-57 23q37 38 37 63q0 42 -47 48l55 84q43 -8 67 -31.5t24 -58.5q0 -9 -3 -24q-3 -13 -23 -47q-20 -33 -53 -57z" />
    <glyph glyph-name="uni1F11" unicode="&#x1f11;" horiz-adv-x="475" 
d="M313 188q30 -4 135 -22q-18 -83 -79.5 -131.5t-163.5 -48.5q-85 0 -131.5 33.5t-48.5 90.5q0 30 18 76q26 61 97 80l2 3q-30 9 -49 34.5t-19 58.5q0 67 52 119q53 53 157 53q85 0 133.5 -39t48.5 -119l-138 -23q20 74 -51 74q-29 0 -47 -18t-20 -44q0 -48 54 -48h40
l-16 -93h-29q-39 0 -64 -23t-25 -59q0 -22 14.5 -36t40.5 -14q41 0 65 27t24 69zM347 591l-61 -23q-40 43 -40 95q0 47 36 80t94 43l21 -84q-26 -3 -41.5 -16t-19 -24t-3.5 -23q0 -15 14 -48z" />
    <glyph glyph-name="uni1F12" unicode="&#x1f12;" horiz-adv-x="475" 
d="M313 188q30 -4 135 -22q-18 -83 -79.5 -131.5t-163.5 -48.5q-85 0 -131.5 33.5t-48.5 90.5q0 30 18 76q26 61 97 80l2 3q-30 9 -49 34.5t-19 58.5q0 67 52 119q53 53 157 53q85 0 133.5 -39t48.5 -119l-138 -23q20 74 -51 74q-29 0 -47 -18t-20 -44q0 -48 54 -48h40
l-16 -93h-29q-39 0 -64 -23t-25 -59q0 -22 14.5 -36t40.5 -14q41 0 65 27t24 69zM280 779h132l55 -193h-85zM277 701q0 -64 -79 -128l-53 23q36 40 36 68q0 37 -45 43l50 84q91 -19 91 -90z" />
    <glyph glyph-name="uni1F13" unicode="&#x1f13;" horiz-adv-x="475" 
d="M313 188q30 -4 135 -22q-18 -83 -79.5 -131.5t-163.5 -48.5q-85 0 -131.5 33.5t-48.5 90.5q0 30 18 76q26 61 97 80l2 3q-30 9 -49 34.5t-19 58.5q0 67 52 119q53 53 157 53q85 0 133.5 -39t48.5 -119l-138 -23q20 74 -51 74q-29 0 -47 -18t-20 -44q0 -48 54 -48h40
l-16 -93h-29q-39 0 -64 -23t-25 -59q0 -22 14.5 -36t40.5 -14q41 0 65 27t24 69zM296 777h131l56 -191h-84zM139 678q4 43 38.5 73t89.5 40l22 -84q-33 -5 -48.5 -22.5t-15.5 -36.5q0 -22 14 -52l-60 -23q-40 37 -40 105z" />
    <glyph glyph-name="uni1F14" unicode="&#x1f14;" horiz-adv-x="475" 
d="M313 188q30 -4 135 -22q-18 -83 -79.5 -131.5t-163.5 -48.5q-85 0 -131.5 33.5t-48.5 90.5q0 30 18 76q26 61 97 80l2 3q-30 9 -49 34.5t-19 58.5q0 67 52 119q53 53 157 53q85 0 133.5 -39t48.5 -119l-138 -23q20 74 -51 74q-29 0 -47 -18t-20 -44q0 -48 54 -48h40
l-16 -93h-29q-39 0 -64 -23t-25 -59q0 -22 14.5 -36t40.5 -14q41 0 65 27t24 69zM549 771l-169 -191h-84l121 191h132zM178 707l52 84q90 -19 90 -102q0 -22 -21.5 -55t-57.5 -61l-52 23q35 40 35 68q0 37 -46 43z" />
    <glyph glyph-name="uni1F15" unicode="&#x1f15;" horiz-adv-x="475" 
d="M313 188q30 -4 135 -22q-18 -83 -79.5 -131.5t-163.5 -48.5q-85 0 -131.5 33.5t-48.5 90.5q0 30 18 76q26 61 97 80l2 3q-30 9 -49 34.5t-19 58.5q0 67 52 119q53 53 157 53q85 0 133.5 -39t48.5 -119l-138 -23q20 74 -51 74q-29 0 -47 -18t-20 -44q0 -48 54 -48h40
l-16 -93h-29q-39 0 -64 -23t-25 -59q0 -22 14.5 -36t40.5 -14q41 0 65 27t24 69zM561 779l-171 -197h-84l123 197h132zM183 678q5 44 39.5 73.5t88.5 39.5l23 -84q-30 -3 -47.5 -20.5t-17.5 -34.5q0 -28 16 -56q-22 -7 -62 -23q-40 40 -40 105z" />
    <glyph glyph-name="uni1F18" unicode="&#x1f18;" horiz-adv-x="538" 
d="M496 116l-19 -116h-456l126 718h436l-50 -116h-259l-30 -172h253l-20 -115h-253l-35 -199h307zM-22 507l-57 23q37 38 37 63q0 42 -47 48l55 84q43 -8 67 -31.5t24 -58.5q0 -9 -3 -24q-3 -13 -23 -47q-20 -33 -53 -57z" />
    <glyph glyph-name="uni1F19" unicode="&#x1f19;" horiz-adv-x="538" 
d="M496 116l-19 -116h-456l126 718h436l-50 -116h-259l-30 -172h253l-20 -115h-253l-35 -199h307zM6 526l-61 -23q-40 43 -40 95q0 47 36 80t94 43l21 -84q-26 -3 -41.5 -16t-19 -24t-3.5 -23q0 -15 14 -48z" />
    <glyph glyph-name="uni1F1A" unicode="&#x1f1a;" horiz-adv-x="538" 
d="M496 116l-19 -116h-456l126 718h436l-50 -116h-259l-30 -172h253l-20 -115h-253l-35 -199h307zM-136 717h132l55 -193h-85zM-139 639q0 -64 -79 -128l-53 23q36 40 36 68q0 37 -45 43l50 84q91 -19 91 -90z" />
    <glyph glyph-name="uni1F1B" unicode="&#x1f1b;" horiz-adv-x="538" 
d="M496 116l-19 -116h-456l126 718h436l-50 -116h-259l-30 -172h253l-20 -115h-253l-35 -199h307zM-120 713h131l56 -191h-84zM-277 614q4 43 38.5 73t89.5 40l22 -84q-33 -5 -48.5 -22.5t-15.5 -36.5q0 -22 14 -52l-60 -23q-40 37 -40 105z" />
    <glyph glyph-name="uni1F1C" unicode="&#x1f1c;" horiz-adv-x="538" 
d="M496 116l-19 -116h-456l126 718h436l-50 -116h-259l-30 -172h253l-20 -115h-253l-35 -199h307zM105 718l-169 -191h-84l121 191h132zM-266 654l52 84q90 -20 90 -102q0 -22 -21.5 -55t-57.5 -61l-52 23q35 40 35 68q0 37 -46 43z" />
    <glyph glyph-name="uni1F1D" unicode="&#x1f1d;" horiz-adv-x="538" 
d="M496 116l-19 -116h-456l126 718h436l-50 -116h-259l-30 -172h253l-20 -115h-253l-35 -199h307zM101 719l-171 -197h-84l123 197h132zM-277 618q5 44 39.5 73.5t88.5 39.5l23 -84q-30 -3 -47.5 -20.5t-17.5 -34.5q0 -28 16 -56q-22 -7 -62 -23q-40 40 -40 105z" />
    <glyph glyph-name="uni1F20" unicode="&#x1f20;" horiz-adv-x="537" 
d="M517 367l-96 -546l-144 -20l95 535q8 44 -6 69t-50 25q-43 0 -70 -31.5t-34 -77.5l-56 -321h-142l66 372q14 84 19 140l143 16l-9 -71h2q62 77 154 77q76 0 109 -45t19 -122zM321 574l-57 23q37 38 37 63q0 42 -47 48l55 84q43 -8 67 -31.5t24 -58.5q0 -9 -3 -24
q-3 -13 -23 -47q-20 -33 -53 -57z" />
    <glyph glyph-name="uni1F21" unicode="&#x1f21;" horiz-adv-x="537" 
d="M517 367l-96 -546l-144 -20l95 535q8 44 -6 69t-50 25q-43 0 -70 -31.5t-34 -77.5l-56 -321h-142l66 372q14 84 19 140l143 16l-9 -71h2q62 77 154 77q76 0 109 -45t19 -122zM365 593l-61 -23q-40 43 -40 95q0 47 36 80t94 43l21 -84q-26 -3 -41.5 -16t-19 -24t-3.5 -23
q0 -15 14 -48z" />
    <glyph glyph-name="uni1F22" unicode="&#x1f22;" horiz-adv-x="537" 
d="M517 367l-96 -546l-144 -20l95 535q8 44 -6 69t-50 25q-43 0 -70 -31.5t-34 -77.5l-56 -321h-142l66 372q14 84 19 140l143 16l-9 -71h2q62 77 154 77q76 0 109 -45t19 -122zM309 779h132l55 -193h-85zM306 701q0 -64 -79 -128l-53 23q36 40 36 68q0 37 -45 43l50 84
q91 -19 91 -90z" />
    <glyph glyph-name="uni1F23" unicode="&#x1f23;" horiz-adv-x="537" 
d="M517 367l-96 -546l-144 -20l95 535q8 44 -6 69t-50 25q-43 0 -70 -31.5t-34 -77.5l-56 -321h-142l66 372q14 84 19 140l143 16l-9 -71h2q62 77 154 77q76 0 109 -45t19 -122zM314 776h131l56 -191h-84zM157 677q4 43 38.5 73t89.5 40l22 -84q-33 -5 -48.5 -22.5
t-15.5 -36.5q0 -22 14 -52l-60 -23q-40 37 -40 105z" />
    <glyph glyph-name="uni1F24" unicode="&#x1f24;" horiz-adv-x="537" 
d="M517 367l-96 -546l-144 -20l95 535q8 44 -6 69t-50 25q-43 0 -70 -31.5t-34 -77.5l-56 -321h-142l66 372q14 84 19 140l143 16l-9 -71h2q62 77 154 77q76 0 109 -45t19 -122zM561 777l-169 -191h-84l121 191h132zM190 713l52 84q90 -19 90 -102q0 -22 -21.5 -55
t-57.5 -61l-52 23q35 40 35 68q0 37 -46 43z" />
    <glyph glyph-name="uni1F25" unicode="&#x1f25;" horiz-adv-x="537" 
d="M517 367l-96 -546l-144 -20l95 535q8 44 -6 69t-50 25q-43 0 -70 -31.5t-34 -77.5l-56 -321h-142l66 372q14 84 19 140l143 16l-9 -71h2q62 77 154 77q76 0 109 -45t19 -122zM568 779l-171 -197h-84l123 197h132zM190 678q5 44 39.5 73.5t88.5 39.5l23 -84
q-30 -3 -47.5 -20.5t-17.5 -34.5q0 -28 16 -56q-22 -7 -62 -23q-40 40 -40 105z" />
    <glyph glyph-name="uni1F26" unicode="&#x1f26;" horiz-adv-x="537" 
d="M517 367l-96 -546l-144 -20l95 535q8 44 -6 69t-50 25q-43 0 -70 -31.5t-34 -77.5l-56 -321h-142l66 372q14 84 19 140l143 16l-9 -71h2q62 77 154 77q76 0 109 -45t19 -122zM486 905l36 -52q-15 -32 -41.5 -53t-57.5 -21q-27 0 -72 16q-46 17 -66 17q-38 0 -61 -41
l-42 48q13 28 44 54t64 26q26 0 71 -17t64 -17q39 0 61 40zM398 689q0 -57 -77 -116q-45 21 -51 23q38 35 38 60q0 32 -45 38l48 77q87 -13 87 -82z" />
    <glyph glyph-name="uni1F27" unicode="&#x1f27;" horiz-adv-x="537" 
d="M517 367l-96 -546l-144 -20l95 535q8 44 -6 69t-50 25q-43 0 -70 -31.5t-34 -77.5l-56 -321h-142l66 372q14 84 19 140l143 16l-9 -71h2q62 77 154 77q76 0 109 -45t19 -122zM491 907l35 -53q-14 -31 -40.5 -52.5t-58.5 -21.5q-26 0 -71 16q-46 17 -66 17q-38 0 -61 -41
l-42 49q13 28 44 54q29 25 64 25q26 0 71 -17t64 -17q38 0 61 41zM264 660q2 40 35 69.5t86 36.5l21 -76q-28 -4 -44.5 -18t-16.5 -33q0 -21 18 -46l-59 -23q-40 41 -40 90z" />
    <glyph glyph-name="uni1F28" unicode="&#x1f28;" horiz-adv-x="633" 
d="M668 718l-126 -718h-147l55 315h-226l-55 -315h-147l126 718h147l-51 -285h226l51 285h147zM-17 507l-57 23q37 38 37 63q0 42 -47 48l55 84q43 -8 67 -31.5t24 -58.5q0 -9 -3 -24q-3 -13 -23 -47q-20 -33 -53 -57z" />
    <glyph glyph-name="uni1F29" unicode="&#x1f29;" horiz-adv-x="633" 
d="M668 718l-126 -718h-147l55 315h-226l-55 -315h-147l126 718h147l-51 -285h226l51 285h147zM16 524l-61 -23q-40 43 -40 95q0 47 36 80t94 43l21 -84q-26 -3 -41.5 -16t-19 -24t-3.5 -23q0 -15 14 -48z" />
    <glyph glyph-name="uni1F2A" unicode="&#x1f2a;" horiz-adv-x="633" 
d="M668 718l-126 -718h-147l55 315h-226l-55 -315h-147l126 718h147l-51 -285h226l51 285h147zM-124 720h132l55 -193h-85zM-127 642q0 -64 -79 -128l-53 23q36 41 36 68q0 37 -45 43l50 84q91 -19 91 -90z" />
    <glyph glyph-name="uni1F2B" unicode="&#x1f2b;" horiz-adv-x="633" 
d="M668 718l-126 -718h-147l55 315h-226l-55 -315h-147l126 718h147l-51 -285h226l51 285h147zM-129 718h131l56 -191h-84zM-286 619q4 43 38.5 73t89.5 40l22 -84q-33 -5 -48.5 -22.5t-15.5 -36.5q0 -22 14 -52l-60 -23q-40 37 -40 105z" />
    <glyph glyph-name="uni1F2C" unicode="&#x1f2c;" horiz-adv-x="633" 
d="M668 718l-126 -718h-147l55 315h-226l-55 -315h-147l126 718h147l-51 -285h226l51 285h147zM104 719l-169 -191h-84l121 191h132zM-267 655l52 84q90 -19 90 -102q0 -22 -21.5 -55t-57.5 -61l-52 23q35 40 35 68q0 37 -46 43z" />
    <glyph glyph-name="uni1F2D" unicode="&#x1f2d;" horiz-adv-x="633" 
d="M668 718l-126 -718h-147l55 315h-226l-55 -315h-147l126 718h147l-51 -285h226l51 285h147zM96 720l-171 -197h-84l123 197h132zM-282 619q5 44 39.5 73.5t88.5 39.5l23 -84q-30 -3 -47.5 -20.5t-17.5 -34.5q0 -28 16 -56q-22 -7 -62 -23q-40 40 -40 105z" />
    <glyph glyph-name="uni1F2E" unicode="&#x1f2e;" horiz-adv-x="633" 
d="M668 718l-126 -718h-147l55 315h-226l-55 -315h-147l126 718h147l-51 -285h226l51 285h147zM72 758l36 -52q-15 -32 -41.5 -53t-57.5 -21q-27 0 -71 16q-48 17 -67 17q-38 0 -61 -41l-42 48q13 28 44 54t64 26q26 0 71 -17t64 -17q39 0 61 40zM-16 542q0 -57 -77 -116
q-45 21 -51 23q38 35 38 60q0 32 -45 38l48 77q87 -14 87 -82z" />
    <glyph glyph-name="uni1F2F" unicode="&#x1f2f;" horiz-adv-x="633" 
d="M668 718l-126 -718h-147l55 315h-226l-55 -315h-147l126 718h147l-51 -285h226l51 285h147zM60 751l35 -53q-14 -31 -40.5 -52.5t-58.5 -21.5q-26 0 -70 16q-48 17 -67 17q-38 0 -61 -41l-42 49q13 28 44 54q29 25 64 25q26 0 71 -17t64 -17q38 0 61 41zM-167 504
q2 40 35 69.5t86 36.5l21 -76q-28 -4 -44.5 -18t-16.5 -33q0 -21 18 -46l-59 -23q-40 41 -40 90z" />
    <glyph glyph-name="uni1F30" unicode="&#x1f30;" horiz-adv-x="249" 
d="M121 -14q-42 0 -66.5 21t-24.5 62q0 13 3 30l75 411q17 3 76 10l69 9l-70 -384q-10 -31 -0.5 -48t48.5 -3l-31 -91q-37 -17 -79 -17zM207 574l-57 23q37 38 37 63q0 42 -47 48l55 84q43 -8 67 -31.5t24 -58.5q0 -9 -3 -24q-3 -13 -23 -47q-20 -33 -53 -57z" />
    <glyph glyph-name="uni1F31" unicode="&#x1f31;" horiz-adv-x="249" 
d="M121 -14q-42 0 -66.5 21t-24.5 62q0 13 3 30l75 411q17 3 76 10l69 9l-70 -384q-10 -31 -0.5 -48t48.5 -3l-31 -91q-37 -17 -79 -17zM236 591l-61 -23q-40 43 -40 95q0 47 36 80t94 43l21 -84q-26 -3 -41.5 -16t-19 -24t-3.5 -23q0 -15 14 -48z" />
    <glyph glyph-name="uni1F32" unicode="&#x1f32;" horiz-adv-x="249" 
d="M121 -14q-42 0 -66.5 21t-24.5 62q0 13 3 30l75 411q17 3 76 10l69 9l-70 -384q-10 -31 -0.5 -48t48.5 -3l-31 -91q-37 -17 -79 -17zM170 779h132l55 -193h-85zM167 701q0 -64 -79 -128l-53 23q36 40 36 68q0 37 -45 43l50 84q91 -19 91 -90z" />
    <glyph glyph-name="uni1F33" unicode="&#x1f33;" horiz-adv-x="249" 
d="M121 -14q-42 0 -66.5 21t-24.5 62q0 13 3 30l75 411q17 3 76 10l69 9l-70 -384q-10 -31 -0.5 -48t48.5 -3l-31 -91q-37 -17 -79 -17zM173 779h131l56 -191h-84zM16 680q4 43 38.5 73t89.5 40l22 -84q-33 -5 -48.5 -22.5t-15.5 -36.5q0 -22 14 -52l-60 -23q-40 37 -40 105
z" />
    <glyph glyph-name="uni1F34" unicode="&#x1f34;" horiz-adv-x="249" 
d="M121 -14q-42 0 -66.5 21t-24.5 62q0 13 3 30l75 411q17 3 76 10l69 9l-70 -384q-10 -31 -0.5 -48t48.5 -3l-31 -91q-37 -17 -79 -17zM435 778l-169 -191h-84l121 191h132zM64 714l52 84q90 -20 90 -102q0 -22 -21.5 -55t-57.5 -61l-52 23q35 40 35 68q0 37 -46 43z" />
    <glyph glyph-name="uni1F35" unicode="&#x1f35;" horiz-adv-x="249" 
d="M121 -14q-42 0 -66.5 21t-24.5 62q0 13 3 30l75 411q17 3 76 10l69 9l-70 -384q-10 -31 -0.5 -48t48.5 -3l-31 -91q-37 -17 -79 -17zM436 779l-171 -197h-84l123 197h132zM58 678q5 44 39.5 73.5t88.5 39.5l23 -84q-30 -3 -47.5 -20.5t-17.5 -34.5q0 -28 16 -56
q-22 -7 -62 -23q-40 40 -40 105z" />
    <glyph glyph-name="uni1F36" unicode="&#x1f36;" horiz-adv-x="249" 
d="M121 -14q-42 0 -66.5 21t-24.5 62q0 13 3 30l75 411q17 3 76 10l69 9l-70 -384q-10 -31 -0.5 -48t48.5 -3l-31 -91q-37 -17 -79 -17zM366 905l36 -52q-15 -32 -41.5 -53t-57.5 -21q-27 0 -72 16q-46 17 -66 17q-38 0 -61 -41l-42 48q13 28 44 54t64 26q26 0 71 -17
t64 -17q39 0 61 40zM278 689q0 -57 -77 -116q-45 21 -51 23q38 35 38 60q0 32 -45 38l48 77q87 -13 87 -82z" />
    <glyph glyph-name="uni1F37" unicode="&#x1f37;" horiz-adv-x="249" 
d="M368 907l35 -53q-14 -31 -40.5 -52.5t-58.5 -21.5q-26 0 -71 16q-46 17 -66 17q-38 0 -61 -41l-42 49q13 28 44 54q29 25 64 25q26 0 71 -17t64 -17q38 0 61 41zM141 660q2 40 35 69.5t86 36.5l21 -76q-28 -4 -44.5 -18t-16.5 -33q0 -21 18 -46l-59 -23q-40 41 -40 90z
M121 -14q-42 0 -66.5 21t-24.5 62q0 13 3 30l75 411q17 3 76 10l69 9l-70 -384q-10 -31 -0.5 -48t48.5 -3l-31 -91q-37 -17 -79 -17z" />
    <glyph glyph-name="uni1F38" unicode="&#x1f38;" horiz-adv-x="276" 
d="M303 718l-126 -718h-148l126 718h148zM-16 509l-57 23q37 38 37 63q0 42 -47 48l55 84q43 -8 67 -31.5t24 -58.5q0 -9 -3 -24q-3 -13 -23 -47q-20 -33 -53 -57z" />
    <glyph glyph-name="uni1F39" unicode="&#x1f39;" horiz-adv-x="276" 
d="M303 718l-126 -718h-148l126 718h148zM13 526l-61 -23q-40 43 -40 95q0 47 36 80t94 43l21 -84q-26 -3 -41.5 -16t-19 -24t-3.5 -23q0 -15 14 -48z" />
    <glyph glyph-name="uni1F3A" unicode="&#x1f3a;" horiz-adv-x="276" 
d="M-121 718h132l55 -193h-85zM-124 640q0 -64 -79 -128l-53 23q36 41 36 68q0 37 -45 43l50 84q91 -19 91 -90zM303 718l-126 -718h-148l126 718h148z" />
    <glyph glyph-name="uni1F3B" unicode="&#x1f3b;" horiz-adv-x="276" 
d="M-120 718h131l56 -191h-84zM-277 619q4 43 38.5 73t89.5 40l22 -84q-33 -5 -48.5 -22.5t-15.5 -36.5q0 -22 14 -52l-60 -23q-40 37 -40 105zM303 718l-126 -718h-148l126 718h148z" />
    <glyph glyph-name="uni1F3C" unicode="&#x1f3c;" horiz-adv-x="276" 
d="M109 717l-169 -191h-84l121 191h132zM-262 653l52 84q90 -19 90 -102q0 -22 -21.5 -55t-57.5 -61l-52 23q35 40 35 68q0 37 -46 43zM303 718l-126 -718h-148l126 718h148z" />
    <glyph glyph-name="uni1F3D" unicode="&#x1f3d;" horiz-adv-x="276" 
d="M104 720l-171 -197h-84l123 197h132zM-274 619q5 44 39.5 73.5t88.5 39.5l23 -84q-30 -3 -47.5 -20.5t-17.5 -34.5q0 -28 16 -56q-22 -7 -62 -23q-40 40 -40 105zM303 718l-126 -718h-148l126 718h148z" />
    <glyph glyph-name="uni1F3E" unicode="&#x1f3e;" horiz-adv-x="276" 
d="M73 758l36 -52q-15 -32 -41.5 -53t-57.5 -21q-27 0 -71 16q-48 17 -67 17q-38 0 -61 -41l-42 48q13 28 44 54t64 26q26 0 71 -17t64 -17q39 0 61 40zM-15 542q0 -57 -77 -116q-45 21 -51 23q38 35 38 60q0 32 -45 38l48 77q87 -14 87 -82zM303 718l-126 -718h-148
l126 718h148z" />
    <glyph glyph-name="uni1F3F" unicode="&#x1f3f;" horiz-adv-x="276" 
d="M303 718l-126 -718h-148l126 718h148zM77 758l35 -53q-14 -31 -40.5 -52.5t-58.5 -21.5q-26 0 -70 16q-48 17 -67 17q-38 0 -61 -41l-42 49q13 28 44 54q29 25 64 25q26 0 71 -17t64 -17q38 0 61 41zM-150 511q2 40 35 69.5t86 36.5l21 -76q-28 -4 -44.5 -18t-16.5 -33
q0 -20 18 -46l-59 -23q-40 43 -40 90z" />
    <glyph glyph-name="uni1F40" unicode="&#x1f40;" horiz-adv-x="540" 
d="M518 260q-20 -132 -94 -203t-193 -71q-197 0 -197 201q0 157 81 252q83 95 213 95q191 0 197 -188q0 -45 -7 -86zM310 430q-56 0 -94 -68t-38 -174q0 -100 72 -100q58 0 95 66q38 67 38 176q0 51 -17.5 75.5t-55.5 24.5zM355 574l-57 23q37 38 37 63q0 42 -47 48l55 84
q43 -8 67 -31.5t24 -58.5q0 -9 -3 -24q-3 -13 -23 -47q-20 -33 -53 -57z" />
    <glyph glyph-name="uni1F41" unicode="&#x1f41;" horiz-adv-x="540" 
d="M518 260q-20 -132 -94 -203t-193 -71q-197 0 -197 201q0 157 81 252q83 95 213 95q191 0 197 -188q0 -45 -7 -86zM310 430q-56 0 -94 -68t-38 -174q0 -100 72 -100q58 0 95 66q38 67 38 176q0 51 -17.5 75.5t-55.5 24.5zM384 591l-61 -23q-40 43 -40 95q0 47 36 80t94 43
l21 -84q-26 -3 -41.5 -16t-19 -24t-3.5 -23q0 -15 14 -48z" />
    <glyph glyph-name="uni1F42" unicode="&#x1f42;" horiz-adv-x="540" 
d="M518 260q-20 -132 -94 -203t-193 -71q-197 0 -197 201q0 157 81 252q83 95 213 95q191 0 197 -188q0 -45 -7 -86zM310 430q-56 0 -94 -68t-38 -174q0 -100 72 -100q58 0 95 66q38 67 38 176q0 51 -17.5 75.5t-55.5 24.5zM324 779h132l55 -193h-85zM321 701
q0 -64 -79 -128l-53 23q36 40 36 68q0 37 -45 43l50 84q91 -19 91 -90z" />
    <glyph glyph-name="uni1F43" unicode="&#x1f43;" horiz-adv-x="540" 
d="M518 260q-20 -132 -94 -203t-193 -71q-197 0 -197 201q0 157 81 252q83 95 213 95q191 0 197 -188q0 -45 -7 -86zM310 430q-56 0 -94 -68t-38 -174q0 -100 72 -100q58 0 95 66q38 67 38 176q0 51 -17.5 75.5t-55.5 24.5zM331 777h131l56 -191h-84zM174 678q4 43 38.5 73
t89.5 40l22 -84q-33 -5 -48.5 -22.5t-15.5 -36.5q0 -22 14 -52l-60 -23q-40 37 -40 105z" />
    <glyph glyph-name="uni1F44" unicode="&#x1f44;" horiz-adv-x="540" 
d="M518 260q-20 -132 -94 -203t-193 -71q-197 0 -197 201q0 157 81 252q83 95 213 95q191 0 197 -188q0 -45 -7 -86zM310 430q-56 0 -94 -68t-38 -174q0 -100 72 -100q58 0 95 66q38 67 38 176q0 51 -17.5 75.5t-55.5 24.5zM586 771l-169 -191h-84l121 191h132zM215 707
l52 84q90 -19 90 -102q0 -22 -21.5 -55t-57.5 -61l-52 23q35 40 35 68q0 37 -46 43z" />
    <glyph glyph-name="uni1F45" unicode="&#x1f45;" horiz-adv-x="540" 
d="M518 260q-20 -132 -94 -203t-193 -71q-197 0 -197 201q0 157 81 252q83 95 213 95q191 0 197 -188q0 -45 -7 -86zM310 430q-56 0 -94 -68t-38 -174q0 -100 72 -100q58 0 95 66q38 67 38 176q0 51 -17.5 75.5t-55.5 24.5zM586 779l-171 -197h-84l123 197h132zM208 678
q5 44 39.5 73.5t88.5 39.5l23 -84q-30 -3 -47.5 -20.5t-17.5 -34.5q0 -28 16 -56q-22 -7 -62 -23q-40 40 -40 105z" />
    <glyph glyph-name="uni1F48" unicode="&#x1f48;" horiz-adv-x="678" 
d="M429 732q125 0 183 -67.5t58 -200.5q0 -43 -8 -105q-57 -373 -360 -373q-125 0 -183.5 65.5t-58.5 194.5q0 45 11 113q61 373 358 373zM508 358q13 68 13 120q0 141 -109 141q-76 0 -120 -64.5t-68 -195.5q-13 -68 -13 -117q0 -143 108 -143q75 0 121 64t68 195zM-11 510
l-57 23q37 38 37 63q0 42 -47 48l55 84q43 -8 67 -31.5t24 -58.5q0 -9 -3 -24q-3 -13 -23 -47q-20 -33 -53 -57z" />
    <glyph glyph-name="uni1F49" unicode="&#x1f49;" horiz-adv-x="678" 
d="M429 732q125 0 183 -67.5t58 -200.5q0 -43 -8 -105q-57 -373 -360 -373q-125 0 -183.5 65.5t-58.5 194.5q0 45 11 113q61 373 358 373zM508 358q13 68 13 120q0 141 -109 141q-76 0 -120 -64.5t-68 -195.5q-13 -68 -13 -117q0 -143 108 -143q75 0 121 64t68 195zM33 527
l-61 -23q-40 43 -40 95q0 47 36 80t94 43l21 -84q-26 -3 -41.5 -16t-19 -24t-3.5 -23q0 -15 14 -48z" />
    <glyph glyph-name="uni1F4A" unicode="&#x1f4a;" horiz-adv-x="678" 
d="M429 732q125 0 183 -67.5t58 -200.5q0 -43 -8 -105q-57 -373 -360 -373q-125 0 -183.5 65.5t-58.5 194.5q0 45 11 113q61 373 358 373zM508 358q13 68 13 120q0 141 -109 141q-76 0 -120 -64.5t-68 -195.5q-13 -68 -13 -117q0 -143 108 -143q75 0 121 64t68 195z
M-121 720h132l55 -193h-85zM-124 642q0 -64 -79 -128l-53 23q36 41 36 68q0 37 -45 43l50 84q91 -19 91 -90z" />
    <glyph glyph-name="uni1F4B" unicode="&#x1f4b;" horiz-adv-x="678" 
d="M429 732q125 0 183 -67.5t58 -200.5q0 -43 -8 -105q-57 -373 -360 -373q-125 0 -183.5 65.5t-58.5 194.5q0 45 11 113q61 373 358 373zM508 358q13 68 13 120q0 141 -109 141q-76 0 -120 -64.5t-68 -195.5q-13 -68 -13 -117q0 -143 108 -143q75 0 121 64t68 195z
M-123 718h131l56 -191h-84zM-280 619q4 43 38.5 73t89.5 40l22 -84q-33 -5 -48.5 -22.5t-15.5 -36.5q0 -22 14 -52l-60 -23q-40 37 -40 105z" />
    <glyph glyph-name="uni1F4C" unicode="&#x1f4c;" horiz-adv-x="678" 
d="M429 732q125 0 183 -67.5t58 -200.5q0 -43 -8 -105q-57 -373 -360 -373q-125 0 -183.5 65.5t-58.5 194.5q0 45 11 113q61 373 358 373zM508 358q13 68 13 120q0 141 -109 141q-76 0 -120 -64.5t-68 -195.5q-13 -68 -13 -117q0 -143 108 -143q75 0 121 64t68 195zM141 718
l-169 -191h-84l121 191h132zM-230 654l52 84q90 -20 90 -102q0 -22 -21.5 -55t-57.5 -61l-52 23q35 40 35 68q0 37 -46 43z" />
    <glyph glyph-name="uni1F4D" unicode="&#x1f4d;" horiz-adv-x="678" 
d="M429 732q125 0 183 -67.5t58 -200.5q0 -43 -8 -105q-57 -373 -360 -373q-125 0 -183.5 65.5t-58.5 194.5q0 45 11 113q61 373 358 373zM508 358q13 68 13 120q0 141 -109 141q-76 0 -120 -64.5t-68 -195.5q-13 -68 -13 -117q0 -143 108 -143q75 0 121 64t68 195zM152 719
l-171 -197h-84l123 197h132zM-226 618q5 44 39.5 73.5t88.5 39.5l23 -84q-30 -3 -47.5 -20.5t-17.5 -34.5q0 -28 16 -56q-22 -7 -62 -23q-40 40 -40 105z" />
    <glyph glyph-name="uni1F50" unicode="&#x1f50;" horiz-adv-x="556" 
d="M440 512l143 16l-53 -301q-21 -116 -88.5 -178t-168.5 -62q-113 0 -162 60.5t-28 178.5l52 294h141l-58 -321q-18 -109 63 -109q42 0 68.5 28.5t35.5 78.5zM372 574l-57 23q37 38 37 63q0 42 -47 48l55 84q43 -8 67 -31.5t24 -58.5q0 -9 -3 -24q-3 -13 -23 -47
q-20 -33 -53 -57z" />
    <glyph glyph-name="uni1F51" unicode="&#x1f51;" horiz-adv-x="556" 
d="M440 512l143 16l-53 -301q-21 -116 -88.5 -178t-168.5 -62q-113 0 -162 60.5t-28 178.5l52 294h141l-58 -321q-18 -109 63 -109q42 0 68.5 28.5t35.5 78.5zM411 591l-61 -23q-40 43 -40 95q0 47 36 80t94 43l21 -84q-26 -3 -41.5 -16t-19 -24t-3.5 -23q0 -15 14 -48z" />
    <glyph glyph-name="uni1F52" unicode="&#x1f52;" horiz-adv-x="556" 
d="M440 512l143 16l-53 -301q-21 -116 -88.5 -178t-168.5 -62q-113 0 -162 60.5t-28 178.5l52 294h141l-58 -321q-18 -109 63 -109q42 0 68.5 28.5t35.5 78.5zM353 779h132l55 -193h-85zM350 701q0 -64 -79 -128l-53 23q36 40 36 68q0 37 -45 43l50 84q91 -19 91 -90z" />
    <glyph glyph-name="uni1F53" unicode="&#x1f53;" horiz-adv-x="556" 
d="M440 512l143 16l-53 -301q-21 -116 -88.5 -178t-168.5 -62q-113 0 -162 60.5t-28 178.5l52 294h141l-58 -321q-18 -109 63 -109q42 0 68.5 28.5t35.5 78.5zM355 777h131l56 -191h-84zM198 678q4 43 38.5 73t89.5 40l22 -84q-33 -5 -48.5 -22.5t-15.5 -36.5q0 -22 14 -52
l-60 -23q-40 37 -40 105z" />
    <glyph glyph-name="uni1F54" unicode="&#x1f54;" horiz-adv-x="556" 
d="M440 512l143 16l-53 -301q-21 -116 -88.5 -178t-168.5 -62q-113 0 -162 60.5t-28 178.5l52 294h141l-58 -321q-18 -109 63 -109q42 0 68.5 28.5t35.5 78.5zM612 771l-169 -191h-84l121 191h132zM241 707l52 84q90 -19 90 -102q0 -22 -21.5 -55t-57.5 -61l-52 23
q35 40 35 68q0 37 -46 43z" />
    <glyph glyph-name="uni1F55" unicode="&#x1f55;" horiz-adv-x="556" 
d="M440 512l143 16l-53 -301q-21 -116 -88.5 -178t-168.5 -62q-113 0 -162 60.5t-28 178.5l52 294h141l-58 -321q-18 -109 63 -109q42 0 68.5 28.5t35.5 78.5zM610 779l-171 -197h-84l123 197h132zM232 678q5 44 39.5 73.5t88.5 39.5l23 -84q-30 -3 -47.5 -20.5t-17.5 -34.5
q0 -28 16 -56q-22 -7 -62 -23q-40 40 -40 105z" />
    <glyph glyph-name="uni1F56" unicode="&#x1f56;" horiz-adv-x="556" 
d="M440 512l143 16l-53 -301q-21 -116 -88.5 -178t-168.5 -62q-113 0 -162 60.5t-28 178.5l52 294h141l-58 -321q-18 -109 63 -109q42 0 68.5 28.5t35.5 78.5zM541 905l36 -52q-15 -32 -41.5 -53t-57.5 -21q-27 0 -72 16q-46 17 -66 17q-38 0 -61 -41l-42 48q13 28 44 54
t64 26q26 0 71 -17t64 -17q39 0 61 40zM453 689q0 -57 -77 -116q-45 21 -51 23q38 35 38 60q0 32 -45 38l48 77q87 -13 87 -82z" />
    <glyph glyph-name="uni1F57" unicode="&#x1f57;" horiz-adv-x="556" 
d="M440 512l143 16l-53 -301q-21 -116 -88.5 -178t-168.5 -62q-113 0 -162 60.5t-28 178.5l52 294h141l-58 -321q-18 -109 63 -109q42 0 68.5 28.5t35.5 78.5zM546 907l35 -53q-14 -31 -40.5 -52.5t-58.5 -21.5q-26 0 -71 16q-46 17 -66 17q-38 0 -61 -41l-42 49
q13 28 44 54q29 25 64 25q26 0 71 -17t64 -17q38 0 61 41zM319 660q2 40 35 69.5t86 36.5l21 -76q-28 -4 -44.5 -18t-16.5 -33q0 -21 18 -46l-59 -23q-40 41 -40 90z" />
    <glyph glyph-name="uni1F59" unicode="&#x1f59;" horiz-adv-x="591" 
d="M515 718h163l-295 -440l-49 -278h-147l48 277l-140 441h162l48 -210q12 -54 20 -118l2 1q26 59 62 115zM-3 527l-61 -23q-40 43 -40 95q0 47 36 80t94 43l21 -84q-26 -3 -41.5 -16t-19 -24t-3.5 -23q0 -15 14 -48z" />
    <glyph glyph-name="uni1F5B" unicode="&#x1f5b;" horiz-adv-x="591" 
d="M515 718h163l-295 -440l-49 -278h-147l48 277l-140 441h162l48 -210q12 -54 20 -118l2 1q26 59 62 115zM-122 717h131l56 -191h-84zM-279 618q4 43 38.5 73t89.5 40l22 -84q-33 -5 -48.5 -22.5t-15.5 -36.5q0 -22 14 -52l-60 -23q-40 37 -40 105z" />
    <glyph glyph-name="uni1F5D" unicode="&#x1f5d;" horiz-adv-x="591" 
d="M515 718h163l-295 -440l-49 -278h-147l48 277l-140 441h162l48 -210q12 -54 20 -118l2 1q26 59 62 115zM68 719l-171 -197h-84l123 197h132zM-310 618q5 44 39.5 73.5t88.5 39.5l23 -84q-30 -3 -47.5 -20.5t-17.5 -34.5q0 -28 16 -56q-22 -7 -62 -23q-40 40 -40 105z" />
    <glyph glyph-name="uni1F5F" unicode="&#x1f5f;" horiz-adv-x="591" 
d="M40 763l35 -53q-14 -31 -40.5 -52.5t-58.5 -21.5q-26 0 -70 16q-48 17 -67 17q-38 0 -61 -41l-42 49q13 28 44 54q29 25 64 25q26 0 71 -17t64 -17q38 0 61 41zM-187 516q2 40 35 69.5t86 36.5l21 -76q-28 -4 -44.5 -18t-16.5 -33q0 -21 18 -46l-59 -23q-40 41 -40 90z
M515 718h163l-295 -440l-49 -278h-147l48 277l-140 441h162l48 -210q12 -54 20 -118l2 1q26 59 62 115z" />
    <glyph glyph-name="uni1F60" unicode="&#x1f60;" horiz-adv-x="763" 
d="M742 263q-20 -129 -90 -202.5t-174 -73.5q-103 0 -120 80q-62 -80 -158 -80q-81 0 -123.5 49t-42.5 140q0 44 8 87q23 128 87.5 197t165.5 72l8 -103q-64 1 -96 -71q-31 -69 -31 -178q0 -44 15 -67.5t42 -23.5q26 0 42 18t29 51q11 30 20 92q3 14 7.5 47.5t6.5 43.5h136
l-30 -167q-2 -16 -2 -28q0 -57 51 -57q35 0 62.5 40.5t41.5 120.5q9 51 9 90q0 98 -70 88l40 103q84 -1 128 -54t44 -152q0 -29 -6 -62zM439 574l-57 23q37 38 37 63q0 42 -47 48l55 84q43 -8 67 -31.5t24 -58.5q0 -9 -3 -24q-3 -13 -23 -47q-20 -33 -53 -57z" />
    <glyph glyph-name="uni1F61" unicode="&#x1f61;" horiz-adv-x="763" 
d="M742 263q-20 -129 -90 -202.5t-174 -73.5q-103 0 -120 80q-62 -80 -158 -80q-81 0 -123.5 49t-42.5 140q0 44 8 87q23 128 87.5 197t165.5 72l8 -103q-64 1 -96 -71q-31 -69 -31 -178q0 -44 15 -67.5t42 -23.5q26 0 42 18t29 51q11 30 20 92q3 14 7.5 47.5t6.5 43.5h136
l-30 -167q-2 -16 -2 -28q0 -57 51 -57q35 0 62.5 40.5t41.5 120.5q9 51 9 90q0 98 -70 88l40 103q84 -1 128 -54t44 -152q0 -29 -6 -62zM478 591l-61 -23q-40 43 -40 95q0 47 36 80t94 43l21 -84q-26 -3 -41.5 -16t-19 -24t-3.5 -23q0 -15 14 -48z" />
    <glyph glyph-name="uni1F62" unicode="&#x1f62;" horiz-adv-x="763" 
d="M742 263q-20 -129 -90 -202.5t-174 -73.5q-103 0 -120 80q-62 -80 -158 -80q-81 0 -123.5 49t-42.5 140q0 44 8 87q23 128 87.5 197t165.5 72l8 -103q-64 1 -96 -71q-31 -69 -31 -178q0 -44 15 -67.5t42 -23.5q26 0 42 18t29 51q11 30 20 92q3 14 7.5 47.5t6.5 43.5h136
l-30 -167q-2 -16 -2 -28q0 -57 51 -57q35 0 62.5 40.5t41.5 120.5q9 51 9 90q0 98 -70 88l40 103q84 -1 128 -54t44 -152q0 -29 -6 -62zM431 779h132l55 -193h-85zM428 701q0 -64 -79 -128l-53 23q36 40 36 68q0 37 -45 43l50 84q91 -19 91 -90z" />
    <glyph glyph-name="uni1F63" unicode="&#x1f63;" horiz-adv-x="763" 
d="M742 263q-20 -129 -90 -202.5t-174 -73.5q-103 0 -120 80q-62 -80 -158 -80q-81 0 -123.5 49t-42.5 140q0 44 8 87q23 128 87.5 197t165.5 72l8 -103q-64 1 -96 -71q-31 -69 -31 -178q0 -44 15 -67.5t42 -23.5q26 0 42 18t29 51q11 30 20 92q3 14 7.5 47.5t6.5 43.5h136
l-30 -167q-2 -16 -2 -28q0 -57 51 -57q35 0 62.5 40.5t41.5 120.5q9 51 9 90q0 98 -70 88l40 103q84 -1 128 -54t44 -152q0 -29 -6 -62zM434 777h131l56 -191h-84zM277 678q4 43 38.5 73t89.5 40l22 -84q-33 -5 -48.5 -22.5t-15.5 -36.5q0 -22 14 -52l-60 -23
q-40 37 -40 105z" />
    <glyph glyph-name="uni1F64" unicode="&#x1f64;" horiz-adv-x="763" 
d="M742 263q-20 -129 -90 -202.5t-174 -73.5q-103 0 -120 80q-62 -80 -158 -80q-81 0 -123.5 49t-42.5 140q0 44 8 87q23 128 87.5 197t165.5 72l8 -103q-64 1 -96 -71q-31 -69 -31 -178q0 -44 15 -67.5t42 -23.5q26 0 42 18t29 51q11 30 20 92q3 14 7.5 47.5t6.5 43.5h136
l-30 -167q-2 -16 -2 -28q0 -57 51 -57q35 0 62.5 40.5t41.5 120.5q9 51 9 90q0 98 -70 88l40 103q84 -1 128 -54t44 -152q0 -29 -6 -62zM701 771l-169 -191h-84l121 191h132zM330 707l52 84q90 -19 90 -102q0 -22 -21.5 -55t-57.5 -61l-52 23q35 40 35 68q0 37 -46 43z" />
    <glyph glyph-name="uni1F65" unicode="&#x1f65;" horiz-adv-x="763" 
d="M742 263q-20 -129 -90 -202.5t-174 -73.5q-103 0 -120 80q-62 -80 -158 -80q-81 0 -123.5 49t-42.5 140q0 44 8 87q23 128 87.5 197t165.5 72l8 -103q-64 1 -96 -71q-31 -69 -31 -178q0 -44 15 -67.5t42 -23.5q26 0 42 18t29 51q11 30 20 92q3 14 7.5 47.5t6.5 43.5h136
l-30 -167q-2 -16 -2 -28q0 -57 51 -57q35 0 62.5 40.5t41.5 120.5q9 51 9 90q0 98 -70 88l40 103q84 -1 128 -54t44 -152q0 -29 -6 -62zM693 779l-171 -197h-84l123 197h132zM315 678q5 44 39.5 73.5t88.5 39.5l23 -84q-30 -3 -47.5 -20.5t-17.5 -34.5q0 -28 16 -56
q-22 -7 -62 -23q-40 40 -40 105z" />
    <glyph glyph-name="uni1F66" unicode="&#x1f66;" horiz-adv-x="763" 
d="M742 263q-20 -129 -90 -202.5t-174 -73.5q-103 0 -120 80q-62 -80 -158 -80q-81 0 -123.5 49t-42.5 140q0 44 8 87q23 128 87.5 197t165.5 72l8 -103q-64 1 -96 -71q-31 -69 -31 -178q0 -44 15 -67.5t42 -23.5q26 0 42 18t29 51q11 30 20 92q3 14 7.5 47.5t6.5 43.5h136
l-30 -167q-2 -16 -2 -28q0 -57 51 -57q35 0 62.5 40.5t41.5 120.5q9 51 9 90q0 98 -70 88l40 103q84 -1 128 -54t44 -152q0 -29 -6 -62zM608 899l36 -52q-15 -32 -41.5 -53t-57.5 -21q-27 0 -72 16q-46 17 -66 17q-38 0 -61 -41l-42 48q13 28 44 54t64 26q26 0 71 -17
t64 -17q39 0 61 40zM520 683q0 -57 -77 -116q-45 21 -51 23q38 35 38 60q0 32 -45 38l48 77q87 -13 87 -82z" />
    <glyph glyph-name="uni1F67" unicode="&#x1f67;" horiz-adv-x="763" 
d="M742 263q-20 -129 -90 -202.5t-174 -73.5q-103 0 -120 80q-62 -80 -158 -80q-81 0 -123.5 49t-42.5 140q0 44 8 87q23 128 87.5 197t165.5 72l8 -103q-64 1 -96 -71q-31 -69 -31 -178q0 -44 15 -67.5t42 -23.5q26 0 42 18t29 51q11 30 20 92q3 14 7.5 47.5t6.5 43.5h136
l-30 -167q-2 -16 -2 -28q0 -57 51 -57q35 0 62.5 40.5t41.5 120.5q9 51 9 90q0 98 -70 88l40 103q84 -1 128 -54t44 -152q0 -29 -6 -62zM608 901l35 -53q-14 -31 -40.5 -52.5t-58.5 -21.5q-26 0 -71 16q-46 17 -66 17q-38 0 -61 -41l-42 49q13 28 44 54q29 25 64 25
q26 0 71 -17t64 -17q38 0 61 41zM381 654q2 40 35 69.5t86 36.5l21 -76q-28 -4 -44.5 -18t-16.5 -33q0 -21 18 -46l-59 -23q-40 43 -40 90z" />
    <glyph glyph-name="uni1F68" unicode="&#x1f68;" horiz-adv-x="688" 
d="M428 732q127 0 188.5 -70t61.5 -198q0 -117 -41 -209t-115 -141q22 2 49 2h56q-17 -96 -20 -116h-266q19 112 22 129q118 31 157 251q9 41 9 95q0 145 -112 145q-86 0 -140 -90.5t-60 -251.5q0 -127 79 -149l-22 -129h-266q17 96 20 116h57q30 0 52 -2q-69 54 -69 189
q0 34 8 85q62 344 352 344zM-10 509l-57 23q37 38 37 63q0 42 -47 48l55 84q43 -8 67 -31.5t24 -58.5q0 -9 -3 -24q-3 -13 -23 -47q-20 -33 -53 -57z" />
    <glyph glyph-name="uni1F69" unicode="&#x1f69;" horiz-adv-x="688" 
d="M428 732q127 0 188.5 -70t61.5 -198q0 -117 -41 -209t-115 -141q22 2 49 2h56q-17 -96 -20 -116h-266q19 112 22 129q118 31 157 251q9 41 9 95q0 145 -112 145q-86 0 -140 -90.5t-60 -251.5q0 -127 79 -149l-22 -129h-266q17 96 20 116h57q30 0 52 -2q-69 54 -69 189
q0 34 8 85q62 344 352 344zM22 527l-61 -23q-40 43 -40 95q0 47 36 80t94 43l21 -84q-26 -3 -41.5 -16t-19 -24t-3.5 -23q0 -15 14 -48z" />
    <glyph glyph-name="uni1F6A" unicode="&#x1f6a;" horiz-adv-x="688" 
d="M428 732q127 0 188.5 -70t61.5 -198q0 -117 -41 -209t-115 -141q22 2 49 2h56q-17 -96 -20 -116h-266q19 112 22 129q118 31 157 251q9 41 9 95q0 145 -112 145q-86 0 -140 -90.5t-60 -251.5q0 -127 79 -149l-22 -129h-266q17 96 20 116h57q30 0 52 -2q-69 54 -69 189
q0 34 8 85q62 344 352 344zM-128 720h132l55 -193h-85zM-131 642q0 -64 -79 -128l-53 23q36 41 36 68q0 37 -45 43l50 84q91 -19 91 -90z" />
    <glyph glyph-name="uni1F6B" unicode="&#x1f6b;" horiz-adv-x="688" 
d="M428 732q127 0 188.5 -70t61.5 -198q0 -117 -41 -209t-115 -141q22 2 49 2h56q-17 -96 -20 -116h-266q19 112 22 129q118 31 157 251q9 41 9 95q0 145 -112 145q-86 0 -140 -90.5t-60 -251.5q0 -127 79 -149l-22 -129h-266q17 96 20 116h57q30 0 52 -2q-69 54 -69 189
q0 34 8 85q62 344 352 344zM-126 717h131l56 -191h-84zM-283 618q4 43 38.5 73t89.5 40l22 -84q-33 -5 -48.5 -22.5t-15.5 -36.5q0 -22 14 -52l-60 -23q-40 37 -40 105z" />
    <glyph glyph-name="uni1F6C" unicode="&#x1f6c;" horiz-adv-x="688" 
d="M428 732q127 0 188.5 -70t61.5 -198q0 -117 -41 -209t-115 -141q22 2 49 2h56q-17 -96 -20 -116h-266q19 112 22 129q118 31 157 251q9 41 9 95q0 145 -112 145q-86 0 -140 -90.5t-60 -251.5q0 -127 79 -149l-22 -129h-266q17 96 20 116h57q30 0 52 -2q-69 54 -69 189
q0 34 8 85q62 344 352 344zM141 717l-169 -191h-84l121 191h132zM-230 653l52 84q90 -19 90 -102q0 -22 -21.5 -55t-57.5 -61l-52 23q35 40 35 68q0 37 -46 43z" />
    <glyph glyph-name="uni1F6D" unicode="&#x1f6d;" horiz-adv-x="688" 
d="M428 732q127 0 188.5 -70t61.5 -198q0 -117 -41 -209t-115 -141q22 2 49 2h56q-17 -96 -20 -116h-266q19 112 22 129q118 31 157 251q9 41 9 95q0 145 -112 145q-86 0 -140 -90.5t-60 -251.5q0 -127 79 -149l-22 -129h-266q17 96 20 116h57q30 0 52 -2q-69 54 -69 189
q0 34 8 85q62 344 352 344zM148 719l-171 -197h-84l123 197h132zM-230 618q5 44 39.5 73.5t88.5 39.5l23 -84q-30 -3 -47.5 -20.5t-17.5 -34.5q0 -28 16 -56q-22 -7 -62 -23q-40 40 -40 105z" />
    <glyph glyph-name="uni1F6E" unicode="&#x1f6e;" horiz-adv-x="688" 
d="M428 732q127 0 188.5 -70t61.5 -198q0 -117 -41 -209t-115 -141q22 2 49 2h56q-17 -96 -20 -116h-266q19 112 22 129q118 31 157 251q9 41 9 95q0 145 -112 145q-86 0 -140 -90.5t-60 -251.5q0 -127 79 -149l-22 -129h-266q17 96 20 116h57q30 0 52 -2q-69 54 -69 189
q0 34 8 85q62 344 352 344zM100 758l36 -52q-15 -32 -41.5 -53t-57.5 -21q-27 0 -71 16q-48 17 -67 17q-38 0 -61 -41l-42 48q13 28 44 54t64 26q26 0 71 -17t64 -17q39 0 61 40zM12 542q0 -57 -77 -116q-45 21 -51 23q38 35 38 60q0 32 -45 38l48 77q87 -14 87 -82z" />
    <glyph glyph-name="uni1F6F" unicode="&#x1f6f;" horiz-adv-x="688" 
d="M428 732q127 0 188.5 -70t61.5 -198q0 -117 -41 -209t-115 -141q22 2 49 2h56q-17 -96 -20 -116h-266q19 112 22 129q118 31 157 251q9 41 9 95q0 145 -112 145q-86 0 -140 -90.5t-60 -251.5q0 -127 79 -149l-22 -129h-266q17 96 20 116h57q30 0 52 -2q-69 54 -69 189
q0 34 8 85q62 344 352 344zM113 759l35 -53q-14 -31 -40.5 -52.5t-58.5 -21.5q-26 0 -70 16q-48 17 -67 17q-38 0 -61 -41l-42 49q13 28 44 54q29 25 64 25q26 0 71 -17t64 -17q38 0 61 41zM-114 512q2 40 35 69.5t86 36.5l21 -76q-28 -4 -44.5 -18t-16.5 -33q0 -21 18 -46
l-59 -23q-40 41 -40 90z" />
    <glyph glyph-name="uni1F70" unicode="&#x1f70;" horiz-adv-x="556" 
d="M288 533q44 0 73.5 -21t39.5 -55h2q1 6 16 63h138q-13 -45 -30 -142l-42 -235q-11 -54 27 -54q11 0 20 4l-14 -42l-16 -48q-40 -17 -78 -17q-39 0 -61 19.5t-22 57.5h-3q-59 -77 -158 -77q-146 0 -146 186q0 160 71 261q72 100 183 100zM368 261q8 48 8 76q0 92 -70 92
q-47 0 -75.5 -41t-43.5 -127q-9 -50 -9 -85q0 -86 66 -86q96 0 124 171zM406 589h-79l-132 188h133z" />
    </font>
</defs>
</svg>
