<?xml version="1.0" standalone="no"?>
<!DOCTYPE svg PUBLIC "-//W3C//DTD SVG 20010904//EN"
 "http://www.w3.org/TR/2001/REC-SVG-20010904/DTD/svg10.dtd">
<svg version="1.0" xmlns="http://www.w3.org/2000/svg"
 width="519.000000pt" height="454.000000pt" viewBox="0 0 519.000000 454.000000"
 preserveAspectRatio="xMidYMid meet">

<g transform="translate(0.000000,454.000000) scale(0.100000,-0.100000)"
fill="#000000" stroke="none">
<path d="M810 2160 l0 -1750 421 211 422 210 -54 36 c-283 190 -514 496 -617
818 -73 229 -92 497 -52 732 72 421 317 800 669 1036 l54 36 -422 210 -421
211 0 -1750z"/>
<path d="M2330 3710 c-148 -14 -271 -41 -410 -91 -67 -25 -260 -119 -260 -128
0 -3 528 -270 1174 -593 l1174 -587 7 -76 c4 -41 4 -109 0 -150 l-7 -76 -1174
-587 c-646 -323 -1174 -590 -1174 -593 0 -9 193 -103 260 -128 278 -100 566
-122 855 -65 641 128 1146 670 1231 1322 l7 53 143 72 c79 39 144 74 144 77 0
3 -65 38 -144 77 l-143 72 -7 53 c-58 440 -310 845 -680 1091 -222 148 -462
231 -741 257 -120 11 -129 11 -255 0z"/>
<path d="M1685 2933 c-223 -47 -337 -105 -461 -235 -416 -435 -210 -1144 376
-1294 107 -27 278 -25 383 4 214 61 386 199 486 391 39 77 75 183 85 255 l5
40 -54 -54 -55 -54 -100 99 c-56 55 -103 102 -106 104 -2 3 -51 -41 -107 -97
l-102 -102 -135 135 -134 135 34 35 34 35 103 -102 103 -103 102 103 103 102
102 -102 103 -102 48 47 c26 26 51 47 55 47 4 0 7 -28 7 -62 l0 -62 48 47 49
48 103 -102 103 -101 103 103 104 104 103 -103 103 -102 34 35 34 36 -137 137
-137 137 -105 -105 -105 -105 -103 103 -103 102 -43 -44 c-48 -49 -61 -50 -61
-6 0 44 -38 158 -81 241 -107 206 -301 352 -530 399 -86 18 -204 24 -254 13z"/>
</g>
</svg>
