<?xml version="1.0" standalone="no"?>
<!DOCTYPE svg PUBLIC "-//W3C//DTD SVG 20010904//EN"
 "http://www.w3.org/TR/2001/REC-SVG-20010904/DTD/svg10.dtd">
<svg version="1.0" xmlns="http://www.w3.org/2000/svg"
 width="2050.000000pt" height="2050.000000pt" viewBox="0 0 2050.000000 2050.000000"
 preserveAspectRatio="xMidYMid meet">

<g transform="translate(0.000000,2050.000000) scale(0.100000,-0.100000)"
fill="#000000" stroke="none">
<path d="M338 20441 c-147 -47 -238 -141 -282 -290 -15 -50 -16 -877 -16
-9892 0 -9607 0 -9839 19 -9898 46 -149 140 -241 291 -285 50 -15 918 -16
9920 -14 l9865 3 58 24 c119 47 209 146 247 268 20 65 20 77 20 9903 0 9826 0
9838 -20 9903 -38 122 -128 221 -247 268 l-58 24 -9870 2 c-9529 2 -9872 1
-9927 -16z m19282 -2071 l0 -1250 -9370 0 -9370 0 0 1250 0 1250 9370 0 9370
0 0 -1250z m0 -9780 l0 -7690 -9370 0 -9370 0 0 7690 0 7690 9370 0 9370 0 0
-7690z"/>
<path d="M3111 18784 c-79 -21 -145 -60 -202 -121 -152 -160 -152 -406 0 -566
100 -106 194 -137 411 -137 154 0 214 11 295 51 147 74 247 271 217 430 -33
179 -159 312 -330 348 -76 16 -325 13 -391 -5z"/>
<path d="M4845 18786 c-165 -40 -285 -171 -317 -345 -30 -160 69 -356 217
-430 81 -40 141 -51 295 -51 217 0 311 31 411 137 151 159 151 407 0 566 -59
62 -123 100 -206 122 -72 18 -325 19 -400 1z"/>
<path d="M6560 18784 c-144 -39 -257 -154 -295 -299 -53 -206 56 -418 255
-497 46 -18 81 -22 216 -26 224 -6 319 18 414 104 99 90 144 199 138 334 -9
188 -130 337 -313 385 -79 20 -338 20 -415 -1z"/>
<path d="M3078 13146 c-95 -34 -194 -120 -238 -206 -51 -100 -50 -51 -50
-1870 0 -1041 4 -1718 10 -1754 23 -139 113 -260 238 -319 l67 -32 1750 -3
c1719 -2 1751 -2 1815 17 88 27 169 86 219 162 77 115 71 -39 71 1924 0 1718
0 1763 -19 1818 -37 107 -118 198 -220 246 l-56 26 -1775 2 c-1442 2 -1782 0
-1812 -11z m3052 -2081 l0 -1265 -1250 0 -1250 0 0 1265 0 1265 1250 0 1250 0
0 -1265z"/>
<path d="M8418 13146 c-101 -36 -201 -126 -243 -219 -13 -29 -29 -81 -34 -117
-14 -83 -15 -3397 -1 -3488 20 -141 107 -260 235 -323 l70 -34 1750 -3 c1719
-2 1751 -2 1815 17 88 27 169 86 219 162 77 115 71 -39 71 1924 0 1718 0 1763
-19 1818 -37 107 -118 198 -220 246 l-56 26 -1775 2 c-1442 2 -1782 0 -1812
-11z m3052 -2081 l0 -1265 -1250 0 -1250 0 0 1265 0 1265 1250 0 1250 0 0
-1265z"/>
<path d="M13739 13137 c-145 -60 -236 -178 -259 -332 -13 -96 -13 -3384 0
-3480 21 -145 107 -262 237 -327 l68 -33 1775 0 1775 0 68 33 c87 43 161 117
201 201 l31 66 0 1800 0 1800 -32 66 c-39 80 -120 159 -200 197 l-58 27 -1775
2 -1775 3 -56 -23z m3071 -2072 l0 -1265 -1250 0 -1250 0 0 1265 0 1265 1250
0 1250 0 0 -1265z"/>
<path d="M3095 7886 c-97 -31 -173 -86 -226 -162 -145 -211 -64 -507 169 -617
l67 -32 1775 0 1775 0 68 33 c86 43 156 113 199 199 31 64 33 73 33 178 0 103
-2 114 -32 177 -41 88 -113 160 -201 201 l-67 32 -1760 2 c-1402 1 -1768 -1
-1800 -11z"/>
<path d="M8465 7886 c-116 -37 -207 -116 -258 -224 -30 -63 -32 -74 -32 -177
0 -103 2 -114 32 -178 40 -85 111 -155 200 -199 l68 -33 1775 0 1775 0 68 33
c318 157 318 604 -1 755 l-67 32 -1760 2 c-1402 1 -1768 -1 -1800 -11z"/>
<path d="M13835 7886 c-116 -37 -207 -116 -258 -224 -30 -63 -32 -74 -32 -177
0 -105 2 -114 33 -178 43 -86 114 -157 199 -199 l68 -33 1775 0 1775 0 67 32
c163 77 266 264 239 433 -26 156 -102 258 -241 324 l-65 31 -1760 2 c-1402 1
-1768 -1 -1800 -11z"/>
<path d="M3095 6346 c-197 -63 -328 -265 -296 -456 27 -156 102 -258 241 -324
l65 -31 1775 0 1775 0 67 32 c88 41 160 113 201 201 30 63 32 74 32 177 0 105
-2 114 -33 178 -43 86 -113 156 -199 199 l-68 33 -1760 2 c-1402 1 -1768 -1
-1800 -11z"/>
<path d="M8452 6341 c-67 -23 -154 -82 -192 -132 -17 -20 -43 -64 -58 -96 -24
-52 -27 -69 -27 -168 0 -103 2 -114 32 -177 41 -88 113 -160 201 -201 l67 -32
1775 0 1775 0 67 32 c319 151 319 598 1 755 l-68 33 -1760 2 c-1683 2 -1762 2
-1813 -16z"/>
<path d="M13828 6344 c-119 -37 -239 -159 -274 -281 -26 -89 -16 -211 23 -296
41 -87 113 -159 201 -200 l67 -32 1775 0 1775 0 65 31 c139 66 214 168 241
324 28 168 -76 356 -239 433 l-67 32 -1760 2 c-1516 1 -1767 0 -1807 -13z"/>
</g>
</svg>
