<svg id="erxl5fiupe0p1" xmlns="http://www.w3.org/2000/svg" xmlns:xlink="http://www.w3.org/1999/xlink" viewBox="0 0 1000 1000" shape-rendering="geometricPrecision" text-rendering="geometricPrecision"><style><![CDATA[#erxl5fiupe0p5_to {animation: erxl5fiupe0p5_to__to 3000ms linear infinite normal forwards}@keyframes erxl5fiupe0p5_to__to { 0% {transform: translate(703.305260px,394.094056px)} 50% {transform: translate(704.200195px,492.045326px)} 100% {transform: translate(704.200195px,492.045326px)} }#erxl5fiupe0p6 {animation: erxl5fiupe0p6_f_o 3000ms linear infinite normal forwards}@keyframes erxl5fiupe0p6_f_o { 0% {fill-opacity: 1} 33.333333% {fill-opacity: 1} 50% {fill-opacity: 0.500000} 66.666667% {fill-opacity: 1} 100% {fill-opacity: 1} }#erxl5fiupe0p7 {animation: erxl5fiupe0p7_f_o 3000ms linear infinite normal forwards}@keyframes erxl5fiupe0p7_f_o { 0% {fill-opacity: 1} 16.666667% {fill-opacity: 1} 33.333333% {fill-opacity: 0.500000} 50% {fill-opacity: 1} 100% {fill-opacity: 1} }#erxl5fiupe0p8 {animation: erxl5fiupe0p8_f_o 3000ms linear infinite normal forwards}@keyframes erxl5fiupe0p8_f_o { 0% {fill-opacity: 1} 16.666667% {fill-opacity: 0.500000} 33.333333% {fill-opacity: 1} 100% {fill-opacity: 1} }#erxl5fiupe0p9 {animation: erxl5fiupe0p9_f_o 3000ms linear infinite normal forwards}@keyframes erxl5fiupe0p9_f_o { 0% {fill-opacity: 0} 16.666667% {fill-opacity: 1} 33.333333% {fill-opacity: 0} 100% {fill-opacity: 0} }#erxl5fiupe0p10 {animation: erxl5fiupe0p10_f_o 3000ms linear infinite normal forwards}@keyframes erxl5fiupe0p10_f_o { 0% {fill-opacity: 0} 6.666667% {fill-opacity: 0} 23.333333% {fill-opacity: 1} 40% {fill-opacity: 0} 100% {fill-opacity: 0} }#erxl5fiupe0p11 {animation: erxl5fiupe0p11_f_o 3000ms linear infinite normal forwards}@keyframes erxl5fiupe0p11_f_o { 0% {fill-opacity: 0} 13.333333% {fill-opacity: 0} 30% {fill-opacity: 1} 46.666667% {fill-opacity: 0} 100% {fill-opacity: 0} }#erxl5fiupe0p12 {animation: erxl5fiupe0p12_f_o 3000ms linear infinite normal forwards}@keyframes erxl5fiupe0p12_f_o { 0% {fill-opacity: 0} 20% {fill-opacity: 0} 36.666667% {fill-opacity: 1} 53.333333% {fill-opacity: 0} 100% {fill-opacity: 0} }#erxl5fiupe0p13 {animation: erxl5fiupe0p13_f_o 3000ms linear infinite normal forwards}@keyframes erxl5fiupe0p13_f_o { 0% {fill-opacity: 0} 26.666667% {fill-opacity: 0} 43.333333% {fill-opacity: 1} 60% {fill-opacity: 0} 100% {fill-opacity: 0} }#erxl5fiupe0p14 {animation: erxl5fiupe0p14_f_o 3000ms linear infinite normal forwards}@keyframes erxl5fiupe0p14_f_o { 0% {fill-opacity: 0} 46.666667% {fill-opacity: 0} 63.333333% {fill-opacity: 1} 80.333333% {fill-opacity: 0} 100% {fill-opacity: 0} }#erxl5fiupe0p16_to {animation: erxl5fiupe0p16_to__to 3000ms linear infinite normal forwards}@keyframes erxl5fiupe0p16_to__to { 0% {transform: translate(497.315195px,394.094056px)} 50% {transform: translate(703.300260px,394.094056px)} 100% {transform: translate(703.300260px,394.094056px)} }#erxl5fiupe0p17_to {animation: erxl5fiupe0p17_to__to 3000ms linear infinite normal forwards}@keyframes erxl5fiupe0p17_to__to { 0% {transform: translate(-2.684805px,173.617326px)} 50% {transform: translate(-206.880000px,173.617326px)} 100% {transform: translate(-206.880000px,173.617326px)} }#erxl5fiupe0p18_to {animation: erxl5fiupe0p18_to__to 3000ms linear infinite normal forwards}@keyframes erxl5fiupe0p18_to__to { 0% {transform: translate(-2.684805px,173.617326px)} 50% {transform: translate(-209.564805px,173.617326px)} 100% {transform: translate(-209.564805px,173.617326px)} }#erxl5fiupe0p19_to {animation: erxl5fiupe0p19_to__to 3000ms linear infinite normal forwards}@keyframes erxl5fiupe0p19_to__to { 0% {transform: translate(-0.894935px,173.617326px)} 50% {transform: translate(-0px,75.666056px)} 100% {transform: translate(-0px,75.666056px)} }#erxl5fiupe0p21_to {animation: erxl5fiupe0p21_to__to 3000ms linear infinite normal forwards}@keyframes erxl5fiupe0p21_to__to { 0% {transform: translate(292.220065px,394.094056px)} 50% {transform: translate(496.425260px,394.094056px)} 100% {transform: translate(496.425260px,394.094056px)} }]]></style><g id="erxl5fiupe0p2" transform="matrix(1.40000000000000 0 0 1.40000000000000 -200.57340420000003 -200.00000000000011)"><g id="erxl5fiupe0p3"/><g id="erxl5fiupe0p4"><g id="erxl5fiupe0p5_to" transform="translate(703.305260,394.094056)"><rect id="erxl5fiupe0p5" width="135.130000" height="66.730000" rx="0" ry="0" transform="translate(-67.565000,-33.365000)" fill="rgb(35,31,32)" stroke="none" stroke-width="1"/></g><rect id="erxl5fiupe0p6" width="135.130000" height="66.730000" rx="0" ry="0" transform="matrix(1 0 0 1 637.53012999999999 687.78360199999997)" fill="rgb(35,31,32)" stroke="none" stroke-width="1"/><rect id="erxl5fiupe0p7" width="135.120000" height="66.730000" rx="0" ry="0" transform="matrix(1 0 0 1 430.65012999999993 687.78360199999997)" fill="rgb(35,31,32)" stroke="none" stroke-width="1"/><rect id="erxl5fiupe0p8" width="135.130000" height="66.730000" rx="0" ry="0" transform="matrix(1 0 0 1 225.54999999999990 687.78360199999997)" fill="rgb(35,31,32)" stroke="none" stroke-width="1"/><rect id="erxl5fiupe0p9" width="135.130000" height="66.730000" rx="0" ry="0" transform="matrix(0.45212134337082 0 0 0.77368383205245 195.00242143610600 217.35229882205277)" fill="rgb(2,0,0)" fill-opacity="0" stroke="none" stroke-width="1"/><rect id="erxl5fiupe0p10" width="135.130000" height="66.730000" rx="0" ry="0" transform="matrix(0.45212134337082 0 0 0.77368383205245 265.47206072182013 217.35229882205277)" fill="rgb(2,0,0)" fill-opacity="0" stroke="none" stroke-width="1"/><rect id="erxl5fiupe0p11" width="135.130000" height="66.730000" rx="0" ry="0" transform="matrix(0.45212134337082 0 0 0.77368383205245 337.54328286467739 217.35229882205277)" fill="rgb(2,0,0)" fill-opacity="0" stroke="none" stroke-width="1"/><rect id="erxl5fiupe0p12" width="135.130000" height="66.730000" rx="0" ry="0" transform="matrix(0.45212134337082 0 0 0.77368383205245 408.01292215039172 217.35229882205277)" fill="rgb(2,0,0)" fill-opacity="0" stroke="none" stroke-width="1"/><rect id="erxl5fiupe0p13" width="135.130000" height="66.730000" rx="0" ry="0" transform="matrix(0.45212134337082 0 0 0.77368383205245 479.01642215039175 217.35229882205277)" fill="rgb(2,0,0)" fill-opacity="0" stroke="none" stroke-width="1"/><rect id="erxl5fiupe0p14" width="135.130000" height="66.730000" rx="0" ry="0" transform="matrix(0.45212134337082 0 0 0.77368383205245 747.29369000753468 217.35229882205277)" fill="rgb(2,0,0)" fill-opacity="0" stroke="none" stroke-width="1"/></g><g id="erxl5fiupe0p15"><g id="erxl5fiupe0p16_to" transform="translate(497.315195,394.094056)"><rect id="erxl5fiupe0p16" width="135.120000" height="66.730000" rx="0" ry="0" transform="translate(-67.560000,-33.365000)" fill="rgb(35,31,32)" stroke="none" stroke-width="1"/></g><g id="erxl5fiupe0p17_to" transform="translate(-2.684805,173.617326)"><rect id="erxl5fiupe0p17" width="135.120000" height="66.730000" rx="0" ry="0" transform="translate(432.440000,285.063000)" fill="rgb(35,31,32)" stroke="none" stroke-width="1"/></g><g id="erxl5fiupe0p18_to" transform="translate(-2.684805,173.617326)"><rect id="erxl5fiupe0p18" width="135.130000" height="66.730000" rx="0" ry="0" transform="translate(639.320000,285.063000)" fill="rgb(35,31,32)" stroke="none" stroke-width="1"/></g><g id="erxl5fiupe0p19_to" transform="translate(-0.894935,173.617326)"><rect id="erxl5fiupe0p19" width="135.130000" height="66.730000" rx="0" ry="0" transform="translate(225.550000,285.063000)" fill="rgb(35,31,32)" stroke="none" stroke-width="1"/></g></g><g id="erxl5fiupe0p20"><g id="erxl5fiupe0p21_to" transform="translate(292.220065,394.094056)"><rect id="erxl5fiupe0p21" width="135.130000" height="66.730000" rx="0" ry="0" transform="translate(-67.565000,-33.365000)" fill="rgb(35,31,32)" stroke="none" stroke-width="1"/></g><path id="erxl5fiupe0p22" d="M817.769000,151.982000L182.231000,151.982000C165.663000,151.982000,152.231000,174.919909,152.231000,203.216999L152.231000,848.018000L847.768000,848.018000L847.768000,203.216999C847.769000,174.919909,834.337000,151.982000,817.769000,151.982000ZM763.351000,223.381387L786.947000,223.381387C793.850000,223.381387,799.447000,232.938422,799.447000,244.729303C799.447000,256.520184,793.850000,266.077219,786.947000,266.077219L763.351000,266.077219C756.448000,266.077219,750.851000,256.520184,750.851000,244.729303C750.851000,232.938422,756.448000,223.381387,763.351000,223.381387ZM497.053000,223.381387L520.649000,223.381387C527.552000,223.381387,533.149000,232.938422,533.149000,244.729303C533.149000,256.520184,527.552000,266.077219,520.649000,266.077219L497.053000,266.077219C490.150000,266.077219,484.553000,256.520184,484.553000,244.729303C484.553000,232.938422,490.149000,223.381387,497.053000,223.381387ZM426.053000,223.381387L449.649000,223.381387C456.552000,223.381387,462.149000,232.938422,462.149000,244.729303C462.149000,256.520184,456.552000,266.077219,449.649000,266.077219L426.053000,266.077219C419.150000,266.077219,413.553000,256.520184,413.553000,244.729303C413.553000,232.938422,419.149000,223.381387,426.053000,223.381387ZM407.440000,357.060330C407.440000,345.737396,412.810000,336.566331,419.440000,336.566331L580.560000,336.566331C587.190000,336.566331,592.560000,345.737396,592.560000,357.060330L592.560000,515.427712C592.560000,526.733569,587.190000,535.921712,580.560000,535.921712L419.440000,535.921712C412.810000,535.921712,407.440000,526.733569,407.440000,515.427712L407.440000,357.060330ZM284.053000,223.381387L307.649000,223.381387C314.552000,223.381387,320.149000,232.938422,320.149000,244.729303C320.149000,256.520184,314.552000,266.077219,307.649000,266.077219L284.053000,266.077219C277.150000,266.077219,271.553000,256.520184,271.553000,244.729303C271.553000,232.938422,277.149000,223.381387,284.053000,223.381387ZM213.053000,223.381387L236.649000,223.381387C243.552000,223.381387,249.149000,232.938422,249.149000,244.729303C249.149000,256.520184,243.552000,266.077219,236.649000,266.077219L213.053000,266.077219C206.150000,266.077219,200.553000,256.520184,200.553000,244.729303C200.553000,232.938422,206.149000,223.381387,213.053000,223.381387ZM385.677000,755.270697C385.677000,767.061578,380.081000,776.618613,373.177000,776.618613L213.053000,776.618613C206.150000,776.618613,200.553000,767.061578,200.553000,755.270697L200.553000,685.350294C200.553000,673.561121,206.150000,664.002378,213.053000,664.002378L373.177000,664.002378C380.081000,664.002378,385.677000,673.561121,385.677000,685.350294L385.677000,755.270697ZM373.177000,621.306545L213.053000,621.306545C206.150000,621.306545,200.553000,611.747802,200.553000,599.958629C200.553000,588.167748,206.150000,578.610713,213.053000,578.610713L373.177000,578.610713C380.081000,578.610713,385.677000,588.167748,385.677000,599.958629C385.677000,611.747802,380.081000,621.306545,373.177000,621.306545ZM385.680000,515.427712C385.680000,526.733569,380.300000,535.921712,373.680000,535.921712L212.550000,535.921712C205.930000,535.921712,200.550000,526.733569,200.550000,515.427712L200.550000,357.060330C200.550000,345.737396,205.930000,336.566331,212.550000,336.566331L373.680000,336.566331C380.300000,336.566331,385.680000,345.737396,385.680000,357.060330L385.680000,515.427712ZM378.649000,266.077219L355.053000,266.077219C348.150000,266.077219,342.553000,256.520184,342.553000,244.729303C342.553000,232.938422,348.150000,223.381387,355.053000,223.381387L378.649000,223.381387C385.552000,223.381387,391.149000,232.938422,391.149000,244.729303C391.149000,256.520184,385.552000,266.077219,378.649000,266.077219ZM592.562000,755.270697C592.562000,767.061578,586.966000,776.618613,580.062000,776.618613L419.938000,776.618613C413.034000,776.618613,407.438000,767.061578,407.438000,755.270697L407.438000,685.350294C407.438000,673.561121,413.034000,664.002378,419.938000,664.002378L580.062000,664.002378C586.966000,664.002378,592.562000,673.561121,592.562000,685.350294L592.562000,755.270697ZM580.062000,621.306545L419.938000,621.306545C413.034000,621.306545,407.438000,611.747802,407.438000,599.958629C407.438000,588.167748,413.034000,578.610713,419.938000,578.610713L580.062000,578.610713C586.966000,578.610713,592.562000,588.167748,592.562000,599.958629C592.562000,611.747802,586.966000,621.306545,580.062000,621.306545ZM799.447000,755.270697C799.447000,767.061578,793.850000,776.618613,786.947000,776.618613L626.823000,776.618613C619.920000,776.618613,614.323000,767.061578,614.323000,755.270697L614.323000,685.350294C614.323000,673.561121,619.920000,664.002378,626.823000,664.002378L786.948000,664.002378C793.851000,664.002378,799.448000,673.561121,799.448000,685.350294L799.448000,755.270697ZM786.947000,621.306545L626.823000,621.306545C619.920000,621.306545,614.323000,611.747802,614.323000,599.958629C614.323000,588.167748,619.920000,578.610713,626.823000,578.610713L786.948000,578.610713C793.851000,578.610713,799.448000,588.167748,799.448000,599.958629C799.447000,611.747802,793.851000,621.306545,786.947000,621.306545ZM799.450000,515.427712C799.450000,526.733569,794.070000,535.921712,787.450000,535.921712L626.320000,535.921712C619.700000,535.921712,614.320000,526.733569,614.320000,515.427712L614.320000,357.060330C614.320000,345.737396,619.700000,336.566331,626.320000,336.566331L787.450000,336.566331C794.070000,336.566331,799.450000,345.737396,799.450000,357.060330L799.450000,515.427712Z" fill="rgb(35,31,32)" stroke="none" stroke-width="1"/></g></g></svg>