<svg id="el_gK1BeTKTT" style="enable-background:new 0 0 1000 1000;" version="1.1" viewBox="0 0 1000 1000" xml:space="preserve" xmlns="http://www.w3.org/2000/svg" xmlns:xlink="http://www.w3.org/1999/xlink"><style>@-webkit-keyframes kf_el_1y_e87SRqt_an_g22P8D1de{50%{-webkit-transform: translate(706.885009765625px, 318.4279899597168px) scale(1, 1) translate(-706.885009765625px, -318.4279899597168px);transform: translate(706.885009765625px, 318.4279899597168px) scale(1, 1) translate(-706.885009765625px, -318.4279899597168px);}75%{-webkit-transform: translate(706.885009765625px, 318.4279899597168px) scale(0.5, 0.5) translate(-706.885009765625px, -318.4279899597168px);transform: translate(706.885009765625px, 318.4279899597168px) scale(0.5, 0.5) translate(-706.885009765625px, -318.4279899597168px);}100%{-webkit-transform: translate(706.885009765625px, 318.4279899597168px) scale(1, 1) translate(-706.885009765625px, -318.4279899597168px);transform: translate(706.885009765625px, 318.4279899597168px) scale(1, 1) translate(-706.885009765625px, -318.4279899597168px);}0%{-webkit-transform: translate(706.885009765625px, 318.4279899597168px) scale(1, 1) translate(-706.885009765625px, -318.4279899597168px);transform: translate(706.885009765625px, 318.4279899597168px) scale(1, 1) translate(-706.885009765625px, -318.4279899597168px);}}@keyframes kf_el_1y_e87SRqt_an_g22P8D1de{50%{-webkit-transform: translate(706.885009765625px, 318.4279899597168px) scale(1, 1) translate(-706.885009765625px, -318.4279899597168px);transform: translate(706.885009765625px, 318.4279899597168px) scale(1, 1) translate(-706.885009765625px, -318.4279899597168px);}75%{-webkit-transform: translate(706.885009765625px, 318.4279899597168px) scale(0.5, 0.5) translate(-706.885009765625px, -318.4279899597168px);transform: translate(706.885009765625px, 318.4279899597168px) scale(0.5, 0.5) translate(-706.885009765625px, -318.4279899597168px);}100%{-webkit-transform: translate(706.885009765625px, 318.4279899597168px) scale(1, 1) translate(-706.885009765625px, -318.4279899597168px);transform: translate(706.885009765625px, 318.4279899597168px) scale(1, 1) translate(-706.885009765625px, -318.4279899597168px);}0%{-webkit-transform: translate(706.885009765625px, 318.4279899597168px) scale(1, 1) translate(-706.885009765625px, -318.4279899597168px);transform: translate(706.885009765625px, 318.4279899597168px) scale(1, 1) translate(-706.885009765625px, -318.4279899597168px);}}@-webkit-keyframes kf_el_z6tCkVKqHr_an_3U2uYpqNA{25%{-webkit-transform: translate(500px, 318.4279899597168px) scale(1, 1) translate(-500px, -318.4279899597168px);transform: translate(500px, 318.4279899597168px) scale(1, 1) translate(-500px, -318.4279899597168px);}50%{-webkit-transform: translate(500px, 318.4279899597168px) scale(0.5, 0.5) translate(-500px, -318.4279899597168px);transform: translate(500px, 318.4279899597168px) scale(0.5, 0.5) translate(-500px, -318.4279899597168px);}75%{-webkit-transform: translate(500px, 318.4279899597168px) scale(1, 1) translate(-500px, -318.4279899597168px);transform: translate(500px, 318.4279899597168px) scale(1, 1) translate(-500px, -318.4279899597168px);}0%{-webkit-transform: translate(500px, 318.4279899597168px) scale(1, 1) translate(-500px, -318.4279899597168px);transform: translate(500px, 318.4279899597168px) scale(1, 1) translate(-500px, -318.4279899597168px);}100%{-webkit-transform: translate(500px, 318.4279899597168px) scale(1, 1) translate(-500px, -318.4279899597168px);transform: translate(500px, 318.4279899597168px) scale(1, 1) translate(-500px, -318.4279899597168px);}}@keyframes kf_el_z6tCkVKqHr_an_3U2uYpqNA{25%{-webkit-transform: translate(500px, 318.4279899597168px) scale(1, 1) translate(-500px, -318.4279899597168px);transform: translate(500px, 318.4279899597168px) scale(1, 1) translate(-500px, -318.4279899597168px);}50%{-webkit-transform: translate(500px, 318.4279899597168px) scale(0.5, 0.5) translate(-500px, -318.4279899597168px);transform: translate(500px, 318.4279899597168px) scale(0.5, 0.5) translate(-500px, -318.4279899597168px);}75%{-webkit-transform: translate(500px, 318.4279899597168px) scale(1, 1) translate(-500px, -318.4279899597168px);transform: translate(500px, 318.4279899597168px) scale(1, 1) translate(-500px, -318.4279899597168px);}0%{-webkit-transform: translate(500px, 318.4279899597168px) scale(1, 1) translate(-500px, -318.4279899597168px);transform: translate(500px, 318.4279899597168px) scale(1, 1) translate(-500px, -318.4279899597168px);}100%{-webkit-transform: translate(500px, 318.4279899597168px) scale(1, 1) translate(-500px, -318.4279899597168px);transform: translate(500px, 318.4279899597168px) scale(1, 1) translate(-500px, -318.4279899597168px);}}@-webkit-keyframes kf_el_fCyn9zGhdE_an_E5ZVtdj16{0%{-webkit-transform: translate(293.11500549316406px, 318.4279899597168px) scale(1, 1) translate(-293.11500549316406px, -318.4279899597168px);transform: translate(293.11500549316406px, 318.4279899597168px) scale(1, 1) translate(-293.11500549316406px, -318.4279899597168px);}25%{-webkit-transform: translate(293.11500549316406px, 318.4279899597168px) scale(0.5, 0.5) translate(-293.11500549316406px, -318.4279899597168px);transform: translate(293.11500549316406px, 318.4279899597168px) scale(0.5, 0.5) translate(-293.11500549316406px, -318.4279899597168px);}50%{-webkit-transform: translate(293.11500549316406px, 318.4279899597168px) scale(1, 1) translate(-293.11500549316406px, -318.4279899597168px);transform: translate(293.11500549316406px, 318.4279899597168px) scale(1, 1) translate(-293.11500549316406px, -318.4279899597168px);}100%{-webkit-transform: translate(293.11500549316406px, 318.4279899597168px) scale(1, 1) translate(-293.11500549316406px, -318.4279899597168px);transform: translate(293.11500549316406px, 318.4279899597168px) scale(1, 1) translate(-293.11500549316406px, -318.4279899597168px);}}@keyframes kf_el_fCyn9zGhdE_an_E5ZVtdj16{0%{-webkit-transform: translate(293.11500549316406px, 318.4279899597168px) scale(1, 1) translate(-293.11500549316406px, -318.4279899597168px);transform: translate(293.11500549316406px, 318.4279899597168px) scale(1, 1) translate(-293.11500549316406px, -318.4279899597168px);}25%{-webkit-transform: translate(293.11500549316406px, 318.4279899597168px) scale(0.5, 0.5) translate(-293.11500549316406px, -318.4279899597168px);transform: translate(293.11500549316406px, 318.4279899597168px) scale(0.5, 0.5) translate(-293.11500549316406px, -318.4279899597168px);}50%{-webkit-transform: translate(293.11500549316406px, 318.4279899597168px) scale(1, 1) translate(-293.11500549316406px, -318.4279899597168px);transform: translate(293.11500549316406px, 318.4279899597168px) scale(1, 1) translate(-293.11500549316406px, -318.4279899597168px);}100%{-webkit-transform: translate(293.11500549316406px, 318.4279899597168px) scale(1, 1) translate(-293.11500549316406px, -318.4279899597168px);transform: translate(293.11500549316406px, 318.4279899597168px) scale(1, 1) translate(-293.11500549316406px, -318.4279899597168px);}}#el_gK1BeTKTT *{-webkit-animation-duration: 2s;animation-duration: 2s;-webkit-animation-iteration-count: infinite;animation-iteration-count: infinite;-webkit-animation-timing-function: cubic-bezier(0, 0, 1, 1);animation-timing-function: cubic-bezier(0, 0, 1, 1);}#el_7udFye9ru2{fill: #231F20;}#el_2t1L1N6bGs{fill: #231F20;}#el_1y_e87SRqt{fill: #231F20;}#el_z6tCkVKqHr{fill: #231F20;}#el_fCyn9zGhdE{fill: #231F20;}#el_XSmTyMtjTq{fill: #231F20;}#el_fCyn9zGhdE_an_QgskcSAbr{-webkit-transform: translate(293.11500549316406px, 318.4279899597168px) rotate(0deg) translate(-293.11500549316406px, -318.4279899597168px);transform: translate(293.11500549316406px, 318.4279899597168px) rotate(0deg) translate(-293.11500549316406px, -318.4279899597168px);}#el_z6tCkVKqHr_an_07QLUjWNS{-webkit-transform: translate(500px, 318.4279899597168px) rotate(0deg) translate(-500px, -318.4279899597168px);transform: translate(500px, 318.4279899597168px) rotate(0deg) translate(-500px, -318.4279899597168px);}#el_1y_e87SRqt_an_CljGuxU60{-webkit-transform: translate(706.885009765625px, 318.4279899597168px) rotate(0deg) translate(-706.885009765625px, -318.4279899597168px);transform: translate(706.885009765625px, 318.4279899597168px) rotate(0deg) translate(-706.885009765625px, -318.4279899597168px);}#el_z6tCkVKqHr_an_byrvXQQOZ{-webkit-transform: translate(500px, 318.4279899597168px) scale(1, 1) translate(-500px, -318.4279899597168px);transform: translate(500px, 318.4279899597168px) scale(1, 1) translate(-500px, -318.4279899597168px);}#el_fCyn9zGhdE_an_E5ZVtdj16{-webkit-animation-fill-mode: forwards;animation-fill-mode: forwards;-webkit-transform: translate(293.11500549316406px, 318.4279899597168px) scale(1, 1) translate(-293.11500549316406px, -318.4279899597168px);transform: translate(293.11500549316406px, 318.4279899597168px) scale(1, 1) translate(-293.11500549316406px, -318.4279899597168px);-webkit-animation-name: kf_el_fCyn9zGhdE_an_E5ZVtdj16;animation-name: kf_el_fCyn9zGhdE_an_E5ZVtdj16;-webkit-animation-timing-function: cubic-bezier(0, 0, 1, 1);animation-timing-function: cubic-bezier(0, 0, 1, 1);}#el_1y_e87SRqt_an_KvQ_E28Ry{-webkit-transform: translate(706.885009765625px, 318.4279899597168px) scale(1, 1) translate(-706.885009765625px, -318.4279899597168px);transform: translate(706.885009765625px, 318.4279899597168px) scale(1, 1) translate(-706.885009765625px, -318.4279899597168px);}#el_z6tCkVKqHr_an_3U2uYpqNA{-webkit-animation-fill-mode: forwards;animation-fill-mode: forwards;-webkit-animation-name: kf_el_z6tCkVKqHr_an_3U2uYpqNA;animation-name: kf_el_z6tCkVKqHr_an_3U2uYpqNA;-webkit-animation-timing-function: cubic-bezier(0, 0, 1, 1);animation-timing-function: cubic-bezier(0, 0, 1, 1);}#el_1y_e87SRqt_an_g22P8D1de{-webkit-animation-fill-mode: forwards;animation-fill-mode: forwards;-webkit-animation-name: kf_el_1y_e87SRqt_an_g22P8D1de;animation-name: kf_el_1y_e87SRqt_an_g22P8D1de;-webkit-animation-timing-function: cubic-bezier(0, 0, 1, 1);animation-timing-function: cubic-bezier(0, 0, 1, 1);}</style><g id="el_yNDOuFg0Px"><path d="M152.231,609.461c0,16.569,13.432,30,30,30H401V646c0,8.58,3.67,16.73,10.08,22.43   c11.63,10.35,29.25,31.26,29.92,63.32c0.2,9.43,0.12,17.55-0.12,24.5h118.24c-0.24-6.95-0.32-15.07-0.12-24.5   c0.67-32.06,18.29-52.97,29.92-63.32c6.41-5.7,10.08-13.85,10.08-22.43v-6.539h218.769c16.568,0,30-13.431,30-30v-24.924H152.231   V609.461z" id="el_7udFye9ru2"/><path d="M636.803,781.25H363.197c-29.972,0-54.269,24.297-54.269,54.268l0,0c0,6.904,5.597,12.5,12.5,12.5   h357.144c6.903,0,12.5-5.596,12.5-12.5l0,0C691.072,805.547,666.775,781.25,636.803,781.25z" id="el_2t1L1N6bGs"/><g id="el_1y_e87SRqt_an_g22P8D1de" data-animator-group="true" data-animator-type="2"><rect height="66.73" width="135.13" x="639.32" y="285.063" id="el_1y_e87SRqt"/></g><g id="el_z6tCkVKqHr_an_3U2uYpqNA" data-animator-group="true" data-animator-type="2"><rect height="66.73" width="135.12" x="432.44" y="285.063" id="el_z6tCkVKqHr"/></g><g id="el_fCyn9zGhdE_an_E5ZVtdj16" data-animator-group="true" data-animator-type="2"><rect height="66.73" width="135.13" x="225.55" y="285.063" id="el_fCyn9zGhdE"/></g><path d="M817.769,151.982H182.231c-16.568,0-30,13.431-30,30v377.555h695.537V181.982   C847.769,165.413,834.337,151.982,817.769,151.982z M763.351,193.789h23.596c6.903,0,12.5,5.596,12.5,12.5   c0,6.904-5.597,12.5-12.5,12.5h-23.596c-6.903,0-12.5-5.596-12.5-12.5C750.851,199.385,756.448,193.789,763.351,193.789z    M497.053,193.789h23.596c6.903,0,12.5,5.596,12.5,12.5c0,6.904-5.597,12.5-12.5,12.5h-23.596c-6.903,0-12.5-5.596-12.5-12.5   C484.553,199.385,490.149,193.789,497.053,193.789z M426.053,193.789h23.596c6.903,0,12.5,5.596,12.5,12.5   c0,6.904-5.597,12.5-12.5,12.5h-23.596c-6.903,0-12.5-5.596-12.5-12.5C413.553,199.385,419.149,193.789,426.053,193.789z    M407.44,272.063c0-6.63,5.37-12,12-12h161.12c6.63,0,12,5.37,12,12v92.73c0,6.62-5.37,12-12,12H419.44c-6.63,0-12-5.38-12-12   V272.063z M284.053,193.789h23.596c6.903,0,12.5,5.596,12.5,12.5c0,6.904-5.597,12.5-12.5,12.5h-23.596   c-6.903,0-12.5-5.596-12.5-12.5C271.553,199.385,277.149,193.789,284.053,193.789z M213.053,193.789h23.596   c6.903,0,12.5,5.596,12.5,12.5c0,6.904-5.597,12.5-12.5,12.5h-23.596c-6.903,0-12.5-5.596-12.5-12.5   C200.553,199.385,206.149,193.789,213.053,193.789z M385.677,505.23c0,6.904-5.596,12.5-12.5,12.5H213.053   c-6.903,0-12.5-5.596-12.5-12.5v-40.941c0-6.903,5.597-12.5,12.5-12.5h160.124c6.904,0,12.5,5.597,12.5,12.5V505.23z    M373.177,426.789H213.053c-6.903,0-12.5-5.597-12.5-12.5c0-6.904,5.597-12.5,12.5-12.5h160.124c6.904,0,12.5,5.596,12.5,12.5   C385.677,421.192,380.081,426.789,373.177,426.789z M385.68,364.793c0,6.62-5.38,12-12,12H212.55c-6.62,0-12-5.38-12-12v-92.73   c0-6.63,5.38-12,12-12h161.13c6.62,0,12,5.37,12,12V364.793z M378.649,218.789h-23.596c-6.903,0-12.5-5.596-12.5-12.5   c0-6.904,5.597-12.5,12.5-12.5h23.596c6.903,0,12.5,5.596,12.5,12.5C391.149,213.193,385.552,218.789,378.649,218.789z    M592.562,505.23c0,6.904-5.596,12.5-12.5,12.5H419.938c-6.904,0-12.5-5.596-12.5-12.5v-40.941c0-6.903,5.596-12.5,12.5-12.5   h160.124c6.904,0,12.5,5.597,12.5,12.5V505.23z M580.062,426.789H419.938c-6.904,0-12.5-5.597-12.5-12.5   c0-6.904,5.596-12.5,12.5-12.5h160.124c6.904,0,12.5,5.596,12.5,12.5C592.562,421.192,586.966,426.789,580.062,426.789z    M799.447,505.23c0,6.904-5.597,12.5-12.5,12.5H626.823c-6.903,0-12.5-5.596-12.5-12.5v-40.941c0-6.903,5.597-12.5,12.5-12.5   h160.125c6.903,0,12.5,5.597,12.5,12.5V505.23z M786.947,426.789H626.823c-6.903,0-12.5-5.597-12.5-12.5   c0-6.904,5.597-12.5,12.5-12.5h160.125c6.903,0,12.5,5.596,12.5,12.5C799.447,421.192,793.851,426.789,786.947,426.789z    M799.45,364.793c0,6.62-5.38,12-12,12H626.32c-6.62,0-12-5.38-12-12v-92.73c0-6.63,5.38-12,12-12h161.13c6.62,0,12,5.37,12,12   V364.793z" id="el_XSmTyMtjTq"/></g></svg>