<?xml version="1.0" standalone="no"?>
<!DOCTYPE svg PUBLIC "-//W3C//DTD SVG 20010904//EN"
 "http://www.w3.org/TR/2001/REC-SVG-20010904/DTD/svg10.dtd">
<svg version="1.0" xmlns="http://www.w3.org/2000/svg"
 width="2050.000000pt" height="2050.000000pt" viewBox="0 0 2050.000000 2050.000000"
 preserveAspectRatio="xMidYMid meet">

<g transform="translate(0.000000,2050.000000) scale(0.100000,-0.100000)"
fill="#000000" stroke="none">
<path d="M338 20451 c-147 -47 -238 -141 -282 -290 -15 -50 -16 -878 -16
-9906 0 -9028 1 -9856 16 -9906 45 -151 136 -244 285 -290 59 -19 291 -19
9909 -19 9618 0 9850 0 9909 19 149 46 240 139 285 290 15 50 16 879 16 9907
0 9622 0 9854 -19 9913 -46 149 -139 240 -290 285 -50 15 -877 16 -9905 15
-9504 0 -9853 -1 -9908 -18z m19282 -2121 l0 -1300 -9370 0 -9370 0 0 1300 0
1300 9370 0 9370 0 0 -1300z m0 -9795 l0 -7655 -9370 0 -9370 0 0 7655 0 7655
9370 0 9370 0 0 -7655z"/>
<path d="M2730 18731 c-76 -24 -115 -46 -166 -93 -96 -89 -139 -197 -132 -334
10 -194 149 -349 344 -385 34 -6 130 -9 229 -7 141 3 180 8 227 25 116 43 205
129 249 240 19 47 23 78 24 159 0 96 -2 103 -38 176 -58 117 -147 190 -274
223 -86 23 -389 20 -463 -4z"/>
<path d="M4540 18731 c-76 -24 -115 -46 -166 -93 -96 -89 -139 -197 -132 -334
10 -194 149 -349 344 -385 34 -6 130 -9 229 -7 141 3 180 8 227 25 160 59 262
195 275 364 10 123 -32 236 -121 325 -102 102 -180 124 -426 123 -139 0 -186
-4 -230 -18z"/>
<path d="M6350 18731 c-76 -24 -115 -46 -166 -93 -96 -89 -139 -197 -132 -334
10 -194 149 -349 344 -385 34 -6 130 -9 229 -7 141 3 180 8 227 25 160 59 262
195 275 364 10 123 -32 236 -121 325 -102 102 -180 124 -426 123 -139 0 -186
-4 -230 -18z"/>
<path d="M2740 12896 c-197 -55 -319 -226 -308 -432 4 -70 10 -94 41 -158 59
-119 168 -202 296 -226 33 -6 359 -10 865 -10 697 0 820 2 871 15 166 44 285
173 317 344 29 156 -58 339 -202 424 -99 58 -88 57 -1000 56 -636 -1 -846 -4
-880 -13z"/>
<path d="M7020 12896 c-73 -20 -119 -46 -181 -104 -248 -229 -124 -650 210
-712 75 -14 10608 -14 10682 0 128 24 237 107 296 226 118 240 -11 521 -272
590 -71 19 -10666 19 -10735 0z"/>
<path d="M2792 10889 c-140 -18 -260 -106 -324 -236 -31 -63 -33 -74 -33 -173
0 -144 22 -199 119 -296 53 -53 86 -77 131 -95 l60 -24 886 0 885 0 76 38
c335 165 305 636 -50 770 -57 21 -63 22 -872 23 -448 1 -844 -2 -878 -7z"/>
<path d="M7072 10889 c-231 -30 -395 -248 -360 -474 21 -138 107 -254 235
-317 l68 -33 910 0 910 0 68 32 c169 80 269 266 238 442 -29 160 -126 276
-279 334 -57 21 -62 22 -892 23 -459 1 -864 -2 -898 -7z"/>
<path d="M10443 10890 c-271 -36 -432 -314 -333 -575 32 -83 140 -192 225
-226 l60 -24 1480 0 1480 0 58 23 c66 27 163 111 200 175 110 188 54 438 -126
557 -120 81 9 75 -1572 76 -775 1 -1438 -2 -1472 -6z"/>
<path d="M14513 10889 c-245 -31 -416 -288 -347 -520 43 -145 134 -242 272
-288 62 -21 65 -21 1690 -19 l1627 3 60 24 c45 18 78 42 131 95 97 97 119 152
119 296 0 99 -2 110 -33 173 -65 132 -181 215 -327 237 -85 12 -3099 12 -3192
-1z"/>
<path d="M2730 8861 c-76 -24 -115 -46 -166 -93 -96 -89 -139 -197 -132 -334
4 -70 10 -94 41 -158 59 -119 168 -202 296 -226 33 -6 359 -10 865 -10 697 0
820 2 871 15 166 44 285 173 317 344 29 156 -58 339 -202 424 -99 58 -88 57
-1000 56 -771 0 -839 -1 -890 -18z"/>
<path d="M7019 8866 c-161 -45 -285 -184 -307 -344 -18 -129 19 -248 105 -342
58 -64 123 -103 208 -125 53 -13 629 -15 5356 -15 3516 0 5314 3 5349 10 131
25 237 106 297 226 31 64 37 88 41 158 11 208 -105 370 -307 430 -50 15 -511
16 -5375 15 -4270 -1 -5330 -3 -5367 -13z"/>
<path d="M2725 6846 c-112 -36 -203 -114 -256 -222 -65 -132 -48 -306 41 -425
51 -68 126 -123 203 -148 63 -21 72 -21 933 -19 l870 3 76 38 c334 165 303
647 -49 768 -54 18 -90 19 -917 18 -666 0 -870 -3 -901 -13z"/>
<path d="M7005 6846 c-200 -63 -325 -260 -293 -461 21 -138 106 -253 233 -316
l70 -34 910 0 910 0 68 32 c128 61 214 176 238 320 33 190 -88 388 -278 454
-54 18 -90 19 -937 18 -682 0 -890 -3 -921 -13z"/>
<path d="M10362 6841 c-178 -61 -292 -232 -280 -419 8 -118 37 -183 122 -268
53 -53 86 -77 131 -95 l60 -24 1480 0 1480 0 58 23 c66 27 163 111 200 175
126 215 38 486 -193 596 l-55 26 -1475 2 c-1405 2 -1478 2 -1528 -16z"/>
<path d="M14432 6840 c-72 -26 -111 -52 -165 -109 -182 -195 -144 -497 81
-640 103 -65 -9 -61 1767 -61 l1611 0 62 21 c77 26 151 81 202 148 89 119 106
293 41 425 -42 86 -117 160 -200 200 l-66 31 -1640 2 c-1591 2 -1642 2 -1693
-17z"/>
</g>
</svg>
