<?xml version="1.0" standalone="no"?>
<!DOCTYPE svg PUBLIC "-//W3C//DTD SVG 20010904//EN"
 "http://www.w3.org/TR/2001/REC-SVG-20010904/DTD/svg10.dtd">
<svg version="1.0" xmlns="http://www.w3.org/2000/svg"
 width="8542.000000pt" height="8542.000000pt" viewBox="0 0 8542.000000 8542.000000"
 preserveAspectRatio="xMidYMid meet">

<g transform="translate(0.000000,8542.000000) scale(0.100000,-0.100000)"
fill="#000000" stroke="none">
<path d="M6105 74689 c-2800 -7 -4183 -19 -4497 -39 -172 -11 -222 -23 -395
-95 -391 -164 -675 -435 -858 -817 -83 -175 -125 -305 -135 -427 -42 -473 -49
-4020 -60 -30306 -11 -26333 -6 -30360 40 -30875 10 -123 51 -249 136 -429
198 -418 532 -707 995 -862 92 -31 141 -41 235 -49 447 -36 3903 -50 13002
-50 4701 0 7062 -3 7062 -10 0 -7 7027 -10 21060 -10 14033 0 21060 3 21060
10 0 7 2361 10 7063 10 9098 0 12554 14 13001 50 322 27 741 251 979 526 202
233 367 579 387 814 19 213 31 1442 39 3853 6 2155 9 2479 21 2487 13 8 15
3009 15 24167 -1 26840 -7 30034 -55 30644 -27 333 -250 748 -533 989 -171
146 -399 272 -625 344 -111 36 -116 36 -360 46 -774 32 -2307 33 -38497 35
-19921 1 -37507 -1 -39080 -6z m75645 -8904 l0 -5415 -39040 0 -39040 0 0
5415 0 5415 39040 0 39040 0 0 -5415z m0 -22835 c0 -9273 -3 -13920 -10
-13920 -7 0 -10 -2472 -10 -7395 l0 -7395 -39040 0 -39040 0 0 2115 c0 1403 3
2115 10 2115 7 0 10 6407 10 19200 l0 19200 39040 0 39040 0 0 -13920z"/>
<path d="M11970 67534 c-25 -2 -112 -8 -195 -15 -281 -20 -477 -69 -694 -170
-301 -140 -609 -444 -771 -760 -132 -256 -188 -534 -177 -869 15 -428 163
-799 443 -1108 271 -299 693 -510 1104 -552 267 -27 1113 -21 1421 10 205 21
354 63 537 152 435 211 764 588 907 1039 38 120 53 239 61 476 8 268 -5 433
-46 553 -40 122 -164 364 -251 495 -83 124 -246 299 -359 385 -260 198 -561
313 -915 350 -102 11 -963 22 -1065 14z"/>
<path d="M19430 67529 c-267 -9 -389 -29 -575 -90 -188 -62 -344 -139 -465
-230 -365 -274 -598 -624 -680 -1021 -182 -884 261 -1718 1075 -2023 278 -104
416 -120 1060 -119 670 1 910 20 1124 90 214 70 452 207 614 353 286 256 461
565 544 960 24 114 27 147 27 346 1 250 -12 343 -71 530 -92 286 -263 547
-506 769 -230 212 -439 320 -729 380 -271 56 -817 77 -1418 55z"/>
<path d="M26970 67530 c-316 -13 -456 -40 -700 -137 -208 -82 -354 -178 -529
-347 -112 -110 -200 -214 -267 -317 -315 -486 -349 -1184 -84 -1722 226 -457
646 -787 1164 -912 168 -41 311 -50 831 -49 826 1 1021 27 1335 175 491 233
837 677 945 1213 99 491 4 963 -273 1356 -86 122 -328 365 -447 449 -242 170
-493 248 -905 281 -175 14 -824 20 -1070 10z"/>
<path d="M40080 53789 c-5140 -7 -9379 -23 -10310 -39 l-515 -8 -110 -37
c-279 -93 -473 -221 -715 -472 -135 -139 -217 -252 -295 -403 -241 -472 -245
-1042 -11 -1535 224 -472 626 -803 1136 -936 l115 -30 1100 -10 c4596 -38
37712 -38 42305 0 l1095 10 116 30 c651 169 1132 682 1276 1360 24 112 27 148
27 331 1 175 -3 222 -22 318 -95 469 -360 868 -752 1130 -111 74 -284 157
-422 203 l-121 41 -531 9 c-2387 38 -19607 58 -33366 38z"/>
<path d="M12465 53780 c-700 -10 -960 -22 -1072 -51 -181 -48 -412 -161 -583
-287 -105 -77 -282 -260 -363 -372 -80 -113 -183 -318 -226 -450 -71 -219 -96
-408 -88 -660 10 -280 43 -419 156 -654 231 -479 639 -818 1139 -947 100 -26
143 -31 336 -39 605 -27 4527 -40 5931 -20 869 12 986 21 1198 91 391 129 736
401 950 747 199 321 299 706 269 1030 -56 595 -394 1123 -907 1417 -217 124
-348 155 -805 186 -198 14 -5010 21 -5935 9z"/>
<path d="M63715 45410 c-2654 -10 -3195 -19 -3365 -55 -500 -109 -940 -445
-1185 -908 -141 -265 -216 -589 -202 -866 10 -194 46 -353 128 -561 197 -504
569 -855 1081 -1018 117 -38 201 -49 483 -63 350 -17 4110 -21 8935 -11 l4395
9 168 68 c251 101 358 171 570 374 208 199 363 394 432 545 90 193 118 377
119 771 0 380 -10 434 -126 674 -253 520 -689 864 -1253 987 -99 22 -147 25
-495 34 -914 23 -5908 33 -9685 20z"/>
<path d="M13170 45399 c-1191 -6 -1424 -11 -1570 -30 -174 -24 -400 -99 -563
-187 -376 -204 -698 -582 -843 -994 -40 -113 -48 -194 -48 -493 1 -394 29
-578 119 -771 69 -151 224 -346 432 -545 212 -203 320 -274 568 -373 l165 -66
3695 0 3695 0 218 109 c120 60 265 141 323 179 407 273 679 713 739 1195 18
141 8 413 -20 552 -46 232 -156 490 -288 675 -196 276 -496 509 -822 639 -149
60 -240 77 -480 91 -289 17 -3449 28 -5320 19z"/>
<path d="M31015 45398 c-1296 -6 -1534 -13 -1687 -47 -608 -137 -1097 -577
-1292 -1162 -68 -204 -81 -287 -80 -539 0 -255 12 -336 84 -551 86 -258 217
-468 419 -669 174 -173 275 -244 543 -380 l216 -110 3801 0 3801 0 172 80
c282 133 428 230 598 400 250 250 416 553 492 903 19 87 22 133 23 317 0 188
-3 229 -23 325 -136 634 -521 1091 -1122 1329 -140 55 -236 72 -480 86 -305
18 -3530 29 -5465 18z"/>
<path d="M45915 45399 c-1160 -3 -2175 -9 -2255 -13 -333 -16 -623 -109 -885
-285 -518 -346 -820 -975 -767 -1596 18 -211 85 -473 158 -618 138 -271 471
-614 759 -780 44 -26 147 -74 229 -107 l150 -60 6176 0 6177 0 156 64 c86 35
193 85 238 112 264 160 577 467 691 679 93 172 160 362 194 550 27 152 25 451
-4 607 -60 317 -198 607 -403 845 -110 129 -243 237 -501 409 -205 136 -450
165 -1588 184 -733 12 -5623 17 -8525 9z"/>
<path d="M12190 36990 c-419 -8 -632 -21 -735 -45 -197 -46 -440 -153 -595
-263 -116 -82 -324 -287 -409 -402 -170 -230 -268 -478 -307 -774 -20 -149
-14 -461 12 -606 48 -274 224 -607 445 -844 241 -258 594 -453 921 -510 189
-33 882 -40 3763 -41 3328 0 3323 0 3608 95 518 173 920 561 1111 1072 89 240
128 492 108 706 -55 578 -389 1110 -879 1398 -243 143 -386 176 -883 205 -229
14 -5506 21 -6160 9z"/>
<path d="M35665 36989 c-4169 -7 -6148 -19 -6350 -38 -148 -15 -386 -113 -570
-236 -398 -266 -667 -659 -765 -1121 -28 -130 -38 -403 -20 -552 67 -581 456
-1117 992 -1366 154 -72 305 -116 434 -126 484 -40 4517 -49 20879 -50 13384
0 21757 11 23010 30 604 9 611 9 705 34 526 138 920 465 1156 961 112 237 142
367 151 660 8 281 -23 480 -112 720 -118 318 -346 599 -642 792 -105 68 -321
172 -443 213 -52 17 -134 36 -182 41 -189 19 -945 30 -2878 39 -2293 11
-28692 10 -35365 -1z"/>
<path d="M12127 28569 c-558 -9 -707 -20 -821 -59 -567 -191 -1017 -693 -1146
-1275 -105 -474 13 -1025 300 -1406 82 -109 242 -272 347 -352 208 -159 474
-279 693 -312 222 -34 624 -37 4004 -30 l3309 6 187 94 c236 118 333 175 445
263 370 289 600 702 655 1177 56 495 -118 1018 -460 1378 -152 160 -312 276
-512 372 -235 111 -330 130 -738 145 -318 11 -5598 11 -6263 -1z"/>
<path d="M29975 28569 c-565 -9 -721 -20 -837 -59 -740 -248 -1246 -996 -1188
-1759 42 -555 322 -1037 780 -1343 58 -39 196 -115 307 -169 l202 -99 3793 2
3793 3 225 112 c252 126 361 198 510 340 282 268 461 612 530 1018 19 113 22
154 17 310 -6 200 -22 293 -82 473 -147 442 -490 831 -909 1032 -223 106 -323
125 -732 140 -323 11 -5731 11 -6409 -1z"/>
<path d="M44080 28570 c-682 -11 -803 -22 -974 -89 -555 -221 -945 -684 -1067
-1268 -30 -145 -41 -322 -29 -475 39 -491 157 -744 515 -1103 235 -235 346
-311 616 -421 l182 -74 6156 0 6156 0 140 55 c245 98 397 193 611 384 183 162
309 322 399 506 412 839 87 1841 -750 2312 -38 21 -133 69 -210 105 l-140 65
-5545 5 c-3050 3 -5777 2 -6060 -2z"/>
<path d="M61135 28570 c-592 -8 -824 -20 -939 -50 -101 -26 -276 -102 -381
-164 -261 -156 -515 -437 -664 -734 -126 -251 -183 -498 -182 -787 1 -384 127
-745 364 -1048 74 -94 234 -252 322 -319 93 -70 264 -178 332 -210 151 -71
425 -98 1203 -119 265 -7 2521 -13 6530 -16 l6125 -4 180 61 c215 73 333 127
463 213 137 90 235 172 343 285 217 228 352 484 423 803 133 597 -37 1173
-474 1609 -171 170 -320 271 -590 397 l-175 81 -6160 5 c-3388 2 -6412 1
-6720 -3z"/>
</g>
</svg>
