<?xml version="1.0" standalone="no"?>
<!DOCTYPE svg PUBLIC "-//W3C//DTD SVG 1.1//EN" "http://www.w3.org/Graphics/SVG/1.1/DTD/svg11.dtd" >
<svg xmlns="http://www.w3.org/2000/svg" xmlns:xlink="http://www.w3.org/1999/xlink" version="1.1">
<metadata>
Created by FontForge 20170924 at Wed Feb 26 20:39:04 2014
 By www-data
Copyright (c) 2013 by Parachute Worldwide. All rights reserved.
</metadata>
<defs>
<font id="PFDasGroteskPro-MediumItalic" horiz-adv-x="530" >
  <font-face 
    font-family="PF Das Grotesk Pro"
    font-weight="500"
    font-style="italic"
    font-stretch="normal"
    units-per-em="1000"
    panose-1="2 0 6 6 0 0 0 9 0 4"
    ascent="800"
    descent="-200"
    x-height="519"
    cap-height="718"
    bbox="-281 -270 1197 966"
    underline-thickness="60"
    underline-position="-235"
    unicode-range="U+0020-FB05"
  />
<missing-glyph horiz-adv-x="446" 
d="M467 0h-446v700h446v-700zM244 292l-126 -229h252zM118 636l126 -228l126 228h-252zM207 350l-123 225v-449zM403 574l-122 -224l122 -224v448z" />
    <glyph glyph-name="fj" unicode="fj" horiz-adv-x="516" 
d="M232 -188l-33 90q4 -1 17 -1q58 0 79 33q22 31 33 103l61 397h-152l-76 -434h-113l78 434h-78l16 85h76l10 54q34 183 214 183q75 0 135 -26l-10 -92q-57 22 -122 22q-56 0 -79.5 -30.5t-30.5 -76.5l-5 -34h265l-59 -390q-18 -130 -47 -200q-24 -61 -64.5 -87t-114.5 -30
z" />
    <glyph glyph-name="ffj" unicode="ffj" horiz-adv-x="784" 
d="M661 434h-152l-75 -434h-113l76 434h-161l-76 -434h-113l77 434h-77l15 85h77l15 80q14 74 53 112.5t116 38.5q42 0 84 -12l-9 -93q-34 14 -62 14q-37 0 -51.5 -18.5t-24.5 -75.5l-8 -46h160l9 46q18 91 67 144q49 55 150 55q69 0 135 -25l-10 -92q-57 22 -122 22
q-50 0 -74 -25.5t-33 -72.5l-10 -52h265l-59 -390q-18 -130 -47 -200q-24 -61 -64.5 -87t-114.5 -30l-33 90q4 -1 17 -1q58 0 79 33q22 31 33 103z" />
    <glyph glyph-name="ff" unicode="ff" horiz-adv-x="576" 
d="M535 613l-16 -94h106l-15 -85h-107l-84 -517l-116 -15l88 532h-151l-107 -614l-115 -14l110 628h-77l16 85h76l15 82q29 152 169 152q43 0 84 -12l-9 -93q-39 14 -61 14q-32 0 -48.5 -14.5t-23.5 -52.5l-13 -76h151l12 79q15 94 57 133.5t117 39.5q46 0 85 -13l-10 -92
q-39 14 -61 14q-32 0 -49 -14.5t-23 -52.5z" />
    <glyph glyph-name="fi" unicode="fi" horiz-adv-x="509" 
d="M125 -180l-115 -14l109 628h-76l16 85h75l7 37q37 199 234 199q74 -5 119 -25l-16 -92q-57 22 -116 22q-92 0 -108 -100l-6 -41h259l-87 -519h-113l73 434h-148z" />
    <glyph glyph-name="fl" unicode="fl" horiz-adv-x="522" 
d="M335 434h-99q-14 -96 -30 -191q-17 -102 -42 -233l-34 -190l-115 -14l109 628h-77l15 85h77l7 37q38 200 218 200q64 0 115 -18q77 4 82 4l-123 -742h-113l108 653q-31 7 -66 7q-49 0 -75 -22q-10 -7 -18 -26q-9 -24 -15 -56l-7 -37h99z" />
    <glyph glyph-name="ffi" unicode="ffi" horiz-adv-x="781" 
d="M302 -98l90 532h-160l-107 -614l-115 -14l111 628h-78l16 85h77l20 98q26 129 163 129q42 0 84 -12l-10 -93q-36 14 -61 14q-31 1 -47 -13.5t-24 -53.5l-13 -69h159l8 43q16 84 59 137q52 63 159 63q80 0 134 -26l-16 -92q-56 22 -115 22q-47 0 -78 -27q-11 -11 -18 -31
q-8 -20 -9 -30l-6 -31l-5 -28h260l-84 -519h-113l70 434h-149l-86 -517z" />
    <glyph glyph-name="ffl" unicode="ffl" horiz-adv-x="789" 
d="M618 519l-16 -85h-99l-86 -517l-116 -15l90 532h-155l-107 -614l-116 -14l111 628h-77l15 85h77l8 44q20 105 59 144q40 40 116 40q46 0 84 -13l-9 -92q-39 14 -61 14q-32 0 -48.5 -14.5t-23.5 -52.5l-12 -70h154l13 64q37 181 214 181q65 0 115 -18l82 5l-132 -751h-113
l117 661q-32 7 -67 7q-60 0 -85 -39q-18 -30 -25 -74l-6 -36h99z" />
    <glyph glyph-name="ft" unicode="ft" horiz-adv-x="614" 
d="M388 334l18 100h-162l-107 -614l-115 -14l111 628h-78l16 85h77l5 31q18 114 59 158q40 45 119 45q43 0 84 -12l-9 -93q-33 13 -61 13q-41 0 -55 -20t-24 -86l-6 -36h163l20 108l117 47l-27 -155h102l-15 -85h-103l-51 -291q-2 -12 -2 -23q0 -42 46 -42q36 0 77 22
q-21 -70 -28 -90q-48 -22 -102 -22q-107 0 -107 101q0 1 2 25q7 51 15 100z" />
    <glyph glyph-name=".notdef" horiz-adv-x="446" 
d="M467 0h-446v700h446v-700zM244 292l-126 -229h252zM118 636l126 -228l126 228h-252zM207 350l-123 225v-449zM403 574l-122 -224l122 -224v448z" />
    <glyph glyph-name=".null" horiz-adv-x="0" 
 />
    <glyph glyph-name="nonmarkingreturn" horiz-adv-x="333" 
 />
    <glyph glyph-name="space" unicode=" " horiz-adv-x="245" 
 />
    <glyph glyph-name="exclam" unicode="!" horiz-adv-x="337" 
d="M322 728l-110 -530h-88l70 515q17 2 128 15zM157 134q25 0 41.5 -16t16.5 -41q0 -33 -24.5 -57.5t-57.5 -24.5q-26 0 -41.5 15.5t-15.5 39.5q0 34 24.5 59t56.5 25z" />
    <glyph glyph-name="quotedbl" unicode="&#x22;" horiz-adv-x="396" 
d="M419 718l-48 -270h-93l48 270h93zM252 718l-48 -270h-93l48 270h93z" />
    <glyph glyph-name="numbersign" unicode="#" 
d="M541 414h-99l-42 -132h90q-3 -23 -13 -78h-100l-64 -204h-75l63 204h-108l-63 -204h-76l65 204h-93q3 23 13 78h104l42 132h-94q12 68 14 78h105l64 201h75l-63 -201h106l64 201h75l-63 -201h87q-2 -10 -14 -78zM326 282l41 132h-107l-42 -132h108z" />
    <glyph glyph-name="dollar" unicode="$" 
d="M237 -85h-54l13 76q-80 7 -122.5 53.5t-42.5 123.5q0 30 4 50q26 6 117 23q-11 -41 -11 -63q0 -35 18.5 -64t51.5 -38l44 248q-41 16 -57 25q-18 9 -46 30q-52 39 -52 114q0 96 63 150q65 55 159 59l13 73h54l-13 -74q74 -8 117 -52.5t43 -115.5q0 -16 -2 -28l-114 -21
q6 30 6 41q0 71 -66 87q-18 -102 -37 -205q40 -16 62 -28q24 -11 53 -33q58 -42 58 -126q0 -101 -68 -164q-69 -63 -178 -67zM385 203q0 61 -80 99l-40 -228q54 6 87 42.5t33 86.5zM209 509q0 -46 64 -79q1 7 4.5 27t5.5 32q4 19 23 127q-43 -5 -70 -34t-27 -73z" />
    <glyph glyph-name="percent" unicode="%" horiz-adv-x="908" 
d="M703 464q131 0 131 -148q0 -57 -11.5 -112t-34.5 -104t-64 -79t-95 -30q-133 0 -133 146q0 58 11.5 113t35 104.5t65 79.5t95.5 30zM594 200q-7 -41 -7 -68q0 -74 48 -74q45 0 67 52q20 46 33 119q10 56 10 88q0 79 -50 79q-45 0 -71 -70q-23 -62 -30 -126zM269 713
q132 0 132 -146q0 -121 -45 -218q-24 -50 -66 -80t-94 -30q-133 0 -133 148q0 118 46 214q24 52 65.5 82t94.5 30zM160 448q-6 -34 -6 -65q0 -74 47 -74q40 0 63 42t37 126q9 49 9 84q0 84 -48 84q-29 0 -52 -35q-36 -52 -50 -162zM676 719h79l-529 -732h-81z" />
    <glyph glyph-name="ampersand" unicode="&#x26;" horiz-adv-x="664" 
d="M377 718q57 0 88.5 -29t31.5 -78q0 -78 -56 -135q-25 -26 -53 -49q-18 -15 -65 -48q37 -105 118 -194q105 112 118 243l99 -27q-16 -72 -57 -145.5t-98 -130.5q56 -47 116 -74q-18 -15 -85 -68q-62 33 -111 74q-101 -69 -207 -69q-84 0 -130.5 37.5t-46.5 112.5
q0 84 42.5 143.5t130.5 117.5q-10 41 -10 92q0 93 46 160t129 67zM359 117q-78 87 -122 197q-91 -75 -91 -160q0 -76 89 -76q63 0 124 39zM302 501q0 -4 2 -42q91 63 93 125q0 41 -34 41q-39 0 -52 -51q-9 -37 -9 -73z" />
    <glyph glyph-name="quotesingle" unicode="'" horiz-adv-x="263" 
d="M269 718l-48 -270h-93l48 270h93z" />
    <glyph glyph-name="parenleft" unicode="(" horiz-adv-x="282" 
d="M268 718h83q-188 -301 -188 -591q0 -138 37 -267h-84q-53 165 -53 304q0 250 205 554z" />
    <glyph glyph-name="parenright" unicode=")" horiz-adv-x="282" 
d="M113 718h82q53 -168 53 -306q0 -133 -50.5 -264.5t-153.5 -287.5h-81q185 302 185 589q0 134 -35 269z" />
    <glyph glyph-name="asterisk" unicode="*" horiz-adv-x="454" 
d="M457 643l9 -72l-124 -36l63 -94l-72 -43l-53 101l-84 -106l-50 49l92 93l-111 38l35 69l106 -46l18 127h73l-28 -127z" />
    <glyph glyph-name="plus" unicode="+" 
d="M507 299l-16 -91h-180l-34 -191h-89l34 191h-182l16 91h181l34 192h89l-34 -192h181z" />
    <glyph glyph-name="comma" unicode="," horiz-adv-x="241" 
d="M108 137q29 0 45 -18.5t16 -50.5q0 -62 -45 -120q-44 -59 -102 -89l-29 39q24 14 48 42.5t37 54.5q-26 1 -40 16.5t-14 39.5q0 36 25 61t59 25z" />
    <glyph glyph-name="hyphen" unicode="-" horiz-adv-x="324" 
d="M308 307l-17 -92h-255l17 92h255z" />
    <glyph glyph-name="period" unicode="." horiz-adv-x="234" 
d="M105 139q26 0 42.5 -16.5t16.5 -42.5q0 -35 -25.5 -60.5t-58.5 -25.5q-27 0 -43 16.5t-16 41.5q0 35 25.5 61t58.5 26z" />
    <glyph glyph-name="slash" unicode="/" horiz-adv-x="309" 
d="M318 724h95l-376 -778h-92z" />
    <glyph glyph-name="zero" unicode="0" 
d="M352 708q95 0 138.5 -53.5t43.5 -158.5q0 -61 -14 -147q-60 -363 -293 -363q-182 0 -182 214q0 57 15 144q29 158 87 252q68 112 205 112zM178 345q-17 -97 -17 -152q0 -121 81 -121q72 0 108 85q31 74 52 191q15 82 15 144q0 128 -78 128q-72 0 -111 -92
q-30 -72 -50 -183z" />
    <glyph glyph-name="one" unicode="1" 
d="M453 0h-406l15 86h150l87 494q-78 -54 -167 -89l-15 81q105 53 212 128h106l-109 -614h159q-20 -55 -32 -86z" />
    <glyph glyph-name="two" unicode="2" 
d="M168 84v-2q28 4 89 4h214l-33 -86h-428l14 88q176 110 274 210t117 205q9 59 -15 90t-67 31q-58 0 -95 -52q-37 -51 -29 -122l-111 26q19 109 86 171t164 62q94 0 146 -55q53 -54 35 -156q-19 -107 -126 -223q-103 -112 -235 -191z" />
    <glyph glyph-name="three" unicode="3" 
d="M344 708q84 0 136.5 -39.5t52.5 -109.5q0 -68 -47 -123q-47 -53 -109 -66v-2q52 -8 81.5 -44t29.5 -92q0 -111 -78 -178q-79 -68 -188 -68q-93 0 -145 43.5t-52 118.5q0 18 3 37l125 22q-14 -33 -14 -56q0 -36 24 -57t68 -21q53 0 96 41q43 42 43 110q0 48 -29 73t-83 25
h-38l16 85h39q59 0 98 39q40 40 40 100q0 73 -87 73q-47 0 -79 -31t-32 -83v-9q-78 20 -111 30q21 85 83.5 133.5t156.5 48.5z" />
    <glyph glyph-name="four" unicode="4" 
d="M512 243l-16 -92h-88l-27 -151h-111l26 151h-287l16 92l372 467l107 -12l-80 -455h88zM192 243h120l37 204q9 47 23 100h-2l-61 -85l-128 -163q-28 -35 -53 -59q28 3 64 3z" />
    <glyph glyph-name="five" unicode="5" 
d="M80 328l86 366h391l-34 -88h-278l-46 -193q0 -2 2 -2q57 57 142 57q77 0 118.5 -45.5t41.5 -128.5q0 -132 -78 -221q-77 -87 -200 -87q-90 0 -139 41.5t-49 114.5q0 26 4 43q112 18 124 20q-12 -27 -12 -52q0 -33 22 -54.5t58 -21.5q71 0 111 57q41 59 41 141
q0 106 -95 106q-37 0 -70 -22.5t-51 -61.5z" />
    <glyph glyph-name="six" unicode="6" 
d="M503 232q-21 -114 -91 -180t-176 -66q-192 0 -192 213q0 57 12 121q23 131 66 220q82 168 246 168q79 0 123.5 -36.5t44.5 -101.5q0 -1 -2 -25l-116 -24q6 21 6 37q0 63 -71 63q-126 0 -173 -254q1 -1 2 -1q60 89 164 89q78 0 120 -43.5t42 -121.5q0 -30 -5 -58zM302 367
q-63 0 -104 -56q-39 -55 -39 -132q0 -50 23 -78.5t65 -28.5q63 0 102 57q39 59 39 137q0 101 -86 101z" />
    <glyph glyph-name="seven" unicode="7" 
d="M569 693l-16 -88l-376 -605h-117l341 543q22 37 47 66q-21 -3 -81 -3h-255l31 87h426z" />
    <glyph glyph-name="eight" unicode="8" 
d="M379 197q2 26 2 29q0 45 -25 71.5t-70 26.5q-58 0 -99 -44t-41 -112q0 -45 25.5 -70.5t70.5 -25.5q50 0 88 35t49 90zM195 368l1 1v1q-84 30 -84 123q0 97 71 156t167 59q84 0 134 -39.5t50 -108.5q0 -63 -38.5 -115.5t-101.5 -74.5q102 -34 102 -147q0 -99 -77 -168
t-188 -69q-93 0 -149 44.5t-56 120.5q0 77 48 137q49 60 121 80zM341 625q-50 0 -85 -38t-35 -95q0 -38 22.5 -59.5t60.5 -21.5q48 0 83 36q36 37 36 96q0 38 -21.5 60t-60.5 22z" />
    <glyph glyph-name="nine" unicode="9" 
d="M213 -14q-85 0 -130.5 38t-45.5 108q0 26 4 43l120 24q-11 -33 -11 -55q0 -34 21 -53t60 -19q129 0 169 259q-1 0 -2 1q-58 -87 -166 -87q-76 0 -118 44t-42 121q0 128 78 213t193 85q192 0 192 -211q0 -61 -12 -129q-23 -136 -66 -225q-79 -157 -244 -157zM196 474
q-4 -17 -4 -43q0 -46 22.5 -72t65.5 -26q63 0 102 54t39 130q0 49 -22.5 76t-66.5 27q-53 0 -88.5 -39t-47.5 -107z" />
    <glyph glyph-name="colon" unicode=":" horiz-adv-x="237" 
d="M107 139q26 0 42.5 -16.5t16.5 -42.5q0 -35 -25.5 -60.5t-58.5 -25.5q-27 0 -43.5 16.5t-16.5 41.5q0 35 25.5 61t59.5 26zM171 503q26 0 43 -16.5t17 -42.5q0 -35 -25.5 -60t-59.5 -25q-27 0 -43 16.5t-16 41.5q0 35 25.5 60.5t58.5 25.5z" />
    <glyph glyph-name="semicolon" unicode=";" horiz-adv-x="244" 
d="M179 503q26 0 42.5 -16.5t16.5 -42.5q0 -35 -25.5 -60t-59.5 -25q-26 0 -42 16.5t-16 41.5q0 35 25.5 60.5t58.5 25.5zM110 137q61 0 61 -68q0 -61 -45 -120q-44 -60 -102 -90l-28 39q24 15 48.5 43.5t35.5 53.5q-26 1 -40 16.5t-14 39.5q0 36 25 61t59 25z" />
    <glyph glyph-name="semicolon" unicode="&#x37e;" horiz-adv-x="244" 
d="M179 503q26 0 42.5 -16.5t16.5 -42.5q0 -35 -25.5 -60t-59.5 -25q-26 0 -42 16.5t-16 41.5q0 35 25.5 60.5t58.5 25.5zM110 137q61 0 61 -68q0 -61 -45 -120q-44 -60 -102 -90l-28 39q24 15 48.5 43.5t35.5 53.5q-26 1 -40 16.5t-14 39.5q0 36 25 61t59 25z" />
    <glyph glyph-name="less" unicode="&#x3c;" 
d="M439 78l-17 -90l-360 220l15 86l438 218l-18 -101l-330 -165l21 -12z" />
    <glyph glyph-name="equal" unicode="=" 
d="M524 399l-15 -92h-451l15 92h451zM488 193l-16 -92h-451l16 92h451z" />
    <glyph glyph-name="greater" unicode="&#x3e;" 
d="M476 294l-15 -86l-438 -220q0 1 6 36t11 64l306 156l26 12l-274 164l18 92z" />
    <glyph glyph-name="question" unicode="?" horiz-adv-x="479" 
d="M503 545q-9 -51 -40 -91q-30 -37 -96 -97q-52 -46 -69 -67q-17 -23 -24 -59l-6 -39h-101l9 52q7 42 31 75q23 33 77 83q90 84 100 139q9 49 -13 75t-66 26q-54 0 -89 -41q-34 -40 -31 -97l-103 25q19 94 85 149q64 55 155 55q97 0 146.5 -49.5t34.5 -138.5zM181 -7
q-28 0 -44.5 20.5t-11.5 48.5q2 30 27.5 51t52.5 20.5t45 -21.5q29 -29 2 -75.5t-71 -43.5z" />
    <glyph glyph-name="at" unicode="@" horiz-adv-x="910" 
d="M545 343q6 30 6 59q0 88 -65 88q-51 0 -83 -59.5t-32 -157.5q0 -80 61 -80q88 0 113 150zM477 557q76 0 95 -61h2l11 51h88q-4 -13 -9 -36.5t-8.5 -40.5t-3.5 -18q-9 -52 -19 -106t-19 -106q-1 -3 -1 -13q0 -38 49 -38q56 0 96 63q41 65 41 168q0 107 -66.5 167.5
t-190.5 60.5q-158 0 -273 -118q-114 -117 -114 -279q0 -114 66 -183t184 -69q100 0 172 34l-20 -75q-75 -31 -157 -31q-148 0 -236 87q-87 88 -87 231q0 135 66 244q66 110 175 171t237 61q152 0 238 -82q87 -81 87 -212q0 -147 -72 -231q-70 -84 -162 -84q-100 0 -115 83
h-3q-21 -32 -56 -52t-75 -20q-58 0 -87.5 37.5t-29.5 107.5q0 128 55 208q56 81 142 81z" />
    <glyph glyph-name="A" unicode="A" horiz-adv-x="613" 
d="M463 718l105 -718h-121q-1 8 -2.5 20.5t-4 31t-4.5 33.5t-5.5 45t-5.5 41h-252l-82 -171h-117l354 718h135zM216 267h199q-15 128 -19 153q-3 32 -8 67l-10 119h-3q-54 -122 -73 -161z" />
    <glyph glyph-name="B" unicode="B" horiz-adv-x="594" 
d="M29 0l126 718h236q28 0 53 -4t51.5 -14.5t45.5 -27t31.5 -44.5t12.5 -64q0 -69 -42.5 -120t-109.5 -66v-2q55 -11 86 -48.5t31 -97.5q0 -105 -76 -168q-77 -62 -185 -62h-260zM356 622h-100l-36 -203h96q67 0 106.5 33t39.5 95q0 75 -106 75zM305 325h-101
q-29 -156 -41 -231h107q75 0 117.5 36t42.5 107q0 88 -125 88z" />
    <glyph glyph-name="C" unicode="C" horiz-adv-x="602" 
d="M484 733q104 0 157 -59q54 -58 37 -158l-126 -19q19 65 -3.5 103.5t-84.5 38.5q-153 0 -201 -281q-57 -277 105 -277q72 0 110.5 55.5t36.5 125.5l119 -39q-51 -238 -282 -238q-279 0 -211 375q30 172 113 273q82 100 230 100z" />
    <glyph glyph-name="D" unicode="D" horiz-adv-x="636" 
d="M27 0l126 718h198q159 0 224.5 -88.5t39.5 -270.5q-25 -185 -115.5 -272t-255.5 -87h-217zM329 624h-74l-93 -529h87q109 0 165 62.5t80 203.5q23 138 -16 200.5t-149 62.5z" />
    <glyph glyph-name="E" unicode="E" 
d="M486 96l-16 -96h-442l126 718h412l-42 -96h-269l-35 -202h262l-17 -96h-262l-40 -228h323z" />
    <glyph glyph-name="F" unicode="F" horiz-adv-x="497" 
d="M574 718l-42 -96h-277l-38 -212h264l-17 -96h-263l-55 -314h-118l126 718h420z" />
    <glyph glyph-name="G" unicode="G" horiz-adv-x="630" 
d="M421 732q94 -1 147 -46.5t53 -124.5q0 -28 -4 -45l-126 -20q11 30 11 54q0 38 -27 61.5t-72 23.5q-77 0 -130 -72t-77 -206q-11 -61 -11 -114q0 -163 119 -163q74 0 120 58t51 150h-133q6 33 8 47q3 21 8 46h249q-25 -394 -310 -394q-112 0 -173 62t-61 189q0 54 12 121
q31 180 119 276.5t227 96.5z" />
    <glyph glyph-name="H" unicode="H" horiz-adv-x="623" 
d="M651 718l-126 -718h-118l57 328h-260l-57 -328h-118l126 718h118l-52 -293h260l52 293h118z" />
    <glyph glyph-name="I" unicode="I" horiz-adv-x="257" 
d="M279 718l-126 -718h-119l126 718h119z" />
    <glyph glyph-name="J" unicode="J" horiz-adv-x="518" 
d="M205 78q109 0 136 153l85 487h119l-86 -485q-22 -125 -84.5 -186t-174.5 -61q-87 0 -138 43t-51 122q0 25 4 44l122 19q-13 -29 -13 -59q0 -36 21 -56t60 -21z" />
    <glyph glyph-name="K" unicode="K" horiz-adv-x="586" 
d="M327 381l223 -381h-140l-199 358l-63 -358h-118l126 718h117l-52 -306l288 306h148z" />
    <glyph glyph-name="L" unicode="L" horiz-adv-x="499" 
d="M466 96l-41 -96h-396l126 718h118l-110 -622h303z" />
    <glyph glyph-name="M" unicode="M" horiz-adv-x="784" 
d="M812 718l-126 -718h-116l69 390q7 45 22 110q-2 0 -3 1q-34 -62 -59 -104l-175 -287h-98q-56 204 -68 257q-20 83 -29 131h-3q-12 -65 -36 -227l-48 -271h-114l126 718h119l45 -181q32 -126 48 -198l24 -118h4q15 32 63 115l227 382h128z" />
    <glyph glyph-name="N" unicode="N" horiz-adv-x="644" 
d="M674 718l-126 -718h-119l-161 429q-25 64 -35 107h-2q-5 -46 -17 -119l-73 -417h-114l126 718h121l154 -416q11 -29 40 -123l2 1q10 81 19 128l70 410h115z" />
    <glyph glyph-name="O" unicode="O" horiz-adv-x="665" 
d="M424 732q232 0 232 -256q0 -50 -10 -117q-58 -373 -351 -373q-232 0 -232 249q0 57 12 124q30 181 118 277t231 96zM523 358q12 64 12 118q0 163 -126 163q-163 0 -212 -280q-12 -65 -12 -118q0 -162 125 -162q165 0 213 279z" />
    <glyph glyph-name="P" unicode="P" horiz-adv-x="556" 
d="M28 0l126 718h222q96 0 151 -47.5t55 -136.5q0 -126 -85 -196q-83 -70 -219 -70h-86l-46 -268h-118zM344 622h-89l-46 -258h73q178 0 178 163q0 95 -116 95z" />
    <glyph glyph-name="Q" unicode="Q" horiz-adv-x="665" 
d="M426 732q228 0 228 -259q0 -166 -54 -282t-151 -169q8 -3 31.5 -9.5t36.5 -10.5q62 -18 68 -20l-55 -97l-251 103h-6q-210 10 -210 246q0 58 12 125q31 181 119 277t232 96zM523 358q12 64 12 118q0 163 -126 163q-163 0 -212 -280q-12 -65 -12 -118q0 -162 125 -162
q165 0 213 279z" />
    <glyph glyph-name="R" unicode="R" horiz-adv-x="592" 
d="M392 306l129 -306h-131l-115 294h-78l-51 -294h-118l126 718h235q97 0 150.5 -47t53.5 -134q0 -93 -55 -157q-53 -63 -146 -74zM365 622h-110l-41 -232h112q65 0 105 34t40 98q0 51 -28.5 75.5t-77.5 24.5z" />
    <glyph glyph-name="S" unicode="S" horiz-adv-x="567" 
d="M369 732q92 0 149 -48q58 -48 58 -131q0 -5 -2 -31q-28 -5 -126 -22q8 30 8 51q0 42 -26.5 65t-76.5 23q-43 0 -81 -29q-37 -28 -37 -80q0 -56 106 -97q40 -15 67 -28t60 -37t50 -58t17 -78q0 -114 -78 -180t-200 -66q-104 0 -159.5 51t-55.5 141q0 30 4 50l129 27
q-14 -42 -14 -74q0 -48 27.5 -75.5t80.5 -27.5q67 0 102 36.5t35 96.5q0 70 -105 111q-95 37 -128 61q-62 48 -63 120q0 100 74 165q73 64 185 64z" />
    <glyph glyph-name="T" unicode="T" horiz-adv-x="526" 
d="M613 718l-44 -96h-175l-109 -622h-117l109 622h-190l17 96h509z" />
    <glyph glyph-name="U" unicode="U" horiz-adv-x="630" 
d="M660 718l-84 -479q-46 -253 -290 -253q-107 0 -165 50.5t-58 146.5q0 28 7 69l81 466h118l-84 -475q-4 -19 -4 -45q0 -53 27 -83t75 -30q73 0 117.5 41t57.5 117l84 475h118z" />
    <glyph glyph-name="V" unicode="V" horiz-adv-x="581" 
d="M668 718l-344 -718h-134l-94 718h119l37 -352q19 -179 22 -244l69 161l199 435h126z" />
    <glyph glyph-name="W" unicode="W" horiz-adv-x="881" 
d="M505 547h-4q-22 -68 -54 -139l-168 -408h-139l-43 718h124q14 -496 14 -497q0 -2 -2 -92h3q24 69 62 163l174 426h119l25 -432q5 -118 5 -157h3q17 60 35 106q27 63 29 73l155 410h123l-297 -718h-133l-25 408l-4 51q-2 34 -3 44q0 22 1 44z" />
    <glyph glyph-name="X" unicode="X" horiz-adv-x="583" 
d="M311 285h-3q-16 -30 -51 -75l-153 -210h-135l280 366l-140 352h130l63 -175q17 -40 29 -91h3q16 26 59 87l131 179h135l-267 -345l153 -373h-133l-77 209q-16 31 -24 76z" />
    <glyph glyph-name="Y" unicode="Y" horiz-adv-x="564" 
d="M518 718h133l-295 -436l-50 -282h-118l49 281l-142 437h130l62 -232q14 -47 22 -108l2 2q18 37 61 106z" />
    <glyph glyph-name="Z" unicode="Z" horiz-adv-x="525" 
d="M479 96l-16 -96h-471l16 94l384 468q35 44 58 64q-36 -4 -84 -4h-248l38 96h427l-18 -100l-360 -444q-44 -51 -75 -82q23 4 86 4h263z" />
    <glyph glyph-name="bracketleft" unicode="[" horiz-adv-x="290" 
d="M221 -61l-13 -79h-195l151 858h195l-13 -77h-94l-124 -702h93z" />
    <glyph glyph-name="backslash" unicode="\" horiz-adv-x="289" 
d="M154 724l132 -730h-95l-132 730h95z" />
    <glyph glyph-name="bracketright" unicode="]" horiz-adv-x="290" 
d="M309 718l-151 -858h-194l13 79h94l124 702h-94l14 77h194z" />
    <glyph glyph-name="asciicircum" unicode="^" 
d="M394 694l128 -421h-86l-101 323l-209 -323h-92l275 421h85z" />
    <glyph glyph-name="underscore" unicode="_" horiz-adv-x="490" 
d="M442 -71l-11 -61h-489l11 61h489z" />
    <glyph glyph-name="grave" unicode="`" horiz-adv-x="493" 
d="M297 744l74 -158h-66l-120 158h112z" />
    <glyph glyph-name="a" unicode="a" horiz-adv-x="537" 
d="M290 532q44 0 74 -20.5t41 -57.5q3 14 7.5 29l7.5 25t3 11h110q-19 -75 -31 -147l-47 -264q-7 -37 23 -37q12 0 29 6l-26 -76q-31 -14 -65 -14q-37 0 -58 22t-14 57h-3q-54 -80 -158 -80q-73 0 -109.5 46.5t-36.5 132.5q0 160 71 264q70 103 182 103zM372 262q7 41 7 73
q0 111 -81 111q-54 0 -87 -46t-49 -139q-9 -49 -9 -87q0 -102 76 -102q109 0 143 190z" />
    <glyph glyph-name="b" unicode="b" horiz-adv-x="525" 
d="M498 260q-21 -130 -81 -202t-153 -72q-48 0 -81.5 21t-44.5 57q-2 -10 -17 -64h-111q10 38 24 105l110 626q7 1 25.5 3.5t42 6t47.5 6.5l-51 -287l2 -1q65 74 147 74q151 0 151 -172q0 -44 -10 -101zM312 446q-61 0 -104 -73q-44 -73 -44 -194q0 -107 84 -107
q56 0 86.5 45t48.5 143q9 51 9 89q0 50 -19 73.5t-61 23.5z" />
    <glyph glyph-name="c" unicode="c" horiz-adv-x="474" 
d="M360 199l106 -29q-20 -87 -80 -135.5t-147 -48.5q-108 0 -151.5 71t-20.5 203q22 127 91.5 200t171.5 73q87 0 130 -49t27 -133l-112 -16q15 52 -1 82t-56 30q-48 0 -84.5 -50t-50.5 -135q-33 -191 76 -191q42 0 70 35t31 93z" />
    <glyph glyph-name="d" unicode="d" horiz-adv-x="526" 
d="M444 0h-111q2 32 8 71q-61 -85 -157 -85q-148 0 -148 179q0 44 9 95q24 130 84 201.5t153 71.5q42 0 75 -20.5t47 -56.5l52 277l114 14l-101 -577q-24 -109 -25 -170zM299 446q-104 0 -137 -185q-9 -48 -9 -86q0 -103 78 -103q108 0 142 190q7 36 7 75q0 109 -81 109z
" />
    <glyph glyph-name="e" unicode="e" horiz-adv-x="485" 
d="M231 69q42 0 68 30.5t28 79.5l102 -27q-42 -166 -208 -166q-186 0 -186 199q0 119 63 228q33 55 88 87.5t122 32.5q76 0 119 -35t43 -99q0 -84 -83 -130.5t-236 -47.5q-4 -15 -4 -44q0 -48 20.5 -78t63.5 -30zM293 449q-43 0 -79 -43q-36 -45 -49 -106q192 2 192 93
q0 27 -17.5 41.5t-46.5 14.5z" />
    <glyph glyph-name="f" unicode="f" horiz-adv-x="320" 
d="M366 519l-15 -85h-107l-107 -614l-115 -14l111 628h-78l16 85h77l15 82q9 78 53.5 115t114.5 37q43 0 84 -12l-9 -93q-33 13 -61 13q-42 0 -54 -20q-13 -21 -26 -94l-5 -28h106z" />
    <glyph glyph-name="g" unicode="g" horiz-adv-x="525" 
d="M344 90h-4q-27 -35 -67.5 -54.5t-81.5 -19.5q-152 0 -152 165q0 144 68 248t179 104q94 0 120 -84l1 1h1q6 36 17 68h108q-18 -84 -25 -127l-59 -340q-44 -245 -249 -245q-92 0 -144 36.5t-52 105.5v11l119 25q-4 -11 -4 -26q0 -30 21 -47.5t57 -17.5q58 0 92 34
q15 15 25 43q12 33 16 52q7 27 14 68zM299 447q-61 0 -102 -72q-41 -73 -41 -174q0 -99 82 -99q64 0 103.5 64.5t39.5 170.5q0 110 -82 110z" />
    <glyph glyph-name="h" unicode="h" horiz-adv-x="520" 
d="M492 363l-63 -363h-113l61 343q17 104 -68 104q-46 0 -78.5 -34.5t-41.5 -88.5l-57 -324h-112l129 734l114 14l-51 -294l1 -1q56 80 153 80q76 0 107.5 -46t18.5 -124z" />
    <glyph glyph-name="i" unicode="i" horiz-adv-x="233" 
d="M212 747q29 0 46.5 -19t13.5 -48q-4 -33 -28.5 -56t-56.5 -23q-30 0 -46.5 19.5t-13.5 47.5q3 33 28 56t57 23zM230 526l-93 -526h-112l90 512z" />
    <glyph glyph-name="j" unicode="j" horiz-adv-x="234" 
d="M214 747q26 0 42.5 -16t16.5 -42q0 -37 -25 -62.5t-60 -25.5q-27 0 -44 16.5t-17 42.5q0 36 26 61.5t61 25.5zM-63 -188q-7 20 -32 90q4 -1 17 -1q57 0 77 32q19 31 33 104l83 475l115 14l-74 -425q-13 -72 -22 -104q-8 -35 -26 -79q-24 -56 -61.5 -79t-109.5 -27z" />
    <glyph glyph-name="k" unicode="k" horiz-adv-x="486" 
d="M289 282l159 -282h-127l-142 266l-46 -266h-112l128 731l115 17l-79 -447l1 -1l211 219h135z" />
    <glyph glyph-name="l" unicode="l" horiz-adv-x="231" 
d="M124 -13q-44 0 -64.5 27.5t-12.5 73.5l114 643q7 1 25.5 3.5t42 6t47.5 6.5l-113 -639q-5 -36 24 -36q13 0 30 6q-3 -12 -26 -77q-30 -14 -67 -14z" />
    <glyph glyph-name="m" unicode="m" horiz-adv-x="811" 
d="M746 156l-27 -156h-113l60 344q3 16 3 31q0 31 -16 48.5t-45 17.5q-48 0 -81.5 -33t-43.5 -88l-56 -320h-113l60 344q3 15 3 30q0 31 -16.5 49t-45.5 18q-47 0 -80.5 -33t-43.5 -88l-57 -320h-112l67 380l2 13q12 76 15 119l113 13q-1 -29 -9 -73h2q63 80 158 80
q50 0 82 -24.5t39 -68.5q67 94 168 94q64 0 95.5 -33.5t31.5 -93.5q0 -28 -4 -47q-15 -78 -36 -203z" />
    <glyph glyph-name="n" unicode="n" horiz-adv-x="522" 
d="M494 363l-63 -363h-112l59 340q18 105 -67 105q-46 0 -78.5 -35.5t-42.5 -91.5l-56 -318h-112l68 387q12 69 18 125l113 13l-11 -73h2q62 81 157 81q76 0 107 -46t18 -124z" />
    <glyph glyph-name="o" unicode="o" horiz-adv-x="519" 
d="M495 259q-21 -129 -92.5 -201t-181.5 -72q-92 0 -139 50t-47 143q0 157 78 255q79 99 204 99q92 0 138.5 -50.5t46.5 -144.5q0 -43 -7 -79zM303 448q-66 0 -109 -76q-42 -75 -42 -190q0 -112 84 -112q65 0 109 74q44 76 44 191q0 113 -86 113z" />
    <glyph glyph-name="p" unicode="p" horiz-adv-x="526" 
d="M499 258q-22 -129 -82 -200.5t-154 -71.5q-95 0 -122 77h-2l-44 -243l-113 -15l104 599q0 2 3 22.5t7 47t5 39.5q31 3 114 13q-6 -52 -12 -76l2 -1q25 38 66 61t86 23q151 0 151 -180q0 -44 -9 -95zM312 446q-40 0 -71.5 -29t-47.5 -76q-29 -87 -29 -161q0 -108 85 -108
q53 0 85 47t50 142q8 51 8 81q0 104 -80 104z" />
    <glyph glyph-name="q" unicode="q" horiz-adv-x="525" 
d="M425 518h109q-12 -45 -25 -117l-103 -581l-114 -15l46 259h-3q-60 -78 -152 -78q-147 0 -147 178q0 43 9 94q24 131 84.5 203t154.5 72q45 0 77.5 -22.5t44.5 -59.5h2q4 20 17 67zM299 446q-105 0 -137 -185q-9 -48 -9 -86q0 -103 77 -103q110 0 144 190q7 41 7 73
q0 111 -82 111z" />
    <glyph glyph-name="r" unicode="r" horiz-adv-x="346" 
d="M406 523l-48 -110q-22 6 -43 6q-48 0 -81.5 -32t-46.5 -87l-54 -300h-113l71 403q1 3 4 24t6 48.5t5 37.5l112 12q-6 -63 -12 -92h2q52 99 143 99q31 0 55 -9z" />
    <glyph glyph-name="s" unicode="s" horiz-adv-x="441" 
d="M276 533q72 0 113.5 -34.5t41.5 -97.5q0 -16 -1 -21l-53 -13l-53 -13q6 24 6 32q0 30 -18.5 44t-60.5 14q-26 0 -48 -18t-22 -46q0 -22 22.5 -37.5t55 -27.5t65 -26.5t55 -43.5t22.5 -69q0 -80 -63 -135q-62 -55 -160 -55q-161 0 -161 141q0 23 4 40l113 24
q-13 -29 -13 -58q0 -31 18 -48.5t53 -17.5q41 0 67.5 25t26.5 59q0 47 -76 75q-74 29 -98 48q-41 34 -41 88q0 85 61 128t144 43z" />
    <glyph glyph-name="t" unicode="t" horiz-adv-x="335" 
d="M316 104l-15 -46l-16 -48q-48 -22 -102 -22q-107 0 -107 101q0 2 2 28q6 47 15 99l21 118l18 100h-79l15 85h82l24 140l118 47l-32 -187h102l-16 -85h-102l-51 -292q-2 -12 -2 -23q0 -41 38 -41q30 0 87 26z" />
    <glyph glyph-name="u" unicode="u" horiz-adv-x="518" 
d="M429 0h-110q1 28 8 67h-2q-59 -81 -155 -81q-64 0 -96 32t-32 91q0 27 4 46l63 356q95 11 114 14l-61 -345q-3 -18 -3 -34q0 -73 69 -73q44 0 76.5 35t42.5 89l56 322h113l-71 -410q-16 -77 -16 -109z" />
    <glyph glyph-name="v" unicode="v" horiz-adv-x="470" 
d="M404 519h113l-252 -519h-127l-75 513l115 15l29 -286q11 -90 11 -147h4q21 61 60 147z" />
    <glyph glyph-name="w" unicode="w" horiz-adv-x="752" 
d="M690 519h109l-235 -519h-121l-18 285q-7 76 -4 143h-3q-29 -80 -55 -140l-122 -288h-127l-50 512l117 17l15 -314q2 -42 2 -117h2q22 68 49 123l125 298h125l18 -300q4 -97 4 -119h2q37 100 46 121z" />
    <glyph glyph-name="x" unicode="x" horiz-adv-x="475" 
d="M318 268l113 -268h-126l-50 146l-18 57l-65 -94l-76 -109h-122l208 272l-105 240l121 16l43 -125q2 -6 10 -33t10 -36l28 40l101 145h122z" />
    <glyph glyph-name="y" unicode="y" horiz-adv-x="460" 
d="M217 123h5l47 109l130 287h113l-238 -482q-49 -108 -93 -163q-50 -67 -124 -67q-27 0 -57 8q-3 70 -5 90q25 -7 50 -7q19 2 27.5 4t18 7.5t16.5 15.5l12 17l12 24l12 25l-84 520q23 5 66 9l50 6l32 -287q8 -72 10 -116z" />
    <glyph glyph-name="z" unicode="z" horiz-adv-x="428" 
d="M380 86l-15 -86h-375l14 86l274 308q21 24 43 42q-13 -3 -57 -3h-188l31 86h345l-15 -85l-278 -315l-38 -36q30 3 51 3h208z" />
    <glyph glyph-name="braceleft" unicode="{" horiz-adv-x="303" 
d="M240 -61l-14 -79h-71q-48 0 -72.5 32.5t-15.5 88.5l30 171q16 97 -55 101l13 76q75 5 91 102l30 165q10 57 43.5 89.5t82.5 32.5h75l-13 -77h-35q-47 0 -57 -64l-28 -157q-9 -56 -37 -88.5t-63 -39.5v-2q33 -6 48.5 -38.5t6.5 -89.5l-29 -158q-11 -65 35 -65h35z" />
    <glyph glyph-name="bar" unicode="|" horiz-adv-x="244" 
d="M192 724v-867h-93v867h93z" />
    <glyph glyph-name="braceright" unicode="}" horiz-adv-x="303" 
d="M281 252q-73 -1 -93 -101l-16 -89q-10 -65 -13 -80q-11 -56 -45.5 -89t-79.5 -33h-74l13 80h33q45 0 57 63l24 135q23 137 106 152q-60 20 -60 92q0 22 4 39l27 155q3 15 3 26q0 39 -37 39h-34q3 15 13 77h75q39 0 62.5 -24.5t23.5 -66.5q0 -22 -5 -57q-5 -30 -15 -81
l-12 -59q-3 -14 -3 -34q0 -65 59 -67q-3 -15 -13 -77z" />
    <glyph glyph-name="asciitilde" unicode="~" 
d="M188 332q39 0 101 -35q64 -35 85 -35q48 0 97 72l28 -68q-56 -83 -132 -83q-37 0 -95 33q-58 34 -91 34q-28 0 -55.5 -21.5t-46.5 -53.5l-33 63q66 94 142 94z" />
    <glyph glyph-name="uni00A0" unicode="&#xa0;" horiz-adv-x="245" 
 />
    <glyph glyph-name="exclamdown" unicode="&#xa1;" horiz-adv-x="337" 
d="M202 389q-25 0 -41 15.5t-16 40.5q0 33 24.5 58.5t57.5 25.5q26 0 42 -16.5t16 -41.5q0 -33 -25 -57.5t-58 -24.5zM146 325h89l-78 -529l-122 15z" />
    <glyph glyph-name="cent" unicode="&#xa2;" 
d="M230 -138h-43l22 126q-150 15 -150 186q0 150 68 248q70 99 178 109l20 115h43l-20 -115q67 -5 105 -42t38 -100q0 -5 -1.5 -17t-1.5 -16l-114 -14q15 37 3 68.5t-44 34.5l-66 -374q38 4 63.5 37t29.5 85l53 -14l52 -14q-22 -83 -77 -128.5t-136 -49.5zM225 77l64 364
q-62 -26 -87 -98q-26 -75 -26 -157q0 -88 49 -109z" />
    <glyph glyph-name="sterling" unicode="&#xa3;" 
d="M367 707q89 0 137.5 -40t48.5 -114q0 -18 -2 -34q-24 -3 -114 -17q10 26 10 50q0 33 -21.5 50.5t-60.5 17.5q-65 0 -92 -43q-27 -42 -27 -102q0 -41 5 -74h162q-5 -25 -14 -79h-143v-9q0 -156 -90 -222h309l-15 -91h-463q2 15 14 86q66 25 99 82.5t33 135.5v18h-86
q9 54 14 79h69q-8 40 -8 77q0 104 63 166q65 63 172 63z" />
    <glyph glyph-name="currency" unicode="&#xa4;" horiz-adv-x="556" 
d="M423 354q0 50 -36 85q-35 36 -85 36q-49 0 -85 -36q-35 -36 -35 -85t35 -85q37 -35 85 -35t85 35q36 36 36 85zM127 466l-57 57l62 64l58 -57q49 33 113 33q62 0 113 -33q4 3 29 28l28 29l62 -66l-56 -55q33 -51 33 -112q0 -58 -34 -113q40 -40 58 -55l-62 -66l-58 59
q-49 -34 -113 -34t-113 34l-58 -58l-62 65l57 55q-33 57 -33 113q0 61 33 112z" />
    <glyph glyph-name="yen" unicode="&#xa5;" 
d="M489 696h126l-240 -351h126q-2 -9 -13 -68h-155q-7 -38 -10 -62h155q-2 -9 -13 -69h-155l-13 -74l-12 -72h-112l25 146h-155l12 69h155l11 62h-155l12 68h127l-116 351h123l61 -224q6 -26 20 -96q16 31 62 107z" />
    <glyph glyph-name="brokenbar" unicode="&#xa6;" horiz-adv-x="243" 
d="M198 255v-397h-92v397h92zM198 724v-400h-92v400h92z" />
    <glyph glyph-name="section" unicode="&#xa7;" horiz-adv-x="458" 
d="M256 272q35 6 63 31q30 25 30 57q0 57 -92 90q-36 -1 -60 -32q-24 -30 -24 -61q0 -47 83 -85zM199 15q47 0 71 23.5t24 55.5q0 51 -77 95q-32 17 -54 32q-18 12 -41 32q-42 37 -42 96q0 45 27.5 86.5t76.5 61.5q-48 33 -48 99q0 18 4.5 39t18 47t33.5 46t54.5 34t78.5 14
q72 0 115.5 -36.5t43.5 -96.5q0 -15 -3 -31l-96 -14q4 11 4 25q0 31 -21 46.5t-54 15.5q-42 0 -61 -22t-19 -55q0 -22 24 -43t89 -57q50 -28 73.5 -58.5t23.5 -76.5q0 -48 -28.5 -86.5t-79.5 -59.5q28 -19 44 -51t16 -67q0 -73 -58 -125q-58 -53 -150 -53q-77 0 -121 35.5
t-44 97.5q0 15 3 30l102 23q-9 -33 -9 -46q0 -56 80 -56z" />
    <glyph glyph-name="dieresis" unicode="&#xa8;" horiz-adv-x="494" 
d="M248 734q24 0 39 -15.5t15 -38.5q0 -32 -23.5 -55t-53.5 -23q-25 0 -40 15t-15 38q0 31 23.5 55t54.5 24zM430 735q24 0 38.5 -15t14.5 -38q0 -33 -23 -56t-53 -23q-24 0 -39 14.5t-15 37.5q0 32 23 56t54 24z" />
    <glyph glyph-name="copyright" unicode="&#xa9;" horiz-adv-x="800" 
d="M803 359q0 -155 -107 -265q-106 -108 -266 -108q-162 0 -268 108q-106 107 -106 265q0 155 108 264q109 109 266 109t265 -109t108 -264zM720 359q0 125 -84 210q-84 86 -206 86q-124 0 -208 -85q-83 -86 -83 -211q0 -128 82 -213q83 -86 209 -86q125 0 208 86
q82 85 82 213zM434 574q68 0 109.5 -39t41.5 -105q-83 -12 -91 -13q4 36 -11 56.5t-47 20.5q-41 0 -63 -40t-22 -104q0 -156 88 -156q35 0 51 29t10 70l91 -15q-3 -74 -44.5 -113.5t-114.5 -39.5q-173 0 -173 224q0 107 44.5 166t130.5 59z" />
    <glyph glyph-name="ordfeminine" unicode="&#xaa;" horiz-adv-x="375" 
d="M402 596l-18 -84l-30 -172q-4 -21 7 -27t27 2l-19 -62q-33 -11 -52 -11q-25 0 -38 16t-8 42h-1q-18 -27 -48.5 -43t-61.5 -16q-105 0 -105 122q0 105 48 172q50 68 128 68q57 0 75 -46q5 27 11 39h85zM234 534q-40 0 -64.5 -44t-24.5 -119q0 -62 48 -62q39 0 65 45
t26 114q0 66 -50 66z" />
    <glyph glyph-name="guillemotleft" unicode="&#xab;" horiz-adv-x="494" 
d="M346 272l82 -180h-101l-80 182l144 181h101zM165 272l80 -180h-100l-78 182l144 181h101z" />
    <glyph glyph-name="logicalnot" unicode="&#xac;" 
d="M467 73h-87l35 205h-363l16 92h452z" />
    <glyph glyph-name="sfthyphen" unicode="&#xad;" horiz-adv-x="324" 
d="M310 322l-16 -92h-255l17 92h254z" />
    <glyph glyph-name="registered" unicode="&#xae;" horiz-adv-x="649" 
d="M555 300q-79 -77 -188 -77t-188 77q-78 78 -78 188t78 187q78 78 188 78t188 -78q79 -76 79 -187q0 -110 -79 -188zM570 489q0 87 -59 146t-144 59q-86 0 -145 -59q-58 -58 -58 -147t58 -148q59 -59 145 -59q85 0 144 59q59 61 59 149zM413 465l70 -126h-67l-63 118h-20
v-118h-61v297h113q41 -2 65.5 -25.5t24.5 -63.5q0 -28 -16 -51t-46 -31zM366 585h-33v-78h32q49 0 49 38q0 40 -48 40z" />
    <glyph glyph-name="overscore" unicode="&#xaf;" horiz-adv-x="494" 
d="M477 700l-15 -83h-272l15 83h272z" />
    <glyph glyph-name="degree" unicode="&#xb0;" horiz-adv-x="392" 
d="M406 561q0 -61 -47 -105q-46 -43 -109 -43q-61 0 -100 39q-39 40 -39 99q0 65 45 112t110 47q63 0 101.5 -42t38.5 -107zM262 648q-37 0 -63.5 -25.5t-26.5 -61.5q0 -39 22 -63t60 -24q37 0 63.5 25.5t26.5 61.5q0 37 -23 62t-59 25z" />
    <glyph glyph-name="plusminus" unicode="&#xb1;" 
d="M481 92l-15 -92h-452l16 92h451zM522 431l-16 -91h-180l-34 -191h-89l34 191h-182l16 91h181l34 192h89l-34 -192h181z" />
    <glyph glyph-name="twosuperior" unicode="&#xb2;" horiz-adv-x="360" 
d="M277 805q58 0 93 -29.5t35 -81.5q0 -72 -68 -152q-65 -77 -161 -137q22 2 191 2l-25 -67h-298q1 14 11 65q128 78 194 145.5t66 133.5q0 26 -15 40t-37 14q-35 0 -55.5 -30.5t-20.5 -72.5v-8l-86 19q13 74 60.5 116.5t115.5 42.5z" />
    <glyph glyph-name="threesuperior" unicode="&#xb3;" horiz-adv-x="360" 
d="M268 804q58 0 93.5 -26t35.5 -73q0 -40 -25 -74t-65 -49q62 -18 62 -87q0 -72 -56 -119q-55 -46 -133 -46q-63 0 -97.5 29.5t-34.5 80.5q0 15 2 27q77 14 98 17q-7 -14 -7 -34q0 -22 12.5 -35.5t35.5 -13.5q31 0 60 23t29 64q0 28 -17.5 43.5t-48.5 15.5h-28l11 64h28
q36 0 59 22.5t23 56.5q0 21 -12.5 32t-33.5 11q-34 0 -55 -21t-21 -56l-87 16q11 60 57.5 96t114.5 36z" />
    <glyph glyph-name="acute" unicode="&#xb4;" horiz-adv-x="494" 
d="M363 742h116l-147 -156h-72z" />
    <glyph glyph-name="mu" unicode="&#xb5;" horiz-adv-x="516" 
d="M429 0h-111q4 44 9 69l-2 -1q-51 -70 -132 -78q-36 0 -60 15l-1 -1l-33 -184l-113 -13l123 704l114 14l-61 -345q-4 -23 -4 -35q0 -68 64 -68q49 0 82 32.5t42 86.5l57 322h113l-71 -407q-14 -81 -16 -111z" />
    <glyph glyph-name="mu" unicode="&#x3bc;" horiz-adv-x="516" 
d="M429 0h-111q4 44 9 69l-2 -1q-51 -70 -132 -78q-36 0 -60 15l-1 -1l-33 -184l-113 -13l123 704l114 14l-61 -345q-4 -23 -4 -35q0 -68 64 -68q49 0 82 32.5t42 86.5l57 322h113l-71 -407q-14 -81 -16 -111z" />
    <glyph glyph-name="paragraph" unicode="&#xb6;" horiz-adv-x="532" 
d="M358 654l-129 -732h-91l79 449q-66 2 -106 43.5t-40 105.5q0 90 63 152q65 62 165 62h311l-15 -80h-68l-128 -732h-92l128 732h-77z" />
    <glyph glyph-name="middot" unicode="&#xb7;" horiz-adv-x="253" 
d="M154 356q26 0 42.5 -17t16.5 -43q0 -34 -25.5 -59t-58.5 -25q-27 0 -43 16.5t-16 41.5q0 35 25.5 60.5t58.5 25.5z" />
    <glyph glyph-name="cedilla" unicode="&#xb8;" horiz-adv-x="478" 
d="M250 27l-62 -81q38 -5 60 -23.5t22 -46.5q0 -43 -35 -65.5t-90 -22.5q-47 0 -83 16q-1 10 -1 46q29 -16 76 -16q23 0 40 10t17 29q0 28 -56 39l-9 14l76 100q4 0 21.5 0.5t23.5 0.5z" />
    <glyph glyph-name="onesuperior" unicode="&#xb9;" horiz-adv-x="360" 
d="M349 340h-279q3 15 6.5 38t4.5 29h100l52 298q-60 -37 -108 -53q-1 6 -6 30.5t-5 31.5q67 33 147 85h78l-70 -392h105q-1 -2 -25 -67z" />
    <glyph glyph-name="ordmasculine" unicode="&#xba;" horiz-adv-x="357" 
d="M352 422q-15 -85 -64.5 -133t-126.5 -48q-65 0 -98.5 33.5t-33.5 96.5q0 103 54 168q54 66 142 66q65 0 98.5 -34.5t33.5 -98.5q0 -17 -5 -50zM213 535q-40 0 -67 -45q-26 -46 -26 -113q0 -69 53 -69q40 0 66 44.5t26 114.5q0 68 -52 68z" />
    <glyph glyph-name="guillemotright" unicode="&#xbb;" horiz-adv-x="494" 
d="M379 455l80 -181l-143 -182h-100l142 182l-81 181h102zM198 455l80 -181l-145 -182h-100l145 182l-81 181h101z" />
    <glyph glyph-name="onequarter" unicode="&#xbc;" horiz-adv-x="929" 
d="M825 167l-12 -69h-59q-14 -77 -17 -98h-86q3 21 17 98h-191q3 15 6.5 38t4.5 26l249 303l80 -8l-51 -290h59zM680 167q29 161 31 171q-128 -157 -142 -172q11 1 111 1zM337 250h-279q3 15 6.5 38t4.5 29h100l52 298q-60 -37 -108 -53q-1 7 -6 31.5t-5 30.5q67 33 147 85
h78l-70 -392h105q-1 -2 -25 -67zM722 719h79l-529 -732h-81z" />
    <glyph glyph-name="onehalf" unicode="&#xbd;" horiz-adv-x="929" 
d="M698 719h79l-529 -732h-81zM332 250h-279q3 15 6.5 38t4.5 29h100l52 298q-60 -37 -108 -53q-2 6 -5.5 30.5t-5.5 31.5q66 33 147 85h78l-70 -392h105q-1 -2 -25 -67zM869 354q0 -77 -68 -154q-69 -78 -161 -135q22 2 191 2q-1 -2 -25 -67h-298q10 51 11 65
q128 77 193.5 144.5t65.5 134.5q0 26 -14.5 40t-36.5 14q-37 0 -59 -33t-22 -78l-81 19q13 74 61 116.5t115 42.5q58 0 93 -29.5t35 -81.5z" />
    <glyph glyph-name="threequarters" unicode="&#xbe;" horiz-adv-x="929" 
d="M831 167l-12 -69h-59q-14 -77 -17 -98h-86q3 21 17 98h-191q3 15 6.5 38t4.5 26l249 303l80 -8l-51 -290h59zM686 167q29 161 31 171q-128 -157 -142 -172q11 1 111 1zM292 714q58 0 93.5 -26t35.5 -73q0 -40 -25 -74t-65 -49q62 -18 62 -87q0 -72 -56 -119
q-55 -46 -133 -46q-63 0 -97.5 29.5t-34.5 80.5q0 15 2 27q77 14 98 17q-7 -14 -7 -34q0 -22 12.5 -35.5t35.5 -13.5q31 0 60 23t29 64q0 28 -17.5 43.5t-48.5 15.5h-28l11 64h28q36 0 59 22.5t23 56.5q0 21 -12.5 32t-33.5 11q-34 0 -55 -21t-21 -56l-87 16q11 60 57.5 96
t114.5 36zM721 719h79l-529 -732h-81z" />
    <glyph glyph-name="questiondown" unicode="&#xbf;" horiz-adv-x="483" 
d="M18 -21q9 52 40 90q29 37 96 98q52 46 69 67q18 22 24 59l7 39h100l-9 -51q-7 -43 -30 -76q-24 -33 -77 -82q-90 -83 -101 -140q-9 -49 13 -75t66 -26q53 0 88 41q34 40 33 97l102 -25q-20 -94 -85 -148.5t-154 -54.5q-98 0 -147.5 49t-34.5 138zM259 461q5 30 28.5 50
t52.5 20t45.5 -20t11.5 -49q-5 -30 -28.5 -50.5t-52.5 -20.5t-45.5 20.5t-11.5 49.5z" />
    <glyph glyph-name="Agrave" unicode="&#xc0;" horiz-adv-x="613" 
d="M463 718l105 -718h-121q-1 8 -2.5 20.5t-4 31t-4.5 33.5t-5.5 45t-5.5 41h-252l-82 -171h-117l354 718h135zM216 267h199q-15 128 -19 153q-3 32 -8 67l-10 119h-3q-54 -122 -73 -161zM438 775h-69l-120 161h112z" />
    <glyph glyph-name="Aacute" unicode="&#xc1;" horiz-adv-x="613" 
d="M463 718l105 -718h-121q-1 8 -2.5 20.5t-4 31t-4.5 33.5t-5.5 45t-5.5 41h-252l-82 -171h-117l354 718h135zM216 267h199q-15 128 -19 153q-3 32 -8 67l-10 119h-3q-54 -122 -73 -161zM464 929h117l-147 -154h-72z" />
    <glyph glyph-name="Acircumflex" unicode="&#xc2;" horiz-adv-x="613" 
d="M463 718l105 -718h-121q-1 8 -2.5 20.5t-4 31t-4.5 33.5t-5.5 45t-5.5 41h-252l-82 -171h-117l354 718h135zM216 267h199q-15 128 -19 153q-3 32 -8 67l-10 119h-3q-54 -122 -73 -161zM479 916l96 -134h-82l-76 78l-101 -78h-79l141 134h101z" />
    <glyph glyph-name="Atilde" unicode="&#xc3;" horiz-adv-x="613" 
d="M463 718l105 -718h-121q-1 8 -2.5 20.5t-4 31t-4.5 33.5t-5.5 45t-5.5 41h-252l-82 -171h-117l354 718h135zM216 267h199q-15 128 -19 153q-3 32 -8 67l-10 119h-3q-54 -122 -73 -161zM532 912l35 -45q-15 -29 -40 -48t-54 -19q-25 0 -67 16q-43 17 -62 17q-36 0 -57 -38
l-42 41q14 28 43 49.5t58 21.5q25 1 68 -16q41 -16 60 -16q37 0 58 37z" />
    <glyph glyph-name="Adieresis" unicode="&#xc4;" horiz-adv-x="613" 
d="M463 718l105 -718h-121q-1 8 -2.5 20.5t-4 31t-4.5 33.5t-5.5 45t-5.5 41h-252l-82 -171h-117l354 718h135zM216 267h199q-15 128 -19 153q-3 32 -8 67l-10 119h-3q-54 -122 -73 -161zM339 918q23 0 38 -15t15 -38q0 -32 -23.5 -55.5t-53.5 -23.5q-24 0 -39 15t-15 38
q0 32 23.5 55.5t54.5 23.5zM521 919q24 0 39 -15t15 -39q0 -32 -23 -55t-54 -23q-25 0 -40.5 15.5t-15.5 38.5q0 30 24.5 54t54.5 24z" />
    <glyph glyph-name="Aring" unicode="&#xc5;" horiz-adv-x="613" 
d="M463 718l105 -718h-121q-1 8 -2.5 20.5t-4 31t-4.5 33.5t-5.5 45t-5.5 41h-252l-82 -171h-117l354 718h135zM216 267h199q-15 128 -19 153q-3 32 -8 67l-10 119h-3q-54 -122 -73 -161zM316 855q7 42 43 75q34 31 78 31q39 0 63.5 -24t24.5 -61q0 -49 -38 -87
q-37 -37 -86 -37q-39 0 -63 24t-24 60q0 3 2 19zM368 856q-1 -2 -1 -9q0 -18 12 -30.5t31 -12.5q23 0 42 19t19 42q0 18 -12 30.5t-31 12.5q-20 0 -38 -16t-22 -36z" />
    <glyph glyph-name="AE" unicode="&#xc6;" horiz-adv-x="944" 
d="M908 96l-16 -96h-449l30 172h-261l-127 -172h-125l544 718h474l-41 -96h-266l-35 -202h260l-17 -96h-260l-40 -228h329zM283 267h208l62 355h-5z" />
    <glyph glyph-name="Ccedilla" unicode="&#xc7;" horiz-adv-x="602" 
d="M480 733q104 0 157 -59q54 -58 37 -158l-126 -19q19 65 -3.5 103.5t-84.5 38.5q-153 0 -201 -281q-57 -277 105 -277q72 0 110.5 55.5t36.5 125.5l119 -39q-50 -230 -269 -238q-17 -21 -32 -43q38 -5 60 -23.5t22 -46.5q0 -43 -35 -65.5t-90 -22.5q-47 0 -83 16
q-1 10 -1 46q29 -16 76 -16q23 0 40 10t17 29q0 28 -56 39l-9 14l48 64q-246 21 -181 374q30 172 113 273q82 100 230 100z" />
    <glyph glyph-name="Egrave" unicode="&#xc8;" 
d="M486 96l-16 -96h-442l126 718h412l-42 -96h-269l-35 -202h262l-17 -96h-262l-40 -228h323zM419 775h-69l-120 161h112z" />
    <glyph glyph-name="Eacute" unicode="&#xc9;" 
d="M486 96l-16 -96h-442l126 718h412l-42 -96h-269l-35 -202h262l-17 -96h-262l-40 -228h323zM408 929h117l-147 -154h-72z" />
    <glyph glyph-name="Ecircumflex" unicode="&#xca;" 
d="M486 96l-16 -96h-442l126 718h412l-42 -96h-269l-35 -202h262l-17 -96h-262l-40 -228h323zM447 916l96 -134h-82l-76 78l-101 -78h-79l141 134h101z" />
    <glyph glyph-name="Edieresis" unicode="&#xcb;" 
d="M486 96l-16 -96h-442l126 718h412l-42 -96h-269l-35 -202h262l-17 -96h-262l-40 -228h323zM298 918q23 0 38 -15t15 -38q0 -32 -23.5 -55.5t-53.5 -23.5q-24 0 -39 15t-15 38q0 32 23.5 55.5t54.5 23.5zM480 919q24 0 39 -15t15 -39q0 -32 -23 -55t-54 -23
q-25 0 -40.5 15.5t-15.5 38.5q0 30 24.5 54t54.5 24z" />
    <glyph glyph-name="Igrave" unicode="&#xcc;" horiz-adv-x="257" 
d="M279 718l-126 -718h-119l126 718h119zM263 775h-69l-120 161h112z" />
    <glyph glyph-name="Iacute" unicode="&#xcd;" horiz-adv-x="257" 
d="M279 718l-126 -718h-119l126 718h119zM293 929h117l-147 -154h-72z" />
    <glyph glyph-name="Icircumflex" unicode="&#xce;" horiz-adv-x="257" 
d="M279 718l-126 -718h-119l126 718h119zM305 916l96 -134h-82l-76 78l-101 -78h-79l141 134h101z" />
    <glyph glyph-name="Idieresis" unicode="&#xcf;" horiz-adv-x="257" 
d="M166 918q23 0 38 -15t15 -38q0 -32 -23.5 -55.5t-53.5 -23.5q-24 0 -39 15t-15 38q0 32 23.5 55.5t54.5 23.5zM348 919q24 0 39 -15t15 -39q0 -32 -23 -55t-54 -23q-25 0 -40.5 15.5t-15.5 38.5q0 30 24.5 54t54.5 24zM279 718l-126 -718h-119l126 718h119z" />
    <glyph glyph-name="Eth" unicode="&#xd0;" horiz-adv-x="636" 
d="M97 403l56 315h198q159 0 224.5 -88.5t39.5 -270.5q-25 -185 -115.5 -272t-255.5 -87h-217l56 323h-62q12 66 14 80h62zM329 624h-74l-39 -221h114l-15 -80h-113l-40 -228h87q109 0 165 62.5t80 203.5q23 138 -16 200.5t-149 62.5z" />
    <glyph glyph-name="Ntilde" unicode="&#xd1;" horiz-adv-x="644" 
d="M674 718l-126 -718h-119l-161 429q-25 64 -35 107h-2q-5 -46 -17 -119l-73 -417h-114l126 718h121l154 -416q11 -29 40 -123l2 1q10 81 19 128l70 410h115zM558 909l35 -45q-15 -29 -40 -48t-54 -19q-24 0 -66 16q-43 17 -63 17q-36 0 -57 -38l-42 41q14 28 43 49.5
t58 21.5q25 1 68 -16q41 -16 60 -16q37 0 58 37z" />
    <glyph glyph-name="Ograve" unicode="&#xd2;" horiz-adv-x="665" 
d="M424 732q232 0 232 -256q0 -50 -10 -117q-58 -373 -351 -373q-232 0 -232 249q0 57 12 124q30 181 118 277t231 96zM523 358q12 64 12 118q0 163 -126 163q-163 0 -212 -280q-12 -65 -12 -118q0 -162 125 -162q165 0 213 279zM491 775h-69l-120 161h112z" />
    <glyph glyph-name="Oacute" unicode="&#xd3;" horiz-adv-x="665" 
d="M424 732q232 0 232 -256q0 -50 -10 -117q-58 -373 -351 -373q-232 0 -232 249q0 57 12 124q30 181 118 277t231 96zM523 358q12 64 12 118q0 163 -126 163q-163 0 -212 -280q-12 -65 -12 -118q0 -162 125 -162q165 0 213 279zM488 929h117l-147 -154h-72z" />
    <glyph glyph-name="Ocircumflex" unicode="&#xd4;" horiz-adv-x="665" 
d="M424 732q232 0 232 -256q0 -50 -10 -117q-58 -373 -351 -373q-232 0 -232 249q0 57 12 124q30 181 118 277t231 96zM523 358q12 64 12 118q0 163 -126 163q-163 0 -212 -280q-12 -65 -12 -118q0 -162 125 -162q165 0 213 279zM503 916l96 -134h-82l-76 78l-101 -78h-79
l141 134h101z" />
    <glyph glyph-name="Otilde" unicode="&#xd5;" horiz-adv-x="665" 
d="M424 732q232 0 232 -256q0 -50 -10 -117q-58 -373 -351 -373q-232 0 -232 249q0 57 12 124q30 181 118 277t231 96zM523 358q12 64 12 118q0 163 -126 163q-163 0 -212 -280q-12 -65 -12 -118q0 -162 125 -162q165 0 213 279zM571 912l35 -45q-15 -29 -40 -48t-54 -19
q-25 0 -66 16q-43 17 -63 17q-36 0 -57 -38l-42 41q14 28 43 49.5t58 21.5q25 1 68 -16q41 -16 60 -16q37 0 58 37z" />
    <glyph glyph-name="Odieresis" unicode="&#xd6;" horiz-adv-x="665" 
d="M424 732q232 0 232 -256q0 -50 -10 -117q-58 -373 -351 -373q-232 0 -232 249q0 57 12 124q30 181 118 277t231 96zM523 358q12 64 12 118q0 163 -126 163q-163 0 -212 -280q-12 -65 -12 -118q0 -162 125 -162q165 0 213 279zM367 918q23 0 38 -15t15 -38
q0 -32 -23.5 -55.5t-53.5 -23.5q-24 0 -39 15t-15 38q0 32 23.5 55.5t54.5 23.5zM549 919q24 0 39 -15t15 -39q0 -32 -23 -55t-54 -23q-25 0 -40.5 15.5t-15.5 38.5q0 30 24.5 54t54.5 24z" />
    <glyph glyph-name="multiply" unicode="&#xd7;" 
d="M471 85l-76 -65l-133 167l-193 -167l-51 65l192 166l-134 167l75 65l133 -168l193 168l52 -65l-192 -166z" />
    <glyph glyph-name="Oslash" unicode="&#xd8;" horiz-adv-x="665" 
d="M424 732q117 0 174 -65l44 51h64l-80 -92q30 -62 30 -150q0 -50 -10 -117q-58 -373 -351 -373q-117 0 -175 64q-5 -6 -21.5 -25t-22.5 -25h-63l80 90q-30 58 -30 146q0 56 12 123q30 181 118 277t231 96zM523 358q11 66 11 109q0 24 -4 52l-328 -376q28 -64 108 -64
q165 0 213 279zM197 359q-11 -69 -11 -112q0 -26 3 -47l329 375q-30 64 -109 64q-163 0 -212 -280z" />
    <glyph glyph-name="Ugrave" unicode="&#xd9;" horiz-adv-x="630" 
d="M660 718l-84 -479q-46 -253 -290 -253q-107 0 -165 50.5t-58 146.5q0 28 7 69l81 466h118l-84 -475q-4 -19 -4 -45q0 -53 27 -83t75 -30q73 0 117.5 41t57.5 117l84 475h118zM464 775h-69l-120 161h112z" />
    <glyph glyph-name="Uacute" unicode="&#xda;" horiz-adv-x="630" 
d="M660 718l-84 -479q-46 -253 -290 -253q-107 0 -165 50.5t-58 146.5q0 28 7 69l81 466h118l-84 -475q-4 -19 -4 -45q0 -53 27 -83t75 -30q73 0 117.5 41t57.5 117l84 475h118zM460 929h117l-147 -154h-72z" />
    <glyph glyph-name="Ucircumflex" unicode="&#xdb;" horiz-adv-x="630" 
d="M660 718l-84 -479q-46 -253 -290 -253q-107 0 -165 50.5t-58 146.5q0 28 7 69l81 466h118l-84 -475q-4 -19 -4 -45q0 -53 27 -83t75 -30q73 0 117.5 41t57.5 117l84 475h118zM483 916l96 -134h-82l-76 78l-101 -78h-79l141 134h101z" />
    <glyph glyph-name="Udieresis" unicode="&#xdc;" horiz-adv-x="630" 
d="M660 718l-84 -479q-46 -253 -290 -253q-107 0 -165 50.5t-58 146.5q0 28 7 69l81 466h118l-84 -475q-4 -19 -4 -45q0 -53 27 -83t75 -30q73 0 117.5 41t57.5 117l84 475h118zM345 918q23 0 38 -15t15 -38q0 -32 -23.5 -55.5t-53.5 -23.5q-24 0 -39 15t-15 38
q0 32 23.5 55.5t54.5 23.5zM527 919q24 0 39 -15t15 -39q0 -32 -23 -55t-54 -23q-25 0 -40.5 15.5t-15.5 38.5q0 30 24.5 54t54.5 24z" />
    <glyph glyph-name="Yacute" unicode="&#xdd;" horiz-adv-x="564" 
d="M518 718h133l-295 -436l-50 -282h-118l49 281l-142 437h130l62 -232q14 -47 22 -108l2 2q18 37 61 106zM427 929h117l-147 -154h-72z" />
    <glyph glyph-name="Thorn" unicode="&#xde;" horiz-adv-x="556" 
d="M250 593h102q98 0 153 -48t55 -139q0 -123 -85 -193q-84 -69 -218 -69h-86l-25 -144h-118l126 718h118zM318 497h-85q-24 -127 -46 -258h67q185 0 185 162q0 96 -121 96z" />
    <glyph glyph-name="germandbls" unicode="&#xdf;" horiz-adv-x="529" 
d="M217 -9l-4 86q24 -7 43 -7q59 0 90 55q33 55 33 136q0 107 -101 112l14 74q45 1 76 36.5t31 84.5q0 87 -69 87q-88 0 -111 -132l-91 -523h-112l90 512q39 227 230 227q85 0 130 -41.5t45 -112.5q0 -59 -29 -106t-88 -64q1 -1 1 -2q99 -25 99 -152q0 -116 -61 -195
q-62 -80 -168 -80q-16 0 -48 5z" />
    <glyph glyph-name="agrave" unicode="&#xe0;" horiz-adv-x="537" 
d="M290 532q44 0 74 -20.5t41 -57.5q3 14 7.5 29l7.5 25t3 11h110q-19 -75 -31 -147l-47 -264q-7 -37 23 -37q12 0 29 6l-26 -76q-31 -14 -65 -14q-37 0 -58 22t-14 57h-3q-54 -80 -158 -80q-73 0 -109.5 46.5t-36.5 132.5q0 160 71 264q70 103 182 103zM372 262q7 41 7 73
q0 111 -81 111q-54 0 -87 -46t-49 -139q-9 -49 -9 -87q0 -102 76 -102q109 0 143 190zM300 744l74 -158h-66l-120 158h112z" />
    <glyph glyph-name="aacute" unicode="&#xe1;" horiz-adv-x="537" 
d="M290 532q44 0 74 -20.5t41 -57.5q3 14 7.5 29l7.5 25t3 11h110q-19 -75 -31 -147l-47 -264q-7 -37 23 -37q12 0 29 6l-26 -76q-31 -14 -65 -14q-37 0 -58 22t-14 57h-3q-54 -80 -158 -80q-73 0 -109.5 46.5t-36.5 132.5q0 160 71 264q70 103 182 103zM372 262q7 41 7 73
q0 111 -81 111q-54 0 -87 -46t-49 -139q-9 -49 -9 -87q0 -102 76 -102q109 0 143 190zM358 742h116l-147 -156h-72z" />
    <glyph glyph-name="acircumflex" unicode="&#xe2;" horiz-adv-x="537" 
d="M290 532q44 0 74 -20.5t41 -57.5q3 14 7.5 29l7.5 25t3 11h110q-19 -75 -31 -147l-47 -264q-7 -37 23 -37q12 0 29 6l-26 -76q-31 -14 -65 -14q-37 0 -58 22t-14 57h-3q-54 -80 -158 -80q-73 0 -109.5 46.5t-36.5 132.5q0 160 71 264q70 103 182 103zM372 262q7 41 7 73
q0 111 -81 111q-54 0 -87 -46t-49 -139q-9 -49 -9 -87q0 -102 76 -102q109 0 143 190zM386 735l89 -150h-78l-70 97l-102 -97h-81l141 150h101z" />
    <glyph glyph-name="atilde" unicode="&#xe3;" horiz-adv-x="537" 
d="M290 532q44 0 74 -20.5t41 -57.5q3 14 7.5 29l7.5 25t3 11h110q-19 -75 -31 -147l-47 -264q-7 -37 23 -37q12 0 29 6l-26 -76q-31 -14 -65 -14q-37 0 -58 22t-14 57h-3q-54 -80 -158 -80q-73 0 -109.5 46.5t-36.5 132.5q0 160 71 264q70 103 182 103zM372 262q7 41 7 73
q0 111 -81 111q-54 0 -87 -46t-49 -139q-9 -49 -9 -87q0 -102 76 -102q109 0 143 190zM452 726l35 -45q-15 -29 -40 -48t-54 -19q-25 0 -67 16q-43 17 -62 17q-36 0 -57 -38l-42 41q14 28 43 49.5t58 21.5q25 1 68 -16q41 -16 60 -16q37 0 58 37z" />
    <glyph glyph-name="adieresis" unicode="&#xe4;" horiz-adv-x="537" 
d="M290 532q44 0 74 -20.5t41 -57.5q3 14 7.5 29l7.5 25t3 11h110q-19 -75 -31 -147l-47 -264q-7 -37 23 -37q12 0 29 6l-26 -76q-31 -14 -65 -14q-37 0 -58 22t-14 57h-3q-54 -80 -158 -80q-73 0 -109.5 46.5t-36.5 132.5q0 160 71 264q70 103 182 103zM372 262q7 41 7 73
q0 111 -81 111q-54 0 -87 -46t-49 -139q-9 -49 -9 -87q0 -102 76 -102q109 0 143 190zM243 734q24 0 39 -15.5t15 -38.5q0 -32 -23.5 -55t-53.5 -23q-25 0 -40 15t-15 38q0 31 23.5 55t54.5 24zM425 735q24 0 38.5 -15t14.5 -38q0 -33 -23 -56t-53 -23q-24 0 -39 14.5
t-15 37.5q0 32 23 56t54 24z" />
    <glyph glyph-name="aring" unicode="&#xe5;" horiz-adv-x="537" 
d="M290 532q44 0 74 -20.5t41 -57.5q3 14 7.5 29l7.5 25t3 11h110q-19 -75 -31 -147l-47 -264q-7 -37 23 -37q12 0 29 6l-26 -76q-31 -14 -65 -14q-37 0 -58 22t-14 57h-3q-54 -80 -158 -80q-73 0 -109.5 46.5t-36.5 132.5q0 160 71 264q70 103 182 103zM372 262q7 41 7 73
q0 111 -81 111q-54 0 -87 -46t-49 -139q-9 -49 -9 -87q0 -102 76 -102q109 0 143 190zM229 676q7 42 43 75q34 31 78 31q39 0 63.5 -24t24.5 -61q0 -49 -38 -87q-37 -37 -86 -37q-39 0 -63 24t-24 60q0 3 2 19zM281 677q-1 -2 -1 -9q0 -18 12 -30.5t31 -12.5q23 0 42 19
t19 42q0 18 -12 30.5t-31 12.5q-20 0 -38 -16t-22 -36z" />
    <glyph glyph-name="ae" unicode="&#xe6;" horiz-adv-x="770" 
d="M519 69q44 0 69 29.5t26 80.5l107 -32q-54 -161 -213 -161q-128 0 -163 101q-72 -101 -201 -101q-64 0 -97.5 30t-33.5 86q0 209 322 210l9 55q2 18 2 21q0 62 -69 62q-88 0 -99 -92l-94 33q24 71 79 107t134 36q107 0 133 -75q60 74 165 74q76 0 119 -35t43 -99
q0 -84 -82 -130t-232 -46q-12 -78 5.5 -116t70.5 -38zM580 449q-42 0 -78 -42.5t-49 -106.5q192 2 192 93q0 27 -18 41.5t-47 14.5zM313 194l8 43q-192 0 -192 -111q0 -59 60 -59q49 0 80.5 34.5t43.5 92.5z" />
    <glyph glyph-name="ccedilla" unicode="&#xe7;" horiz-adv-x="474" 
d="M358 199l106 -29q-20 -87 -79.5 -135t-145.5 -49l-30 -40q38 -5 60 -23.5t22 -46.5q0 -43 -35 -65.5t-90 -22.5q-47 0 -83 16q-1 10 -1 46q29 -16 76 -16q23 0 40 10t17 29q0 28 -56 39l-9 14l47 63q-175 26 -132 271q22 127 91.5 200t171.5 73q87 0 130 -49t27 -133
l-112 -16q15 52 -1 82t-56 30q-48 0 -84.5 -50t-50.5 -135q-33 -191 76 -191q42 0 70 35t31 93z" />
    <glyph glyph-name="egrave" unicode="&#xe8;" horiz-adv-x="485" 
d="M231 69q42 0 68 30.5t28 79.5l102 -27q-42 -166 -208 -166q-186 0 -186 199q0 119 63 228q33 55 88 87.5t122 32.5q76 0 119 -35t43 -99q0 -84 -83 -130.5t-236 -47.5q-4 -15 -4 -44q0 -48 20.5 -78t63.5 -30zM293 449q-43 0 -79 -43q-36 -45 -49 -106q192 2 192 93
q0 27 -17.5 41.5t-46.5 14.5zM290 744l74 -158h-66l-120 158h112z" />
    <glyph glyph-name="eacute" unicode="&#xe9;" horiz-adv-x="485" 
d="M231 69q42 0 68 30.5t28 79.5l102 -27q-42 -166 -208 -166q-186 0 -186 199q0 119 63 228q33 55 88 87.5t122 32.5q76 0 119 -35t43 -99q0 -84 -83 -130.5t-236 -47.5q-4 -15 -4 -44q0 -48 20.5 -78t63.5 -30zM293 449q-43 0 -79 -43q-36 -45 -49 -106q192 2 192 93
q0 27 -17.5 41.5t-46.5 14.5zM363 742h116l-147 -156h-72z" />
    <glyph glyph-name="ecircumflex" unicode="&#xea;" horiz-adv-x="485" 
d="M231 69q42 0 68 30.5t28 79.5l102 -27q-42 -166 -208 -166q-186 0 -186 199q0 119 63 228q33 55 88 87.5t122 32.5q76 0 119 -35t43 -99q0 -84 -83 -130.5t-236 -47.5q-4 -15 -4 -44q0 -48 20.5 -78t63.5 -30zM293 449q-43 0 -79 -43q-36 -45 -49 -106q192 2 192 93
q0 27 -17.5 41.5t-46.5 14.5zM399 735l89 -150h-78l-70 97l-102 -97h-81l141 150h101z" />
    <glyph glyph-name="edieresis" unicode="&#xeb;" horiz-adv-x="485" 
d="M231 69q42 0 68 30.5t28 79.5l102 -27q-42 -166 -208 -166q-186 0 -186 199q0 119 63 228q33 55 88 87.5t122 32.5q76 0 119 -35t43 -99q0 -84 -83 -130.5t-236 -47.5q-4 -15 -4 -44q0 -48 20.5 -78t63.5 -30zM293 449q-43 0 -79 -43q-36 -45 -49 -106q192 2 192 93
q0 27 -17.5 41.5t-46.5 14.5zM258 734q24 0 39 -15.5t15 -38.5q0 -32 -23.5 -55t-53.5 -23q-25 0 -40 15t-15 38q0 31 23.5 55t54.5 24zM440 735q24 0 38.5 -15t14.5 -38q0 -33 -23 -56t-53 -23q-24 0 -39 14.5t-15 37.5q0 32 23 56t54 24z" />
    <glyph glyph-name="igrave" unicode="&#xec;" horiz-adv-x="233" 
d="M230 526l-93 -526h-112l90 514zM155 744l74 -158h-66l-120 158h112z" />
    <glyph glyph-name="iacute" unicode="&#xed;" horiz-adv-x="233" 
d="M230 526l-93 -526h-112l90 514zM242 742h116l-147 -156h-72z" />
    <glyph glyph-name="icircumflex" unicode="&#xee;" horiz-adv-x="233" 
d="M230 526l-93 -526h-112l90 514zM264 735l89 -150h-78l-70 97l-102 -97h-81l141 150h101z" />
    <glyph glyph-name="idieresis" unicode="&#xef;" horiz-adv-x="233" 
d="M119 734q24 0 39 -15.5t15 -38.5q0 -32 -23.5 -55t-53.5 -23q-25 0 -40 15t-15 38q0 31 23.5 55t54.5 24zM301 735q24 0 38.5 -15t14.5 -38q0 -33 -23 -56t-53 -23q-24 0 -39 14.5t-15 37.5q0 32 23 56t54 24zM230 526l-93 -526h-112l90 514z" />
    <glyph glyph-name="eth" unicode="&#xf0;" horiz-adv-x="519" 
d="M269 560l-22 38l71 48q-38 41 -86 68q45 24 91 50q47 -33 77 -63l74 51l26 -37l-71 -47q81 -104 81 -255q0 -152 -59 -279q-31 -68 -89.5 -107.5t-135.5 -39.5q-93 0 -141.5 50t-48.5 146q0 154 77 246q78 92 185 92q69 0 99 -38l3 2q-8 64 -53 127zM301 435
q-66 0 -108 -72q-41 -71 -41 -181q0 -112 84 -112q65 0 107 72q43 71 43 186q0 107 -85 107z" />
    <glyph glyph-name="ntilde" unicode="&#xf1;" horiz-adv-x="522" 
d="M494 363l-63 -363h-112l59 340q18 105 -67 105q-46 0 -78.5 -35.5t-42.5 -91.5l-56 -318h-112l68 387q12 69 18 125l113 13l-11 -73h2q62 81 157 81q76 0 107 -46t18 -124zM455 726l35 -45q-15 -29 -40 -48t-54 -19q-25 0 -66 16q-43 17 -63 17q-36 0 -57 -38l-42 41
q14 28 43 49.5t58 21.5q25 1 68 -16q41 -16 60 -16q37 0 58 37z" />
    <glyph glyph-name="ograve" unicode="&#xf2;" horiz-adv-x="519" 
d="M495 259q-21 -129 -92.5 -201t-181.5 -72q-92 0 -139 50t-47 143q0 157 78 255q79 99 204 99q92 0 138.5 -50.5t46.5 -144.5q0 -43 -7 -79zM303 448q-66 0 -109 -76q-42 -75 -42 -190q0 -112 84 -112q65 0 109 74q44 76 44 191q0 113 -86 113zM307 744l74 -158h-66
l-120 158h112z" />
    <glyph glyph-name="oacute" unicode="&#xf3;" horiz-adv-x="519" 
d="M495 259q-21 -129 -92.5 -201t-181.5 -72q-92 0 -139 50t-47 143q0 157 78 255q79 99 204 99q92 0 138.5 -50.5t46.5 -144.5q0 -43 -7 -79zM303 448q-66 0 -109 -76q-42 -75 -42 -190q0 -112 84 -112q65 0 109 74q44 76 44 191q0 113 -86 113zM391 742h116l-147 -156h-72
z" />
    <glyph glyph-name="ocircumflex" unicode="&#xf4;" horiz-adv-x="519" 
d="M495 259q-21 -129 -92.5 -201t-181.5 -72q-92 0 -139 50t-47 143q0 157 78 255q79 99 204 99q92 0 138.5 -50.5t46.5 -144.5q0 -43 -7 -79zM303 448q-66 0 -109 -76q-42 -75 -42 -190q0 -112 84 -112q65 0 109 74q44 76 44 191q0 113 -86 113zM403 735l89 -150h-78
l-70 97l-102 -97h-81l141 150h101z" />
    <glyph glyph-name="otilde" unicode="&#xf5;" horiz-adv-x="519" 
d="M495 259q-21 -129 -92.5 -201t-181.5 -72q-92 0 -139 50t-47 143q0 157 78 255q79 99 204 99q92 0 138.5 -50.5t46.5 -144.5q0 -43 -7 -79zM303 448q-66 0 -109 -76q-42 -75 -42 -190q0 -112 84 -112q65 0 109 74q44 76 44 191q0 113 -86 113zM463 726l35 -45
q-15 -29 -40 -48t-54 -19q-25 0 -66 16q-43 17 -63 17q-36 0 -57 -38l-42 41q14 28 43 49.5t58 21.5q25 1 68 -16q41 -16 60 -16q37 0 58 37z" />
    <glyph glyph-name="odieresis" unicode="&#xf6;" horiz-adv-x="519" 
d="M495 259q-21 -129 -92.5 -201t-181.5 -72q-92 0 -139 50t-47 143q0 157 78 255q79 99 204 99q92 0 138.5 -50.5t46.5 -144.5q0 -43 -7 -79zM303 448q-66 0 -109 -76q-42 -75 -42 -190q0 -112 84 -112q65 0 109 74q44 76 44 191q0 113 -86 113zM265 734q24 0 39 -15.5
t15 -38.5q0 -32 -23.5 -55t-53.5 -23q-25 0 -40 15t-15 38q0 31 23.5 55t54.5 24zM447 735q24 0 38.5 -15t14.5 -38q0 -33 -23 -56t-53 -23q-24 0 -39 14.5t-15 37.5q0 32 23 56t54 24z" />
    <glyph glyph-name="divide" unicode="&#xf7;" horiz-adv-x="541" 
d="M384 449q-5 -29 -29 -50t-52 -21q-26 0 -42.5 16.5t-16.5 41.5q0 33 25 58q26 26 58 26q25 0 41.5 -17t16.5 -43l-1 -4v-7zM511 296l-15 -92h-451q1 12 8 52l7 40h451zM312 47q-5 -29 -28.5 -50t-51.5 -21q-26 0 -42.5 16.5t-16.5 41.5q0 33 25.5 58t58.5 25q24 0 40 -16
t16 -40q0 -11 -1 -14z" />
    <glyph glyph-name="oslash" unicode="&#xf8;" horiz-adv-x="519" 
d="M495 259q-22 -129 -93 -201t-181 -72q-83 0 -130 41l-25 -27h-60l57 61q-27 47 -27 118q0 156 78 255q80 99 203 99q91 0 137 -49l33 35h59l-66 -71q23 -48 23 -109q0 -32 -8 -80zM303 448q-40 0 -71 -27t-47.5 -69t-24.5 -84.5t-8 -80.5q0 -5 2 -29l222 242
q-21 48 -73 48zM379 259q6 41 6 74v13l-218 -238q21 -38 69 -38q108 0 143 189z" />
    <glyph glyph-name="ugrave" unicode="&#xf9;" horiz-adv-x="518" 
d="M429 0h-110q1 28 8 67h-2q-59 -81 -155 -81q-64 0 -96 32t-32 91q0 27 4 46l63 356q95 11 114 14l-61 -345q-3 -18 -3 -34q0 -73 69 -73q44 0 76.5 35t42.5 89l56 322h113l-71 -410q-16 -77 -16 -109zM302 744l74 -158h-66l-120 158h112z" />
    <glyph glyph-name="uacute" unicode="&#xfa;" horiz-adv-x="518" 
d="M429 0h-110q1 28 8 67h-2q-59 -81 -155 -81q-64 0 -96 32t-32 91q0 27 4 46l63 356q95 11 114 14l-61 -345q-3 -18 -3 -34q0 -73 69 -73q44 0 76.5 35t42.5 89l56 322h113l-71 -410q-16 -77 -16 -109zM374 742h116l-147 -156h-72z" />
    <glyph glyph-name="ucircumflex" unicode="&#xfb;" horiz-adv-x="518" 
d="M429 0h-110q1 28 8 67h-2q-59 -81 -155 -81q-64 0 -96 32t-32 91q0 27 4 46l63 356q95 11 114 14l-61 -345q-3 -18 -3 -34q0 -73 69 -73q44 0 76.5 35t42.5 89l56 322h113l-71 -410q-16 -77 -16 -109zM402 735l89 -150h-78l-70 97l-102 -97h-81l141 150h101z" />
    <glyph glyph-name="udieresis" unicode="&#xfc;" horiz-adv-x="518" 
d="M429 0h-110q1 28 8 67h-2q-59 -81 -155 -81q-64 0 -96 32t-32 91q0 27 4 46l63 356q95 11 114 14l-61 -345q-3 -18 -3 -34q0 -73 69 -73q44 0 76.5 35t42.5 89l56 322h113l-71 -410q-16 -77 -16 -109zM262 734q24 0 39 -15.5t15 -38.5q0 -32 -23.5 -55t-53.5 -23
q-25 0 -40 15t-15 38q0 31 23.5 55t54.5 24zM444 735q24 0 38.5 -15t14.5 -38q0 -33 -23 -56t-53 -23q-24 0 -39 14.5t-15 37.5q0 32 23 56t54 24z" />
    <glyph glyph-name="yacute" unicode="&#xfd;" horiz-adv-x="460" 
d="M217 123h5l47 109l130 287h113l-238 -482q-49 -108 -93 -163q-50 -67 -124 -67q-27 0 -57 8q-3 70 -5 90q25 -7 50 -7q19 2 27.5 4t18 7.5t16.5 15.5l12 17l12 24l12 25l-84 520q23 5 66 9l50 6l32 -287q8 -72 10 -116zM353 742h116l-147 -156h-72z" />
    <glyph glyph-name="thorn" unicode="&#xfe;" horiz-adv-x="526" 
d="M499 258q-22 -127 -82 -199.5t-154 -72.5q-95 0 -122 77h-2l-44 -244l-113 -12l105 604q20 92 57 319l115 15l-51 -287h1q1 -1 2 -1q58 76 146 76q150 0 150 -181q0 -36 -8 -94zM312 446q-40 0 -71.5 -29t-47.5 -76q-29 -87 -29 -161q0 -108 85 -108q53 0 85 47t50 142
q8 51 8 81q0 104 -80 104z" />
    <glyph glyph-name="ydieresis" unicode="&#xff;" horiz-adv-x="460" 
d="M217 123h5l47 109l130 287h113l-238 -482q-49 -108 -93 -163q-50 -67 -124 -67q-27 0 -57 8q-3 70 -5 90q25 -7 50 -7q19 2 27.5 4t18 7.5t16.5 15.5l12 17l12 24l12 25l-84 520q23 5 66 9l50 6l32 -287q8 -72 10 -116zM242 734q24 0 39 -15.5t15 -38.5q0 -32 -23.5 -55
t-53.5 -23q-25 0 -40 15t-15 38q0 31 23.5 55t54.5 24zM424 735q24 0 38.5 -15t14.5 -38q0 -33 -23 -56t-53 -23q-24 0 -39 14.5t-15 37.5q0 32 23 56t54 24z" />
    <glyph glyph-name="Amacron" unicode="&#x100;" horiz-adv-x="613" 
d="M463 718l105 -718h-121q-1 8 -2.5 20.5t-4 31t-4.5 33.5t-5.5 45t-5.5 41h-252l-82 -171h-117l354 718h135zM216 267h199q-15 128 -19 153q-3 32 -8 67l-10 119h-3q-54 -122 -73 -161zM563 874l-14 -82h-277l14 82h277z" />
    <glyph glyph-name="amacron" unicode="&#x101;" horiz-adv-x="537" 
d="M290 532q44 0 74 -20.5t41 -57.5q3 14 7.5 29l7.5 25t3 11h110q-19 -75 -31 -147l-47 -264q-7 -37 23 -37q12 0 29 6l-26 -76q-31 -14 -65 -14q-37 0 -58 22t-14 57h-3q-54 -80 -158 -80q-73 0 -109.5 46.5t-36.5 132.5q0 160 71 264q70 103 182 103zM372 262q7 41 7 73
q0 111 -81 111q-54 0 -87 -46t-49 -139q-9 -49 -9 -87q0 -102 76 -102q109 0 143 190zM472 700l-15 -83h-272l15 83h272z" />
    <glyph glyph-name="Abreve" unicode="&#x102;" horiz-adv-x="613" 
d="M463 718l105 -718h-121q-1 8 -2.5 20.5t-4 31t-4.5 33.5t-5.5 45t-5.5 41h-252l-82 -171h-117l354 718h135zM216 267h199q-15 128 -19 153q-3 32 -8 67l-10 119h-3q-54 -122 -73 -161zM418 843q30 0 52.5 23t27.5 54h74q-9 -53 -54 -100q-43 -46 -113 -46q-67 0 -95 46
t-19 100h72q-5 -30 10.5 -53.5t44.5 -23.5z" />
    <glyph glyph-name="abreve" unicode="&#x103;" horiz-adv-x="537" 
d="M290 532q44 0 74 -20.5t41 -57.5q3 14 7.5 29l7.5 25t3 11h110q-19 -75 -31 -147l-47 -264q-7 -37 23 -37q12 0 29 6l-26 -76q-31 -14 -65 -14q-37 0 -58 22t-14 57h-3q-54 -80 -158 -80q-73 0 -109.5 46.5t-36.5 132.5q0 160 71 264q70 103 182 103zM372 262q7 41 7 73
q0 111 -81 111q-54 0 -87 -46t-49 -139q-9 -49 -9 -87q0 -102 76 -102q109 0 143 190zM327 653q30 0 54.5 24.5t30.5 56.5h71q-10 -54 -55 -102q-43 -46 -113 -46q-68 0 -96 46t-18 100h73q-5 -31 9.5 -55t43.5 -24z" />
    <glyph glyph-name="Aogonek" unicode="&#x104;" horiz-adv-x="613" 
d="M453 718l105 -718h-82q-61 -67 -61 -115q0 -37 46 -37q24 0 66 11l-7 -39q-44 -25 -99 -25q-40 0 -62.5 15.5t-22.5 44.5q0 76 100 152l-21 164h-252l-82 -171h-117l354 718h135zM206 267h199q-15 128 -19 153q-3 32 -8 67l-10 119h-3q-54 -122 -73 -161z" />
    <glyph glyph-name="aogonek" unicode="&#x105;" horiz-adv-x="494" 
d="M259 532q44 0 74 -20.5t41 -57.5q3 14 7.5 29l7.5 25t3 11h110q-19 -75 -31 -147l-47 -264q-7 -37 23 -37q13 0 29 6l-26 -76q-31 -14 -65 -14q-14 0 -31 5q-27 -30 -44.5 -62.5t-17.5 -53.5q0 -37 46 -37q24 0 66 11l-7 -39q-44 -25 -99 -25q-40 0 -62.5 15.5
t-22.5 44.5q0 37 28.5 80.5t85.5 82.5q-21 23 -14 57h-3q-54 -80 -158 -80q-73 0 -109.5 46.5t-36.5 132.5q0 160 71 264q70 103 182 103zM341 262q7 41 7 73q0 111 -81 111q-54 0 -87 -46t-49 -139q-9 -49 -9 -87q0 -102 76 -102q109 0 143 190z" />
    <glyph glyph-name="Cacute" unicode="&#x106;" horiz-adv-x="602" 
d="M484 733q104 0 157 -59q54 -58 37 -158l-126 -19q19 65 -3.5 103.5t-84.5 38.5q-153 0 -201 -281q-57 -277 105 -277q72 0 110.5 55.5t36.5 125.5l119 -39q-51 -238 -282 -238q-279 0 -211 375q30 172 113 273q82 100 230 100zM529 929h117l-147 -154h-72z" />
    <glyph glyph-name="cacute" unicode="&#x107;" horiz-adv-x="474" 
d="M360 199l106 -29q-20 -87 -80 -135.5t-147 -48.5q-108 0 -151.5 71t-20.5 203q22 127 91.5 200t171.5 73q87 0 130 -49t27 -133l-112 -16q15 52 -1 82t-56 30q-48 0 -84.5 -50t-50.5 -135q-33 -191 76 -191q42 0 70 35t31 93zM384 742h116l-147 -156h-72z" />
    <glyph glyph-name="Ccircumflex" unicode="&#x108;" horiz-adv-x="602" 
d="M484 733q104 0 157 -59q54 -58 37 -158l-126 -19q19 65 -3.5 103.5t-84.5 38.5q-153 0 -201 -281q-57 -277 105 -277q72 0 110.5 55.5t36.5 125.5l119 -39q-51 -238 -282 -238q-279 0 -211 375q30 172 113 273q82 100 230 100zM561 916l96 -134h-82l-76 78l-101 -78h-79
l141 134h101z" />
    <glyph glyph-name="ccircumflex" unicode="&#x109;" horiz-adv-x="474" 
d="M360 199l106 -29q-20 -87 -80 -135.5t-147 -48.5q-108 0 -151.5 71t-20.5 203q22 127 91.5 200t171.5 73q87 0 130 -49t27 -133l-112 -16q15 52 -1 82t-56 30q-48 0 -84.5 -50t-50.5 -135q-33 -191 76 -191q42 0 70 35t31 93zM413 735l89 -150h-78l-70 97l-102 -97h-81
l141 150h101z" />
    <glyph glyph-name="Cdotaccent" unicode="&#x10a;" horiz-adv-x="602" 
d="M484 733q104 0 157 -59q54 -58 37 -158l-126 -19q19 65 -3.5 103.5t-84.5 38.5q-153 0 -201 -281q-57 -277 105 -277q72 0 110.5 55.5t36.5 125.5l119 -39q-51 -238 -282 -238q-279 0 -211 375q30 172 113 273q82 100 230 100zM515 920q26 0 42 -16t16 -41
q0 -35 -24.5 -59.5t-57.5 -24.5q-27 0 -43 16t-16 40q0 35 25 60t58 25z" />
    <glyph glyph-name="cdotaccent" unicode="&#x10b;" horiz-adv-x="474" 
d="M360 199l106 -29q-20 -87 -80 -135.5t-147 -48.5q-108 0 -151.5 71t-20.5 203q22 127 91.5 200t171.5 73q87 0 130 -49t27 -133l-112 -16q15 52 -1 82t-56 30q-48 0 -84.5 -50t-50.5 -135q-33 -191 76 -191q42 0 70 35t31 93zM363 742q26 0 42 -16t16 -41
q0 -35 -24.5 -59.5t-57.5 -24.5q-27 0 -43 16t-16 40q0 35 25 60t58 25z" />
    <glyph glyph-name="Ccaron" unicode="&#x10c;" horiz-adv-x="602" 
d="M484 733q104 0 157 -59q54 -58 37 -158l-126 -19q19 65 -3.5 103.5t-84.5 38.5q-153 0 -201 -281q-57 -277 105 -277q72 0 110.5 55.5t36.5 125.5l119 -39q-51 -238 -282 -238q-279 0 -211 375q30 172 113 273q82 100 230 100zM436 783l-94 134h80l72 -80l105 80h80
l-142 -134h-101z" />
    <glyph glyph-name="ccaron" unicode="&#x10d;" horiz-adv-x="474" 
d="M360 199l106 -29q-20 -87 -80 -135.5t-147 -48.5q-108 0 -151.5 71t-20.5 203q22 127 91.5 200t171.5 73q87 0 130 -49t27 -133l-112 -16q15 52 -1 82t-56 30q-48 0 -84.5 -50t-50.5 -135q-33 -191 76 -191q42 0 70 35t31 93zM284 583l-86 150h79l69 -94l102 94h80
l-142 -150h-102z" />
    <glyph glyph-name="Dcaron" unicode="&#x10e;" horiz-adv-x="636" 
d="M27 0l126 718h198q159 0 224.5 -88.5t39.5 -270.5q-25 -185 -115.5 -272t-255.5 -87h-217zM329 624h-74l-93 -529h87q109 0 165 62.5t80 203.5q23 138 -16 200.5t-149 62.5zM318 783l-94 134h80l72 -80l105 80h80l-142 -134h-101z" />
    <glyph glyph-name="dcaron" unicode="&#x10f;" horiz-adv-x="623" 
d="M444 0h-111q2 32 8 71q-61 -85 -157 -85q-148 0 -148 179q0 44 9 95q24 130 84 201.5t153 71.5q42 0 75 -20.5t47 -56.5l52 277l114 14l-101 -577q-24 -109 -25 -170zM299 446q-104 0 -137 -185q-9 -48 -9 -86q0 -103 78 -103q108 0 142 190q7 36 7 75q0 109 -81 109z
M668 740q51 0 51 -56q0 -49 -34 -95q-35 -47 -80 -72l-25 30q20 14 38.5 36.5t25.5 40.5q-44 3 -44 46q0 30 20 50t48 20z" />
    <glyph glyph-name="Dcroat" unicode="&#x110;" horiz-adv-x="636" 
d="M97 403l56 315h198q159 0 224.5 -88.5t39.5 -270.5q-25 -185 -115.5 -272t-255.5 -87h-217l56 323h-62q12 66 14 80h62zM329 624h-74l-39 -221h114l-15 -80h-113l-40 -228h87q109 0 165 62.5t80 203.5q23 138 -16 200.5t-149 62.5z" />
    <glyph glyph-name="dslash" unicode="&#x111;" horiz-adv-x="526" 
d="M428 584h-134l12 65h134l16 84l114 14q-14 -77 -17 -98h56l-12 -65h-56l-72 -414q-24 -109 -25 -170h-111q2 32 8 71q-61 -85 -157 -85q-148 0 -148 179q0 44 9 95q24 130 84 201.5t153 71.5q42 0 75 -20.5t47 -56.5zM299 446q-104 0 -137 -185q-9 -48 -9 -86
q0 -103 78 -103q108 0 142 190q7 36 7 75q0 109 -81 109z" />
    <glyph glyph-name="Emacron" unicode="&#x112;" 
d="M486 96l-16 -96h-442l126 718h412l-42 -96h-269l-35 -202h262l-17 -96h-262l-40 -228h323zM524 891l-14 -82h-277l14 82h277z" />
    <glyph glyph-name="emacron" unicode="&#x113;" horiz-adv-x="485" 
d="M231 69q42 0 68 30.5t28 79.5l102 -27q-42 -166 -208 -166q-186 0 -186 199q0 119 63 228q33 55 88 87.5t122 32.5q76 0 119 -35t43 -99q0 -84 -83 -130.5t-236 -47.5q-4 -15 -4 -44q0 -48 20.5 -78t63.5 -30zM293 449q-43 0 -79 -43q-36 -45 -49 -106q192 2 192 93
q0 27 -17.5 41.5t-46.5 14.5zM477 700l-15 -83h-272l15 83h272z" />
    <glyph glyph-name="Ebreve" unicode="&#x114;" 
d="M486 96l-16 -96h-442l126 718h412l-42 -96h-269l-35 -202h262l-17 -96h-262l-40 -228h323zM376 843q30 0 52.5 23t27.5 54h74q-9 -53 -54 -100q-43 -46 -113 -46q-67 0 -95 46t-19 100h72q-5 -30 10.5 -53.5t44.5 -23.5z" />
    <glyph glyph-name="ebreve" unicode="&#x115;" horiz-adv-x="485" 
d="M231 69q42 0 68 30.5t28 79.5l102 -27q-42 -166 -208 -166q-186 0 -186 199q0 119 63 228q33 55 88 87.5t122 32.5q76 0 119 -35t43 -99q0 -84 -83 -130.5t-236 -47.5q-4 -15 -4 -44q0 -48 20.5 -78t63.5 -30zM293 449q-43 0 -79 -43q-36 -45 -49 -106q192 2 192 93
q0 27 -17.5 41.5t-46.5 14.5zM329 653q30 0 54.5 24.5t30.5 56.5h71q-10 -54 -55 -102q-43 -46 -113 -46q-68 0 -96 46t-18 100h73q-5 -31 9.5 -55t43.5 -24z" />
    <glyph glyph-name="Edotaccent" unicode="&#x116;" 
d="M486 96l-16 -96h-442l126 718h412l-42 -96h-269l-35 -202h262l-17 -96h-262l-40 -228h323zM387 918q26 0 42 -16t16 -41q0 -35 -24.5 -59.5t-57.5 -24.5q-27 0 -43 16t-16 40q0 35 25 60t58 25z" />
    <glyph glyph-name="edotaccent" unicode="&#x117;" horiz-adv-x="485" 
d="M231 69q42 0 68 30.5t28 79.5l102 -27q-42 -166 -208 -166q-186 0 -186 199q0 119 63 228q33 55 88 87.5t122 32.5q76 0 119 -35t43 -99q0 -84 -83 -130.5t-236 -47.5q-4 -15 -4 -44q0 -48 20.5 -78t63.5 -30zM293 449q-43 0 -79 -43q-36 -45 -49 -106q192 2 192 93
q0 27 -17.5 41.5t-46.5 14.5zM350 742q26 0 42 -16t16 -41q0 -35 -24.5 -59.5t-57.5 -24.5q-27 0 -43 16t-16 40q0 35 25 60t58 25z" />
    <glyph glyph-name="Eogonek" unicode="&#x118;" 
d="M486 96l-16 -96h-61q-61 -67 -61 -114q0 -37 46 -37q24 0 66 11l-7 -39q-44 -25 -99 -25q-40 0 -62.5 15.5t-22.5 44.5q0 70 89 144h-330l126 718h412l-42 -96h-269l-35 -202h262l-17 -96h-262l-40 -228h323z" />
    <glyph glyph-name="eogonek" unicode="&#x119;" horiz-adv-x="485" 
d="M231 69q42 0 68 30.5t28 79.5l102 -27q-24 -94 -90 -136q-29 -30 -48 -64.5t-19 -55.5q0 -37 46 -37q24 0 66 11l-7 -39q-44 -25 -99 -25q-40 0 -62.5 15.5t-22.5 44.5q0 58 65 123q-18 -3 -37 -3q-186 0 -186 199q0 119 63 228q33 55 88 87.5t122 32.5q76 0 119 -35
t43 -99q0 -84 -83 -130.5t-236 -47.5q-4 -15 -4 -44q0 -48 20.5 -78t63.5 -30zM293 449q-43 0 -79 -43q-36 -45 -49 -106q192 2 192 93q0 27 -17.5 41.5t-46.5 14.5z" />
    <glyph glyph-name="Ecaron" unicode="&#x11a;" 
d="M486 96l-16 -96h-442l126 718h412l-42 -96h-269l-35 -202h262l-17 -96h-262l-40 -228h323zM319 783l-94 134h80l72 -80l105 80h80l-142 -134h-101z" />
    <glyph glyph-name="ecaron" unicode="&#x11b;" horiz-adv-x="485" 
d="M231 69q42 0 68 30.5t28 79.5l102 -27q-42 -166 -208 -166q-186 0 -186 199q0 119 63 228q33 55 88 87.5t122 32.5q76 0 119 -35t43 -99q0 -84 -83 -130.5t-236 -47.5q-4 -15 -4 -44q0 -48 20.5 -78t63.5 -30zM293 449q-43 0 -79 -43q-36 -45 -49 -106q192 2 192 93
q0 27 -17.5 41.5t-46.5 14.5zM266 583l-86 150h79l69 -94l102 94h80l-142 -150h-102z" />
    <glyph glyph-name="Gcircumflex" unicode="&#x11c;" horiz-adv-x="630" 
d="M421 732q94 -1 147 -46.5t53 -124.5q0 -28 -4 -45l-126 -20q11 30 11 54q0 38 -27 61.5t-72 23.5q-77 0 -130 -72t-77 -206q-11 -61 -11 -114q0 -163 119 -163q74 0 120 58t51 150h-133q6 33 8 47q3 21 8 46h249q-25 -394 -310 -394q-112 0 -173 62t-61 189q0 54 12 121
q31 180 119 276.5t227 96.5zM499 916l96 -134h-82l-76 78l-101 -78h-79l141 134h101z" />
    <glyph glyph-name="gcircumflex" unicode="&#x11d;" horiz-adv-x="525" 
d="M344 90h-4q-27 -35 -67.5 -54.5t-81.5 -19.5q-152 0 -152 165q0 144 68 248t179 104q94 0 120 -84l1 1h1q6 36 17 68h108q-18 -84 -25 -127l-59 -340q-44 -245 -249 -245q-92 0 -144 36.5t-52 105.5v11l119 25q-4 -11 -4 -26q0 -30 21 -47.5t57 -17.5q58 0 92 34
q15 15 25 43q12 33 16 52q7 27 14 68zM299 447q-61 0 -102 -72q-41 -73 -41 -174q0 -99 82 -99q64 0 103.5 64.5t39.5 170.5q0 110 -82 110zM410 735l89 -150h-78l-70 97l-102 -97h-81l141 150h101z" />
    <glyph glyph-name="Gbreve" unicode="&#x11e;" horiz-adv-x="630" 
d="M421 732q94 -1 147 -46.5t53 -124.5q0 -28 -4 -45l-126 -20q11 30 11 54q0 38 -27 61.5t-72 23.5q-77 0 -130 -72t-77 -206q-11 -61 -11 -114q0 -163 119 -163q74 0 120 58t51 150h-133q6 33 8 47q3 21 8 46h249q-25 -394 -310 -394q-112 0 -173 62t-61 189q0 54 12 121
q31 180 119 276.5t227 96.5zM431 843q30 0 52.5 23t27.5 54h74q-9 -53 -54 -100q-43 -46 -113 -46q-67 0 -95 46t-19 100h72q-5 -30 10.5 -53.5t44.5 -23.5z" />
    <glyph glyph-name="gbreve" unicode="&#x11f;" horiz-adv-x="525" 
d="M344 90h-4q-27 -35 -67.5 -54.5t-81.5 -19.5q-152 0 -152 165q0 144 68 248t179 104q94 0 120 -84l1 1h1q6 36 17 68h108q-18 -84 -25 -127l-59 -340q-44 -245 -249 -245q-92 0 -144 36.5t-52 105.5v11l119 25q-4 -11 -4 -26q0 -30 21 -47.5t57 -17.5q58 0 92 34
q15 15 25 43q12 33 16 52q7 27 14 68zM299 447q-61 0 -102 -72q-41 -73 -41 -174q0 -99 82 -99q64 0 103.5 64.5t39.5 170.5q0 110 -82 110zM349 653q30 0 54.5 24.5t30.5 56.5h71q-10 -54 -55 -102q-43 -46 -113 -46q-68 0 -96 46t-18 100h73q-5 -31 9.5 -55t43.5 -24z" />
    <glyph glyph-name="Gdotaccent" unicode="&#x120;" horiz-adv-x="630" 
d="M421 732q94 -1 147 -46.5t53 -124.5q0 -28 -4 -45l-126 -20q11 30 11 54q0 38 -27 61.5t-72 23.5q-77 0 -130 -72t-77 -206q-11 -61 -11 -114q0 -163 119 -163q74 0 120 58t51 150h-133q6 33 8 47q3 21 8 46h249q-25 -394 -310 -394q-112 0 -173 62t-61 189q0 54 12 121
q31 180 119 276.5t227 96.5zM451 919q26 0 42 -16t16 -41q0 -35 -24.5 -59.5t-57.5 -24.5q-27 0 -43 16t-16 40q0 35 25 60t58 25z" />
    <glyph glyph-name="gdotaccent" unicode="&#x121;" horiz-adv-x="525" 
d="M344 90h-4q-27 -35 -67.5 -54.5t-81.5 -19.5q-152 0 -152 165q0 144 68 248t179 104q94 0 120 -84l1 1h1q6 36 17 68h108q-18 -84 -25 -127l-59 -340q-44 -245 -249 -245q-92 0 -144 36.5t-52 105.5v11l119 25q-4 -11 -4 -26q0 -30 21 -47.5t57 -17.5q58 0 92 34
q15 15 25 43q12 33 16 52q7 27 14 68zM299 447q-61 0 -102 -72q-41 -73 -41 -174q0 -99 82 -99q64 0 103.5 64.5t39.5 170.5q0 110 -82 110zM363 742q26 0 42 -16t16 -41q0 -35 -24.5 -59.5t-57.5 -24.5q-27 0 -43 16t-16 40q0 35 25 60t58 25z" />
    <glyph glyph-name="Gcommaaccent" unicode="&#x122;" horiz-adv-x="630" 
d="M421 732q94 -1 147 -46.5t53 -124.5q0 -28 -4 -45l-126 -20q11 30 11 54q0 38 -27 61.5t-72 23.5q-77 0 -130 -72t-77 -206q-11 -61 -11 -114q0 -163 119 -163q74 0 120 58t51 150h-133q6 33 8 47q3 21 8 46h249q-25 -394 -310 -394q-112 0 -173 62t-61 189q0 54 12 121
q31 180 119 276.5t227 96.5zM272 -47q51 0 51 -56q0 -49 -34 -95q-35 -47 -80 -72l-25 30q20 14 38.5 36.5t25.5 40.5q-44 3 -44 46q0 29 20 49.5t48 20.5z" />
    <glyph glyph-name="gcommaaccent" unicode="&#x123;" horiz-adv-x="525" 
d="M344 90h-4q-27 -35 -67.5 -54.5t-81.5 -19.5q-152 0 -152 165q0 144 68 248t179 104q94 0 120 -84l1 1h1q6 36 17 68h108q-18 -84 -25 -127l-59 -340q-44 -245 -249 -245q-92 0 -144 36.5t-52 105.5v11l119 25q-4 -11 -4 -26q0 -30 21 -47.5t57 -17.5q58 0 92 34
q15 15 25 43q12 33 16 52q7 27 14 68zM299 447q-61 0 -102 -72q-41 -73 -41 -174q0 -99 82 -99q64 0 103.5 64.5t39.5 170.5q0 110 -82 110zM346 585q-51 0 -51 56q0 49 34 95q35 47 80 72l25 -30q-20 -14 -38.5 -36.5t-25.5 -40.5q44 -3 44 -46q0 -29 -20 -49.5t-48 -20.5z
" />
    <glyph glyph-name="Hcircumflex" unicode="&#x124;" horiz-adv-x="623" 
d="M651 718l-126 -718h-118l57 328h-260l-57 -328h-118l126 718h118l-52 -293h260l52 293h118zM485 916l96 -134h-82l-76 78l-101 -78h-79l141 134h101z" />
    <glyph glyph-name="hcircumflex" unicode="&#x125;" horiz-adv-x="520" 
d="M492 363l-63 -363h-113l61 343q17 104 -68 104q-46 0 -78.5 -34.5t-41.5 -88.5l-57 -324h-112l129 734l114 14l-51 -294l1 -1q56 80 153 80q76 0 107.5 -46t18.5 -124zM289 924l96 -134h-82l-76 78l-101 -78h-79l141 134h101z" />
    <glyph glyph-name="Hbar" unicode="&#x126;" horiz-adv-x="623" 
d="M622 554l-97 -554h-118l57 328h-260l-57 -328h-118l97 553h-55l12 71h55l17 94h118l-17 -94h260l17 94h118l-17 -94q6 0 27.5 0.5t27.5 0.5q-4 -27 -13 -71h-54zM481 425l23 129h-260l-23 -129h260z" />
    <glyph glyph-name="hbar" unicode="&#x127;" horiz-adv-x="520" 
d="M122 584h-47l12 65h47l15 85l114 14l-17 -99h156l-12 -65h-156l-22 -130l1 -1q56 80 153 80q76 0 107.5 -46t18.5 -124l-63 -363h-113l61 343q17 104 -68 104q-46 0 -78.5 -34.5t-41.5 -88.5l-57 -324h-112z" />
    <glyph glyph-name="Itilde" unicode="&#x128;" horiz-adv-x="257" 
d="M279 718l-126 -718h-119l126 718h119zM364 902l35 -45q-15 -29 -40 -48t-54 -19q-24 0 -66 16q-43 17 -63 17q-36 0 -57 -38l-42 41q14 28 43 49.5t58 21.5q25 1 68 -16q41 -16 60 -16q37 0 58 37z" />
    <glyph glyph-name="itilde" unicode="&#x129;" horiz-adv-x="233" 
d="M319 726l35 -45q-15 -29 -40 -48t-54 -19q-25 0 -67 16q-43 17 -62 17q-36 0 -57 -38l-42 41q14 28 43 49.5t58 21.5q25 1 68 -16q41 -16 60 -16q37 0 58 37zM230 526l-93 -526h-112l90 514z" />
    <glyph glyph-name="Imacron" unicode="&#x12a;" horiz-adv-x="257" 
d="M279 718l-126 -718h-119l126 718h119zM387 891l-14 -82h-277l14 82h277z" />
    <glyph glyph-name="imacron" unicode="&#x12b;" horiz-adv-x="233" 
d="M230 526l-93 -526h-112l90 514zM341 700l-15 -83h-272l15 83h272z" />
    <glyph glyph-name="Ibreve" unicode="&#x12c;" horiz-adv-x="257" 
d="M279 718l-126 -718h-119l126 718h119zM242 843q30 0 52.5 23t27.5 54h74q-9 -53 -54 -100q-43 -46 -113 -46q-67 0 -95 46t-19 100h72q-5 -30 10.5 -53.5t44.5 -23.5z" />
    <glyph glyph-name="ibreve" unicode="&#x12d;" horiz-adv-x="233" 
d="M230 526l-93 -526h-112l90 514zM200 659q30 0 54.5 24.5t30.5 56.5h71q-10 -54 -55 -102q-43 -46 -113 -46q-68 0 -96 46t-18 100h73q-5 -31 9.5 -55t43.5 -24z" />
    <glyph glyph-name="Iogonek" unicode="&#x12e;" horiz-adv-x="257" 
d="M279 718l-126 -718h-56q-60 -64 -60 -113q0 -37 46 -37q24 0 66 11l-7 -39q-44 -25 -99 -25q-40 0 -62.5 15.5t-22.5 44.5q0 70 88 143h-12l126 718h119z" />
    <glyph glyph-name="iogonek" unicode="&#x12f;" horiz-adv-x="233" 
d="M230 526l-93 -526h-60q-60 -64 -60 -113q0 -37 46 -37q24 0 66 11l-7 -39q-44 -25 -99 -25q-40 0 -62.5 15.5t-22.5 44.5q0 70 88 143h-1l90 512zM212 747q29 0 46.5 -19t13.5 -48q-4 -33 -28.5 -56t-56.5 -23q-30 0 -46.5 19.5t-13.5 47.5q3 33 28 56t57 23z" />
    <glyph glyph-name="Idot" unicode="&#x130;" horiz-adv-x="257" 
d="M279 718l-126 -718h-119l126 718h119zM256 918q26 0 42 -16t16 -41q0 -35 -24.5 -59.5t-57.5 -24.5q-27 0 -43 16t-16 40q0 35 25 60t58 25z" />
    <glyph glyph-name="dotlessi" unicode="&#x131;" horiz-adv-x="233" 
d="M230 526l-93 -526h-112l90 514z" />
    <glyph glyph-name="IJ" unicode="&#x132;" horiz-adv-x="747" 
d="M269 718l-126 -718h-119l126 718h119zM421 78q109 0 136 153l85 487h119l-86 -485q-22 -125 -84.5 -186t-174.5 -61q-88 0 -138.5 43t-50.5 122q0 25 4 44l122 19q-13 -29 -13 -59q0 -36 21 -56t60 -21z" />
    <glyph glyph-name="ij" unicode="&#x133;" horiz-adv-x="477" 
d="M452 747q26 0 42.5 -16t16.5 -42q0 -37 -25 -62.5t-60 -25.5q-27 0 -44 16.5t-17 42.5q0 36 26 61.5t61 25.5zM175 -188q-8 20 -32 90q4 -1 17 -1q57 0 77 32q19 31 33 104l83 475l115 14l-74 -425q-13 -72 -22 -104q-8 -35 -26 -79q-24 -56 -61.5 -79t-109.5 -27z
M201 747q29 0 46.5 -19t13.5 -48q-4 -33 -28.5 -56t-56.5 -23q-30 0 -46.5 19.5t-13.5 47.5q3 33 28 56t57 23zM219 526l-93 -526h-112l90 512z" />
    <glyph glyph-name="Jcircumflex" unicode="&#x134;" horiz-adv-x="518" 
d="M205 79q109 0 136 153l85 487h119l-86 -485q-22 -125 -84.5 -186t-174.5 -61q-87 0 -138 43t-51 122q0 25 4 44l122 19q-13 -29 -13 -59q0 -36 21 -56t60 -21zM566 916l96 -134h-82l-76 78l-101 -78h-79l141 134h101z" />
    <glyph glyph-name="jcircumflex" unicode="&#x135;" horiz-adv-x="234" 
d="M-63 -188q-7 20 -32 90q4 -1 17 -1q57 0 77 32q19 31 33 104l83 475l115 14l-74 -425q-13 -72 -22 -104q-8 -35 -26 -79q-24 -56 -61.5 -79t-109.5 -27zM257 735l89 -150h-78l-70 97l-102 -97h-81l141 150h101z" />
    <glyph glyph-name="Kcommaaccent" unicode="&#x136;" horiz-adv-x="586" 
d="M327 381l223 -381h-140l-199 358l-63 -358h-118l126 718h117l-52 -306l288 306h148zM255 -33q51 0 51 -56q0 -49 -34 -95q-35 -47 -80 -72l-25 30q20 14 38.5 36.5t25.5 40.5q-44 3 -44 46q0 29 20.5 49.5t47.5 20.5z" />
    <glyph glyph-name="kcommaaccent" unicode="&#x137;" horiz-adv-x="486" 
d="M289 282l159 -282h-127l-142 266l-46 -266h-112l128 731l115 17l-79 -447l1 -1l211 219h135zM198 -47q51 0 51 -56q0 -49 -34 -95q-35 -47 -80 -72l-25 30q20 14 38.5 36.5t25.5 40.5q-44 3 -44 46q0 29 20 49.5t48 20.5z" />
    <glyph glyph-name="kgreenlandic" unicode="&#x138;" horiz-adv-x="503" 
d="M298 278l162 -278h-126l-149 265l-46 -265h-112l89 513l115 13q-36 -202 -41 -231h1l42 39l178 184h134z" />
    <glyph glyph-name="Lacute" unicode="&#x139;" horiz-adv-x="499" 
d="M466 96l-41 -96h-396l126 718h118l-110 -622h303zM282 929h117l-147 -154h-72z" />
    <glyph glyph-name="lacute" unicode="&#x13a;" horiz-adv-x="231" 
d="M124 -13q-44 0 -64.5 27.5t-12.5 73.5l114 643q7 1 25.5 3.5t42 6t47.5 6.5l-113 -639q-5 -36 24 -36q13 0 30 6q-3 -12 -26 -77q-30 -14 -67 -14zM288 949h117l-147 -154h-72z" />
    <glyph glyph-name="Lcommaaccent" unicode="&#x13b;" horiz-adv-x="499" 
d="M466 96l-41 -96h-396l126 718h118l-110 -622h303zM230 -47q51 0 51 -56q0 -49 -34 -95q-35 -47 -80 -72l-25 30q20 14 38.5 36.5t25.5 40.5q-44 3 -44 46q0 29 20 49.5t48 20.5z" />
    <glyph glyph-name="lcommaaccent" unicode="&#x13c;" horiz-adv-x="231" 
d="M116 -13q-44 0 -64.5 27.5t-12.5 73.5l114 643q7 1 25.5 3.5t42 6t47.5 6.5l-113 -639q-5 -36 24 -36q13 0 30 6q-3 -12 -26 -77q-30 -14 -67 -14zM66 -47q51 0 51 -56q0 -49 -34 -95q-35 -47 -80 -72l-25 30q20 14 38.5 36.5t25.5 40.5q-44 3 -44 46q0 29 20 49.5
t48 20.5z" />
    <glyph glyph-name="Lcaron" unicode="&#x13d;" horiz-adv-x="499" 
d="M466 96l-41 -96h-396l126 718h118l-110 -622h303zM443 720q51 0 51 -56q0 -49 -34 -95q-35 -47 -80 -72l-25 30q20 14 38.5 36.5t25.5 40.5q-44 3 -44 46q0 30 20.5 50t47.5 20z" />
    <glyph glyph-name="lcaron" unicode="&#x13e;" horiz-adv-x="333" 
d="M124 -13q-44 0 -64.5 27.5t-12.5 73.5l114 643q7 1 25.5 3.5t42 6t47.5 6.5l-113 -639q-5 -36 24 -36q13 0 30 6q-3 -12 -26 -77q-30 -14 -67 -14zM377 741q51 0 51 -56q0 -49 -34 -95q-35 -47 -80 -72l-25 30q20 14 38.5 36.5t25.5 40.5q-44 3 -44 46q0 29 20.5 49.5
t47.5 20.5z" />
    <glyph glyph-name="Ldot" unicode="&#x13f;" horiz-adv-x="499" 
d="M466 96l-41 -96h-396l126 718h118l-110 -622h303zM398 446q26 0 42 -16t16 -41q0 -35 -24.5 -59.5t-57.5 -24.5q-27 0 -43 16t-16 40q0 35 25 60t58 25z" />
    <glyph glyph-name="ldot" unicode="&#x140;" horiz-adv-x="365" 
d="M124 -13q-44 0 -64.5 27.5t-12.5 73.5l114 643q7 1 25.5 3.5t42 6t47.5 6.5l-113 -639q-5 -36 24 -36q13 0 30 6q-3 -12 -26 -77q-30 -14 -67 -14zM348 446q26 0 42 -16t16 -41q0 -35 -24.5 -59.5t-57.5 -24.5q-27 0 -43 16t-16 40q0 35 25 60t58 25z" />
    <glyph glyph-name="Lslash" unicode="&#x141;" horiz-adv-x="499" 
d="M466 96l-41 -96h-396l43 246l-59 -31l-4 71l77 39l69 393h118l-58 -326l117 61q6 -69 6 -71l-137 -70l-38 -216h303z" />
    <glyph glyph-name="lslash" unicode="&#x142;" horiz-adv-x="237" 
d="M116 -13q-44 0 -64.5 27.5t-12.5 73.5l32 182q-12 -7 -54 -28l-5 69l73 39l68 381q7 1 25.5 3.5t42 6t47.5 6.5l-59 -331l81 43q0 -2 6 -71l-101 -54l-40 -226q-5 -36 24 -36q13 0 30 6q-3 -12 -26 -77q-30 -14 -67 -14z" />
    <glyph glyph-name="Nacute" unicode="&#x143;" horiz-adv-x="644" 
d="M674 718l-126 -718h-119l-161 429q-25 64 -35 107h-2q-5 -46 -17 -119l-73 -417h-114l126 718h121l154 -416q11 -29 40 -123l2 1q10 81 19 128l70 410h115zM479 929h117l-147 -154h-72z" />
    <glyph glyph-name="nacute" unicode="&#x144;" horiz-adv-x="522" 
d="M494 363l-63 -363h-112l59 340q18 105 -67 105q-46 0 -78.5 -35.5t-42.5 -91.5l-56 -318h-112l68 387q12 69 18 125l113 13l-11 -73h2q62 81 157 81q76 0 107 -46t18 -124zM362 742h116l-147 -156h-72z" />
    <glyph glyph-name="Ncommaaccent" unicode="&#x145;" horiz-adv-x="644" 
d="M674 718l-126 -718h-119l-161 429q-25 64 -35 107h-2q-5 -46 -17 -119l-73 -417h-114l126 718h121l154 -416q11 -29 40 -123l2 1q10 81 19 128l70 410h115zM272 -30q51 0 51 -56q0 -49 -34 -95q-35 -47 -80 -72l-25 30q20 14 38.5 36.5t25.5 40.5q-44 3 -44 46
q0 30 20 50t48 20z" />
    <glyph glyph-name="ncommaaccent" unicode="&#x146;" horiz-adv-x="522" 
d="M494 363l-63 -363h-112l59 340q18 105 -67 105q-46 0 -78.5 -35.5t-42.5 -91.5l-56 -318h-112l68 387q12 69 18 125l113 13l-11 -73h2q62 81 157 81q76 0 107 -46t18 -124zM212 -47q51 0 51 -56q0 -49 -34 -95q-35 -47 -80 -72l-25 30q20 14 38.5 36.5t25.5 40.5
q-44 3 -44 46q0 29 20 49.5t48 20.5z" />
    <glyph glyph-name="Ncaron" unicode="&#x147;" horiz-adv-x="644" 
d="M674 718l-126 -718h-119l-161 429q-25 64 -35 107h-2q-5 -46 -17 -119l-73 -417h-114l126 718h121l154 -416q11 -29 40 -123l2 1q10 81 19 128l70 410h115zM379 783l-94 134h80l72 -80l105 80h80l-142 -134h-101z" />
    <glyph glyph-name="ncaron" unicode="&#x148;" horiz-adv-x="522" 
d="M494 363l-63 -363h-112l59 340q18 105 -67 105q-46 0 -78.5 -35.5t-42.5 -91.5l-56 -318h-112l68 387q12 69 18 125l113 13l-11 -73h2q62 81 157 81q76 0 107 -46t18 -124zM272 583l-86 150h79l69 -94l102 94h80l-142 -150h-102z" />
    <glyph glyph-name="napostrophe" unicode="&#x149;" horiz-adv-x="522" 
d="M494 363l-63 -363h-112l59 340q18 105 -67 105q-46 0 -78.5 -35.5t-42.5 -91.5l-56 -318h-112l68 387q12 69 18 125l113 13l-11 -73h2q62 81 157 81q76 0 107 -46t18 -124zM105 745q51 0 51 -56q0 -49 -34 -95q-35 -47 -80 -72l-25 30q20 14 38.5 36.5t25.5 40.5
q-44 3 -44 46q0 29 20.5 49.5t47.5 20.5z" />
    <glyph glyph-name="Eng" unicode="&#x14a;" horiz-adv-x="644" 
d="M27 0l126 718h121l160 -420l33 -96h2q27 163 89 516h116q-19 -107 -46 -241q-69 -363 -93 -530q-10 -77 -49 -124.5t-103 -47.5q-42 0 -84 17l9 93q35 -23 62 -23q23 0 34 17t20 58l10 54l-174 443l-28 85h-2l-30 -182l-59 -337h-114z" />
    <glyph glyph-name="eng" unicode="&#x14b;" horiz-adv-x="522" 
d="M494 362q-20 -116 -83 -453q-14 -65 -52.5 -99.5t-96.5 -34.5q-36 0 -79 17l5 82q34 -14 54 -14q50 0 63 72l74 410q1 5 1 23q0 81 -69 81q-47 0 -79 -34.5t-41 -89.5l-57 -322h-112q17 102 31 179l28 161l10 59q17 112 18 116l111 6l-10 -69h1l1 -1q61 82 156 82
q64 0 97 -34t33 -94q0 -16 -4 -43z" />
    <glyph glyph-name="Omacron" unicode="&#x14c;" horiz-adv-x="665" 
d="M424 732q232 0 232 -256q0 -50 -10 -117q-58 -373 -351 -373q-232 0 -232 249q0 57 12 124q30 181 118 277t231 96zM523 358q12 64 12 118q0 163 -126 163q-163 0 -212 -280q-12 -65 -12 -118q0 -162 125 -162q165 0 213 279zM591 891l-14 -82h-277l14 82h277z" />
    <glyph glyph-name="omacron" unicode="&#x14d;" horiz-adv-x="519" 
d="M495 259q-21 -129 -92.5 -201t-181.5 -72q-92 0 -139 50t-47 143q0 157 78 255q79 99 204 99q92 0 138.5 -50.5t46.5 -144.5q0 -43 -7 -79zM303 448q-66 0 -109 -76q-42 -75 -42 -190q0 -112 84 -112q65 0 109 74q44 76 44 191q0 113 -86 113zM489 700l-15 -83h-272
l15 83h272z" />
    <glyph glyph-name="Obreve" unicode="&#x14e;" horiz-adv-x="665" 
d="M424 732q232 0 232 -256q0 -50 -10 -117q-58 -373 -351 -373q-232 0 -232 249q0 57 12 124q30 181 118 277t231 96zM523 358q12 64 12 118q0 163 -126 163q-163 0 -212 -280q-12 -65 -12 -118q0 -162 125 -162q165 0 213 279zM446 843q30 0 52.5 23t27.5 54h74
q-9 -53 -54 -100q-43 -46 -113 -46q-67 0 -95 46t-19 100h72q-5 -30 10.5 -53.5t44.5 -23.5z" />
    <glyph glyph-name="obreve" unicode="&#x14f;" horiz-adv-x="519" 
d="M495 259q-21 -129 -92.5 -201t-181.5 -72q-92 0 -139 50t-47 143q0 157 78 255q79 99 204 99q92 0 138.5 -50.5t46.5 -144.5q0 -43 -7 -79zM303 448q-66 0 -109 -76q-42 -75 -42 -190q0 -112 84 -112q65 0 109 74q44 76 44 191q0 113 -86 113zM343 653q30 0 54.5 24.5
t30.5 56.5h71q-10 -54 -55 -102q-43 -46 -113 -46q-68 0 -96 46t-18 100h73q-5 -31 9.5 -55t43.5 -24z" />
    <glyph glyph-name="Ohungarumlaut" unicode="&#x150;" horiz-adv-x="665" 
d="M424 732q232 0 232 -256q0 -50 -10 -117q-58 -373 -351 -373q-232 0 -232 249q0 57 12 124q30 181 118 277t231 96zM523 358q12 64 12 118q0 163 -126 163q-163 0 -212 -280q-12 -65 -12 -118q0 -162 125 -162q165 0 213 279zM423 934h116l-146 -161h-70zM561 934h117
l-146 -161h-72z" />
    <glyph glyph-name="ohungarumlaut" unicode="&#x151;" horiz-adv-x="519" 
d="M495 259q-21 -129 -92.5 -201t-181.5 -72q-92 0 -139 50t-47 143q0 157 78 255q79 99 204 99q92 0 138.5 -50.5t46.5 -144.5q0 -43 -7 -79zM303 448q-66 0 -109 -76q-42 -75 -42 -190q0 -112 84 -112q65 0 109 74q44 76 44 191q0 113 -86 113zM338 750h116l-163 -165h-71
zM480 750h116l-163 -165h-71z" />
    <glyph glyph-name="OE" unicode="&#x152;" horiz-adv-x="879" 
d="M891 96l-16 -96h-417q-50 -14 -101 -14q-277 0 -219 373q28 183 113.5 278.5t224.5 95.5q60 0 109 -15h385l-43 -96h-266l-35 -202h258l-17 -96h-258l-41 -228h323zM372 79q44 0 78 19l92 523q-27 18 -70 18q-163 0 -212 -280t112 -280z" />
    <glyph glyph-name="oe" unicode="&#x153;" horiz-adv-x="835" 
d="M571 69q44 0 69 29.5t26 80.5l107 -32q-54 -161 -213 -161q-125 0 -158 88q-67 -88 -181 -88q-92 0 -139 50t-47 143q0 156 78 255t200 99q119 0 155 -89q28 42 75 65.5t104 23.5q76 0 119 -35t43 -99q0 -84 -83 -130.5t-236 -47.5q-3 -19 -3 -44q0 -49 20.5 -78.5
t63.5 -29.5zM303 448q-66 0 -109 -76q-42 -75 -42 -190q0 -112 84 -112q65 0 107 74q43 73 43 192q0 112 -83 112zM632 449q-42 0 -78 -42.5t-49 -106.5q192 2 192 93q0 27 -18 41.5t-47 14.5z" />
    <glyph glyph-name="Racute" unicode="&#x154;" horiz-adv-x="592" 
d="M392 306l129 -306h-131l-115 294h-78l-51 -294h-118l126 718h235q97 0 150.5 -47t53.5 -134q0 -93 -55 -157q-53 -63 -146 -74zM365 622h-110l-41 -232h112q65 0 105 34t40 98q0 51 -28.5 75.5t-77.5 24.5zM406 929h117l-147 -154h-72z" />
    <glyph glyph-name="racute" unicode="&#x155;" horiz-adv-x="346" 
d="M406 523l-48 -110q-22 6 -43 6q-48 0 -81.5 -32t-46.5 -87l-54 -300h-113l71 403q1 3 4 24t6 48.5t5 37.5l112 12q-6 -63 -12 -92h2q52 99 143 99q31 0 55 -9zM259 742h116l-147 -156h-72z" />
    <glyph glyph-name="Rcommaaccent" unicode="&#x156;" horiz-adv-x="592" 
d="M392 306l129 -306h-131l-115 294h-78l-51 -294h-118l126 718h235q97 0 150.5 -47t53.5 -134q0 -93 -55 -157q-53 -63 -146 -74zM365 622h-110l-41 -232h112q65 0 105 34t40 98q0 51 -28.5 75.5t-77.5 24.5zM251 -31q51 0 51 -56q0 -49 -34 -95q-35 -47 -80 -72l-25 30
q20 14 38.5 36.5t25.5 40.5q-44 3 -44 46q0 29 20.5 49.5t47.5 20.5z" />
    <glyph glyph-name="rcommaaccent" unicode="&#x157;" horiz-adv-x="346" 
d="M406 523l-48 -110q-22 6 -43 6q-48 0 -81.5 -32t-46.5 -87l-54 -300h-113l71 403q1 3 4 24t6 48.5t5 37.5l112 12q-6 -63 -12 -92h2q52 99 143 99q31 0 55 -9zM68 -39q51 0 51 -56q0 -49 -34 -95q-35 -47 -80 -72l-25 30q20 14 38.5 36.5t25.5 40.5q-44 3 -44 46
q0 29 20 49.5t48 20.5z" />
    <glyph glyph-name="Rcaron" unicode="&#x158;" horiz-adv-x="592" 
d="M392 306l129 -306h-131l-115 294h-78l-51 -294h-118l126 718h235q97 0 150.5 -47t53.5 -134q0 -93 -55 -157q-53 -63 -146 -74zM365 622h-110l-41 -232h112q65 0 105 34t40 98q0 51 -28.5 75.5t-77.5 24.5zM315 783l-94 134h80l72 -80l105 80h80l-142 -134h-101z" />
    <glyph glyph-name="rcaron" unicode="&#x159;" horiz-adv-x="346" 
d="M406 523l-48 -110q-22 6 -43 6q-48 0 -81.5 -32t-46.5 -87l-54 -300h-113l71 403q1 3 4 24t6 48.5t5 37.5l112 12q-6 -63 -12 -92h2q52 99 143 99q31 0 55 -9zM181 583l-86 150h79l69 -94l102 94h80l-142 -150h-102z" />
    <glyph glyph-name="Sacute" unicode="&#x15a;" horiz-adv-x="567" 
d="M369 732q92 0 149 -48q58 -48 58 -131q0 -5 -2 -31q-28 -5 -126 -22q8 30 8 51q0 42 -26.5 65t-76.5 23q-43 0 -81 -29q-37 -28 -37 -80q0 -56 106 -97q40 -15 67 -28t60 -37t50 -58t17 -78q0 -114 -78 -180t-200 -66q-104 0 -159.5 51t-55.5 141q0 30 4 50l129 27
q-14 -42 -14 -74q0 -48 27.5 -75.5t80.5 -27.5q67 0 102 36.5t35 96.5q0 70 -105 111q-95 37 -128 61q-62 48 -63 120q0 100 74 165q73 64 185 64zM426 929h117l-147 -154h-72z" />
    <glyph glyph-name="sacute" unicode="&#x15b;" horiz-adv-x="441" 
d="M276 533q72 0 113.5 -34.5t41.5 -97.5q0 -16 -1 -21l-53 -13l-53 -13q6 24 6 32q0 30 -18.5 44t-60.5 14q-26 0 -48 -18t-22 -46q0 -22 22.5 -37.5t55 -27.5t65 -26.5t55 -43.5t22.5 -69q0 -80 -63 -135q-62 -55 -160 -55q-161 0 -161 141q0 23 4 40l113 24
q-13 -29 -13 -58q0 -31 18 -48.5t53 -17.5q41 0 67.5 25t26.5 59q0 47 -76 75q-74 29 -98 48q-41 34 -41 88q0 85 61 128t144 43zM320 742h116l-147 -156h-72z" />
    <glyph glyph-name="Scircumflex" unicode="&#x15c;" horiz-adv-x="567" 
d="M369 732q92 0 149 -48q58 -48 58 -131q0 -5 -2 -31q-28 -5 -126 -22q8 30 8 51q0 42 -26.5 65t-76.5 23q-43 0 -81 -29q-37 -28 -37 -80q0 -56 106 -97q40 -15 67 -28t60 -37t50 -58t17 -78q0 -114 -78 -180t-200 -66q-104 0 -159.5 51t-55.5 141q0 30 4 50l129 27
q-14 -42 -14 -74q0 -48 27.5 -75.5t80.5 -27.5q67 0 102 36.5t35 96.5q0 70 -105 111q-95 37 -128 61q-62 48 -63 120q0 100 74 165q73 64 185 64zM460 916l96 -134h-82l-76 78l-101 -78h-79l141 134h101z" />
    <glyph glyph-name="scircumflex" unicode="&#x15d;" horiz-adv-x="441" 
d="M276 533q72 0 113.5 -34.5t41.5 -97.5q0 -16 -1 -21l-53 -13l-53 -13q6 24 6 32q0 30 -18.5 44t-60.5 14q-26 0 -48 -18t-22 -46q0 -22 22.5 -37.5t55 -27.5t65 -26.5t55 -43.5t22.5 -69q0 -80 -63 -135q-62 -55 -160 -55q-161 0 -161 141q0 23 4 40l113 24
q-13 -29 -13 -58q0 -31 18 -48.5t53 -17.5q41 0 67.5 25t26.5 59q0 47 -76 75q-74 29 -98 48q-41 34 -41 88q0 85 61 128t144 43zM357 735l89 -150h-78l-70 97l-102 -97h-81l141 150h101z" />
    <glyph glyph-name="Scedilla" unicode="&#x15e;" horiz-adv-x="567" 
d="M369 732q92 0 149 -48q58 -48 58 -131q0 -5 -2 -31q-28 -5 -126 -22q8 30 8 51q0 42 -26.5 65t-76.5 23q-43 0 -81 -29q-37 -28 -37 -80q0 -56 106 -97q40 -15 67 -28t60 -37t50 -58t17 -78q0 -112 -76 -178q-76 -67 -194 -68l-30 -40q38 -5 60 -23.5t22 -46.5
q0 -43 -35 -65.5t-90 -22.5q-47 0 -83 16q-1 10 -1 46q29 -16 76 -16q23 0 40 10t17 29q0 28 -56 39l-9 14l46 62q-88 8 -134 57.5t-46 132.5q0 30 4 50l129 27q-14 -42 -14 -74q0 -48 27.5 -75.5t80.5 -27.5q67 0 102 36.5t35 96.5q0 70 -105 111q-95 37 -128 61
q-62 48 -63 120q0 100 74 165q73 64 185 64z" />
    <glyph glyph-name="scedilla" unicode="&#x15f;" horiz-adv-x="441" 
d="M276 533q72 0 113.5 -34.5t41.5 -97.5q0 -16 -1 -21l-53 -13l-53 -13q6 24 6 32q0 30 -18.5 44t-60.5 14q-26 0 -48 -18t-22 -46q0 -22 22.5 -37.5t55 -27.5t65 -26.5t55 -43.5t22.5 -69q0 -74 -54 -127q-55 -54 -140 -61q-19 -24 -31 -42q38 -5 60 -23.5t22 -46.5
q0 -43 -35 -65.5t-90 -22.5q-47 0 -83 16q-1 10 -1 46q29 -16 76 -16q23 0 40 10t17 29q0 28 -56 39l-9 14l46 61q-146 6 -146 140q0 23 4 40l113 24q-13 -29 -13 -58q0 -31 18 -48.5t53 -17.5q41 0 67.5 25t26.5 59q0 47 -76 75q-74 29 -98 48q-41 34 -41 88q0 85 61 128
t144 43z" />
    <glyph glyph-name="Scaron" unicode="&#x160;" horiz-adv-x="567" 
d="M369 732q92 0 149 -48q58 -48 58 -131q0 -5 -2 -31q-28 -5 -126 -22q8 30 8 51q0 42 -26.5 65t-76.5 23q-43 0 -81 -29q-37 -28 -37 -80q0 -56 106 -97q40 -15 67 -28t60 -37t50 -58t17 -78q0 -114 -78 -180t-200 -66q-104 0 -159.5 51t-55.5 141q0 30 4 50l129 27
q-14 -42 -14 -74q0 -48 27.5 -75.5t80.5 -27.5q67 0 102 36.5t35 96.5q0 70 -105 111q-95 37 -128 61q-62 48 -63 120q0 100 74 165q73 64 185 64zM334 783l-94 134h80l72 -80l105 80h80l-142 -134h-101z" />
    <glyph glyph-name="scaron" unicode="&#x161;" horiz-adv-x="441" 
d="M276 533q72 0 113.5 -34.5t41.5 -97.5q0 -16 -1 -21l-53 -13l-53 -13q6 24 6 32q0 30 -18.5 44t-60.5 14q-26 0 -48 -18t-22 -46q0 -22 22.5 -37.5t55 -27.5t65 -26.5t55 -43.5t22.5 -69q0 -80 -63 -135q-62 -55 -160 -55q-161 0 -161 141q0 23 4 40l113 24
q-13 -29 -13 -58q0 -31 18 -48.5t53 -17.5q41 0 67.5 25t26.5 59q0 47 -76 75q-74 29 -98 48q-41 34 -41 88q0 85 61 128t144 43zM237 583l-86 150h79l69 -94l102 94h80l-142 -150h-102z" />
    <glyph glyph-name="Tcommaaccent" unicode="&#x162;" horiz-adv-x="526" 
d="M613 718l-44 -96h-175l-109 -622h-41q-10 -12 -41 -54q38 -5 60 -23.5t22 -46.5q0 -43 -35 -65.5t-90 -22.5q-47 0 -83 16q-1 10 -1 46q29 -16 76 -16q23 0 40 10t17 29q0 28 -56 39l-9 14l56 74h-32l109 622h-190l17 96h509z" />
    <glyph glyph-name="tcommaaccent" unicode="&#x163;" horiz-adv-x="335" 
d="M316 104l-15 -46l-16 -48q-48 -22 -102 -22q-27 0 -47 6q-24 -31 -31 -41q38 -5 60 -23.5t22 -46.5q0 -43 -35 -65.5t-90 -22.5q-47 0 -83 16q-1 10 -1 46q29 -16 76 -16q23 0 40 10t17 29q0 28 -56 39l-9 14l59 78q-29 24 -29 78q0 2 2 28q6 47 15 99l21 118l18 100h-79
l15 85h82l24 140l118 47l-32 -187h102l-16 -85h-102l-51 -292q-2 -12 -2 -23q0 -41 38 -41q30 0 87 26z" />
    <glyph glyph-name="Tcaron" unicode="&#x164;" horiz-adv-x="526" 
d="M613 718l-44 -96h-175l-109 -622h-117l109 622h-190l17 96h509zM314 783l-94 134h80l72 -80l105 80h80l-142 -134h-101z" />
    <glyph glyph-name="tcaron" unicode="&#x165;" horiz-adv-x="390" 
d="M313 104l-15 -46l-16 -48q-48 -22 -102 -22q-107 0 -107 101q0 2 2 28q6 47 15 99l21 118l18 100h-79l15 85h82l24 140l118 47l-32 -187h102l-16 -85h-102l-51 -292q-2 -12 -2 -23q0 -41 38 -41q30 0 87 26zM432 789q51 0 51 -56q0 -49 -34 -95q-35 -47 -80 -72l-25 30
q20 14 38.5 36.5t25.5 40.5q-44 3 -44 46q0 29 20 49.5t48 20.5z" />
    <glyph glyph-name="Tbar" unicode="&#x166;" horiz-adv-x="526" 
d="M613 718l-44 -96h-175l-34 -193h150l-13 -70h-149l-63 -359h-117l63 359q-43 0 -77 -1h-75l12 71h152l34 193h-190l17 96h509z" />
    <glyph glyph-name="tbar" unicode="&#x167;" horiz-adv-x="335" 
d="M316 104l-15 -46l-16 -48q-48 -22 -102 -22q-107 0 -107 101q0 2 2 28q9 67 21 135h-75q0 6 4 29q3 20 8 41h75l21 112h-79l15 85h82l24 140l118 47l-32 -187h102l-16 -85h-102l-20 -112h101l-12 -70h-101l-19 -110q-2 -12 -2 -23q0 -41 38 -41q30 0 87 26z" />
    <glyph glyph-name="Utilde" unicode="&#x168;" horiz-adv-x="630" 
d="M660 718l-84 -479q-46 -253 -290 -253q-107 0 -165 50.5t-58 146.5q0 28 7 69l81 466h118l-84 -475q-4 -19 -4 -45q0 -53 27 -83t75 -30q73 0 117.5 41t57.5 117l84 475h118zM548 902l35 -45q-15 -29 -40 -48t-54 -19q-24 0 -66 16q-45 17 -63 17q-36 0 -57 -38l-42 41
q14 28 43 49.5t58 21.5q25 1 68 -16q41 -16 60 -16q37 0 58 37z" />
    <glyph glyph-name="utilde" unicode="&#x169;" horiz-adv-x="518" 
d="M429 0h-110q1 28 8 67h-2q-59 -81 -155 -81q-64 0 -96 32t-32 91q0 27 4 46l63 356q95 11 114 14l-61 -345q-3 -18 -3 -34q0 -73 69 -73q44 0 76.5 35t42.5 89l56 322h113l-71 -410q-16 -77 -16 -109zM467 726l35 -45q-15 -29 -40 -48t-54 -19q-25 0 -66 16
q-43 17 -63 17q-36 0 -57 -38l-42 41q14 28 43 49.5t58 21.5q25 1 68 -16q41 -16 60 -16q37 0 58 37z" />
    <glyph glyph-name="Umacron" unicode="&#x16a;" horiz-adv-x="630" 
d="M660 718l-84 -479q-46 -253 -290 -253q-107 0 -165 50.5t-58 146.5q0 28 7 69l81 466h118l-84 -475q-4 -19 -4 -45q0 -53 27 -83t75 -30q73 0 117.5 41t57.5 117l84 475h118zM575 891l-14 -82h-277l14 82h277z" />
    <glyph glyph-name="umacron" unicode="&#x16b;" horiz-adv-x="518" 
d="M429 0h-110q1 28 8 67h-2q-59 -81 -155 -81q-64 0 -96 32t-32 91q0 27 4 46l63 356q95 11 114 14l-61 -345q-3 -18 -3 -34q0 -73 69 -73q44 0 76.5 35t42.5 89l56 322h113l-71 -410q-16 -77 -16 -109zM481 709l-15 -83h-272l15 83h272z" />
    <glyph glyph-name="Ubreve" unicode="&#x16c;" horiz-adv-x="630" 
d="M660 718l-84 -479q-46 -253 -290 -253q-107 0 -165 50.5t-58 146.5q0 28 7 69l81 466h118l-84 -475q-4 -19 -4 -45q0 -53 27 -83t75 -30q73 0 117.5 41t57.5 117l84 475h118zM420 843q30 0 52.5 23t27.5 54h74q-9 -53 -54 -100q-43 -46 -113 -46q-67 0 -95 46t-19 100h72
q-5 -30 10.5 -53.5t44.5 -23.5z" />
    <glyph glyph-name="ubreve" unicode="&#x16d;" horiz-adv-x="518" 
d="M429 0h-110q1 28 8 67h-2q-59 -81 -155 -81q-64 0 -96 32t-32 91q0 27 4 46l63 356q95 11 114 14l-61 -345q-3 -18 -3 -34q0 -73 69 -73q44 0 76.5 35t42.5 89l56 322h113l-71 -410q-16 -77 -16 -109zM334 653q30 0 54.5 24.5t30.5 56.5h71q-10 -54 -55 -102
q-43 -46 -113 -46q-68 0 -96 46t-18 100h73q-5 -31 9.5 -55t43.5 -24z" />
    <glyph glyph-name="Uring" unicode="&#x16e;" horiz-adv-x="630" 
d="M660 718l-84 -479q-46 -253 -290 -253q-107 0 -165 50.5t-58 146.5q0 28 7 69l81 466h118l-84 -475q-4 -19 -4 -45q0 -53 27 -83t75 -30q73 0 117.5 41t57.5 117l84 475h118zM331 860q7 42 43 75q34 31 78 31q39 0 63.5 -24t24.5 -61q0 -49 -38 -87q-37 -37 -86 -37
q-39 0 -63 24t-24 60q0 3 2 19zM383 861q-1 -2 -1 -9q0 -18 12 -30.5t31 -12.5q23 0 42 19t19 42q0 18 -12 30.5t-31 12.5q-20 0 -38 -16t-22 -36z" />
    <glyph glyph-name="uring" unicode="&#x16f;" horiz-adv-x="518" 
d="M429 0h-110q1 28 8 67h-2q-59 -81 -155 -81q-64 0 -96 32t-32 91q0 27 4 46l63 356q95 11 114 14l-61 -345q-3 -18 -3 -34q0 -73 69 -73q44 0 76.5 35t42.5 89l56 322h113l-71 -410q-16 -77 -16 -109zM237 676q7 42 43 75q34 31 78 31q39 0 63.5 -24t24.5 -61
q0 -49 -38 -87q-37 -37 -86 -37q-39 0 -63 24t-24 60q0 3 2 19zM289 677q-1 -2 -1 -9q0 -18 12 -30.5t31 -12.5q23 0 42 19t19 42q0 18 -12 30.5t-31 12.5q-20 0 -38 -16t-22 -36z" />
    <glyph glyph-name="Uhungarumlaut" unicode="&#x170;" horiz-adv-x="630" 
d="M660 718l-84 -479q-46 -253 -290 -253q-107 0 -165 50.5t-58 146.5q0 28 7 69l81 466h118l-84 -475q-4 -19 -4 -45q0 -53 27 -83t75 -30q73 0 117.5 41t57.5 117l84 475h118zM391 934h116l-146 -161h-70zM529 934h117l-146 -161h-72z" />
    <glyph glyph-name="uhungarumlaut" unicode="&#x171;" horiz-adv-x="518" 
d="M429 0h-110q1 28 8 67h-2q-59 -81 -155 -81q-64 0 -96 32t-32 91q0 27 4 46l63 356q95 11 114 14l-61 -345q-3 -18 -3 -34q0 -73 69 -73q44 0 76.5 35t42.5 89l56 322h113l-71 -410q-16 -77 -16 -109zM462 750h116l-163 -165h-71zM320 750h116l-163 -165h-71z" />
    <glyph glyph-name="Uogonek" unicode="&#x172;" horiz-adv-x="630" 
d="M660 718l-84 -479q-43 -243 -272 -252q-57 -65 -57 -111q0 -37 46 -37q24 0 66 11l-7 -39q-44 -25 -99 -25q-40 0 -62.5 15.5t-22.5 44.5q0 70 86 141q-191 17 -191 196q0 28 7 69l81 466h118l-84 -475q-4 -19 -4 -45q0 -53 27 -83t75 -30q73 0 117.5 41t57.5 117l84 475
h118z" />
    <glyph glyph-name="uogonek" unicode="&#x173;" horiz-adv-x="518" 
d="M429 0h-67q-57 -64 -57 -110q0 -37 46 -37q24 0 66 11l-7 -39q-44 -25 -99 -25q-40 0 -62.5 15.5t-22.5 44.5q0 74 93 147q1 28 8 60h-2q-59 -81 -155 -81q-64 0 -96 32t-32 91q0 27 4 46l63 356q95 11 114 14l-61 -345q-3 -18 -3 -34q0 -73 69 -73q44 0 76.5 35t42.5 89
l56 322h113l-71 -410q-16 -77 -16 -109z" />
    <glyph glyph-name="Wcircumflex" unicode="&#x174;" horiz-adv-x="881" 
d="M505 547h-4q-22 -68 -54 -139l-168 -408h-139l-43 718h124q14 -496 14 -497q0 -2 -2 -92h3q24 69 62 163l174 426h119l25 -432q5 -118 5 -157h3q17 60 35 106q27 63 29 73l155 410h123l-297 -718h-133l-25 408l-4 51q-2 34 -3 44q0 22 1 44zM616 916l96 -134h-82l-76 78
l-101 -78h-79l141 134h101z" />
    <glyph glyph-name="wcircumflex" unicode="&#x175;" horiz-adv-x="752" 
d="M690 519h109l-235 -519h-121l-18 285q-7 76 -4 143h-3q-29 -80 -55 -140l-122 -288h-127l-50 512l117 17l15 -314q2 -42 2 -117h2q22 68 49 123l125 298h125l18 -300q4 -97 4 -119h2q37 100 46 121zM522 735l89 -150h-78l-70 97l-102 -97h-81l141 150h101z" />
    <glyph glyph-name="Ycircumflex" unicode="&#x176;" horiz-adv-x="564" 
d="M518 718h133l-295 -436l-50 -282h-118l49 281l-142 437h130l62 -232q14 -47 22 -108l2 2q18 37 61 106zM450 916l96 -134h-82l-76 78l-101 -78h-79l141 134h101z" />
    <glyph glyph-name="ycircumflex" unicode="&#x177;" horiz-adv-x="460" 
d="M217 123h5l47 109l130 287h113l-238 -482q-49 -108 -93 -163q-50 -67 -124 -67q-27 0 -57 8q-3 70 -5 90q25 -7 50 -7q19 2 27.5 4t18 7.5t16.5 15.5l12 17l12 24l12 25l-84 520q23 5 66 9l50 6l32 -287q8 -72 10 -116zM376 735l89 -150h-78l-70 97l-102 -97h-81l141 150
h101z" />
    <glyph glyph-name="Ydieresis" unicode="&#x178;" horiz-adv-x="564" 
d="M518 718h133l-295 -436l-50 -282h-118l49 281l-142 437h130l62 -232q14 -47 22 -108l2 2q18 37 61 106zM322 918q23 0 38 -15t15 -38q0 -32 -23.5 -55.5t-53.5 -23.5q-24 0 -39 15t-15 38q0 32 23.5 55.5t54.5 23.5zM504 919q24 0 39 -15t15 -39q0 -32 -23 -55t-54 -23
q-25 0 -40.5 15.5t-15.5 38.5q0 30 24.5 54t54.5 24z" />
    <glyph glyph-name="Zacute" unicode="&#x179;" horiz-adv-x="525" 
d="M479 96l-16 -96h-471l16 94l384 468q35 44 58 64q-36 -4 -84 -4h-248l38 96h427l-18 -100l-360 -444q-44 -51 -75 -82q23 4 86 4h263zM414 929h117l-147 -154h-72z" />
    <glyph glyph-name="zacute" unicode="&#x17a;" horiz-adv-x="428" 
d="M380 86l-15 -86h-375l14 86l274 308q21 24 43 42q-13 -3 -57 -3h-188l31 86h345l-15 -85l-278 -315l-38 -36q30 3 51 3h208zM333 742h116l-147 -156h-72z" />
    <glyph glyph-name="Zdotaccent" unicode="&#x17b;" horiz-adv-x="525" 
d="M479 96l-16 -96h-471l16 94l384 468q35 44 58 64q-36 -4 -84 -4h-248l38 96h427l-18 -100l-360 -444q-44 -51 -75 -82q23 4 86 4h263zM406 918q26 0 42 -16t16 -41q0 -35 -24.5 -59.5t-57.5 -24.5q-27 0 -43 16t-16 40q0 35 25 60t58 25z" />
    <glyph glyph-name="zdotaccent" unicode="&#x17c;" horiz-adv-x="428" 
d="M380 86l-15 -86h-375l14 86l274 308q21 24 43 42q-13 -3 -57 -3h-188l31 86h345l-15 -85l-278 -315l-38 -36q30 3 51 3h208zM323 742q26 0 42 -16t16 -41q0 -35 -24.5 -59.5t-57.5 -24.5q-27 0 -43 16t-16 40q0 35 25 60t58 25z" />
    <glyph glyph-name="Zcaron" unicode="&#x17d;" horiz-adv-x="525" 
d="M479 96l-16 -96h-471l16 94l384 468q35 44 58 64q-36 -4 -84 -4h-248l38 96h427l-18 -100l-360 -444q-44 -51 -75 -82q23 4 86 4h263zM323 783l-94 134h80l72 -80l105 80h80l-142 -134h-101z" />
    <glyph glyph-name="zcaron" unicode="&#x17e;" horiz-adv-x="428" 
d="M380 86l-15 -86h-375l14 86l274 308q21 24 43 42q-13 -3 -57 -3h-188l31 86h345l-15 -85l-278 -315l-38 -36q30 3 51 3h208zM233 583l-86 150h79l69 -94l102 94h80l-142 -150h-102z" />
    <glyph glyph-name="florin" unicode="&#x192;" 
d="M221 362h-82l6 83h92l12 58l15 69q10 32 23 63q18 40 35 59q47 53 129 53q47 0 72 -11l-9 -90q-27 9 -48 9q-34 -3 -53.5 -18t-32.5 -48q-12 -40 -13 -42q-1 -5 -2.5 -12t-4 -18.5t-4.5 -20.5l-12 -51h96l-6 -83h-106l-26 -120q-18 -83 -30 -134q-31 -106 -71 -155
q-37 -48 -111 -48q-46 0 -82 16l7 86q31 -9 54 -9q40 0 58.5 24t36.5 91q21 79 57 249z" />
    <glyph glyph-name="AEacute" unicode="&#x1fc;" horiz-adv-x="944" 
d="M908 96l-16 -96h-449l30 172h-261l-127 -172h-125l544 718h474l-41 -96h-266l-35 -202h260l-17 -96h-260l-40 -228h329zM283 267h208l62 355h-5zM746 929h117l-147 -154h-72z" />
    <glyph glyph-name="aeacute" unicode="&#x1fd;" horiz-adv-x="770" 
d="M519 69q44 0 69 29.5t26 80.5l107 -32q-54 -161 -213 -161q-128 0 -163 101q-72 -101 -201 -101q-64 0 -97.5 30t-33.5 86q0 209 322 210l9 55q2 18 2 21q0 62 -69 62q-88 0 -99 -92l-94 33q24 71 79 107t134 36q107 0 133 -75q60 74 165 74q76 0 119 -35t43 -99
q0 -84 -82 -130t-232 -46q-12 -78 5.5 -116t70.5 -38zM580 449q-42 0 -78 -42.5t-49 -106.5q192 2 192 93q0 27 -18 41.5t-47 14.5zM313 194l8 43q-192 0 -192 -111q0 -59 60 -59q49 0 80.5 34.5t43.5 92.5zM509 742h116l-147 -156h-72z" />
    <glyph glyph-name="Oslashacute" unicode="&#x1fe;" horiz-adv-x="665" 
d="M463 929h117l-147 -154h-72zM400 732q117 0 174 -65l44 51h64l-80 -92q30 -62 30 -150q0 -50 -10 -117q-58 -373 -351 -373q-117 0 -175 64q-17 -17 -44 -50h-63l80 90q-30 58 -30 146q0 56 12 123q30 181 118 277t231 96zM499 358q11 66 11 109q0 24 -4 52l-328 -376
q28 -64 108 -64q165 0 213 279zM173 359q-11 -69 -11 -112q0 -26 3 -47l329 375q-30 64 -109 64q-163 0 -212 -280z" />
    <glyph glyph-name="oslashacute" unicode="&#x1ff;" horiz-adv-x="519" 
d="M471 259q-22 -129 -93 -201t-181 -72q-83 0 -130 41l-25 -27h-60l57 61q-27 47 -27 118q0 156 78 255q80 99 203 99q91 0 137 -49l33 35h59l-66 -71q23 -48 23 -109q0 -32 -8 -80zM279 448q-40 0 -71 -27t-47.5 -69t-24.5 -84.5t-8 -80.5q0 -5 2 -29l222 242
q-21 48 -73 48zM355 259q6 41 6 74v13l-218 -238q21 -38 69 -38q108 0 143 189zM349 742h116l-147 -156h-72z" />
    <glyph glyph-name="Scommaaccent" unicode="&#x218;" horiz-adv-x="567" 
d="M369 732q92 0 149 -48q58 -48 58 -131q0 -5 -2 -31q-28 -5 -126 -22q8 30 8 51q0 42 -26.5 65t-76.5 23q-43 0 -81 -29q-37 -28 -37 -80q0 -56 106 -97q40 -15 67 -28t60 -37t50 -58t17 -78q0 -114 -78 -180t-200 -66q-104 0 -159.5 51t-55.5 141q0 30 4 50l129 27
q-14 -42 -14 -74q0 -48 27.5 -75.5t80.5 -27.5q67 0 102 36.5t35 96.5q0 70 -105 111q-95 37 -128 61q-62 48 -63 120q0 100 74 165q73 64 185 64zM234 -47q51 0 51 -56q0 -49 -34 -95q-35 -47 -80 -72l-25 30q20 14 38.5 36.5t25.5 40.5q-44 3 -44 46q0 29 20 49.5t48 20.5
z" />
    <glyph glyph-name="scommaaccent" unicode="&#x219;" horiz-adv-x="441" 
d="M276 533q72 0 113.5 -34.5t41.5 -97.5q0 -16 -1 -21l-53 -13l-53 -13q6 24 6 32q0 30 -18.5 44t-60.5 14q-26 0 -48 -18t-22 -46q0 -22 22.5 -37.5t55 -27.5t65 -26.5t55 -43.5t22.5 -69q0 -80 -63 -135q-62 -55 -160 -55q-161 0 -161 141q0 23 4 40l113 24
q-13 -29 -13 -58q0 -31 18 -48.5t53 -17.5q41 0 67.5 25t26.5 59q0 47 -76 75q-74 29 -98 48q-41 34 -41 88q0 85 61 128t144 43zM174 -47q51 0 51 -56q0 -49 -34 -95q-35 -47 -80 -72l-25 30q20 14 38.5 36.5t25.5 40.5q-44 3 -44 46q0 29 20 49.5t48 20.5z" />
    <glyph glyph-name="uni021A" unicode="&#x21a;" horiz-adv-x="526" 
d="M613 718l-44 -96h-175l-109 -622h-117l109 622h-190l17 96h509zM214 -47q51 0 51 -56q0 -49 -34 -95q-35 -47 -80 -72l-25 30q20 14 38.5 36.5t25.5 40.5q-44 3 -44 46q0 29 20 49.5t48 20.5z" />
    <glyph glyph-name="uni021B" unicode="&#x21b;" horiz-adv-x="335" 
d="M316 104l-15 -46l-16 -48q-48 -22 -102 -22q-107 0 -107 101q0 2 2 28q6 47 15 99l21 118l18 100h-79l15 85h82l24 140l118 47l-32 -187h102l-16 -85h-102l-51 -292q-2 -12 -2 -23q0 -41 38 -41q30 0 87 26zM104 -47q51 0 51 -56q0 -49 -34 -95q-35 -47 -80 -72l-25 30
q20 14 38.5 36.5t25.5 40.5q-44 3 -44 46q0 29 20 49.5t48 20.5z" />
    <glyph glyph-name="schwa" unicode="&#x259;" horiz-adv-x="481" 
d="M260 450q-43 0 -68.5 -30.5t-26.5 -80.5l-107 32q27 80 82 121t131 41q186 0 186 -200q0 -58 -16.5 -116.5t-48 -111.5t-86 -86t-122.5 -33q-76 0 -119 34.5t-43 98.5q0 84 82.5 130.5t235.5 47.5q4 15 4 44q0 48 -20.5 78.5t-63.5 30.5zM198 69q44 0 78 43q37 44 50 106
q-192 -2 -192 -93q0 -27 18 -41.5t46 -14.5z" />
    <glyph glyph-name="primemod" unicode="&#x2b9;" horiz-adv-x="243" 
d="M270 726h117l-215 -272h-71z" />
    <glyph glyph-name="circumflex" unicode="&#x2c6;" horiz-adv-x="513" 
d="M401 735l89 -150h-78l-70 97l-102 -97h-81l141 150h101z" />
    <glyph glyph-name="caron" unicode="&#x2c7;" horiz-adv-x="451" 
d="M246 583l-86 150h79l69 -94l102 94h80l-142 -150h-102z" />
    <glyph glyph-name="breve" unicode="&#x2d8;" horiz-adv-x="520" 
d="M357 653q30 0 54.5 24.5t30.5 56.5h71q-10 -54 -55 -102q-43 -46 -113 -46q-68 0 -96 46t-18 100h73q-5 -31 9.5 -55t43.5 -24z" />
    <glyph glyph-name="dotaccent" unicode="&#x2d9;" horiz-adv-x="493" 
d="M338 742q26 0 42 -16t16 -41q0 -35 -24.5 -59.5t-57.5 -24.5q-27 0 -43 16t-16 40q0 35 25 60t58 25z" />
    <glyph glyph-name="ring" unicode="&#x2da;" horiz-adv-x="494" 
d="M235 676q7 42 43 75q34 31 78 31q39 0 63.5 -24t24.5 -61q0 -49 -38 -87q-37 -37 -86 -37q-39 0 -63 24t-24 60q0 3 2 19zM287 677q-1 -2 -1 -9q0 -18 12 -30.5t31 -12.5q23 0 42 19t19 42q0 18 -12 30.5t-31 12.5q-20 0 -38 -16t-22 -36z" />
    <glyph glyph-name="ogonek" unicode="&#x2db;" horiz-adv-x="476" 
d="M242 42l15 -17q-36 -32 -60.5 -72.5t-24.5 -65.5q0 -37 46 -37q24 0 66 11l-7 -39q-44 -25 -99 -25q-40 0 -62.5 15.5t-22.5 44.5q0 42 37.5 92t111.5 93z" />
    <glyph glyph-name="tilde" unicode="&#x2dc;" horiz-adv-x="490" 
d="M453 726l35 -45q-15 -29 -40 -48t-54 -19q-25 0 -66 16q-43 17 -63 17q-36 0 -57 -38l-42 41q14 28 43 49.5t58 21.5q25 1 68 -16q41 -16 60 -16q37 0 58 37z" />
    <glyph glyph-name="hungarumlaut" unicode="&#x2dd;" horiz-adv-x="406" 
d="M265 750h116l-163 -165h-71zM407 750h116l-163 -165h-71z" />
    <glyph glyph-name="tonos" unicode="&#x384;" horiz-adv-x="326" 
d="M282 748h117l-152 -159h-71z" />
    <glyph glyph-name="dieresistonos" unicode="&#x385;" horiz-adv-x="423" 
d="M298 758h116l-158 -173h-72zM159 737q25 0 40 -15.5t15 -39.5q0 -32 -24 -55.5t-55 -23.5q-25 0 -40.5 15t-15.5 38q0 33 24 57t56 24zM455 738q24 0 39 -15.5t15 -38.5q0 -33 -23.5 -57t-54.5 -24q-25 0 -40.5 15t-15.5 38q0 33 24 57.5t56 24.5z" />
    <glyph glyph-name="Alphatonos" unicode="&#x386;" horiz-adv-x="613" 
d="M463 718l105 -718h-121q-1 8 -2.5 20.5t-4 31t-4.5 33.5t-5.5 45t-5.5 41h-252l-82 -171h-117l354 718h135zM216 267h199q-15 128 -19 153q-3 32 -8 67l-10 119h-3q-54 -122 -73 -161zM104 719h117l-152 -159h-71z" />
    <glyph glyph-name="anoteleia" unicode="&#x387;" horiz-adv-x="237" 
d="M171 503q26 0 43 -16.5t17 -42.5q0 -35 -25.5 -60t-59.5 -25q-27 0 -43 16.5t-16 41.5q0 35 25.5 60.5t58.5 25.5z" />
    <glyph glyph-name="Epsilontonos" unicode="&#x388;" 
d="M486 96l-16 -96h-442l126 718h412l-42 -96h-269l-35 -202h262l-17 -96h-262l-40 -228h323zM-20 719h117l-152 -159h-71z" />
    <glyph glyph-name="Etatonos" unicode="&#x389;" horiz-adv-x="623" 
d="M651 718l-126 -718h-118l57 328h-260l-57 -328h-118l126 718h118l-52 -293h260l52 293h118zM-19 719h117l-152 -159h-71z" />
    <glyph glyph-name="Iotatonos" unicode="&#x38a;" horiz-adv-x="257" 
d="M279 718l-126 -718h-119l126 718h119zM-13 719h117l-152 -159h-71z" />
    <glyph glyph-name="Omicrontonos" unicode="&#x38c;" horiz-adv-x="665" 
d="M424 732q232 0 232 -256q0 -50 -10 -117q-58 -373 -351 -373q-232 0 -232 249q0 57 12 124q30 181 118 277t231 96zM523 358q12 64 12 118q0 163 -126 163q-163 0 -212 -280q-12 -65 -12 -118q0 -162 125 -162q165 0 213 279zM16 719h117l-152 -159h-71z" />
    <glyph glyph-name="Upsilontonos" unicode="&#x38e;" horiz-adv-x="564" 
d="M518 718h133l-295 -436l-50 -282h-118l49 281l-142 437h130l62 -232q14 -47 22 -108l2 2q18 37 61 106zM-44 719h117l-152 -159h-71z" />
    <glyph glyph-name="Omegatonos" unicode="&#x38f;" horiz-adv-x="676" 
d="M424 731q120 0 179.5 -69.5t59.5 -196.5q0 -124 -43.5 -220t-121.5 -150q12 1 53 1h57q-14 -76 -17 -96h-252q5 24 19 111q132 31 176 267q9 53 9 97q0 165 -128 165q-165 0 -212 -261q-11 -68 -11 -107q0 -136 91 -161l-19 -111h-251l16 96h60q45 0 57 -1
q-75 59 -75 196q0 44 9 92q30 169 116 258.5t228 89.5zM11 719h117l-152 -159h-71z" />
    <glyph glyph-name="iotadieresistonos" unicode="&#x390;" horiz-adv-x="233" 
d="M205 758h116l-158 -173h-72zM66 737q25 0 40 -15.5t15 -39.5q0 -32 -24 -55.5t-55 -23.5q-25 0 -40.5 15t-15.5 38q0 33 24 57t56 24zM362 738q24 0 39 -15.5t15 -38.5q0 -33 -23.5 -57t-54.5 -24q-25 0 -40.5 15t-15.5 38q0 33 24 57.5t56 24.5zM116 -13q-41 0 -60 19.5
t-17 49.5t7 66l69 391l115 13l-75 -418q-7 -36 25 -36q14 0 30 6l-26 -77q-31 -14 -68 -14z" />
    <glyph glyph-name="Alpha" unicode="&#x391;" horiz-adv-x="613" 
d="M463 718l105 -718h-121q-1 8 -2.5 20.5t-4 31t-4.5 33.5t-5.5 45t-5.5 41h-252l-82 -171h-117l354 718h135zM216 267h199q-15 128 -19 153q-3 32 -8 67l-10 119h-3q-54 -122 -73 -161z" />
    <glyph glyph-name="Beta" unicode="&#x392;" horiz-adv-x="594" 
d="M29 0l126 718h236q28 0 53 -4t51.5 -14.5t45.5 -27t31.5 -44.5t12.5 -64q0 -69 -42.5 -120t-109.5 -66v-2q55 -11 86 -48.5t31 -97.5q0 -105 -76 -168q-77 -62 -185 -62h-260zM356 622h-100l-36 -203h96q67 0 106.5 33t39.5 95q0 75 -106 75zM305 325h-101
q-29 -156 -41 -231h107q75 0 117.5 36t42.5 107q0 88 -125 88z" />
    <glyph glyph-name="Gamma" unicode="&#x393;" horiz-adv-x="497" 
d="M533 622h-279l-108 -622h-118l126 718h421z" />
    <glyph glyph-name="increment" unicode="&#x394;" horiz-adv-x="615" 
d="M465 718l104 -718h-595l355 718h136zM137 97h300l-46 379l-12 130h-3l-57 -128z" />
    <glyph glyph-name="increment" unicode="&#x2206;" horiz-adv-x="615" 
d="M465 718l104 -718h-595l355 718h136zM137 97h300l-46 379l-12 130h-3l-57 -128z" />
    <glyph glyph-name="Epsilon" unicode="&#x395;" 
d="M486 96l-16 -96h-442l126 718h412l-42 -96h-269l-35 -202h262l-17 -96h-262l-40 -228h323z" />
    <glyph glyph-name="Zeta" unicode="&#x396;" horiz-adv-x="525" 
d="M479 96l-16 -96h-471l16 94l384 468q35 44 58 64q-36 -4 -84 -4h-248l38 96h427l-18 -100l-360 -444q-44 -51 -75 -82q23 4 86 4h263z" />
    <glyph glyph-name="Eta" unicode="&#x397;" horiz-adv-x="623" 
d="M651 718l-126 -718h-118l57 328h-260l-57 -328h-118l126 718h118l-52 -293h260l52 293h118z" />
    <glyph glyph-name="Theta" unicode="&#x398;" horiz-adv-x="665" 
d="M230 319l17 97h246l-17 -97h-246zM426 732q230 0 230 -253q0 -61 -10 -120q-60 -373 -352 -373q-231 0 -231 248q0 58 12 125q31 181 119 277t232 96zM523 358q12 68 12 120q0 161 -126 161q-85 0 -136 -70.5t-76 -209.5q-12 -67 -12 -120q0 -160 125 -160q85 0 137 69.5
t76 209.5z" />
    <glyph glyph-name="Iota" unicode="&#x399;" horiz-adv-x="257" 
d="M279 718l-126 -718h-119l126 718h119z" />
    <glyph glyph-name="Kappa" unicode="&#x39a;" horiz-adv-x="586" 
d="M327 381l223 -381h-140l-199 358l-63 -358h-118l126 718h117l-52 -306l288 306h148z" />
    <glyph glyph-name="Lambda" unicode="&#x39b;" horiz-adv-x="615" 
d="M464 718l105 -718h-119q-8 68 -18 134q-6 39 -19 137q-19 176 -22 205q-6 56 -11 130h-3l-57 -129l-228 -477h-117l354 718h135z" />
    <glyph glyph-name="Mu" unicode="&#x39c;" horiz-adv-x="784" 
d="M812 718l-126 -718h-116l69 390q7 45 22 110q-2 0 -3 1q-34 -62 -59 -104l-175 -287h-98q-56 204 -68 257q-20 83 -29 131h-3q-12 -65 -36 -227l-48 -271h-114l126 718h119l45 -181q32 -126 48 -198l24 -118h4q15 32 63 115l227 382h128z" />
    <glyph glyph-name="Nu" unicode="&#x39d;" horiz-adv-x="644" 
d="M674 718l-126 -718h-119l-161 429q-25 64 -35 107h-2q-5 -46 -17 -119l-73 -417h-114l126 718h121l154 -416q11 -29 40 -123l2 1q10 81 19 128l70 410h115z" />
    <glyph glyph-name="Xi" unicode="&#x39e;" horiz-adv-x="540" 
d="M595 718l-42 -96h-429l17 96h454zM491 418l-17 -95h-364l17 95h364zM497 96l-17 -96h-477l17 96h477z" />
    <glyph glyph-name="Omicron" unicode="&#x39f;" horiz-adv-x="665" 
d="M424 732q232 0 232 -256q0 -50 -10 -117q-58 -373 -351 -373q-232 0 -232 249q0 57 12 124q30 181 118 277t231 96zM523 358q12 64 12 118q0 163 -126 163q-163 0 -212 -280q-12 -65 -12 -118q0 -162 125 -162q165 0 213 279z" />
    <glyph glyph-name="Pi" unicode="&#x3a0;" horiz-adv-x="623" 
d="M652 718l-126 -718h-118l109 621h-262l-109 -621h-117l126 718h497z" />
    <glyph glyph-name="Rho" unicode="&#x3a1;" horiz-adv-x="556" 
d="M28 0l126 718h222q96 0 151 -47.5t55 -136.5q0 -126 -85 -196q-83 -70 -219 -70h-86l-46 -268h-118zM344 622h-89l-46 -258h73q178 0 178 163q0 95 -116 95z" />
    <glyph glyph-name="Sigma" unicode="&#x3a3;" horiz-adv-x="527" 
d="M484 96l-17 -96h-475l15 94l216 281l-112 243l18 100h456l-41 -96h-246l-63 1l39 -73l83 -175l-129 -165l-94 -116q21 0 39 1t39 1h272z" />
    <glyph glyph-name="Tau" unicode="&#x3a4;" horiz-adv-x="526" 
d="M613 718l-44 -96h-175l-109 -622h-117l109 622h-190l17 96h509z" />
    <glyph glyph-name="Upsilon" unicode="&#x3a5;" horiz-adv-x="564" 
d="M518 718h133l-295 -436l-50 -282h-118l49 281l-142 437h130l62 -232q14 -47 22 -108l2 2q18 37 61 106z" />
    <glyph glyph-name="Phi" unicode="&#x3a6;" horiz-adv-x="769" 
d="M754 377q-16 -118 -103 -202q-86 -82 -231 -92l-14 -83h-115l14 83q-116 9 -174.5 70t-58.5 161q0 128 80 233q40 53 107 86t150 39l8 46h115l-8 -46q116 -9 175 -73t59 -167q0 -34 -4 -55zM509 587l-74 -420q55 5 98 32.5t65 68.5q44 75 44 163q0 143 -133 156zM320 167
l74 421q-55 -6 -97.5 -34t-66.5 -71q-44 -83 -44 -163q0 -139 134 -153z" />
    <glyph glyph-name="Chi" unicode="&#x3a7;" horiz-adv-x="583" 
d="M311 285h-3q-16 -30 -51 -75l-153 -210h-135l280 366l-140 352h130l63 -175q17 -40 29 -91h3q16 26 59 87l131 179h135l-267 -345l153 -373h-133l-77 209q-16 31 -24 76z" />
    <glyph glyph-name="Psi" unicode="&#x3a8;" horiz-adv-x="723" 
d="M640 718h116l-46 -263q-22 -123 -96 -189t-195 -69l-4 -20q-8 -52 -31 -177h-118q9 55 34 197q-103 12 -153 61t-50 143q0 32 6 68l43 249h118l-45 -258q-5 -33 -5 -50q0 -108 103 -118l75 425h118l-75 -425q69 6 107 52t56 134z" />
    <glyph glyph-name="Omega" unicode="&#x3a9;" horiz-adv-x="676" 
d="M424 731q120 0 179.5 -69.5t59.5 -196.5q0 -124 -43.5 -220t-121.5 -150q12 1 53 1h57q-14 -76 -17 -96h-252q5 24 19 111q132 31 176 267q9 53 9 97q0 165 -128 165q-165 0 -212 -261q-11 -68 -11 -107q0 -136 91 -161l-19 -111h-251l16 96h60q45 0 57 -1
q-75 59 -75 196q0 44 9 92q30 169 116 258.5t228 89.5z" />
    <glyph glyph-name="Iotadieresis" unicode="&#x3aa;" horiz-adv-x="257" 
d="M165 918q23 0 38 -15t15 -38q0 -32 -23.5 -55.5t-53.5 -23.5q-24 0 -39 15t-15 38q0 32 23.5 55.5t54.5 23.5zM347 919q24 0 39 -15t15 -39q0 -32 -23 -55t-54 -23q-25 0 -40.5 15.5t-15.5 38.5q0 30 24.5 54t54.5 24zM279 718l-126 -718h-119l126 718h119z" />
    <glyph glyph-name="Upsilondieresis" unicode="&#x3ab;" horiz-adv-x="564" 
d="M518 718h133l-295 -436l-50 -282h-118l49 281l-142 437h130l62 -232q14 -47 22 -108l2 2q18 37 61 106zM317 918q23 0 38 -15t15 -38q0 -32 -23.5 -55.5t-53.5 -23.5q-24 0 -39 15t-15 38q0 32 23.5 55.5t54.5 23.5zM499 919q24 0 39 -15t15 -39q0 -32 -23 -55t-54 -23
q-25 0 -40.5 15.5t-15.5 38.5q0 30 24.5 54t54.5 24z" />
    <glyph glyph-name="alphatonos" unicode="&#x3ac;" horiz-adv-x="537" 
d="M290 532q44 0 74 -20.5t41 -57.5q3 14 7.5 29l7.5 25t3 11h110q-19 -75 -31 -147l-47 -264q-7 -37 23 -37q12 0 29 6l-26 -76q-31 -14 -65 -14q-37 0 -58 22t-14 57h-3q-54 -80 -158 -80q-73 0 -109.5 46.5t-36.5 132.5q0 160 71 264q70 103 182 103zM372 262q7 41 7 73
q0 111 -81 111q-54 0 -87 -46t-49 -139q-9 -49 -9 -87q0 -102 76 -102q109 0 143 190zM368 748h117l-152 -159h-71z" />
    <glyph glyph-name="epsilontonos" unicode="&#x3ad;" horiz-adv-x="460" 
d="M326 179q81 -21 105 -28q-23 -76 -79.5 -120.5t-143.5 -44.5q-85 0 -130 34.5t-45 93.5q0 22 9 50.5t38.5 60t73.5 42.5l2 4q-73 18 -73 96q0 67 55 116q56 50 145 50q77 0 124 -36.5t47 -106.5v-13l-112 -22q5 18 5 27q0 57 -73 57q-39 0 -61.5 -23t-22.5 -54
q0 -26 18 -39t47 -13h47l-14 -80h-36q-44 0 -73.5 -27.5t-29.5 -70.5q0 -28 19.5 -44.5t51.5 -16.5q41 0 71.5 30.5t34.5 77.5zM353 748h117l-152 -159h-71z" />
    <glyph glyph-name="etatonos" unicode="&#x3ae;" horiz-adv-x="522" 
d="M494 363l-96 -544l-114 -14l95 537q9 49 -8 77t-59 28q-47 0 -79.5 -34.5t-41.5 -89.5l-57 -323h-112l68 387q14 88 18 127l113 11q0 -15 -11 -73h2q62 81 157 81q76 0 107 -46t18 -124zM351 748h117l-152 -159h-71z" />
    <glyph glyph-name="iotatonos" unicode="&#x3af;" horiz-adv-x="233" 
d="M230 526l-93 -526h-112l90 514zM240 748h117l-152 -159h-71z" />
    <glyph glyph-name="upsilondieresistonos" unicode="&#x3b0;" horiz-adv-x="534" 
d="M470 513l114 12l-53 -300q-21 -113 -83.5 -175.5t-161.5 -62.5q-221 0 -179 237l52 295h112l-57 -320q-10 -57 8.5 -91.5t67.5 -34.5q51 0 83 34t42 91zM397 758h116l-158 -173h-72zM258 737q25 0 40 -15.5t15 -39.5q0 -32 -24 -55.5t-55 -23.5q-25 0 -40.5 15t-15.5 38
q0 33 24 57t56 24zM554 738q24 0 39 -15.5t15 -38.5q0 -33 -23.5 -57t-54.5 -24q-25 0 -40.5 15t-15.5 38q0 33 24 57.5t56 24.5z" />
    <glyph glyph-name="alpha" unicode="&#x3b1;" horiz-adv-x="537" 
d="M290 532q44 0 74 -20.5t41 -57.5q3 14 7.5 29l7.5 25t3 11h110q-19 -75 -31 -147l-47 -264q-7 -37 23 -37q12 0 29 6l-26 -76q-31 -14 -65 -14q-37 0 -58 22t-14 57h-3q-54 -80 -158 -80q-73 0 -109.5 46.5t-36.5 132.5q0 160 71 264q70 103 182 103zM372 262q7 41 7 73
q0 111 -81 111q-54 0 -87 -46t-49 -139q-9 -49 -9 -87q0 -102 76 -102q109 0 143 190z" />
    <glyph glyph-name="beta" unicode="&#x3b2;" horiz-adv-x="527" 
d="M496 226q-21 -112 -80.5 -175t-151.5 -63q-42 0 -74 20t-47 56h-1l-2 -1l-43 -243q-97 -13 -112 -14q20 122 63 367l55 306q25 144 82.5 209t164.5 65q80 0 124.5 -40.5t44.5 -106.5q0 -30 -10 -60q-10 -34 -37.5 -66t-64.5 -45q-1 -1 -1 -2v-1q95 -25 95 -150
q0 -23 -5 -56zM381 228q4 19 4 47q0 52 -23.5 82t-69.5 30h-39q1 3 6 34t7 40h33q45 0 76 36.5t31 90.5q0 35 -17.5 56.5t-49.5 21.5q-91 0 -114 -129l-50 -282q-8 -46 -8 -77q0 -107 84 -107q50 0 84 43.5t46 113.5z" />
    <glyph glyph-name="gamma" unicode="&#x3b3;" horiz-adv-x="475" 
d="M208 404l31 -232h4l164 347h115l-251 -493l-37 -206q-83 -10 -114 -13l38 216l-52 332q-4 25 -8 45q-8 35 -41 35h-6l18 87q21 4 45 4q51 0 68 -26t26 -96z" />
    <glyph glyph-name="delta" unicode="&#x3b4;" horiz-adv-x="519" 
d="M337 495l3 2l1 1q-22 38 -72 88q-49 50 -99 81l11 72h376l-35 -87h-188q168 -136 168 -316q0 -162 -81 -256q-79 -93 -195 -93q-186 0 -186 191q0 110 58 215q28 52 78 83.5t110 31.5q28 0 51 -13zM381 250q6 35 6 68q0 111 -81 111q-63 0 -108 -66q-44 -65 -44 -184
q0 -109 85 -109q55 0 91 48t51 132z" />
    <glyph glyph-name="epsilon" unicode="&#x3b5;" horiz-adv-x="460" 
d="M326 179q81 -21 105 -28q-23 -76 -79.5 -120.5t-143.5 -44.5q-85 0 -130 34.5t-45 93.5q0 22 9 50.5t38.5 60t73.5 42.5l2 4q-73 18 -73 96q0 67 55 116q56 50 145 50q77 0 124 -36.5t47 -106.5v-13l-112 -22q5 18 5 27q0 57 -73 57q-39 0 -61.5 -23t-22.5 -54
q0 -26 18 -39t47 -13h47l-14 -80h-36q-44 0 -73.5 -27.5t-29.5 -70.5q0 -28 19.5 -44.5t51.5 -16.5q41 0 71.5 30.5t34.5 77.5z" />
    <glyph glyph-name="zeta" unicode="&#x3b6;" horiz-adv-x="400" 
d="M271 71q54 -28 76 -45q21 -16 21 -43t-30 -80q-31 -54 -96 -94l-81 33q84 75 84 106q0 12 -9 18q-3 3 -53 27q-80 41 -115 81t-35 101q0 105 114 247q115 143 258 232q-32 -6 -73 -6h-198q24 64 32 88h378q-10 -62 -13 -77q-103 -79 -183 -153q-77 -71 -140 -159
q-60 -85 -60 -148q0 -40 27 -66t96 -62z" />
    <glyph glyph-name="eta" unicode="&#x3b7;" horiz-adv-x="522" 
d="M494 363l-96 -544l-114 -14l95 537q9 49 -8 77t-59 28q-47 0 -79.5 -34.5t-41.5 -89.5l-57 -323h-112l68 387q14 88 18 127l113 11q0 -15 -11 -73h2q62 81 157 81q76 0 107 -46t18 -124z" />
    <glyph glyph-name="theta" unicode="&#x3b8;" horiz-adv-x="536" 
d="M517 367q-66 -382 -295 -382q-174 0 -174 216q0 64 17 161q68 383 292 383q176 0 176 -221q0 -64 -16 -157zM192 423h219l4 31q8 50 8 77q0 129 -81 129q-57 0 -91 -58t-59 -179zM238 69q71 0 109 94q32 78 50 178h-222q-16 -73 -16 -147q0 -125 79 -125z" />
    <glyph glyph-name="iota" unicode="&#x3b9;" horiz-adv-x="233" 
d="M118 -13q-41 0 -60 19.5t-17 49.5t7 66l69 391l115 13l-75 -418q-7 -36 25 -36q14 0 30 6l-26 -77q-31 -14 -68 -14z" />
    <glyph glyph-name="kappa" unicode="&#x3ba;" horiz-adv-x="503" 
d="M298 278l162 -278h-126l-149 265l-46 -265h-112l89 513l115 13q-36 -202 -41 -231h1l42 39l178 184h134z" />
    <glyph glyph-name="lambda" unicode="&#x3bb;" horiz-adv-x="482" 
d="M465 76l-30 -76q-35 -11 -62 -11q-34 0 -49 17t-19 50l-28 239q-4 28 -4 94h-4q-16 -49 -41 -100l-142 -289h-113l270 514l-7 88q-2 18 -6 29.5t-17.5 20.5t-36.5 9q-20 0 -37 -4l40 87q35 6 58 6q53 0 77 -26t30 -85l64 -536q3 -32 32 -32q8 0 25 5z" />
    <glyph glyph-name="nu" unicode="&#x3bd;" horiz-adv-x="470" 
d="M404 519h113l-252 -519h-127l-75 513l115 15l29 -286q11 -90 11 -147h4q21 61 60 147z" />
    <glyph glyph-name="xi" unicode="&#x3be;" horiz-adv-x="415" 
d="M257 -191l-82 32q84 69 84 103q0 21 -60 45q-89 34 -129 76.5t-40 107.5q0 70 44 138q44 69 129 94q0 1 0.5 3l0.5 2q-96 28 -96 127q0 83 60 148q60 64 167 64q76 0 121 -36.5t45 -104.5q0 -1 -0.5 -8t-0.5 -9l-112 -22q4 15 4 31q0 60 -60 60q-50 0 -82 -38
q-30 -38 -30 -88q0 -84 112 -84h63l-16 -89h-67q-74 0 -120 -48q-46 -47 -46 -114q0 -52 62 -90q16 -9 67 -33q60 -29 83.5 -51t23.5 -49q0 -71 -125 -167z" />
    <glyph glyph-name="omicron" unicode="&#x3bf;" horiz-adv-x="519" 
d="M495 259q-21 -129 -92.5 -201t-181.5 -72q-92 0 -139 50t-47 143q0 157 78 255q79 99 204 99q92 0 138.5 -50.5t46.5 -144.5q0 -43 -7 -79zM303 448q-66 0 -109 -76q-42 -75 -42 -190q0 -112 84 -112q65 0 109 74q44 76 44 191q0 113 -86 113z" />
    <glyph glyph-name="pi" unicode="&#x3c0;" horiz-adv-x="528" 
d="M525 519l-91 -519h-111l75 433h-186l-75 -433h-112l45 257l46 262h409z" />
    <glyph glyph-name="rho" unicode="&#x3c1;" 
d="M498 261q-21 -129 -81.5 -202t-154.5 -73q-92 0 -124 77h-2l-44 -244l-113 -13l78 445q49 282 273 282q104 -1 146.5 -73.5t21.5 -198.5zM383 261q31 187 -72 187q-107 0 -141 -189q-33 -188 75 -188q104 0 138 190z" />
    <glyph glyph-name="sigma1" unicode="&#x3c2;" horiz-adv-x="456" 
d="M309 533q76 0 118.5 -39.5t42.5 -104.5q0 -16 -4 -39l-112 -16q8 26 8 48q0 31 -17.5 48t-48.5 17q-101 0 -136 -194q-4 -17 -4 -41q0 -47 24 -71q25 -23 82 -52q44 -23 70 -41q34 -23 34 -56q0 -5 -1.5 -13t-8.5 -26.5t-19 -37.5t-37 -44t-58 -47l-83 33q87 72 87 100
q0 11 -12.5 20.5t-50.5 28.5l-10 5q-70 36 -102 74q-30 39 -30 107q0 152 75 246q75 95 193 95z" />
    <glyph glyph-name="sigma" unicode="&#x3c3;" horiz-adv-x="531" 
d="M480 436l-3 -5q55 -55 35 -181q-19 -122 -90.5 -193t-179.5 -71q-110 0 -155.5 70t-23.5 196q22 124 91.5 195.5t177.5 71.5h270l-32 -86h-48q-21 0 -42 3zM397 251q33 184 -77 184q-54 0 -90.5 -48t-51.5 -135q-15 -88 4.5 -135.5t73.5 -47.5q109 0 141 182z" />
    <glyph glyph-name="tau" unicode="&#x3c4;" horiz-adv-x="370" 
d="M397 433h-124l-51 -286q-6 -36 4 -50.5t40 -14.5q36 0 77 22l-30 -94q-43 -22 -101 -22q-130 0 -104 147l53 298h-118l32 86h337z" />
    <glyph glyph-name="upsilon" unicode="&#x3c5;" horiz-adv-x="534" 
d="M470 513l114 12l-53 -300q-21 -113 -83.5 -175.5t-161.5 -62.5q-221 0 -179 237l52 295h112l-57 -320q-10 -57 8.5 -91.5t67.5 -34.5q51 0 83 34t42 91z" />
    <glyph glyph-name="phi" unicode="&#x3c6;" horiz-adv-x="675" 
d="M240 520l57 -74q-56 -9 -102 -73q-45 -65 -45 -171q0 -122 106 -134l81 462q1 0 12 -0.5t16 -0.5h37q15 1 27 1q113 -2 169.5 -57.5t56.5 -158.5q0 -136 -79 -227q-78 -91 -222 -102l-30 -165q-83 -10 -114 -13l32 178q-102 6 -153 64t-51 154q0 122 61 208
q61 88 141 109zM540 257q5 33 5 56q0 122 -110 130l-67 -375q70 7 113.5 57.5t58.5 131.5z" />
    <glyph glyph-name="chi" unicode="&#x3c7;" horiz-adv-x="432" 
d="M53 512l117 16l46 -210l8 -56l24 54l123 203h124l-228 -342l109 -354l-113 -16l-57 234l-11 63l-29 -53l-152 -237h-120l253 377z" />
    <glyph glyph-name="psi" unicode="&#x3c8;" horiz-adv-x="657" 
d="M201 -193q28 151 32 179q-91 4 -137 52t-46 134q0 55 13 120l41 227h111l-56 -319q-2 -18 -2 -21q0 -97 92 -106l87 498q6 0 14 1.5t21 3t22 2.5t22 2.5t21 3t14 1.5l-90 -512q56 3 92.5 41t48.5 99l52 298l112 13l-50 -288q-20 -107 -87 -176q-67 -68 -183 -73l-30 -167
q-83 -10 -114 -13z" />
    <glyph glyph-name="omega" unicode="&#x3c9;" horiz-adv-x="726" 
d="M705 263q-22 -131 -87 -203.5t-161 -72.5q-101 0 -118 78q-53 -78 -149 -78q-76 0 -115.5 47t-39.5 136q0 42 9 93q46 262 232 269q1 -12 8 -50l7 -36h-7q-92 0 -127 -194q-8 -50 -8 -76q0 -50 17 -77t45 -27q52 0 84 72q13 30 23 97q2 8 8 52l7 47h110q-1 -8 -6 -34.5
t-10.5 -59t-11.5 -67.5q-4 -23 -4 -36q0 -34 16 -52.5t44 -18.5q39 0 70.5 45.5t46.5 133.5q10 59 10 97q0 98 -68 98h-7l30 84q76 0 117.5 -48t41.5 -140q0 -43 -7 -79z" />
    <glyph glyph-name="iotadieresis" unicode="&#x3ca;" horiz-adv-x="233" 
d="M118 -13q-41 0 -60 19.5t-17 49.5t7 66l69 391l115 13l-75 -418q-7 -36 25 -36q14 0 30 6l-26 -77q-31 -14 -68 -14zM123 734q24 0 39 -15.5t15 -38.5q0 -32 -23.5 -55t-53.5 -23q-25 0 -40 15t-15 38q0 31 23.5 55t54.5 24zM305 735q24 0 38.5 -15t14.5 -38
q0 -33 -23 -56t-53 -23q-24 0 -39 14.5t-15 37.5q0 32 23 56t54 24z" />
    <glyph glyph-name="upsilondieresis" unicode="&#x3cb;" horiz-adv-x="534" 
d="M470 513l114 12l-53 -300q-21 -113 -83.5 -175.5t-161.5 -62.5q-221 0 -179 237l52 295h112l-57 -320q-10 -57 8.5 -91.5t67.5 -34.5q51 0 83 34t42 91zM309 734q24 0 39 -15.5t15 -38.5q0 -32 -23.5 -55t-53.5 -23q-25 0 -40 15t-15 38q0 31 23.5 55t54.5 24zM491 735
q24 0 38.5 -15t14.5 -38q0 -33 -23 -56t-53 -23q-24 0 -39 14.5t-15 37.5q0 32 23 56t54 24z" />
    <glyph glyph-name="omicrontonos" unicode="&#x3cc;" horiz-adv-x="519" 
d="M495 259q-21 -129 -92.5 -201t-181.5 -72q-92 0 -139 50t-47 143q0 157 78 255q79 99 204 99q92 0 138.5 -50.5t46.5 -144.5q0 -43 -7 -79zM303 448q-66 0 -109 -76q-42 -75 -42 -190q0 -112 84 -112q65 0 109 74q44 76 44 191q0 113 -86 113zM382 748h117l-152 -159h-71
z" />
    <glyph glyph-name="upsilontonos" unicode="&#x3cd;" horiz-adv-x="534" 
d="M470 513l114 12l-53 -300q-21 -113 -83.5 -175.5t-161.5 -62.5q-221 0 -179 237l52 295h112l-57 -320q-10 -57 8.5 -91.5t67.5 -34.5q51 0 83 34t42 91zM420 748h117l-152 -159h-71z" />
    <glyph glyph-name="omegatonos" unicode="&#x3ce;" horiz-adv-x="726" 
d="M705 263q-22 -131 -87 -203.5t-161 -72.5q-101 0 -118 78q-53 -78 -149 -78q-76 0 -115.5 47t-39.5 136q0 42 9 93q46 262 232 269q1 -12 8 -50l7 -36h-7q-92 0 -127 -194q-8 -50 -8 -76q0 -50 17 -77t45 -27q52 0 84 72q13 30 23 97q2 8 8 52l7 47h110q-1 -8 -6 -34.5
t-10.5 -59t-11.5 -67.5q-4 -23 -4 -36q0 -34 16 -52.5t44 -18.5q39 0 70.5 45.5t46.5 133.5q10 59 10 97q0 98 -68 98h-7l30 84q76 0 117.5 -48t41.5 -140q0 -43 -7 -79zM481 748h117l-152 -159h-71z" />
    <glyph glyph-name="uni0400" unicode="&#x400;" 
d="M486 96l-16 -96h-442l126 718h412l-42 -96h-269l-35 -202h262l-17 -96h-262l-40 -228h323zM428 775h-69l-120 161h112z" />
    <glyph glyph-name="afii10023" unicode="&#x401;" 
d="M486 96l-16 -96h-442l126 718h412l-42 -96h-269l-35 -202h262l-17 -96h-262l-40 -228h323zM294 918q23 0 38 -15t15 -38q0 -32 -23.5 -55.5t-53.5 -23.5q-24 0 -39 15t-15 38q0 32 23.5 55.5t54.5 23.5zM476 919q24 0 39 -15t15 -39q0 -32 -23 -55t-54 -23
q-25 0 -40.5 15.5t-15.5 38.5q0 30 24.5 54t54.5 24z" />
    <glyph glyph-name="afii10051" unicode="&#x402;" horiz-adv-x="751" 
d="M390 622l-39 -225h2q35 40 87 64.5t100 24.5q85 0 129 -48.5t44 -140.5q0 -136 -70 -227q-69 -90 -196 -90q-16 0 -21 1q-6 24 -19 94q19 -3 37 -3q71 0 109 56t38 152q0 49 -23.5 76.5t-69.5 27.5q-65 0 -115 -46q-51 -45 -65 -125q-6 -33 -37 -213h-118l109 622h-192
l17 96h554l-41 -96h-220z" />
    <glyph glyph-name="afii10052" unicode="&#x403;" horiz-adv-x="497" 
d="M533 622h-279l-108 -622h-118l126 718h421zM394 929h117l-147 -154h-72z" />
    <glyph glyph-name="afii10053" unicode="&#x404;" horiz-adv-x="602" 
d="M415 732q92 0 145 -46t53 -126q0 -27 -4 -44q-90 -14 -126 -20q10 31 10 56q0 39 -24 61t-68 22q-143 0 -194 -217h247q-11 -69 -16 -92h-249q-9 -56 -9 -98q0 -142 110 -142q78 0 117 51t39 123l119 -37q-51 -237 -283 -237q-223 0 -223 241q0 64 13 132q66 373 343 373
z" />
    <glyph glyph-name="afii10054" unicode="&#x405;" horiz-adv-x="567" 
d="M369 732q92 0 149 -48q58 -48 58 -131q0 -5 -2 -31q-28 -5 -126 -22q8 30 8 51q0 42 -26.5 65t-76.5 23q-43 0 -81 -29q-37 -28 -37 -80q0 -56 106 -97q40 -15 67 -28t60 -37t50 -58t17 -78q0 -114 -78 -180t-200 -66q-104 0 -159.5 51t-55.5 141q0 30 4 50l129 27
q-14 -42 -14 -74q0 -48 27.5 -75.5t80.5 -27.5q67 0 102 36.5t35 96.5q0 70 -105 111q-95 37 -128 61q-62 48 -63 120q0 100 74 165q73 64 185 64z" />
    <glyph glyph-name="afii10055" unicode="&#x406;" horiz-adv-x="257" 
d="M279 718l-126 -718h-119l126 718h119z" />
    <glyph glyph-name="afii10056" unicode="&#x407;" horiz-adv-x="257" 
d="M161 913q24 0 39 -15.5t15 -38.5q0 -32 -23.5 -55t-53.5 -23q-25 0 -40 15t-15 38q0 31 23.5 55t54.5 24zM343 914q24 0 38.5 -15t14.5 -38q0 -33 -23 -56t-53 -23q-24 0 -39 14.5t-15 37.5q0 32 23 56t54 24zM279 718l-126 -718h-119l126 718h119z" />
    <glyph glyph-name="afii10057" unicode="&#x408;" horiz-adv-x="518" 
d="M205 78q109 0 136 153l85 487h119l-86 -485q-22 -125 -84.5 -186t-174.5 -61q-87 0 -138 43t-51 122q0 25 4 44l122 19q-13 -29 -13 -59q0 -36 21 -56t60 -21z" />
    <glyph glyph-name="afii10058" unicode="&#x409;" horiz-adv-x="929" 
d="M177 420l73 298h388l-52 -294h105q107 0 164.5 -44t57.5 -128q0 -122 -80 -187t-207 -65h-233l109 622h-163l-79 -313q-13 -51 -16 -60q-2 -7 -7.5 -27t-8.5 -29q-10 -35 -20 -57l-24 -48q-21 -41 -65 -75q-39 -29 -98 -29q-3 0 -27 2l-8 97q22 -2 24 -2q58 0 86 63
t81 276zM786 213q2 12 2 26q0 89 -119 89h-100q-3 -17 -41 -233h105q62 0 102.5 30t50.5 88z" />
    <glyph glyph-name="afii10059" unicode="&#x40a;" horiz-adv-x="907" 
d="M589 0h-231l57 329h-211l-57 -329h-118l126 718h118l-52 -295h211l52 295h118l-52 -294h114q117 0 170.5 -53.5t38.5 -158.5q-15 -103 -90 -157.5t-194 -54.5zM749 212q9 59 -21 88t-90 29h-105l-41 -235h104q132 0 153 118z" />
    <glyph glyph-name="afii10060" unicode="&#x40b;" horiz-adv-x="748" 
d="M705 301l-53 -301h-119l38 214q10 50 10 81q0 87 -88 87q-69 0 -118 -49q-48 -48 -62 -121l-36 -212h-118l109 622h-187l17 96h545l-42 -96h-215l-40 -228h1l1 -1q31 41 86 67t105 26q85 0 127.5 -38t42.5 -105q0 -17 -4 -42z" />
    <glyph glyph-name="afii10061" unicode="&#x40c;" horiz-adv-x="586" 
d="M327 381l223 -381h-140l-199 358l-63 -358h-118l126 718h117l-52 -306l288 306h148zM428 915h117l-147 -154h-72z" />
    <glyph glyph-name="uni040D" unicode="&#x40d;" horiz-adv-x="644" 
d="M147 175h3q21 33 63 92l318 451h117l-126 -718h-117l72 411l26 127l-3 -2q-29 -45 -68 -101l-313 -435h-116l126 718h118l-75 -422q-14 -77 -25 -121zM437 775h-69l-120 161h112z" />
    <glyph glyph-name="afii10062" unicode="&#x40e;" horiz-adv-x="578" 
d="M312 303h2q28 62 58 117l161 298h129l-256 -450q-74 -129 -102 -168q-82 -111 -183 -111q-28 0 -58 8l-2 102q30 -9 52 -9q36 0 64 24.5t60 77.5l-140 526h132l66 -300q16 -85 17 -115zM402 833q30 0 52.5 23t27.5 54h74q-9 -53 -54 -100q-43 -46 -113 -46q-67 0 -95 46
t-19 100h72q-5 -30 10.5 -53.5t44.5 -23.5z" />
    <glyph glyph-name="afii10145" unicode="&#x40f;" horiz-adv-x="623" 
d="M425 96l109 622h118l-126 -718h-195l-28 -158h-105l28 158h-197l126 718h117l-109 -622h262z" />
    <glyph glyph-name="afii10017" unicode="&#x410;" horiz-adv-x="613" 
d="M463 718l105 -718h-121q-1 8 -2.5 20.5t-4 31t-4.5 33.5t-5.5 45t-5.5 41h-252l-82 -171h-117l354 718h135zM216 267h199q-15 128 -19 153q-3 32 -8 67l-10 119h-3q-54 -122 -73 -161z" />
    <glyph glyph-name="afii10018" unicode="&#x411;" horiz-adv-x="591" 
d="M267 0h-239l126 718h424l-40 -96h-282l-35 -198h114q105 0 162 -44.5t57 -129.5q0 -121 -79 -185q-80 -65 -208 -65zM163 95h112q63 0 109 38q46 39 46 106q0 89 -122 89h-104q-38 -216 -41 -233z" />
    <glyph glyph-name="afii10019" unicode="&#x412;" horiz-adv-x="594" 
d="M29 0l126 718h236q28 0 53 -4t51.5 -14.5t45.5 -27t31.5 -44.5t12.5 -64q0 -69 -42.5 -120t-109.5 -66v-2q55 -11 86 -48.5t31 -97.5q0 -105 -76 -168q-77 -62 -185 -62h-260zM356 622h-100l-36 -203h96q67 0 106.5 33t39.5 95q0 75 -106 75zM305 325h-101
q-29 -156 -41 -231h107q75 0 117.5 36t42.5 107q0 88 -125 88z" />
    <glyph glyph-name="afii10020" unicode="&#x413;" horiz-adv-x="497" 
d="M533 622h-279l-108 -622h-118l126 718h421z" />
    <glyph glyph-name="afii10021" unicode="&#x414;" horiz-adv-x="680" 
d="M573 96h80l-44 -249h-103l27 153h-456l-27 -153h-101l43 249h65q43 55 73 127q32 76 62 199l74 296h417zM457 96l92 526h-197l-51 -196q-21 -82 -35 -131q-12 -39 -35 -100q-23 -59 -51 -99h277z" />
    <glyph glyph-name="afii10022" unicode="&#x415;" 
d="M486 96l-16 -96h-442l126 718h412l-42 -96h-269l-35 -202h262l-17 -96h-262l-40 -228h323z" />
    <glyph glyph-name="afii10024" unicode="&#x416;" horiz-adv-x="920" 
d="M431 358l-311 -358h-147l283 315q36 37 81 75q-36 31 -59 69l-161 259h130l189 -314h2l56 314h118l-54 -307h2l282 307h147l-269 -282q-31 -31 -73 -56q42 -38 67 -84l166 -296h-139l-192 358l-63 -358h-118z" />
    <glyph glyph-name="afii10025" unicode="&#x417;" horiz-adv-x="573" 
d="M256 76q66 0 108.5 41t42.5 110q0 46 -30.5 72.5t-82.5 26.5h-52q4 28 16 94h44q63 0 103.5 36.5t40.5 100.5q0 38 -24 59t-67 21q-58 0 -97 -39t-40 -101l-112 29q19 96 89.5 150.5t173.5 54.5q89 0 147 -40q59 -39 59 -117q0 -75 -52 -130q-52 -54 -121 -67v-3
q59 -9 95 -48.5t36 -97.5q0 -110 -84 -177q-82 -66 -194 -66q-229 0 -229 189q0 21 3 45l127 26q-10 -30 -10 -59q0 -51 28 -80.5t82 -29.5z" />
    <glyph glyph-name="afii10026" unicode="&#x418;" horiz-adv-x="644" 
d="M171 175h3q21 33 63 92l318 451h117l-126 -718h-117l72 411l26 127l-3 -2q-29 -45 -68 -101l-313 -435h-116l126 718h118l-75 -422q-14 -77 -25 -121z" />
    <glyph glyph-name="afii10027" unicode="&#x419;" horiz-adv-x="644" 
d="M171 175h3q21 33 63 92l318 451h117l-126 -718h-117l72 411l26 127l-3 -2q-29 -45 -68 -101l-313 -435h-116l126 718h118l-75 -422q-14 -77 -25 -121zM428 833q30 0 54.5 24.5t30.5 56.5h71q-10 -54 -55 -102q-43 -46 -113 -46q-68 0 -96 46t-18 100h73q-5 -31 9.5 -55
t43.5 -24z" />
    <glyph glyph-name="afii10028" unicode="&#x41a;" horiz-adv-x="586" 
d="M327 381l223 -381h-140l-199 358l-63 -358h-118l126 718h117l-52 -306l288 306h148z" />
    <glyph glyph-name="afii10029" unicode="&#x41b;" horiz-adv-x="627" 
d="M655 718l-126 -718h-118l109 620h-180q-1 -5 -7 -28t-10 -38l-27 -108l-37 -144q-11 -47 -18 -67q-7 -25 -19 -62t-24 -62q-37 -69 -68 -92q-50 -35 -109 -35q-2 0 -26 2l-8 97q24 -2 25 -2q52 0 80 52q27 49 76 245l10 42l73 298h404z" />
    <glyph glyph-name="afii10030" unicode="&#x41c;" horiz-adv-x="784" 
d="M812 718l-126 -718h-116l69 390q7 45 22 110q-2 0 -3 1q-34 -62 -59 -104l-175 -287h-98q-56 204 -68 257q-20 83 -29 131h-3q-12 -65 -36 -227l-48 -271h-114l126 718h119l45 -181q32 -126 48 -198l24 -118h4q15 32 63 115l227 382h128z" />
    <glyph glyph-name="afii10031" unicode="&#x41d;" horiz-adv-x="623" 
d="M651 718l-126 -718h-118l57 328h-260l-57 -328h-118l126 718h118l-52 -293h260l52 293h118z" />
    <glyph glyph-name="afii10032" unicode="&#x41e;" horiz-adv-x="665" 
d="M424 732q232 0 232 -256q0 -50 -10 -117q-58 -373 -351 -373q-232 0 -232 249q0 57 12 124q30 181 118 277t231 96zM523 358q12 64 12 118q0 163 -126 163q-163 0 -212 -280q-12 -65 -12 -118q0 -162 125 -162q165 0 213 279z" />
    <glyph glyph-name="afii10033" unicode="&#x41f;" horiz-adv-x="623" 
d="M652 718l-126 -718h-118l109 621h-262l-109 -621h-117l126 718h497z" />
    <glyph glyph-name="afii10034" unicode="&#x420;" horiz-adv-x="556" 
d="M28 0l126 718h222q96 0 151 -47.5t55 -136.5q0 -126 -85 -196q-83 -70 -219 -70h-86l-46 -268h-118zM344 622h-89l-46 -258h73q178 0 178 163q0 95 -116 95z" />
    <glyph glyph-name="afii10035" unicode="&#x421;" horiz-adv-x="602" 
d="M484 733q104 0 157 -59q54 -58 37 -158l-126 -19q19 65 -3.5 103.5t-84.5 38.5q-153 0 -201 -281q-57 -277 105 -277q72 0 110.5 55.5t36.5 125.5l119 -39q-51 -238 -282 -238q-279 0 -211 375q30 172 113 273q82 100 230 100z" />
    <glyph glyph-name="afii10036" unicode="&#x422;" horiz-adv-x="526" 
d="M613 718l-44 -96h-175l-109 -622h-117l109 622h-190l17 96h509z" />
    <glyph glyph-name="afii10037" unicode="&#x423;" horiz-adv-x="578" 
d="M312 303h2q28 62 58 117l161 298h129l-256 -450q-74 -129 -102 -168q-82 -111 -183 -111q-28 0 -58 8l-2 102q30 -9 52 -9q36 0 64 24.5t60 77.5l-140 526h132l66 -300q16 -85 17 -115z" />
    <glyph glyph-name="afii10038" unicode="&#x424;" horiz-adv-x="769" 
d="M754 377q-16 -118 -103 -202q-86 -82 -231 -92l-14 -83h-115l14 83q-116 9 -174.5 70t-58.5 161q0 128 80 233q40 53 107 86t150 39l8 46h115l-8 -46q116 -9 175 -73t59 -167q0 -34 -4 -55zM509 587l-74 -420q55 5 98 32.5t65 68.5q44 75 44 163q0 143 -133 156zM320 167
l74 421q-55 -6 -97.5 -34t-66.5 -71q-44 -83 -44 -163q0 -139 134 -153z" />
    <glyph glyph-name="afii10039" unicode="&#x425;" horiz-adv-x="583" 
d="M311 285h-3q-16 -30 -51 -75l-153 -210h-135l280 366l-140 352h130l63 -175q17 -40 29 -91h3q16 26 59 87l131 179h135l-267 -345l153 -373h-133l-77 209q-16 31 -24 76z" />
    <glyph glyph-name="afii10040" unicode="&#x426;" horiz-adv-x="656" 
d="M541 96h86l-44 -249h-105q21 119 28 153h-478l126 718h118l-110 -622h262l110 622h117z" />
    <glyph glyph-name="afii10041" unicode="&#x427;" horiz-adv-x="599" 
d="M76 473l43 245h119l-40 -232q-3 -16 -3 -30q0 -49 29.5 -74.5t79.5 -25.5q85 0 157 66l52 296h119l-126 -718h-119l53 305h-2q-79 -52 -181 -52q-83 0 -134.5 46t-51.5 126q0 16 5 48z" />
    <glyph glyph-name="afii10042" unicode="&#x428;" horiz-adv-x="871" 
d="M686 96l109 622h118l-126 -718h-771l126 718h118l-110 -622h208l110 622h119l-110 -622h209z" />
    <glyph glyph-name="afii10043" unicode="&#x429;" horiz-adv-x="930" 
d="M779 0h-751l126 718h117l-109 -622h208l110 622h118l-109 -622h208l109 622h119l-110 -622h85l-43 -249h-106q7 34 28 153z" />
    <glyph glyph-name="afii10044" unicode="&#x42a;" horiz-adv-x="738" 
d="M79 622l39 96h307l-52 -294h114q106 0 162.5 -45.5t56.5 -132.5q0 -114 -80 -180t-206 -66h-240l109 622h-210zM315 95h112q63 0 109 38q46 39 46 106q0 89 -120 89h-106z" />
    <glyph glyph-name="afii10045" unicode="&#x42b;" horiz-adv-x="811" 
d="M838 718l-126 -718h-118l126 718h118zM28 0l126 718h119l-52 -294h114q106 0 163 -44t57 -129q0 -119 -80 -185q-79 -66 -208 -66h-239zM163 95h112q63 0 109 38q46 39 46 106q0 89 -119 89h-107q-38 -216 -41 -233z" />
    <glyph glyph-name="afii10046" unicode="&#x42c;" horiz-adv-x="593" 
d="M28 0l126 718h119l-52 -294h114q106 0 162.5 -44.5t56.5 -130.5q0 -121 -79 -185t-208 -64h-239zM163 95h112q63 0 109 38q46 39 46 106q0 89 -119 89h-107q-38 -216 -41 -233z" />
    <glyph glyph-name="afii10047" unicode="&#x42d;" horiz-adv-x="607" 
d="M373 732q226 0 226 -249q0 -51 -9 -110q-62 -387 -342 -387q-212 0 -212 186q0 22 3 47l127 27q-9 -33 -9 -57q0 -53 24 -79t79 -26q154 0 198 242h-249l16 92h248q7 36 7 76q0 145 -117 145q-56 0 -92.5 -38.5t-38.5 -104.5l-115 30q21 99 88 152.5t168 53.5z" />
    <glyph glyph-name="afii10048" unicode="&#x42e;" horiz-adv-x="899" 
d="M881 359q-31 -181 -115 -277t-222 -96q-260 0 -210 342h-130l-57 -328h-118l126 718h118l-52 -293h132q36 150 117.5 228.5t205.5 78.5q266 0 205 -373zM760 358q57 281 -101 281q-80 0 -128 -70.5t-73 -209.5q-13 -85 -12 -147.5t29 -97.5t85 -35q81 0 128 69t72 210z
" />
    <glyph glyph-name="afii10049" unicode="&#x42f;" horiz-adv-x="583" 
d="M340 294l-215 -294h-133l235 306q-62 9 -99 55t-37 111q0 120 79 183q80 63 194 63h244l-126 -718h-119l52 294h-75zM316 390h116l41 232h-115q-30 0 -63 -11q-33 -12 -57.5 -47.5t-24.5 -85.5q0 -88 103 -88z" />
    <glyph glyph-name="afii10065" unicode="&#x430;" horiz-adv-x="537" 
d="M290 532q44 0 74 -20.5t41 -57.5q3 14 7.5 29l7.5 25t3 11h110q-19 -75 -31 -147l-47 -264q-7 -37 23 -37q12 0 29 6l-26 -76q-31 -14 -65 -14q-37 0 -58 22t-14 57h-3q-54 -80 -158 -80q-73 0 -109.5 46.5t-36.5 132.5q0 160 71 264q70 103 182 103zM372 262q7 41 7 73
q0 111 -81 111q-54 0 -87 -46t-49 -139q-9 -49 -9 -87q0 -102 76 -102q109 0 143 190z" />
    <glyph glyph-name="afii10066" unicode="&#x431;" horiz-adv-x="519" 
d="M222 -14q-182 0 -182 192q0 35 8 88q56 345 281 434q52 20 101 31q53 12 89 23l33 -81q-36 -14 -85 -27q-53 -14 -83 -24q-143 -42 -185 -160h2q55 60 134 60q166 0 166 -187q0 -163 -77 -257q-77 -92 -202 -92zM305 438q-67 0 -111 -77q-42 -77 -42 -183q0 -108 84 -108
q68 0 108 76q41 77 41 184q0 108 -80 108z" />
    <glyph glyph-name="afii10067" unicode="&#x432;" horiz-adv-x="497" 
d="M303 531q70 0 121 -33q52 -31 52 -90q0 -84 -81 -116v-3q72 -24 77 -110q0 -64 -56 -123q-29 -32 -82 -51.5t-120 -19.5q-90 0 -137 40t-47 115q0 19 5 52l23 132q44 207 245 207zM288 446q-48 0 -78.5 -37t-39.5 -100l-21 -106q-3 -14 -6 -53q0 -80 89 -80q57 0 91 34
t34 76q0 30 -21.5 48t-61.5 18h-45l14 72h43q36 0 57.5 20t21.5 49q0 25 -20 42t-57 17z" />
    <glyph glyph-name="afii10068" unicode="&#x433;" horiz-adv-x="434" 
d="M195 68q49 0 77 32.5t29 89.5l105 -29q-19 -85 -77 -130t-147 -45q-76 0 -124 36t-48 98q0 68 43.5 111t138.5 74q71 24 99 44.5t28 50.5q0 23 -18 36.5t-47 13.5q-87 0 -96 -91l-32 13q-32 13 -62 24q47 137 195 137q71 0 120 -33q50 -32 50 -94t-40.5 -103t-126.5 -69
q-79 -28 -111 -50.5t-32 -56.5q1 -27 22 -43t54 -16z" />
    <glyph glyph-name="afii10069" unicode="&#x434;" horiz-adv-x="521" 
d="M292 520q44 0 80.5 -18t51.5 -52l4 2q4 95 -37 158t-126 63q-1 0 -31 -2l37 79q3 0 12 0.5t11 0.5q63 0 109 -22.5t71.5 -62.5t37.5 -88.5t12 -106.5q0 -144 -38 -259q-70 -223 -263 -226q-97 0 -142 52q-44 53 -44 131q0 149 70 249q71 102 185 102zM304 439
q-45 0 -82 -42t-55.5 -101.5t-16.5 -116.5q0 -55 19 -82.5t63 -27.5q54 0 92 47.5t52.5 103.5t14.5 108q0 111 -87 111z" />
    <glyph glyph-name="afii10070" unicode="&#x435;" horiz-adv-x="485" 
d="M231 69q42 0 68 30.5t28 79.5l102 -27q-42 -166 -208 -166q-186 0 -186 199q0 119 63 228q33 55 88 87.5t122 32.5q76 0 119 -35t43 -99q0 -84 -83 -130.5t-236 -47.5q-4 -15 -4 -44q0 -48 20.5 -78t63.5 -30zM293 449q-43 0 -79 -43q-36 -45 -49 -106q192 2 192 93
q0 27 -17.5 41.5t-46.5 14.5z" />
    <glyph glyph-name="afii10072" unicode="&#x436;" horiz-adv-x="737" 
d="M322 265l-226 -265h-131l214 241q13 13 51 44q-34 30 -51 56l-117 178h130l135 -227l39 227h113l-39 -225q46 42 104 107l55 61l52 57h133l-183 -187q-24 -24 -72 -52q31 -25 54 -70l117 -210h-132l-133 265l-47 -265h-113z" />
    <glyph glyph-name="afii10073" unicode="&#x437;" horiz-adv-x="465" 
d="M24 144v13l112 20q-7 -18 -7 -38q0 -32 21 -50.5t55 -18.5q47 0 76 26.5t29 67.5q0 31 -21.5 48t-55.5 17h-44l13 75h47q35 0 66 19t31 62q0 27 -18 44.5t-52 17.5q-38 0 -66.5 -26t-34.5 -70l-95 37q24 71 78.5 108t132.5 37q80 0 125 -33t45 -92q0 -45 -28.5 -84
t-81.5 -53v-3q36 -11 54.5 -39t18.5 -65q0 -76 -62 -127t-165 -51q-84 0 -128.5 41t-44.5 117z" />
    <glyph glyph-name="afii10074" unicode="&#x438;" horiz-adv-x="518" 
d="M429 0h-110q1 28 8 67h-2q-59 -81 -155 -81q-64 0 -96 32t-32 91q0 27 4 46l63 356q95 11 114 14l-61 -345q-3 -18 -3 -34q0 -73 69 -73q44 0 76.5 35t42.5 89l56 322h113l-71 -410q-16 -77 -16 -109z" />
    <glyph glyph-name="afii10075" unicode="&#x439;" horiz-adv-x="518" 
d="M429 0h-110q1 28 8 67h-2q-59 -81 -155 -81q-64 0 -96 32t-32 91q0 27 4 46l63 356q95 11 114 14l-61 -345q-3 -18 -3 -34q0 -73 69 -73q44 0 76.5 35t42.5 89l56 322h113l-71 -410q-16 -77 -16 -109zM328 639q30 0 54.5 24.5t30.5 56.5h71q-10 -54 -55 -102
q-43 -46 -113 -46q-68 0 -96 46t-18 100h73q-5 -31 9.5 -55t43.5 -24z" />
    <glyph glyph-name="afii10076" unicode="&#x43a;" horiz-adv-x="503" 
d="M298 278l162 -278h-126l-149 265l-46 -265h-112l89 513l115 13q-36 -202 -41 -231h1l2 -1l218 225h134z" />
    <glyph glyph-name="afii10077" unicode="&#x43b;" horiz-adv-x="516" 
d="M517 518l-91 -518h-113l76 432h-131l-44 -178q-37 -147 -77 -207q-39 -58 -120 -58q-20 0 -26 1l-10 83q18 -2 20 -2q41 0 67 48q27 52 59 187q14 59 49 212h341z" />
    <glyph glyph-name="afii10078" unicode="&#x43c;" horiz-adv-x="653" 
d="M320 182h5q28 51 55 91l162 246h114l-91 -519h-109l46 260l11 62h-3l-4 -8q-5 -7 -12 -18.5t-12 -18.5l-137 -202h-84l-64 202q-10 33 -11 46h-3l-12 -69l-45 -254h-108l91 519h113l75 -248q14 -42 23 -89z" />
    <glyph glyph-name="afii10079" unicode="&#x43d;" horiz-adv-x="518" 
d="M521 519l-91 -519h-113l40 230h-187l-40 -230h-112l90 512l115 14l-38 -211h187l37 204h112z" />
    <glyph glyph-name="afii10080" unicode="&#x43e;" horiz-adv-x="519" 
d="M495 259q-21 -129 -92.5 -201t-181.5 -72q-92 0 -139 50t-47 143q0 157 78 255q79 99 204 99q92 0 138.5 -50.5t46.5 -144.5q0 -43 -7 -79zM303 448q-66 0 -109 -76q-42 -75 -42 -190q0 -112 84 -112q65 0 109 74q44 76 44 191q0 113 -86 113z" />
    <glyph glyph-name="afii10081" unicode="&#x43f;" horiz-adv-x="522" 
d="M494 363l-63 -363h-112l59 340q18 105 -67 105q-46 0 -78.5 -35.5t-42.5 -91.5l-56 -318h-112l68 387q12 69 18 125l113 13l-11 -73h2q62 81 157 81q76 0 107 -46t18 -124z" />
    <glyph glyph-name="afii10082" unicode="&#x440;" horiz-adv-x="526" 
d="M499 258q-22 -129 -82 -200.5t-154 -71.5q-95 0 -122 77h-2l-44 -243l-113 -15l104 599q0 2 3 22.5t7 47t5 39.5q31 3 114 13q-6 -52 -12 -76l2 -1q25 38 66 61t86 23q151 0 151 -180q0 -44 -9 -95zM312 446q-40 0 -71.5 -29t-47.5 -76q-29 -87 -29 -161q0 -108 85 -108
q53 0 85 47t50 142q8 51 8 81q0 104 -80 104z" />
    <glyph glyph-name="afii10083" unicode="&#x441;" horiz-adv-x="474" 
d="M360 199l106 -29q-20 -87 -80 -135.5t-147 -48.5q-108 0 -151.5 71t-20.5 203q22 127 91.5 200t171.5 73q87 0 130 -49t27 -133l-112 -16q15 52 -1 82t-56 30q-48 0 -84.5 -50t-50.5 -135q-33 -191 76 -191q42 0 70 35t31 93z" />
    <glyph glyph-name="afii10084" unicode="&#x442;" horiz-adv-x="811" 
d="M746 156l-27 -156h-113l60 344q3 16 3 31q0 31 -16 48.5t-45 17.5q-48 0 -81.5 -33t-43.5 -88l-56 -320h-113l60 344q3 15 3 30q0 31 -16.5 49t-45.5 18q-47 0 -80.5 -33t-43.5 -88l-57 -320h-112l67 380l2 13q12 76 15 119l113 13q-1 -29 -9 -73h2q63 80 158 80
q50 0 82 -24.5t39 -68.5q67 94 168 94q64 0 95.5 -33.5t31.5 -93.5q0 -28 -4 -47q-15 -78 -36 -203z" />
    <glyph glyph-name="afii10085" unicode="&#x443;" horiz-adv-x="460" 
d="M217 123h5l47 109l130 287h113l-238 -482q-49 -108 -93 -163q-50 -67 -124 -67q-27 0 -57 8q-3 70 -5 90q25 -7 50 -7q19 2 27.5 4t18 7.5t16.5 15.5l12 17l12 24l12 25l-84 520q23 5 66 9l50 6l32 -287q8 -72 10 -116z" />
    <glyph glyph-name="afii10086" unicode="&#x444;" horiz-adv-x="686" 
d="M43 260q21 117 107 189q86 73 194 77l37 205l115 16l-39 -221q100 -8 155.5 -63t55.5 -149q0 -132 -88 -221q-89 -89 -218 -104l-30 -169l-115 -15l33 184q-99 5 -155.5 64.5t-56.5 152.5q0 21 5 54zM548 257q4 19 4 47q0 58 -27.5 94.5t-82.5 43.5l-66 -371q68 8 113 60
q45 51 59 126zM157 257q-5 -32 -5 -49q0 -58 28.5 -94t83.5 -43l65 371q-67 -7 -115 -61q-45 -52 -57 -124z" />
    <glyph glyph-name="afii10087" unicode="&#x445;" horiz-adv-x="475" 
d="M318 268l113 -268h-126l-50 146l-18 57l-65 -94l-76 -109h-122l208 272l-105 240l121 16l43 -125q2 -6 10 -33t10 -36l28 40l101 145h122z" />
    <glyph glyph-name="afii10088" unicode="&#x446;" horiz-adv-x="521" 
d="M181 -14q-77 0 -108 45t-18 125l63 355l115 14l-61 -345q-18 -106 66 -106q44 0 76.5 35t42.5 88l56 322h113l-70 -397q-7 -44 24 -63q13 -7 20 -25t1 -41l-26 -135h-96l16 100q5 37 -23 52q-30 16 -26 66h-4q-24 -42 -68 -66t-93 -24z" />
    <glyph glyph-name="afii10089" unicode="&#x447;" horiz-adv-x="492" 
d="M503 519l-91 -519h-112l38 216q-71 -38 -141 -38q-68 0 -111 35t-43 97q0 17 3 35q13 81 29 167q31 3 114 13l-30 -174q-2 -12 -2 -24q0 -73 82 -73q24 0 56.5 10.5t55.5 25.5l40 229h112z" />
    <glyph glyph-name="afii10090" unicode="&#x448;" horiz-adv-x="804" 
d="M42 159l62 353l115 13l-61 -350q-3 -17 -3 -32q0 -66 63 -66q47 0 80.5 33.5t42.5 87.5l56 321h113l-60 -344q-3 -17 -3 -30q0 -68 63 -68q46 0 80.5 34t43.5 87l56 321h113l-69 -398q-14 -79 -18 -121h-110q1 31 7 66h-2q-59 -80 -155 -80q-51 0 -83.5 24.5t-39.5 68.5
l-12 -11q-66 -82 -156 -82q-127 0 -127 126q0 28 4 47z" />
    <glyph glyph-name="afii10091" unicode="&#x449;" horiz-adv-x="812" 
d="M42 159l62 353l115 13l-61 -350q-3 -17 -3 -32q0 -66 63 -66q47 0 80.5 33.5t42.5 87.5l56 321h113l-60 -344q-3 -17 -3 -30q0 -68 63 -68q48 0 82 33t44 88l56 321h113l-70 -397q0 -3 -0.5 -5.5t-1 -4.5t-0.5 -3.5v-2.5q0 -24 24 -47t24 -46q0 -10 -2 -20l-25 -135h-97
l15 77q3 18 3 35q0 14 -8 24.5t-18 16.5t-18 19.5t-8 34.5q0 1 1 5v5h-3q-25 -41 -69 -65t-93 -24q-52 0 -85.5 24.5t-40.5 68.5l-12 -11q-66 -82 -156 -82q-127 0 -127 126q0 28 4 47z" />
    <glyph glyph-name="afii10092" unicode="&#x44a;" horiz-adv-x="596" 
d="M318 -13q-184 0 -184 161q0 29 5 54l42 230h-160q10 26 30 87h258l-38 -203h127q78 0 124.5 -38.5t46.5 -102.5q0 -77 -67 -132q-67 -56 -184 -56zM456 172q-2 63 -98 63h-101l-8 -43q-4 -20 -4 -44q0 -77 90 -77q53 0 87 30t34 71z" />
    <glyph glyph-name="afii10093" unicode="&#x44b;" horiz-adv-x="705" 
d="M695 519l-87 -519h-110l88 519h109zM218 -13q-93 0 -137.5 42t-44.5 118q0 20 2 36q13 87 57 328q4 1 116 15l-39 -210h126q76 0 123 -36.5t49 -97.5q0 -78 -66 -137q-64 -58 -186 -58zM356 172q-2 63 -98 63h-101q-12 -61 -12 -87q0 -77 90 -77q53 0 87 30t34 71z" />
    <glyph glyph-name="afii10094" unicode="&#x44c;" horiz-adv-x="497" 
d="M218 -13q-93 0 -137.5 42t-44.5 118q0 20 2 36q13 87 57 328q4 1 116 15l-39 -210h126q76 0 123 -36.5t49 -97.5q0 -78 -66 -137q-64 -58 -186 -58zM356 172q-2 63 -98 63h-101q-12 -61 -12 -87q0 -77 90 -77q53 0 87 30t34 71z" />
    <glyph glyph-name="afii10095" unicode="&#x44d;" horiz-adv-x="468" 
d="M16 155l113 24q-6 -23 -6 -39q0 -30 17.5 -48t47.5 -18q51 0 84 36t51 118h-161l13 73h160q2 22 2 48q0 47 -21.5 73t-58.5 26t-62.5 -27t-28.5 -79l-101 34q21 75 75 116t132 41q180 0 180 -190q0 -134 -62 -241q-31 -54 -85.5 -85t-123.5 -31q-80 0 -123 40.5
t-43 113.5q0 1 0.5 7t0.5 8z" />
    <glyph glyph-name="afii10096" unicode="&#x44e;" horiz-adv-x="730" 
d="M704 258q-21 -131 -87 -200.5t-178 -69.5q-208 0 -176 242h-93l-40 -230h-112l90 514l115 12l-38 -211h94q28 100 92 156.5t155 56.5q114 0 156.5 -67.5t21.5 -202.5zM590 258q35 188 -71 188q-108 0 -141 -189q-33 -187 74 -187q106 0 138 188z" />
    <glyph glyph-name="afii10097" unicode="&#x44f;" horiz-adv-x="476" 
d="M257 208l-150 -208h-120l165 216q-43 9 -68 43t-25 81q0 82 58 130q58 49 146 49h216l-91 -519h-111l36 208h-56zM238 292h90l25 141h-90q-32 0 -63 -20q-30 -19 -30 -67q0 -54 68 -54z" />
    <glyph glyph-name="afii10071" unicode="&#x451;" horiz-adv-x="485" 
d="M231 69q42 0 68 30.5t28 79.5l102 -27q-42 -166 -208 -166q-186 0 -186 199q0 119 63 228q33 55 88 87.5t122 32.5q76 0 119 -35t43 -99q0 -84 -83 -130.5t-236 -47.5q-4 -15 -4 -44q0 -48 20.5 -78t63.5 -30zM293 449q-43 0 -79 -43q-36 -45 -49 -106q192 2 192 93
q0 27 -17.5 41.5t-46.5 14.5zM251 741q24 0 39 -15.5t15 -38.5q0 -32 -23.5 -55t-53.5 -23q-25 0 -40 15t-15 38q0 31 23.5 55t54.5 24zM433 742q24 0 38.5 -15t14.5 -38q0 -33 -23 -56t-53 -23q-24 0 -39 14.5t-15 37.5q0 32 23 56t54 24z" />
    <glyph glyph-name="afii10099" unicode="&#x452;" horiz-adv-x="538" 
d="M134 584h-57l7 36l5 28h57l15 85l113 14l-17 -99h144l-5 -28l-7 -36h-143l-25 -141h2q64 76 148 76q141 0 141 -185q0 -158 -60 -255q-58 -97 -180 -97q-20 0 -26 1l-9 87q24 -2 25 -2q42 0 73 26t44 70q25 78 25 161q0 103 -80 103q-106 0 -135 -167l-45 -261h-113z" />
    <glyph glyph-name="afii10100" unicode="&#x453;" horiz-adv-x="434" 
d="M195 68q49 0 77 32.5t29 89.5l105 -29q-19 -85 -77 -130t-147 -45q-76 0 -124 36t-48 98q0 68 43.5 111t138.5 74q71 24 99 44.5t28 50.5q0 23 -18 36.5t-47 13.5q-87 0 -96 -91l-32 13q-32 13 -62 24q47 137 195 137q71 0 120 -33q50 -32 50 -94t-40.5 -103t-126.5 -69
q-79 -28 -111 -50.5t-32 -56.5q1 -27 22 -43t54 -16zM332 755h116l-147 -156h-72z" />
    <glyph glyph-name="afii10101" unicode="&#x454;" horiz-adv-x="474" 
d="M360 191l104 -28q-23 -85 -82 -131t-142 -46q-110 0 -153 70.5t-20 203.5q22 127 91.5 200t171.5 73q84 0 126.5 -46t31.5 -126l-111 -19q14 48 -3 76.5t-56 28.5q-43 0 -76.5 -38.5t-50.5 -106.5h152l-13 -73h-153q-17 -158 82 -158q41 0 69.5 33t31.5 87z" />
    <glyph glyph-name="afii10102" unicode="&#x455;" horiz-adv-x="441" 
d="M276 533q72 0 113.5 -34.5t41.5 -97.5q0 -16 -1 -21l-53 -13l-53 -13q6 24 6 32q0 30 -18.5 44t-60.5 14q-26 0 -48 -18t-22 -46q0 -22 22.5 -37.5t55 -27.5t65 -26.5t55 -43.5t22.5 -69q0 -80 -63 -135q-62 -55 -160 -55q-161 0 -161 141q0 23 4 40l113 24
q-13 -29 -13 -58q0 -31 18 -48.5t53 -17.5q41 0 67.5 25t26.5 59q0 47 -76 75q-74 29 -98 48q-41 34 -41 88q0 85 61 128t144 43z" />
    <glyph glyph-name="afii10103" unicode="&#x456;" horiz-adv-x="233" 
d="M212 747q29 0 46.5 -19t13.5 -48q-4 -33 -28.5 -56t-56.5 -23q-30 0 -46.5 19.5t-13.5 47.5q3 33 28 56t57 23zM230 526l-93 -526h-112l90 512z" />
    <glyph glyph-name="afii10104" unicode="&#x457;" horiz-adv-x="233" 
d="M122 734q24 0 39 -15.5t15 -38.5q0 -32 -23.5 -55t-53.5 -23q-25 0 -40 15t-15 38q0 31 23.5 55t54.5 24zM304 735q24 0 38.5 -15t14.5 -38q0 -33 -23 -56t-53 -23q-24 0 -39 14.5t-15 37.5q0 32 23 56t54 24zM230 526l-93 -526h-112l90 514z" />
    <glyph glyph-name="afii10105" unicode="&#x458;" horiz-adv-x="234" 
d="M214 747q26 0 42.5 -16t16.5 -42q0 -37 -25 -62.5t-60 -25.5q-27 0 -44 16.5t-17 42.5q0 36 26 61.5t61 25.5zM-63 -188q-7 20 -32 90q4 -1 17 -1q57 0 77 32q19 31 33 104l83 475l115 14l-74 -425q-13 -72 -22 -104q-8 -35 -26 -79q-24 -56 -61.5 -79t-109.5 -27z" />
    <glyph glyph-name="afii10106" unicode="&#x459;" horiz-adv-x="789" 
d="M511 -13q-94 0 -139 42t-45 118q0 28 5 55l43 230h-117l-43 -174q-35 -146 -77 -209q-40 -61 -117 -61q-4 0 -30 2l-10 83q18 -2 20 -2q44 0 70 53q26 54 62 207l43 188h326l-39 -205h128q77 0 124 -38.5t47 -102.5q0 -76 -67 -131q-65 -55 -184 -55zM649 170
q-2 62 -98 62h-102l-8 -40q-4 -19 -4 -44q0 -77 91 -77q55 0 88 30q33 31 33 69z" />
    <glyph glyph-name="afii10107" unicode="&#x45a;" horiz-adv-x="773" 
d="M495 -13q-93 0 -138.5 42.5t-45.5 116.5q0 18 5 50l6 36h-152q-33 -193 -40 -232h-112l89 519h112q-28 -161 -35 -207h152l21 114l15 85q4 1 116 15l-39 -213h127q75 0 122 -36t49 -97q0 -77 -65 -136q-65 -57 -187 -57zM633 170q-2 62 -98 62h-101q-12 -52 -12 -84
q0 -77 90 -77q55 0 88 30q33 31 33 69z" />
    <glyph glyph-name="afii10108" unicode="&#x45b;" horiz-adv-x="520" 
d="M122 584h-48l12 65h48l15 85l114 14l-17 -99h156l-12 -65h-156l-22 -130l1 -1q56 80 153 80q76 0 107.5 -46t18.5 -124l-63 -363h-113l61 343q17 104 -68 104q-46 0 -78.5 -34.5t-41.5 -88.5l-57 -324h-112z" />
    <glyph glyph-name="afii10109" unicode="&#x45c;" horiz-adv-x="503" 
d="M298 278l162 -278h-126l-149 265l-46 -265h-112l89 513l115 13q-36 -202 -41 -231h1l2 -1l218 225h134zM359 742h116l-147 -156h-72z" />
    <glyph glyph-name="uni045D" unicode="&#x45d;" horiz-adv-x="518" 
d="M429 0h-110q1 28 8 67h-2q-59 -81 -155 -81q-64 0 -96 32t-32 91q0 27 4 46l63 356q95 11 114 14l-61 -345q-3 -18 -3 -34q0 -73 69 -73q44 0 76.5 35t42.5 89l56 322h113l-71 -410q-16 -77 -16 -109zM307 744l74 -158h-66l-120 158h112z" />
    <glyph glyph-name="afii10110" unicode="&#x45e;" horiz-adv-x="460" 
d="M217 123h5l47 109l130 287h113l-238 -482q-49 -108 -93 -163q-50 -67 -124 -67q-27 0 -57 8q-3 70 -5 90q25 -7 50 -7q19 2 27.5 4t18 7.5t16.5 15.5l12 17l12 24l12 25l-84 520q23 5 66 9l50 6l32 -287q8 -72 10 -116zM307 650q30 0 54.5 24t29.5 55h72
q-10 -54 -54 -101q-43 -45 -113 -45q-68 0 -96 46t-18 100h72q-5 -31 10 -55t43 -24z" />
    <glyph glyph-name="afii10193" unicode="&#x45f;" horiz-adv-x="518" 
d="M429 0h-110q1 28 8 67h-2q-59 -81 -155 -81q-64 0 -96 32t-32 91q0 27 4 46l63 356q95 11 114 14l-61 -345q-3 -18 -3 -34q0 -73 69 -73q44 0 76.5 35t42.5 89l56 322h113l-71 -410q-16 -77 -16 -109zM225 -45l96 11l-36 -178h-91q22 124 31 167z" />
    <glyph glyph-name="afii10050" unicode="&#x490;" horiz-adv-x="481" 
d="M149 0h-118l126 718h309l25 146h101l-43 -242h-291z" />
    <glyph glyph-name="afii10098" unicode="&#x491;" horiz-adv-x="400" 
d="M432 433h-230l-76 -433h-113l92 519h245l23 129h97z" />
    <glyph glyph-name="schwacyrillic" unicode="&#x4d9;" horiz-adv-x="481" 
d="M260 450q-43 0 -68.5 -30.5t-26.5 -80.5l-107 32q27 80 82 121t131 41q186 0 186 -200q0 -58 -16.5 -116.5t-48 -111.5t-86 -86t-122.5 -33q-76 0 -119 34.5t-43 98.5q0 84 82.5 130.5t235.5 47.5q4 15 4 44q0 48 -20.5 78.5t-63.5 30.5zM198 69q44 0 78 43q37 44 50 106
q-192 -2 -192 -93q0 -27 18 -41.5t46 -14.5z" />
    <glyph glyph-name="Wgrave" unicode="&#x1e80;" horiz-adv-x="881" 
d="M505 547h-4q-22 -68 -54 -139l-168 -408h-139l-43 718h124q14 -496 14 -497q0 -2 -2 -92h3q24 69 62 163l174 426h119l25 -432q5 -118 5 -157h3q17 60 35 106q27 63 29 73l155 410h123l-297 -718h-133l-25 408l-4 51q-2 34 -3 44q0 22 1 44zM571 775h-69l-120 161h112z
" />
    <glyph glyph-name="wgrave" unicode="&#x1e81;" horiz-adv-x="752" 
d="M690 519h109l-235 -519h-121l-18 285q-7 76 -4 143h-3q-29 -80 -55 -140l-122 -288h-127l-50 512l117 17l15 -314q2 -42 2 -117h2q22 68 49 123l125 298h125l18 -300q4 -97 4 -119h2q37 100 46 121zM408 744l74 -158h-66l-120 158h112z" />
    <glyph glyph-name="Wacute" unicode="&#x1e82;" horiz-adv-x="881" 
d="M505 547h-4q-22 -68 -54 -139l-168 -408h-139l-43 718h124q14 -496 14 -497q0 -2 -2 -92h3q24 69 62 163l174 426h119l25 -432q5 -118 5 -157h3q17 60 35 106q27 63 29 73l155 410h123l-297 -718h-133l-25 408l-4 51q-2 34 -3 44q0 22 1 44zM591 929h117l-147 -154h-72z
" />
    <glyph glyph-name="wacute" unicode="&#x1e83;" horiz-adv-x="752" 
d="M690 519h109l-235 -519h-121l-18 285q-7 76 -4 143h-3q-29 -80 -55 -140l-122 -288h-127l-50 512l117 17l15 -314q2 -42 2 -117h2q22 68 49 123l125 298h125l18 -300q4 -97 4 -119h2q37 100 46 121zM483 742h116l-147 -156h-72z" />
    <glyph glyph-name="Wdieresis" unicode="&#x1e84;" horiz-adv-x="881" 
d="M505 547h-4q-22 -68 -54 -139l-168 -408h-139l-43 718h124q14 -496 14 -497q0 -2 -2 -92h3q24 69 62 163l174 426h119l25 -432q5 -118 5 -157h3q17 60 35 106q27 63 29 73l155 410h123l-297 -718h-133l-25 408l-4 51q-2 34 -3 44q0 22 1 44zM655 915q24 0 39 -15t15 -39
q0 -32 -23 -55t-54 -23q-25 0 -40.5 15.5t-15.5 38.5q0 30 24.5 54t54.5 24zM473 914q23 0 38 -15t15 -38q0 -32 -23.5 -55.5t-53.5 -23.5q-24 0 -39 15t-15 38q0 32 23.5 55.5t54.5 23.5z" />
    <glyph glyph-name="wdieresis" unicode="&#x1e85;" horiz-adv-x="752" 
d="M690 519h109l-235 -519h-121l-18 285q-7 76 -4 143h-3q-29 -80 -55 -140l-122 -288h-127l-50 512l117 17l15 -314q2 -42 2 -117h2q22 68 49 123l125 298h125l18 -300q4 -97 4 -119h2q37 100 46 121zM379 732q24 0 39 -15.5t15 -38.5q0 -32 -23.5 -55t-53.5 -23
q-25 0 -40 15t-15 38q0 31 23.5 55t54.5 24zM561 733q24 0 38.5 -15t14.5 -38q0 -33 -23 -56t-53 -23q-24 0 -39 14.5t-15 37.5q0 32 23 56t54 24z" />
    <glyph glyph-name="Ygrave" unicode="&#x1ef2;" horiz-adv-x="564" 
d="M518 718h133l-295 -436l-50 -282h-118l49 281l-142 437h130l62 -232q14 -47 22 -108l2 2q18 37 61 106zM422 775h-69l-120 161h112z" />
    <glyph glyph-name="ygrave" unicode="&#x1ef3;" horiz-adv-x="460" 
d="M217 123h5l47 109l130 287h113l-238 -482q-49 -108 -93 -163q-50 -67 -124 -67q-27 0 -57 8q-3 70 -5 90q25 -7 50 -7q19 2 27.5 4t18 7.5t16.5 15.5l12 17l12 24l12 25l-84 520q23 5 66 9l50 6l32 -287q8 -72 10 -116zM266 744l74 -158h-66l-120 158h112z" />
    <glyph glyph-name="uni1F00" unicode="&#x1f00;" horiz-adv-x="537" 
d="M290 532q44 0 74 -20.5t41 -57.5q3 14 7.5 29l7.5 25t3 11h110q-19 -75 -31 -147l-47 -264q-7 -37 23 -37q12 0 29 6l-26 -76q-31 -14 -65 -14q-37 0 -58 22t-14 57h-3q-54 -80 -158 -80q-73 0 -109.5 46.5t-36.5 132.5q0 160 71 264q70 103 182 103zM372 262q7 41 7 73
q0 111 -81 111q-54 0 -87 -46t-49 -139q-9 -49 -9 -87q0 -102 76 -102q109 0 143 190zM330 576l-45 19q36 36 36 67q0 37 -47 43l45 76q87 -18 87 -82q0 -25 -19 -59.5t-57 -63.5z" />
    <glyph glyph-name="uni1F01" unicode="&#x1f01;" horiz-adv-x="537" 
d="M290 532q44 0 74 -20.5t41 -57.5q3 14 7.5 29l7.5 25t3 11h110q-19 -75 -31 -147l-47 -264q-7 -37 23 -37q12 0 29 6l-26 -76q-31 -14 -65 -14q-37 0 -58 22t-14 57h-3q-54 -80 -158 -80q-73 0 -109.5 46.5t-36.5 132.5q0 160 71 264q70 103 182 103zM372 262q7 41 7 73
q0 111 -81 111q-54 0 -87 -46t-49 -139q-9 -49 -9 -87q0 -102 76 -102q109 0 143 190zM369 592l-50 -19q-38 43 -38 91q0 44 33 74t89 40l16 -76q-49 -7 -60 -40t10 -70z" />
    <glyph glyph-name="uni1F02" unicode="&#x1f02;" horiz-adv-x="537" 
d="M290 532q44 0 74 -20.5t41 -57.5q3 14 7.5 29l7.5 25t3 11h110q-19 -75 -31 -147l-47 -264q-7 -37 23 -37q12 0 29 6l-26 -76q-31 -14 -65 -14q-37 0 -58 22t-14 57h-3q-54 -80 -158 -80q-73 0 -109.5 46.5t-36.5 132.5q0 160 71 264q70 103 182 103zM372 262q7 41 7 73
q0 111 -81 111q-54 0 -87 -46t-49 -139q-9 -49 -9 -87q0 -102 76 -102q109 0 143 190zM307 770h112l55 -185h-71zM304 693q-1 -24 -20.5 -57t-55.5 -61l-42 20q35 41 35 66q0 37 -46 44l43 75q86 -18 86 -87z" />
    <glyph glyph-name="uni1F03" unicode="&#x1f03;" horiz-adv-x="537" 
d="M290 532q44 0 74 -20.5t41 -57.5q3 14 7.5 29l7.5 25t3 11h110q-19 -75 -31 -147l-47 -264q-7 -37 23 -37q12 0 29 6l-26 -76q-31 -14 -65 -14q-37 0 -58 22t-14 57h-3q-54 -80 -158 -80q-73 0 -109.5 46.5t-36.5 132.5q0 160 71 264q70 103 182 103zM372 262q7 41 7 73
q0 111 -81 111q-54 0 -87 -46t-49 -139q-9 -49 -9 -87q0 -102 76 -102q109 0 143 190zM312 769h112l55 -184h-71zM165 671q2 43 34.5 71t85.5 38l18 -75q-31 -5 -47 -21t-16 -34q0 -32 12 -55l-49 -20q-38 40 -38 96z" />
    <glyph glyph-name="uni1F04" unicode="&#x1f04;" horiz-adv-x="537" 
d="M290 532q44 0 74 -20.5t41 -57.5q3 14 7.5 29l7.5 25t3 11h110q-19 -75 -31 -147l-47 -264q-7 -37 23 -37q12 0 29 6l-26 -76q-31 -14 -65 -14q-37 0 -58 22t-14 57h-3q-54 -80 -158 -80q-73 0 -109.5 46.5t-36.5 132.5q0 160 71 264q70 103 182 103zM372 262q7 41 7 73
q0 111 -81 111q-54 0 -87 -46t-49 -139q-9 -49 -9 -87q0 -102 76 -102q109 0 143 190zM559 763l-156 -181h-71l115 181h112zM351 693q-3 -25 -22 -57.5t-54 -60.5l-42 20q34 37 34 66q0 37 -46 44l44 75q86 -18 86 -87z" />
    <glyph glyph-name="uni1F05" unicode="&#x1f05;" horiz-adv-x="537" 
d="M290 532q44 0 74 -20.5t41 -57.5q3 14 7.5 29l7.5 25t3 11h110q-19 -75 -31 -147l-47 -264q-7 -37 23 -37q12 0 29 6l-26 -76q-31 -14 -65 -14q-37 0 -58 22t-14 57h-3q-54 -80 -158 -80q-73 0 -109.5 46.5t-36.5 132.5q0 160 71 264q70 103 182 103zM372 262q7 41 7 73
q0 111 -81 111q-54 0 -87 -46t-49 -139q-9 -49 -9 -87q0 -102 76 -102q109 0 143 190zM551 770l-155 -187h-71l114 187h112zM211 671q2 43 34.5 71t85.5 38l18 -75q-31 -5 -47.5 -21.5t-16.5 -35.5q0 -30 14 -53q-12 -4 -50 -20q-38 43 -38 96z" />
    <glyph glyph-name="uni1F06" unicode="&#x1f06;" horiz-adv-x="537" 
d="M290 532q44 0 74 -20.5t41 -57.5q3 14 7.5 29l7.5 25t3 11h110q-19 -75 -31 -147l-47 -264q-7 -37 23 -37q12 0 29 6l-26 -76q-31 -14 -65 -14q-37 0 -58 22t-14 57h-3q-54 -80 -158 -80q-73 0 -109.5 46.5t-36.5 132.5q0 160 71 264q70 103 182 103zM372 262q7 41 7 73
q0 111 -81 111q-54 0 -87 -46t-49 -139q-9 -49 -9 -87q0 -102 76 -102q109 0 143 190zM480 890q9 -9 36 -42q-13 -29 -38.5 -49t-54.5 -20q-23 0 -66 15q-42 16 -63 16q-36 0 -56 -38l-43 38q14 29 43.5 51.5t58.5 22.5q28 0 67 -16t59 -16q37 0 57 38zM406 689
q-1 -23 -20 -53t-54 -56q-35 16 -42 19q35 38 35 61q0 34 -45 40l42 70q84 -16 84 -81z" />
    <glyph glyph-name="uni1F07" unicode="&#x1f07;" horiz-adv-x="537" 
d="M290 532q44 0 74 -20.5t41 -57.5q3 14 7.5 29l7.5 25t3 11h110q-19 -75 -31 -147l-47 -264q-7 -37 23 -37q12 0 29 6l-26 -76q-31 -14 -65 -14q-37 0 -58 22t-14 57h-3q-54 -80 -158 -80q-73 0 -109.5 46.5t-36.5 132.5q0 160 71 264q70 103 182 103zM372 262q7 41 7 73
q0 111 -81 111q-54 0 -87 -46t-49 -139q-9 -49 -9 -87q0 -102 76 -102q109 0 143 190zM492 890q9 -9 36 -42q-13 -29 -38.5 -49t-54.5 -20q-23 0 -66 15q-42 16 -63 16q-36 0 -56 -38l-43 38q14 29 43.5 51.5t58.5 22.5q28 0 67 -16t59 -16q37 0 57 38zM284 663
q2 38 33.5 64t82.5 35l17 -68q-30 -5 -45.5 -19.5t-15.5 -31.5q0 -27 12 -50l-47 -18q-37 36 -37 88z" />
    <glyph glyph-name="uni1F08" unicode="&#x1f08;" horiz-adv-x="613" 
d="M463 718l105 -718h-121q-1 8 -2.5 20.5t-4 31t-4.5 33.5t-5.5 45t-5.5 41h-252l-82 -171h-117l354 718h135zM216 267h199q-15 128 -19 153q-3 32 -8 67l-10 119h-3q-54 -122 -73 -161zM88 516l-45 19q36 36 36 67q0 37 -47 43l45 76q87 -18 87 -82q0 -25 -19 -59.5
t-57 -63.5z" />
    <glyph glyph-name="uni1F09" unicode="&#x1f09;" horiz-adv-x="613" 
d="M463 718l105 -718h-121q-1 8 -2.5 20.5t-4 31t-4.5 33.5t-5.5 45t-5.5 41h-252l-82 -171h-117l354 718h135zM216 267h199q-15 128 -19 153q-3 32 -8 67l-10 119h-3q-54 -122 -73 -161zM124 534l-50 -19q-38 43 -38 91q0 44 33 74t89 40l16 -76q-49 -7 -60 -40t10 -70z
" />
    <glyph glyph-name="uni1F0A" unicode="&#x1f0a;" horiz-adv-x="613" 
d="M463 718l105 -718h-121q-1 8 -2.5 20.5t-4 31t-4.5 33.5t-5.5 45t-5.5 41h-252l-82 -171h-117l354 718h135zM216 267h199q-15 128 -19 153q-3 32 -8 67l-10 119h-3q-54 -122 -73 -161zM-3 719h112l55 -185h-71zM-6 642q-1 -24 -20.5 -57t-55.5 -61l-42 20q35 41 35 66
q0 37 -46 44l43 75q86 -18 86 -87z" />
    <glyph glyph-name="uni1F0B" unicode="&#x1f0b;" horiz-adv-x="613" 
d="M463 718l105 -718h-121q-1 8 -2.5 20.5t-4 31t-4.5 33.5t-5.5 45t-5.5 41h-252l-82 -171h-117l354 718h135zM216 267h199q-15 128 -19 153q-3 32 -8 67l-10 119h-3q-54 -122 -73 -161zM-3 718h112l55 -184h-71zM-150 620q2 43 34.5 71t85.5 38l18 -75q-31 -5 -47 -21
t-16 -34q0 -33 12 -55l-49 -20q-38 40 -38 96z" />
    <glyph glyph-name="uni1F0C" unicode="&#x1f0c;" horiz-adv-x="613" 
d="M463 718l105 -718h-121q-1 8 -2.5 20.5t-4 31t-4.5 33.5t-5.5 45t-5.5 41h-252l-82 -171h-117l354 718h135zM216 267h199q-15 128 -19 153q-3 32 -8 67l-10 119h-3q-54 -122 -73 -161zM233 716l-156 -181h-71l115 181h112zM25 646q-3 -25 -22 -57.5t-54 -60.5l-42 20
q34 37 34 66q0 37 -46 44l44 75q86 -18 86 -87z" />
    <glyph glyph-name="uni1F0D" unicode="&#x1f0d;" horiz-adv-x="613" 
d="M463 718l105 -718h-121q-1 8 -2.5 20.5t-4 31t-4.5 33.5t-5.5 45t-5.5 41h-252l-82 -171h-117l354 718h135zM216 267h199q-15 128 -19 153q-3 32 -8 67l-10 119h-3q-54 -122 -73 -161zM227 719l-155 -187h-71l114 187h112zM-113 620q2 43 34.5 71t85.5 38l18 -75
q-31 -5 -47.5 -21.5t-16.5 -35.5q0 -30 14 -53q-12 -4 -50 -20q-38 43 -38 96z" />
    <glyph glyph-name="uni1F0E" unicode="&#x1f0e;" horiz-adv-x="613" 
d="M463 718l105 -718h-121q-1 8 -2.5 20.5t-4 31t-4.5 33.5t-5.5 45t-5.5 41h-252l-82 -171h-117l354 718h135zM216 267h199q-15 128 -19 153q-3 32 -8 67l-10 119h-3q-54 -122 -73 -161zM200 747l36 -42q-13 -29 -38.5 -49t-54.5 -20q-23 0 -66 15q-42 16 -63 16
q-36 0 -56 -38l-43 38q14 29 43.5 51.5t58.5 22.5q28 0 67 -16t59 -16q37 0 57 38zM126 546q-1 -23 -20 -53t-54 -56q-35 16 -42 19q35 38 35 61q0 34 -45 40l42 70q84 -17 84 -81z" />
    <glyph glyph-name="uni1F0F" unicode="&#x1f0f;" horiz-adv-x="613" 
d="M463 718l105 -718h-121q-1 8 -2.5 20.5t-4 31t-4.5 33.5t-5.5 45t-5.5 41h-252l-82 -171h-117l354 718h135zM216 267h199q-15 128 -19 153q-3 32 -8 67l-10 119h-3q-54 -122 -73 -161zM198 747q9 -9 36 -42q-13 -29 -38.5 -49t-54.5 -20q-23 0 -66 15q-42 16 -63 16
q-36 0 -56 -38l-43 38q14 29 43.5 51.5t58.5 22.5q28 0 67 -16t59 -16q37 0 57 38zM-10 520q2 38 33.5 64t82.5 35l17 -68q-30 -5 -45.5 -19.5t-15.5 -31.5q0 -28 12 -50l-47 -18q-37 36 -37 88z" />
    <glyph glyph-name="uni1F10" unicode="&#x1f10;" horiz-adv-x="460" 
d="M326 179q81 -21 105 -28q-23 -76 -79.5 -120.5t-143.5 -44.5q-85 0 -130 34.5t-45 93.5q0 22 9 50.5t38.5 60t73.5 42.5l2 4q-73 18 -73 96q0 67 55 116q56 50 145 50q77 0 124 -36.5t47 -106.5v-13l-112 -22q5 18 5 27q0 57 -73 57q-39 0 -61.5 -23t-22.5 -54
q0 -26 18 -39t47 -13h47l-14 -80h-36q-44 0 -73.5 -27.5t-29.5 -70.5q0 -28 19.5 -44.5t51.5 -16.5q41 0 71.5 30.5t34.5 77.5zM309 576l-45 19q36 36 36 67q0 37 -47 43l45 76q87 -18 87 -82q0 -25 -19 -59.5t-57 -63.5z" />
    <glyph glyph-name="uni1F11" unicode="&#x1f11;" horiz-adv-x="460" 
d="M326 179q81 -21 105 -28q-23 -76 -79.5 -120.5t-143.5 -44.5q-85 0 -130 34.5t-45 93.5q0 22 9 50.5t38.5 60t73.5 42.5l2 4q-73 18 -73 96q0 67 55 116q56 50 145 50q77 0 124 -36.5t47 -106.5v-13l-112 -22q5 18 5 27q0 57 -73 57q-39 0 -61.5 -23t-22.5 -54
q0 -26 18 -39t47 -13h47l-14 -80h-36q-44 0 -73.5 -27.5t-29.5 -70.5q0 -28 19.5 -44.5t51.5 -16.5q41 0 71.5 30.5t34.5 77.5zM340 592l-50 -19q-38 43 -38 91q0 44 33 74t89 40l16 -76q-49 -7 -60 -40t10 -70z" />
    <glyph glyph-name="uni1F12" unicode="&#x1f12;" horiz-adv-x="460" 
d="M326 179q81 -21 105 -28q-23 -76 -79.5 -120.5t-143.5 -44.5q-85 0 -130 34.5t-45 93.5q0 22 9 50.5t38.5 60t73.5 42.5l2 4q-73 18 -73 96q0 67 55 116q56 50 145 50q77 0 124 -36.5t47 -106.5v-13l-112 -22q5 18 5 27q0 57 -73 57q-39 0 -61.5 -23t-22.5 -54
q0 -26 18 -39t47 -13h47l-14 -80h-36q-44 0 -73.5 -27.5t-29.5 -70.5q0 -28 19.5 -44.5t51.5 -16.5q41 0 71.5 30.5t34.5 77.5zM281 770h112l55 -185h-71zM278 693q-1 -24 -20.5 -57t-55.5 -61l-42 20q35 41 35 66q0 37 -46 44l43 75q86 -18 86 -87z" />
    <glyph glyph-name="uni1F13" unicode="&#x1f13;" horiz-adv-x="460" 
d="M326 179q81 -21 105 -28q-23 -76 -79.5 -120.5t-143.5 -44.5q-85 0 -130 34.5t-45 93.5q0 22 9 50.5t38.5 60t73.5 42.5l2 4q-73 18 -73 96q0 67 55 116q56 50 145 50q77 0 124 -36.5t47 -106.5v-13l-112 -22q5 18 5 27q0 57 -73 57q-39 0 -61.5 -23t-22.5 -54
q0 -26 18 -39t47 -13h47l-14 -80h-36q-44 0 -73.5 -27.5t-29.5 -70.5q0 -28 19.5 -44.5t51.5 -16.5q41 0 71.5 30.5t34.5 77.5zM301 769h112l55 -184h-71zM154 671q2 43 34.5 71t85.5 38l18 -75q-31 -5 -47 -21t-16 -34q0 -32 12 -55l-49 -20q-38 40 -38 96z" />
    <glyph glyph-name="uni1F14" unicode="&#x1f14;" horiz-adv-x="460" 
d="M326 179q81 -21 105 -28q-23 -76 -79.5 -120.5t-143.5 -44.5q-85 0 -130 34.5t-45 93.5q0 22 9 50.5t38.5 60t73.5 42.5l2 4q-73 18 -73 96q0 67 55 116q56 50 145 50q77 0 124 -36.5t47 -106.5v-13l-112 -22q5 18 5 27q0 57 -73 57q-39 0 -61.5 -23t-22.5 -54
q0 -26 18 -39t47 -13h47l-14 -80h-36q-44 0 -73.5 -27.5t-29.5 -70.5q0 -28 19.5 -44.5t51.5 -16.5q41 0 71.5 30.5t34.5 77.5zM535 763l-156 -181h-71l115 181h112zM327 693q-3 -25 -22 -57.5t-54 -60.5l-42 20q34 37 34 66q0 37 -46 44l44 75q86 -18 86 -87z" />
    <glyph glyph-name="uni1F15" unicode="&#x1f15;" horiz-adv-x="460" 
d="M326 179q81 -21 105 -28q-23 -76 -79.5 -120.5t-143.5 -44.5q-85 0 -130 34.5t-45 93.5q0 22 9 50.5t38.5 60t73.5 42.5l2 4q-73 18 -73 96q0 67 55 116q56 50 145 50q77 0 124 -36.5t47 -106.5v-13l-112 -22q5 18 5 27q0 57 -73 57q-39 0 -61.5 -23t-22.5 -54
q0 -26 18 -39t47 -13h47l-14 -80h-36q-44 0 -73.5 -27.5t-29.5 -70.5q0 -28 19.5 -44.5t51.5 -16.5q41 0 71.5 30.5t34.5 77.5zM535 770l-155 -187h-71l114 187h112zM195 671q2 43 34.5 71t85.5 38l18 -75q-31 -5 -47.5 -21.5t-16.5 -35.5q0 -30 14 -53q-12 -4 -50 -20
q-38 43 -38 96z" />
    <glyph glyph-name="uni1F18" unicode="&#x1f18;" 
d="M486 96l-16 -96h-442l126 718h412l-42 -96h-269l-35 -202h262l-17 -96h-262l-40 -228h323zM-7 516l-45 19q36 36 36 67q0 37 -47 43l45 76q87 -18 87 -82q0 -25 -19 -59.5t-57 -63.5z" />
    <glyph glyph-name="uni1F19" unicode="&#x1f19;" 
d="M486 96l-16 -96h-442l126 718h412l-42 -96h-269l-35 -202h262l-17 -96h-262l-40 -228h323zM19 536l-50 -19q-38 43 -38 91q0 44 33 74t89 40l16 -76q-49 -7 -60 -40t10 -70z" />
    <glyph glyph-name="uni1F1A" unicode="&#x1f1a;" 
d="M486 96l-16 -96h-442l126 718h412l-42 -96h-269l-35 -202h262l-17 -96h-262l-40 -228h323zM-116 713h112l55 -185h-71zM-119 636q-1 -24 -20.5 -57t-55.5 -61l-42 20q35 41 35 66q0 37 -46 44l43 75q86 -18 86 -87z" />
    <glyph glyph-name="uni1F1B" unicode="&#x1f1b;" 
d="M486 96l-16 -96h-442l126 718h412l-42 -96h-269l-35 -202h262l-17 -96h-262l-40 -228h323zM-89 714h112l55 -184h-71zM-236 616q2 43 34.5 71t85.5 38l18 -75q-31 -5 -47 -21t-16 -34q0 -33 12 -55l-49 -20q-38 40 -38 96z" />
    <glyph glyph-name="uni1F1C" unicode="&#x1f1c;" 
d="M486 96l-16 -96h-442l126 718h412l-42 -96h-269l-35 -202h262l-17 -96h-262l-40 -228h323zM109 714l-156 -181h-71l115 181h112zM-99 644q-3 -25 -22 -57.5t-54 -60.5l-42 20q34 37 34 66q0 37 -46 44l44 75q86 -18 86 -87z" />
    <glyph glyph-name="uni1F1D" unicode="&#x1f1d;" 
d="M486 96l-16 -96h-442l126 718h412l-42 -96h-269l-35 -202h262l-17 -96h-262l-40 -228h323zM98 717l-155 -187h-71l114 187h112zM-242 618q2 43 34.5 71t85.5 38l18 -75q-31 -5 -47.5 -21.5t-16.5 -35.5q0 -30 14 -53q-12 -4 -50 -20q-38 43 -38 96z" />
    <glyph glyph-name="uni1F20" unicode="&#x1f20;" horiz-adv-x="522" 
d="M494 363l-96 -544l-114 -14l95 537q9 49 -8 77t-59 28q-47 0 -79.5 -34.5t-41.5 -89.5l-57 -323h-112l68 387q14 88 18 127l113 11q0 -15 -11 -73h2q62 81 157 81q76 0 107 -46t18 -124zM308 576l-45 19q36 36 36 67q0 37 -47 43l45 76q87 -18 87 -82q0 -25 -19 -59.5
t-57 -63.5z" />
    <glyph glyph-name="uni1F21" unicode="&#x1f21;" horiz-adv-x="522" 
d="M494 363l-96 -544l-114 -14l95 537q9 49 -8 77t-59 28q-47 0 -79.5 -34.5t-41.5 -89.5l-57 -323h-112l68 387q14 88 18 127l113 11q0 -15 -11 -73h2q62 81 157 81q76 0 107 -46t18 -124zM351 597l-50 -19q-38 43 -38 91q0 44 33 74t89 40l16 -76q-49 -7 -60 -40t10 -70z
" />
    <glyph glyph-name="uni1F22" unicode="&#x1f22;" horiz-adv-x="522" 
d="M494 363l-96 -544l-114 -14l95 537q9 49 -8 77t-59 28q-47 0 -79.5 -34.5t-41.5 -89.5l-57 -323h-112l68 387q14 88 18 127l113 11q0 -15 -11 -73h2q62 81 157 81q76 0 107 -46t18 -124zM307 770h112l55 -185h-71zM304 693q-1 -24 -20.5 -57t-55.5 -61l-42 20
q35 41 35 66q0 37 -46 44l43 75q86 -18 86 -87z" />
    <glyph glyph-name="uni1F23" unicode="&#x1f23;" horiz-adv-x="522" 
d="M494 363l-96 -544l-114 -14l95 537q9 49 -8 77t-59 28q-47 0 -79.5 -34.5t-41.5 -89.5l-57 -323h-112l68 387q14 88 18 127l113 11q0 -15 -11 -73h2q62 81 157 81q76 0 107 -46t18 -124zM313 768h112l55 -184h-71zM166 670q2 43 34.5 71t85.5 38l18 -75q-31 -5 -47 -21
t-16 -34q0 -33 12 -55l-49 -20q-38 40 -38 96z" />
    <glyph glyph-name="uni1F24" unicode="&#x1f24;" horiz-adv-x="522" 
d="M494 363l-96 -544l-114 -14l95 537q9 49 -8 77t-59 28q-47 0 -79.5 -34.5t-41.5 -89.5l-57 -323h-112l68 387q14 88 18 127l113 11q0 -15 -11 -73h2q62 81 157 81q76 0 107 -46t18 -124zM530 766l-156 -181h-71l115 181h112zM322 696q-3 -25 -22 -57.5t-54 -60.5l-42 20
q34 37 34 66q0 37 -46 44l44 75q86 -18 86 -87z" />
    <glyph glyph-name="uni1F25" unicode="&#x1f25;" horiz-adv-x="522" 
d="M494 363l-96 -544l-114 -14l95 537q9 49 -8 77t-59 28q-47 0 -79.5 -34.5t-41.5 -89.5l-57 -323h-112l68 387q14 88 18 127l113 11q0 -15 -11 -73h2q62 81 157 81q76 0 107 -46t18 -124zM537 770l-155 -187h-71l114 187h112zM197 671q2 43 34.5 71t85.5 38l18 -75
q-31 -5 -47.5 -21.5t-16.5 -35.5q0 -30 14 -53q-12 -4 -50 -20q-38 43 -38 96z" />
    <glyph glyph-name="uni1F26" unicode="&#x1f26;" horiz-adv-x="522" 
d="M494 363l-96 -544l-114 -14l95 537q9 49 -8 77t-59 28q-47 0 -79.5 -34.5t-41.5 -89.5l-57 -323h-112l68 387q14 88 18 127l113 11q0 -15 -11 -73h2q62 81 157 81q76 0 107 -46t18 -124zM472 890q9 -9 36 -42q-13 -29 -38.5 -49t-54.5 -20q-23 0 -66 15q-42 16 -63 16
q-36 0 -56 -38l-43 38q14 29 43.5 51.5t58.5 22.5q28 0 67 -16t59 -16q37 0 57 38zM398 689q-1 -23 -20 -53t-54 -56q-35 16 -42 19q35 38 35 61q0 34 -45 40l42 70q84 -16 84 -81z" />
    <glyph glyph-name="uni1F27" unicode="&#x1f27;" horiz-adv-x="522" 
d="M494 363l-96 -544l-114 -14l95 537q9 49 -8 77t-59 28q-47 0 -79.5 -34.5t-41.5 -89.5l-57 -323h-112l68 387q14 88 18 127l113 11q0 -15 -11 -73h2q62 81 157 81q76 0 107 -46t18 -124zM475 890q9 -9 36 -42q-13 -29 -38.5 -49t-54.5 -20q-24 0 -66 15q-41 16 -63 16
q-36 0 -56 -38l-43 38q14 29 43.5 51.5t58.5 22.5q28 0 67 -16t59 -16q37 0 57 38zM267 663q2 38 33.5 64t82.5 35l17 -68q-30 -5 -45.5 -19.5t-15.5 -31.5q0 -27 12 -50l-47 -18q-37 36 -37 88z" />
    <glyph glyph-name="uni1F28" unicode="&#x1f28;" horiz-adv-x="623" 
d="M651 718l-126 -718h-118l57 328h-260l-57 -328h-118l126 718h118l-52 -293h260l52 293h118zM-6 516l-45 19q36 36 36 67q0 37 -47 43l45 76q87 -18 87 -82q0 -25 -19 -59.5t-57 -63.5z" />
    <glyph glyph-name="uni1F29" unicode="&#x1f29;" horiz-adv-x="623" 
d="M651 718l-126 -718h-118l57 328h-260l-57 -328h-118l126 718h118l-52 -293h260l52 293h118zM24 532l-50 -19q-38 43 -38 91q0 44 33 74t89 40l16 -76q-49 -7 -60 -40t10 -70z" />
    <glyph glyph-name="uni1F2A" unicode="&#x1f2a;" horiz-adv-x="623" 
d="M651 718l-126 -718h-118l57 328h-260l-57 -328h-118l126 718h118l-52 -293h260l52 293h118zM-102 718h112l55 -185h-71zM-105 641q-1 -24 -20.5 -57t-55.5 -61l-42 20q35 41 35 66q0 37 -46 44l43 75q86 -18 86 -87z" />
    <glyph glyph-name="uni1F2B" unicode="&#x1f2b;" horiz-adv-x="623" 
d="M651 718l-126 -718h-118l57 328h-260l-57 -328h-118l126 718h118l-52 -293h260l52 293h118zM-104 718h112l55 -184h-71zM-251 620q2 43 34.5 71t85.5 38l18 -75q-31 -5 -47 -21t-16 -34q0 -33 12 -55l-49 -20q-38 40 -38 96z" />
    <glyph glyph-name="uni1F2C" unicode="&#x1f2c;" horiz-adv-x="623" 
d="M651 718l-126 -718h-118l57 328h-260l-57 -328h-118l126 718h118l-52 -293h260l52 293h118zM102 716l-156 -181h-71l115 181h112zM-106 646q-3 -25 -22 -57.5t-54 -60.5l-42 20q34 37 34 66q0 37 -46 44l44 75q86 -18 86 -87z" />
    <glyph glyph-name="uni1F2D" unicode="&#x1f2d;" horiz-adv-x="623" 
d="M651 718l-126 -718h-118l57 328h-260l-57 -328h-118l126 718h118l-52 -293h260l52 293h118zM92 719l-155 -187h-71l114 187h112zM-248 620q2 43 34.5 71t85.5 38l18 -75q-31 -5 -47.5 -21.5t-16.5 -35.5q0 -30 14 -53q-12 -4 -50 -20q-38 43 -38 96z" />
    <glyph glyph-name="uni1F2E" unicode="&#x1f2e;" horiz-adv-x="623" 
d="M651 718l-126 -718h-118l57 328h-260l-57 -328h-118l126 718h118l-52 -293h260l52 293h118zM86 768l36 -42q-13 -29 -38.5 -49t-54.5 -20q-23 0 -66 15q-42 16 -63 16q-36 0 -56 -38l-43 38q14 29 43.5 51.5t58.5 22.5q28 0 67 -16t59 -16q37 0 57 38zM12 567
q-1 -23 -20 -53t-54 -56q-35 16 -42 19q35 38 35 61q0 34 -45 40l42 70q84 -16 84 -81z" />
    <glyph glyph-name="uni1F2F" unicode="&#x1f2f;" horiz-adv-x="623" 
d="M651 718l-126 -718h-118l57 328h-260l-57 -328h-118l126 718h118l-52 -293h260l52 293h118zM69 752q9 -9 36 -42q-13 -29 -38.5 -49t-54.5 -20q-23 0 -65 15q-42 16 -64 16q-36 0 -56 -38l-43 38q14 29 43.5 51.5t58.5 22.5q28 0 67 -16t59 -16q37 0 57 38zM-139 525
q2 38 33.5 64t82.5 35l17 -68q-30 -5 -45.5 -19.5t-15.5 -31.5q0 -27 12 -50l-47 -18q-37 36 -37 88z" />
    <glyph glyph-name="uni1F30" unicode="&#x1f30;" horiz-adv-x="233" 
d="M118 -13q-41 0 -60 19.5t-17 49.5t7 66l69 391l115 13l-75 -418q-7 -36 25 -36q14 0 30 6l-26 -77q-31 -14 -68 -14zM196 576l-45 19q36 36 36 67q0 37 -47 43l45 76q87 -18 87 -82q0 -25 -19 -59.5t-57 -63.5z" />
    <glyph glyph-name="uni1F31" unicode="&#x1f31;" horiz-adv-x="233" 
d="M118 -13q-41 0 -60 19.5t-17 49.5t7 66l69 391l115 13l-75 -418q-7 -36 25 -36q14 0 30 6l-26 -77q-31 -14 -68 -14zM223 592l-50 -19q-38 43 -38 91q0 44 33 74t89 40l16 -76q-49 -7 -60 -40t10 -70z" />
    <glyph glyph-name="uni1F32" unicode="&#x1f32;" horiz-adv-x="233" 
d="M116 -13q-41 0 -60 19.5t-17 49.5t7 66l69 391l115 13l-75 -418q-7 -36 25 -36q14 0 30 6l-26 -77q-31 -14 -68 -14zM165 770h112l55 -185h-71zM162 693q-1 -24 -20.5 -57t-55.5 -61l-42 20q35 41 35 66q0 37 -46 44l43 75q86 -18 86 -87z" />
    <glyph glyph-name="uni1F33" unicode="&#x1f33;" horiz-adv-x="233" 
d="M116 -13q-41 0 -60 19.5t-17 49.5t7 66l69 391l115 13l-75 -418q-7 -36 25 -36q14 0 30 6l-26 -77q-31 -14 -68 -14zM170 771h112l55 -184h-71zM23 673q2 43 34.5 71t85.5 38l18 -75q-31 -5 -47 -21t-16 -34q0 -32 12 -55l-49 -20q-38 40 -38 96z" />
    <glyph glyph-name="uni1F34" unicode="&#x1f34;" horiz-adv-x="233" 
d="M118 -13q-41 0 -60 19.5t-17 49.5t7 66l69 391l115 13l-75 -418q-7 -36 25 -36q14 0 30 6l-26 -77q-31 -14 -68 -14zM407 766l-156 -181h-71l115 181h112zM199 696q-3 -25 -22 -57.5t-54 -60.5l-42 20q34 37 34 66q0 37 -46 44l44 75q86 -18 86 -87z" />
    <glyph glyph-name="uni1F35" unicode="&#x1f35;" horiz-adv-x="233" 
d="M118 -13q-41 0 -60 19.5t-17 49.5t7 66l69 391l115 13l-75 -418q-7 -36 25 -36q14 0 30 6l-26 -77q-31 -14 -68 -14zM404 770l-155 -187h-71l114 187h112zM64 671q2 43 34.5 71t85.5 38l18 -75q-31 -5 -47.5 -21.5t-16.5 -35.5q0 -30 14 -53q-12 -4 -50 -20
q-38 43 -38 96z" />
    <glyph glyph-name="uni1F36" unicode="&#x1f36;" horiz-adv-x="233" 
d="M118 -13q-41 0 -60 19.5t-17 49.5t7 66l69 391l115 13l-75 -418q-7 -36 25 -36q14 0 30 6l-26 -77q-31 -14 -68 -14zM349 890q9 -9 36 -42q-13 -29 -38.5 -49t-54.5 -20q-24 0 -66 15q-41 16 -63 16q-36 0 -56 -38l-43 38q14 29 43.5 51.5t58.5 22.5q28 0 67 -16t59 -16
q37 0 57 38zM275 689q-1 -23 -20 -53t-54 -56q-35 16 -42 19q35 38 35 61q0 34 -45 40l42 70q84 -16 84 -81z" />
    <glyph glyph-name="uni1F37" unicode="&#x1f37;" horiz-adv-x="233" 
d="M118 -13q-41 0 -60 19.5t-17 49.5t7 66l69 391l115 13l-75 -418q-7 -36 25 -36q14 0 30 6l-26 -77q-31 -14 -68 -14zM353 890q9 -9 36 -42q-13 -29 -38.5 -49t-54.5 -20q-24 0 -67 15q-41 16 -62 16q-36 0 -56 -38l-43 38q14 29 43.5 51.5t58.5 22.5q28 0 67 -16t59 -16
q37 0 57 38zM145 663q2 38 33.5 64t82.5 35l17 -68q-30 -5 -45.5 -19.5t-15.5 -31.5q0 -27 12 -50l-47 -18q-37 36 -37 88z" />
    <glyph glyph-name="uni1F38" unicode="&#x1f38;" horiz-adv-x="257" 
d="M279 718l-126 -718h-119l126 718h119zM-5 519l-45 19q36 36 36 67q0 37 -47 43l45 76q87 -18 87 -82q0 -25 -19 -59.5t-57 -63.5z" />
    <glyph glyph-name="uni1F39" unicode="&#x1f39;" horiz-adv-x="257" 
d="M279 718l-126 -718h-119l126 718h119zM23 534l-50 -19q-38 43 -38 91q0 44 33 74t89 40l16 -76q-49 -7 -60 -40t10 -70z" />
    <glyph glyph-name="uni1F3A" unicode="&#x1f3a;" horiz-adv-x="257" 
d="M-92 716h112l55 -185h-71zM-95 639q-1 -24 -20.5 -57t-55.5 -61l-42 20q35 41 35 66q0 37 -46 44l43 75q86 -18 86 -87zM279 718l-126 -718h-119l126 718h119z" />
    <glyph glyph-name="uni1F3B" unicode="&#x1f3b;" horiz-adv-x="257" 
d="M-88 718h112l55 -184h-71zM-235 620q2 43 34.5 71t85.5 38l18 -75q-31 -5 -47 -21t-16 -34q0 -33 12 -55l-49 -20q-38 40 -38 96zM279 718l-126 -718h-119l126 718h119z" />
    <glyph glyph-name="uni1F3C" unicode="&#x1f3c;" horiz-adv-x="257" 
d="M107 713l-156 -181h-71l115 181h112zM-101 643q-3 -25 -22 -57.5t-54 -60.5l-42 20q34 37 34 66q0 37 -46 44l44 75q86 -18 86 -87zM279 718l-126 -718h-119l126 718h119z" />
    <glyph glyph-name="uni1F3D" unicode="&#x1f3d;" horiz-adv-x="257" 
d="M102 719l-155 -187h-71l114 187h112zM-238 620q2 43 34.5 71t85.5 38l18 -75q-31 -5 -47.5 -21.5t-16.5 -35.5q0 -30 14 -53q-12 -4 -50 -20q-38 43 -38 96zM279 718l-126 -718h-119l126 718h119z" />
    <glyph glyph-name="uni1F3E" unicode="&#x1f3e;" horiz-adv-x="257" 
d="M279 718l-126 -718h-119l126 718h119zM78 768l36 -42q-13 -29 -38.5 -49t-54.5 -20q-23 0 -66 15q-42 16 -63 16q-36 0 -56 -38l-43 38q14 29 43.5 51.5t58.5 22.5q28 0 67 -16t59 -16q37 0 57 38zM4 567q-1 -23 -20 -53t-54 -56q-35 16 -42 19q35 38 35 61q0 34 -45 40
l42 70q84 -16 84 -81z" />
    <glyph glyph-name="uni1F3F" unicode="&#x1f3f;" horiz-adv-x="257" 
d="M279 718l-126 -718h-119l126 718h119zM85 766q9 -9 36 -42q-13 -29 -38.5 -49t-54.5 -20q-23 0 -65 15q-42 16 -64 16q-36 0 -56 -38l-43 38q14 29 43.5 51.5t58.5 22.5q28 0 67 -16t59 -16q37 0 57 38zM-123 539q2 38 33.5 64t82.5 35l17 -68q-30 -5 -45.5 -19.5
t-15.5 -31.5q0 -27 12 -50l-47 -18q-37 36 -37 88z" />
    <glyph glyph-name="uni1F40" unicode="&#x1f40;" horiz-adv-x="519" 
d="M495 259q-21 -129 -92.5 -201t-181.5 -72q-92 0 -139 50t-47 143q0 157 78 255q79 99 204 99q92 0 138.5 -50.5t46.5 -144.5q0 -43 -7 -79zM303 448q-66 0 -109 -76q-42 -75 -42 -190q0 -112 84 -112q65 0 109 74q44 76 44 191q0 113 -86 113zM341 576l-45 19
q36 36 36 67q0 37 -47 43l45 76q87 -18 87 -82q0 -25 -19 -59.5t-57 -63.5z" />
    <glyph glyph-name="uni1F41" unicode="&#x1f41;" horiz-adv-x="519" 
d="M495 259q-21 -129 -92.5 -201t-181.5 -72q-92 0 -139 50t-47 143q0 157 78 255q79 99 204 99q92 0 138.5 -50.5t46.5 -144.5q0 -43 -7 -79zM303 448q-66 0 -109 -76q-42 -75 -42 -190q0 -112 84 -112q65 0 109 74q44 76 44 191q0 113 -86 113zM368 592l-50 -19
q-38 43 -38 91q0 44 33 74t89 40l16 -76q-49 -7 -60 -40t10 -70z" />
    <glyph glyph-name="uni1F42" unicode="&#x1f42;" horiz-adv-x="519" 
d="M495 259q-21 -129 -92.5 -201t-181.5 -72q-92 0 -139 50t-47 143q0 157 78 255q79 99 204 99q92 0 138.5 -50.5t46.5 -144.5q0 -43 -7 -79zM303 448q-66 0 -109 -76q-42 -75 -42 -190q0 -112 84 -112q65 0 109 74q44 76 44 191q0 113 -86 113zM313 770h112l55 -185h-71z
M310 693q-1 -24 -20.5 -57t-55.5 -61l-42 20q35 41 35 66q0 37 -46 44l43 75q86 -18 86 -87z" />
    <glyph glyph-name="uni1F43" unicode="&#x1f43;" horiz-adv-x="519" 
d="M495 259q-21 -129 -92.5 -201t-181.5 -72q-92 0 -139 50t-47 143q0 157 78 255q79 99 204 99q92 0 138.5 -50.5t46.5 -144.5q0 -43 -7 -79zM303 448q-66 0 -109 -76q-42 -75 -42 -190q0 -112 84 -112q65 0 109 74q44 76 44 191q0 113 -86 113zM323 769h112l55 -184h-71z
M176 671q2 43 34.5 71t85.5 38l18 -75q-31 -5 -47 -21t-16 -34q0 -32 12 -55l-49 -20q-38 40 -38 96z" />
    <glyph glyph-name="uni1F44" unicode="&#x1f44;" horiz-adv-x="519" 
d="M495 259q-21 -129 -92.5 -201t-181.5 -72q-92 0 -139 50t-47 143q0 157 78 255q79 99 204 99q92 0 138.5 -50.5t46.5 -144.5q0 -43 -7 -79zM303 448q-66 0 -109 -76q-42 -75 -42 -190q0 -112 84 -112q65 0 109 74q44 76 44 191q0 113 -86 113zM563 763l-156 -181h-71
l115 181h112zM355 693q-3 -25 -22 -57.5t-54 -60.5l-42 20q34 37 34 66q0 37 -46 44l44 75q86 -18 86 -87z" />
    <glyph glyph-name="uni1F45" unicode="&#x1f45;" horiz-adv-x="519" 
d="M495 259q-21 -129 -92.5 -201t-181.5 -72q-92 0 -139 50t-47 143q0 157 78 255q79 99 204 99q92 0 138.5 -50.5t46.5 -144.5q0 -43 -7 -79zM303 448q-66 0 -109 -76q-42 -75 -42 -190q0 -112 84 -112q65 0 109 74q44 76 44 191q0 113 -86 113zM553 770l-155 -187h-71
l114 187h112zM213 671q2 43 34.5 71t85.5 38l18 -75q-31 -5 -47.5 -21.5t-16.5 -35.5q0 -30 14 -53q-12 -4 -50 -20q-38 43 -38 96z" />
    <glyph glyph-name="uni1F48" unicode="&#x1f48;" horiz-adv-x="665" 
d="M424 732q232 0 232 -256q0 -50 -10 -117q-58 -373 -351 -373q-232 0 -232 249q0 57 12 124q30 181 118 277t231 96zM523 358q12 64 12 118q0 163 -126 163q-163 0 -212 -280q-12 -65 -12 -118q0 -162 125 -162q165 0 213 279zM-2 522l-45 19q36 36 36 67q0 37 -47 43
l45 76q87 -18 87 -82q0 -25 -19 -59.5t-57 -63.5z" />
    <glyph glyph-name="uni1F49" unicode="&#x1f49;" horiz-adv-x="665" 
d="M424 732q232 0 232 -256q0 -50 -10 -117q-58 -373 -351 -373q-232 0 -232 249q0 57 12 124q30 181 118 277t231 96zM523 358q12 64 12 118q0 163 -126 163q-163 0 -212 -280q-12 -65 -12 -118q0 -162 125 -162q165 0 213 279zM36 538l-50 -19q-38 43 -38 91q0 44 33 74
t89 40l16 -76q-49 -7 -60 -40t10 -70z" />
    <glyph glyph-name="uni1F4A" unicode="&#x1f4a;" horiz-adv-x="665" 
d="M424 732q232 0 232 -256q0 -50 -10 -117q-58 -373 -351 -373q-232 0 -232 249q0 57 12 124q30 181 118 277t231 96zM523 358q12 64 12 118q0 163 -126 163q-163 0 -212 -280q-12 -65 -12 -118q0 -162 125 -162q165 0 213 279zM-95 718h112l55 -185h-71zM-98 641
q-1 -24 -20.5 -57t-55.5 -61l-42 20q35 41 35 66q0 37 -46 44l43 75q86 -18 86 -87z" />
    <glyph glyph-name="uni1F4B" unicode="&#x1f4b;" horiz-adv-x="665" 
d="M424 732q232 0 232 -256q0 -50 -10 -117q-58 -373 -351 -373q-232 0 -232 249q0 57 12 124q30 181 118 277t231 96zM523 358q12 64 12 118q0 163 -126 163q-163 0 -212 -280q-12 -65 -12 -118q0 -162 125 -162q165 0 213 279zM-95 718h112l55 -184h-71zM-242 620
q2 43 34.5 71t85.5 38l18 -75q-31 -5 -47 -21t-16 -34q0 -33 12 -55l-49 -20q-38 40 -38 96z" />
    <glyph glyph-name="uni1F4C" unicode="&#x1f4c;" horiz-adv-x="665" 
d="M424 732q232 0 232 -256q0 -50 -10 -117q-58 -373 -351 -373q-232 0 -232 249q0 57 12 124q30 181 118 277t231 96zM523 358q12 64 12 118q0 163 -126 163q-163 0 -212 -280q-12 -65 -12 -118q0 -162 125 -162q165 0 213 279zM135 714l-156 -181h-71l115 181h112z
M-73 644q-3 -25 -22 -57.5t-54 -60.5l-42 20q34 37 34 66q0 37 -46 44l44 75q86 -18 86 -87z" />
    <glyph glyph-name="uni1F4D" unicode="&#x1f4d;" horiz-adv-x="665" 
d="M424 732q232 0 232 -256q0 -50 -10 -117q-58 -373 -351 -373q-232 0 -232 249q0 57 12 124q30 181 118 277t231 96zM523 358q12 64 12 118q0 163 -126 163q-163 0 -212 -280q-12 -65 -12 -118q0 -162 125 -162q165 0 213 279zM144 718l-155 -187h-71l114 187h112z
M-196 619q2 43 34.5 71t85.5 38l18 -75q-31 -5 -47.5 -21.5t-16.5 -35.5q0 -30 14 -53q-12 -4 -50 -20q-38 43 -38 96z" />
    <glyph glyph-name="uni1F50" unicode="&#x1f50;" horiz-adv-x="534" 
d="M470 513l114 12l-53 -300q-21 -113 -83.5 -175.5t-161.5 -62.5q-221 0 -179 237l52 295h112l-57 -320q-10 -57 8.5 -91.5t67.5 -34.5q51 0 83 34t42 91zM379 576l-45 19q36 36 36 67q0 37 -47 43l45 76q87 -18 87 -82q0 -25 -19 -59.5t-57 -63.5z" />
    <glyph glyph-name="uni1F51" unicode="&#x1f51;" horiz-adv-x="534" 
d="M470 513l114 12l-53 -300q-21 -113 -83.5 -175.5t-161.5 -62.5q-221 0 -179 237l52 295h112l-57 -320q-10 -57 8.5 -91.5t67.5 -34.5q51 0 83 34t42 91zM410 592l-50 -19q-38 43 -38 91q0 44 33 74t89 40l16 -76q-49 -7 -60 -40t10 -70z" />
    <glyph glyph-name="uni1F52" unicode="&#x1f52;" horiz-adv-x="534" 
d="M470 513l114 12l-53 -300q-21 -113 -83.5 -175.5t-161.5 -62.5q-221 0 -179 237l52 295h112l-57 -320q-10 -57 8.5 -91.5t67.5 -34.5q51 0 83 34t42 91zM363 770h112l55 -185h-71zM360 693q-1 -24 -20.5 -57t-55.5 -61l-42 20q35 41 35 66q0 37 -46 44l43 75
q86 -18 86 -87z" />
    <glyph glyph-name="uni1F53" unicode="&#x1f53;" horiz-adv-x="534" 
d="M470 513l114 12l-53 -300q-21 -113 -83.5 -175.5t-161.5 -62.5q-221 0 -179 237l52 295h112l-57 -320q-10 -57 8.5 -91.5t67.5 -34.5q51 0 83 34t42 91zM367 769h112l55 -184h-71zM220 671q2 43 34.5 71t85.5 38l18 -75q-31 -5 -47 -21t-16 -34q0 -32 12 -55l-49 -20
q-38 40 -38 96z" />
    <glyph glyph-name="uni1F54" unicode="&#x1f54;" horiz-adv-x="534" 
d="M470 513l114 12l-53 -300q-21 -113 -83.5 -175.5t-161.5 -62.5q-221 0 -179 237l52 295h112l-57 -320q-10 -57 8.5 -91.5t67.5 -34.5q51 0 83 34t42 91zM600 763l-156 -181h-71l115 181h112zM392 693q-3 -25 -22 -57.5t-54 -60.5l-42 20q34 37 34 66q0 37 -46 44l44 75
q86 -18 86 -87z" />
    <glyph glyph-name="uni1F55" unicode="&#x1f55;" horiz-adv-x="534" 
d="M470 513l114 12l-53 -300q-21 -113 -83.5 -175.5t-161.5 -62.5q-221 0 -179 237l52 295h112l-57 -320q-10 -57 8.5 -91.5t67.5 -34.5q51 0 83 34t42 91zM591 770l-155 -187h-71l114 187h112zM251 671q2 43 34.5 71t85.5 38l18 -75q-31 -5 -47.5 -21.5t-16.5 -35.5
q0 -30 14 -53q-12 -4 -50 -20q-38 43 -38 96z" />
    <glyph glyph-name="uni1F56" unicode="&#x1f56;" horiz-adv-x="534" 
d="M542 890q9 -9 36 -42q-13 -29 -38.5 -49t-54.5 -20q-23 0 -66 15q-41 16 -63 16q-36 0 -56 -38l-43 38q14 29 43.5 51.5t58.5 22.5q28 0 67 -16t59 -16q37 0 57 38zM468 689q-1 -23 -20 -53t-54 -56q-35 16 -42 19q35 38 35 61q0 34 -45 40l42 70q84 -16 84 -81zM470 513
l114 12l-53 -300q-21 -113 -83.5 -175.5t-161.5 -62.5q-221 0 -179 237l52 295h112l-57 -320q-10 -57 8.5 -91.5t67.5 -34.5q51 0 83 34t42 91z" />
    <glyph glyph-name="uni1F57" unicode="&#x1f57;" horiz-adv-x="534" 
d="M545 890q9 -9 36 -42q-13 -29 -38.5 -49t-54.5 -20q-22 0 -66 15q-41 16 -63 16q-36 0 -56 -38l-43 38q14 29 43.5 51.5t58.5 22.5q28 0 67 -16t59 -16q37 0 57 38zM337 663q2 38 33.5 64t82.5 35l17 -68q-30 -5 -45.5 -19.5t-15.5 -31.5q0 -27 12 -50l-47 -18
q-37 36 -37 88zM470 513l114 12l-53 -300q-21 -113 -83.5 -175.5t-161.5 -62.5q-221 0 -179 237l52 295h112l-57 -320q-10 -57 8.5 -91.5t67.5 -34.5q51 0 83 34t42 91z" />
    <glyph glyph-name="uni1F59" unicode="&#x1f59;" horiz-adv-x="564" 
d="M518 718h133l-295 -436l-50 -282h-118l49 281l-142 437h130l62 -232q14 -47 22 -108l2 2q18 37 61 106zM0 538l-50 -19q-38 43 -38 91q0 44 33 74t89 40l16 -76q-49 -7 -60 -40t10 -70z" />
    <glyph glyph-name="uni1F5B" unicode="&#x1f5b;" horiz-adv-x="564" 
d="M518 718h133l-295 -436l-50 -282h-118l49 281l-142 437h130l62 -232q14 -47 22 -108l2 2q18 37 61 106zM-105 717h112l55 -184h-71zM-252 619q2 43 34.5 71t85.5 38l18 -75q-31 -5 -47 -21t-16 -34q0 -32 12 -55l-49 -20q-38 40 -38 96z" />
    <glyph glyph-name="uni1F5D" unicode="&#x1f5d;" horiz-adv-x="564" 
d="M518 718h133l-295 -436l-50 -282h-118l49 281l-142 437h130l62 -232q14 -47 22 -108l2 2q18 37 61 106zM59 718l-155 -187h-71l114 187h112zM-281 619q2 43 34.5 71t85.5 38l18 -75q-31 -5 -47.5 -21.5t-16.5 -35.5q0 -30 14 -53q-12 -4 -50 -20q-38 43 -38 96z" />
    <glyph glyph-name="uni1F5F" unicode="&#x1f5f;" horiz-adv-x="564" 
d="M518 718h133l-295 -436l-50 -282h-118l49 281l-142 437h130l62 -232q14 -47 22 -108l2 2q18 37 61 106zM32 768l36 -42q-13 -29 -38.5 -49t-54.5 -20q-23 0 -66 15q-42 16 -63 16q-36 0 -56 -38l-43 38q14 29 43.5 51.5t58.5 22.5q28 0 67 -16t59 -16q37 0 57 38z
M-176 541q2 38 33.5 64t82.5 35l17 -68q-30 -5 -45.5 -19.5t-15.5 -31.5q0 -27 12 -50l-47 -18q-37 36 -37 88z" />
    <glyph glyph-name="uni1F60" unicode="&#x1f60;" horiz-adv-x="726" 
d="M705 263q-22 -131 -87 -203.5t-161 -72.5q-101 0 -118 78q-53 -78 -149 -78q-76 0 -115.5 47t-39.5 136q0 42 9 93q46 262 232 269q1 -12 8 -50l7 -36h-7q-92 0 -127 -194q-8 -50 -8 -76q0 -50 17 -77t45 -27q52 0 84 72q13 30 23 97q2 8 8 52l7 47h110q-1 -8 -6 -34.5
t-10.5 -59t-11.5 -67.5q-4 -23 -4 -36q0 -34 16 -52.5t44 -18.5q39 0 70.5 45.5t46.5 133.5q10 59 10 97q0 98 -68 98h-7l30 84q76 0 117.5 -48t41.5 -140q0 -43 -7 -79zM421 576l-45 19q36 36 36 67q0 37 -47 43l45 76q87 -18 87 -82q0 -25 -19 -59.5t-57 -63.5z" />
    <glyph glyph-name="uni1F61" unicode="&#x1f61;" horiz-adv-x="726" 
d="M705 263q-22 -131 -87 -203.5t-161 -72.5q-101 0 -118 78q-53 -78 -149 -78q-76 0 -115.5 47t-39.5 136q0 42 9 93q46 262 232 269q1 -12 8 -50l7 -36h-7q-92 0 -127 -194q-8 -50 -8 -76q0 -50 17 -77t45 -27q52 0 84 72q13 30 23 97q2 8 8 52l7 47h110q-1 -8 -6 -34.5
t-10.5 -59t-11.5 -67.5q-4 -23 -4 -36q0 -34 16 -52.5t44 -18.5q39 0 70.5 45.5t46.5 133.5q10 59 10 97q0 98 -68 98h-7l30 84q76 0 117.5 -48t41.5 -140q0 -43 -7 -79zM452 592l-50 -19q-38 43 -38 91q0 44 33 74t89 40l16 -76q-49 -7 -60 -40t10 -70z" />
    <glyph glyph-name="uni1F62" unicode="&#x1f62;" horiz-adv-x="726" 
d="M705 263q-22 -131 -87 -203.5t-161 -72.5q-101 0 -118 78q-53 -78 -149 -78q-76 0 -115.5 47t-39.5 136q0 42 9 93q46 262 232 269q1 -12 8 -50l7 -36h-7q-92 0 -127 -194q-8 -50 -8 -76q0 -50 17 -77t45 -27q52 0 84 72q13 30 23 97q2 8 8 52l7 47h110q-1 -8 -6 -34.5
t-10.5 -59t-11.5 -67.5q-4 -23 -4 -36q0 -34 16 -52.5t44 -18.5q39 0 70.5 45.5t46.5 133.5q10 59 10 97q0 98 -68 98h-7l30 84q76 0 117.5 -48t41.5 -140q0 -43 -7 -79zM411 770h112l55 -185h-71zM408 693q-1 -24 -20.5 -57t-55.5 -61l-42 20q35 41 35 66q0 37 -46 44
l43 75q86 -18 86 -87z" />
    <glyph glyph-name="uni1F63" unicode="&#x1f63;" horiz-adv-x="726" 
d="M705 263q-22 -131 -87 -203.5t-161 -72.5q-101 0 -118 78q-53 -78 -149 -78q-76 0 -115.5 47t-39.5 136q0 42 9 93q46 262 232 269q1 -12 8 -50l7 -36h-7q-92 0 -127 -194q-8 -50 -8 -76q0 -50 17 -77t45 -27q52 0 84 72q13 30 23 97q2 8 8 52l7 47h110q-1 -8 -6 -34.5
t-10.5 -59t-11.5 -67.5q-4 -23 -4 -36q0 -34 16 -52.5t44 -18.5q39 0 70.5 45.5t46.5 133.5q10 59 10 97q0 98 -68 98h-7l30 84q76 0 117.5 -48t41.5 -140q0 -43 -7 -79zM415 769h112l55 -184h-71zM268 671q2 43 34.5 71t85.5 38l18 -75q-31 -5 -47 -21t-16 -34
q0 -32 12 -55l-49 -20q-38 40 -38 96z" />
    <glyph glyph-name="uni1F64" unicode="&#x1f64;" horiz-adv-x="726" 
d="M705 263q-22 -131 -87 -203.5t-161 -72.5q-101 0 -118 78q-53 -78 -149 -78q-76 0 -115.5 47t-39.5 136q0 42 9 93q46 262 232 269q1 -12 8 -50l7 -36h-7q-92 0 -127 -194q-8 -50 -8 -76q0 -50 17 -77t45 -27q52 0 84 72q13 30 23 97q2 8 8 52l7 47h110q-1 -8 -6 -34.5
t-10.5 -59t-11.5 -67.5q-4 -23 -4 -36q0 -34 16 -52.5t44 -18.5q39 0 70.5 45.5t46.5 133.5q10 59 10 97q0 98 -68 98h-7l30 84q76 0 117.5 -48t41.5 -140q0 -43 -7 -79zM655 763l-156 -181h-71l115 181h112zM447 693q-3 -25 -22 -57.5t-54 -60.5l-42 20q34 37 34 66
q0 37 -46 44l44 75q86 -18 86 -87z" />
    <glyph glyph-name="uni1F65" unicode="&#x1f65;" horiz-adv-x="726" 
d="M705 263q-22 -131 -87 -203.5t-161 -72.5q-101 0 -118 78q-53 -78 -149 -78q-76 0 -115.5 47t-39.5 136q0 42 9 93q46 262 232 269q1 -12 8 -50l7 -36h-7q-92 0 -127 -194q-8 -50 -8 -76q0 -50 17 -77t45 -27q52 0 84 72q13 30 23 97q2 8 8 52l7 47h110q-1 -8 -6 -34.5
t-10.5 -59t-11.5 -67.5q-4 -23 -4 -36q0 -34 16 -52.5t44 -18.5q39 0 70.5 45.5t46.5 133.5q10 59 10 97q0 98 -68 98h-7l30 84q76 0 117.5 -48t41.5 -140q0 -43 -7 -79zM647 770l-155 -187h-71l114 187h112zM307 671q2 43 34.5 71t85.5 38l18 -75q-31 -5 -47.5 -21.5
t-16.5 -35.5q0 -30 14 -53q-12 -4 -50 -20q-38 43 -38 96z" />
    <glyph glyph-name="uni1F66" unicode="&#x1f66;" horiz-adv-x="726" 
d="M705 263q-22 -131 -87 -203.5t-161 -72.5q-101 0 -118 78q-53 -78 -149 -78q-76 0 -115.5 47t-39.5 136q0 42 9 93q46 262 232 269q1 -12 8 -50l7 -36h-7q-92 0 -127 -194q-8 -50 -8 -76q0 -50 17 -77t45 -27q52 0 84 72q13 30 23 97q2 8 8 52l7 47h110q-1 -8 -6 -34.5
t-10.5 -59t-11.5 -67.5q-4 -23 -4 -36q0 -34 16 -52.5t44 -18.5q39 0 70.5 45.5t46.5 133.5q10 59 10 97q0 98 -68 98h-7l30 84q76 0 117.5 -48t41.5 -140q0 -43 -7 -79zM582 887q9 -9 36 -42q-13 -29 -38.5 -49t-54.5 -20q-23 0 -67 15q-41 16 -62 16q-36 0 -56 -38l-43 38
q14 29 43.5 51.5t58.5 22.5q28 0 67 -16t59 -16q37 0 57 38zM508 686q-1 -23 -20 -53t-54 -56q-35 16 -42 19q35 38 35 61q0 34 -45 40l42 70q84 -17 84 -81z" />
    <glyph glyph-name="uni1F67" unicode="&#x1f67;" horiz-adv-x="726" 
d="M705 263q-22 -131 -87 -203.5t-161 -72.5q-101 0 -118 78q-53 -78 -149 -78q-76 0 -115.5 47t-39.5 136q0 42 9 93q46 262 232 269q1 -12 8 -50l7 -36h-7q-92 0 -127 -194q-8 -50 -8 -76q0 -50 17 -77t45 -27q52 0 84 72q13 30 23 97q2 8 8 52l7 47h110q-1 -8 -6 -34.5
t-10.5 -59t-11.5 -67.5q-4 -23 -4 -36q0 -34 16 -52.5t44 -18.5q39 0 70.5 45.5t46.5 133.5q10 59 10 97q0 98 -68 98h-7l30 84q76 0 117.5 -48t41.5 -140q0 -43 -7 -79zM581 887q9 -9 36 -42q-13 -29 -38.5 -49t-54.5 -20q-24 0 -66 15q-41 16 -63 16q-36 0 -56 -38l-43 38
q14 29 43.5 51.5t58.5 22.5q28 0 67 -16t59 -16q37 0 57 38zM373 660q2 38 33.5 64t82.5 35l17 -68q-30 -5 -45.5 -19.5t-15.5 -31.5q0 -28 12 -50l-47 -18q-37 36 -37 88z" />
    <glyph glyph-name="uni1F68" unicode="&#x1f68;" horiz-adv-x="676" 
d="M424 731q120 0 179.5 -69.5t59.5 -196.5q0 -124 -43.5 -220t-121.5 -150q12 1 53 1h57q-14 -76 -17 -96h-252q5 24 19 111q132 31 176 267q9 53 9 97q0 165 -128 165q-165 0 -212 -261q-11 -68 -11 -107q0 -136 91 -161l-19 -111h-251l16 96h60q45 0 57 -1
q-75 59 -75 196q0 44 9 92q30 169 116 258.5t228 89.5zM6 522l-45 19q36 36 36 67q0 37 -47 43l45 76q87 -18 87 -82q0 -25 -19 -59.5t-57 -63.5z" />
    <glyph glyph-name="uni1F69" unicode="&#x1f69;" horiz-adv-x="676" 
d="M424 731q120 0 179.5 -69.5t59.5 -196.5q0 -124 -43.5 -220t-121.5 -150q12 1 53 1h57q-14 -76 -17 -96h-252q5 24 19 111q132 31 176 267q9 53 9 97q0 165 -128 165q-165 0 -212 -261q-11 -68 -11 -107q0 -136 91 -161l-19 -111h-251l16 96h60q45 0 57 -1
q-75 59 -75 196q0 44 9 92q30 169 116 258.5t228 89.5zM32 538l-50 -19q-38 43 -38 91q0 44 33 74t89 40l16 -76q-49 -7 -60 -40t10 -70z" />
    <glyph glyph-name="uni1F6A" unicode="&#x1f6a;" horiz-adv-x="676" 
d="M424 731q120 0 179.5 -69.5t59.5 -196.5q0 -124 -43.5 -220t-121.5 -150q12 1 53 1h57q-14 -76 -17 -96h-252q5 24 19 111q132 31 176 267q9 53 9 97q0 165 -128 165q-165 0 -212 -261q-11 -68 -11 -107q0 -136 91 -161l-19 -111h-251l16 96h60q45 0 57 -1
q-75 59 -75 196q0 44 9 92q30 169 116 258.5t228 89.5zM-103 718h112l55 -185h-71zM-106 641q-1 -24 -20.5 -57t-55.5 -61l-42 20q35 41 35 66q0 37 -46 44l43 75q86 -18 86 -87z" />
    <glyph glyph-name="uni1F6B" unicode="&#x1f6b;" horiz-adv-x="676" 
d="M424 731q120 0 179.5 -69.5t59.5 -196.5q0 -124 -43.5 -220t-121.5 -150q12 1 53 1h57q-14 -76 -17 -96h-252q5 24 19 111q132 31 176 267q9 53 9 97q0 165 -128 165q-165 0 -212 -261q-11 -68 -11 -107q0 -136 91 -161l-19 -111h-251l16 96h60q45 0 57 -1
q-75 59 -75 196q0 44 9 92q30 169 116 258.5t228 89.5zM-110 717h112l55 -184h-71zM-257 619q2 43 34.5 71t85.5 38l18 -75q-31 -5 -47 -21t-16 -34q0 -32 12 -55l-49 -20q-38 40 -38 96z" />
    <glyph glyph-name="uni1F6C" unicode="&#x1f6c;" horiz-adv-x="676" 
d="M424 731q120 0 179.5 -69.5t59.5 -196.5q0 -124 -43.5 -220t-121.5 -150q12 1 53 1h57q-14 -76 -17 -96h-252q5 24 19 111q132 31 176 267q9 53 9 97q0 165 -128 165q-165 0 -212 -261q-11 -68 -11 -107q0 -136 91 -161l-19 -111h-251l16 96h60q45 0 57 -1
q-75 59 -75 196q0 44 9 92q30 169 116 258.5t228 89.5zM135 714l-156 -181h-71l115 181h112zM-73 644q-3 -25 -22 -57.5t-54 -60.5l-42 20q34 37 34 66q0 37 -46 44l44 75q86 -18 86 -87z" />
    <glyph glyph-name="uni1F6D" unicode="&#x1f6d;" horiz-adv-x="676" 
d="M424 731q120 0 179.5 -69.5t59.5 -196.5q0 -124 -43.5 -220t-121.5 -150q12 1 53 1h57q-14 -76 -17 -96h-252q5 24 19 111q132 31 176 267q9 53 9 97q0 165 -128 165q-165 0 -212 -261q-11 -68 -11 -107q0 -136 91 -161l-19 -111h-251l16 96h60q45 0 57 -1
q-75 59 -75 196q0 44 9 92q30 169 116 258.5t228 89.5zM142 718l-155 -187h-71l114 187h112zM-198 619q2 43 34.5 71t85.5 38l18 -75q-31 -5 -47.5 -21.5t-16.5 -35.5q0 -30 14 -53q-12 -4 -50 -20q-38 43 -38 96z" />
    <glyph glyph-name="uni1F6E" unicode="&#x1f6e;" horiz-adv-x="676" 
d="M424 731q120 0 179.5 -69.5t59.5 -196.5q0 -124 -43.5 -220t-121.5 -150q12 1 53 1h57q-14 -76 -17 -96h-252q5 24 19 111q132 31 176 267q9 53 9 97q0 165 -128 165q-165 0 -212 -261q-11 -68 -11 -107q0 -136 91 -161l-19 -111h-251l16 96h60q45 0 57 -1
q-75 59 -75 196q0 44 9 92q30 169 116 258.5t228 89.5zM120 768q9 -9 36 -42q-13 -29 -38.5 -49t-54.5 -20q-23 0 -66 15q-42 16 -63 16q-36 0 -56 -38l-43 38q14 29 43.5 51.5t58.5 22.5q28 0 67 -16t59 -16q37 0 57 38zM46 567q-1 -23 -20 -53t-54 -56q-35 16 -42 19
q35 38 35 61q0 34 -45 40l42 70q84 -16 84 -81z" />
    </font>
</defs>
</svg>
